<svg width="168" height="104" viewBox="0 0 168 104" fill="none" xmlns="http://www.w3.org/2000/svg">
<path d="M159.14 65.6193C153.203 80.9953 142.04 94.4614 126.534 100.381C124.518 101.149 122.458 101.801 120.367 102.334C109.305 105.154 97.2023 104.173 87.0047 99.0338C82.6767 96.8508 78.7301 93.9663 74.3864 91.8147C70.0427 89.6631 65.0824 88.2548 60.3546 89.3169C56.284 90.2314 52.8495 92.852 49.3915 95.1865C41.2397 100.69 31.438 105.046 21.7852 103.155C17.3435 102.287 12.9698 99.8803 10.907 95.858C6.34773 86.9655 14.9463 76.3929 13.2049 66.5585C12.0906 60.2644 7.00092 55.551 3.83688 49.9963C-1.57805 40.4976 -0.937927 27.8741 5.41106 18.9712C11.76 10.0682 23.4809 5.34568 34.2271 7.36533C47.3301 9.82785 57.2389 20.919 69.9813 24.842C77.9502 27.2941 86.6023 26.5625 94.2133 23.3332C106.51 18.1142 123.404 10.11 137.243 11.4138C144.602 12.1075 151.819 15.3734 156.676 20.9503C162.816 27.9904 164.657 37.9855 163.633 47.2686C162.93 53.5531 161.42 59.7208 159.14 65.6193Z" fill="#F4FBFF"/>
<path d="M163.091 77.779C162.818 77.7787 162.546 77.7458 162.281 77.6811C161.442 77.475 160.714 76.9566 160.245 76.2318C159.776 75.5071 159.601 74.6305 159.756 73.7812C159.911 72.9319 160.385 72.1738 161.08 71.6618C161.775 71.1498 162.64 70.9224 163.497 71.0261C164.354 71.1298 165.139 71.5567 165.692 72.2197C166.245 72.8827 166.524 73.7318 166.472 74.5937C166.42 75.4555 166.042 76.265 165.413 76.857C164.785 77.449 163.954 77.7788 163.091 77.779ZM163.091 72.53C162.642 72.5317 162.209 72.6976 161.873 72.9964C161.538 73.2952 161.323 73.7062 161.27 74.1522C161.217 74.5981 161.328 75.0482 161.584 75.4176C161.839 75.787 162.221 76.0503 162.657 76.1578C162.909 76.2185 163.172 76.2251 163.427 76.177C163.682 76.129 163.924 76.0275 164.137 75.8792C164.351 75.7309 164.53 75.5391 164.664 75.3165C164.797 75.0939 164.882 74.8456 164.913 74.5877C164.944 74.3299 164.92 74.0685 164.842 73.8207C164.765 73.5728 164.636 73.3442 164.464 73.1498C164.292 72.9554 164.08 72.7997 163.844 72.6929C163.607 72.5861 163.35 72.5306 163.091 72.53Z" fill="#E7F6FF"/>
<path d="M159.998 81.3731C160.191 80.5787 159.703 79.7786 158.908 79.5859C158.114 79.3933 157.314 79.8811 157.121 80.6756C156.929 81.47 157.416 82.2702 158.211 82.4628C159.005 82.6554 159.805 82.1676 159.998 81.3731Z" fill="#E7F6FF"/>
<path d="M7.20991 77.4564C6.31263 77.4368 5.45929 77.064 4.83515 76.4191C4.21101 75.7741 3.86644 74.909 3.87624 74.0116C3.88605 73.1142 4.24943 72.2568 4.88752 71.6257C5.5256 70.9945 6.38688 70.6405 7.28437 70.6405C8.18187 70.6405 9.04315 70.9945 9.68123 71.6257C10.3193 72.2568 10.6827 73.1142 10.6925 74.0116C10.7023 74.909 10.3577 75.7741 9.7336 76.4191C9.10946 77.064 8.25612 77.4368 7.35884 77.4564H7.20991ZM7.20991 72.2086H7.13283C6.64822 72.2191 6.1873 72.4204 5.85016 72.7686C5.51301 73.1169 5.32686 73.5841 5.3321 74.0688C5.33735 74.5535 5.53358 75.0166 5.87818 75.3575C6.22279 75.6984 6.68795 75.8896 7.17268 75.8896C7.65741 75.8896 8.12257 75.6984 8.46717 75.3575C8.81178 75.0166 9.00801 74.5535 9.01325 74.0688C9.0185 73.5841 8.83234 73.1169 8.4952 72.7686C8.15805 72.4204 7.69714 72.2191 7.21252 72.2086H7.20991Z" fill="#E7F6FF"/>
<path d="M4.7796 83.1762C5.59629 83.1409 6.22979 82.4503 6.19456 81.6336C6.15934 80.8169 5.46872 80.1834 4.65203 80.2187C3.83534 80.2539 3.20184 80.9445 3.23707 81.7612C3.2723 82.5779 3.96291 83.2114 4.7796 83.1762Z" fill="#E7F6FF"/>
<path d="M92.6325 22.3534C91.8192 22.3546 91.0324 22.0645 90.4144 21.5358C89.7964 21.0071 89.3881 20.2746 89.2635 19.4709C89.1388 18.6672 89.3059 17.8454 89.7346 17.1543C90.1634 16.4632 90.8254 15.9484 91.6008 15.7031C92.3762 15.4578 93.2138 15.4982 93.962 15.817C94.7103 16.1358 95.3196 16.7119 95.6799 17.441C96.0401 18.1702 96.1274 19.0042 95.926 19.7922C95.7245 20.5802 95.2476 21.27 94.5816 21.7368C94.0104 22.1371 93.3301 22.3523 92.6325 22.3534ZM92.6221 17.1057C92.1462 17.1052 91.6885 17.2884 91.3444 17.617C91.0002 17.9457 90.7962 18.3945 90.7748 18.8699C90.7534 19.3453 90.9164 19.8106 91.2296 20.1688C91.5429 20.5271 91.9823 20.7506 92.4563 20.7928C92.9303 20.835 93.4023 20.6927 93.7739 20.3955C94.1456 20.0982 94.3882 19.669 94.4511 19.1973C94.5141 18.7257 94.3926 18.2479 94.112 17.8635C93.8314 17.4792 93.4132 17.218 92.9448 17.1344C92.8382 17.1154 92.7303 17.1058 92.6221 17.1057Z" fill="#E7F6FF"/>
<path d="M85.6843 22.1664C86.3536 21.697 86.5157 20.774 86.0463 20.1047C85.577 19.4354 84.654 19.2733 83.9847 19.7427C83.3154 20.212 83.1533 21.135 83.6226 21.8043C84.092 22.4736 85.015 22.6357 85.6843 22.1664Z" fill="#E7F6FF"/>
<path d="M168 39.9099C168.001 38.4736 167.432 37.0956 166.418 36.079C165.403 35.0623 164.027 34.4902 162.59 34.4884C162.47 34.4884 162.351 34.4884 162.234 34.5002C162.241 34.3826 162.245 34.2637 162.245 34.1435C162.245 33.3737 162.081 32.6128 161.764 31.9115C161.446 31.2102 160.983 30.5846 160.405 30.0764C159.827 29.5682 159.147 29.1891 158.41 28.9643C157.674 28.7396 156.898 28.6744 156.135 28.773C155.372 28.8717 154.638 29.132 153.983 29.5365C153.328 29.941 152.767 30.4805 152.337 31.119C151.907 31.7575 151.618 32.4803 151.489 33.2393C151.36 33.9982 151.395 34.7759 151.591 35.5205C150.936 35.0457 150.183 34.7236 149.388 34.5777C148.593 34.4318 147.775 34.4659 146.994 34.6774C146.214 34.8888 145.491 35.2724 144.878 35.7999C144.265 36.3273 143.778 36.9854 143.452 37.7256C143.127 38.4659 142.972 39.2696 142.997 40.0778C143.023 40.886 143.23 41.6782 143.602 42.3962C143.973 43.1142 144.501 43.7399 145.147 44.2272C145.792 44.7145 146.538 45.0512 147.331 45.2125C147.654 46.0705 148.19 46.8323 148.889 47.4265C149.587 48.0208 150.425 48.428 151.323 48.61C152.222 48.7919 153.152 48.7428 154.027 48.4671C154.902 48.1913 155.692 47.6981 156.324 47.0336C156.97 47.5216 157.718 47.8583 158.512 48.0191C159.306 48.1798 160.126 48.1605 160.911 47.9624C161.696 47.7644 162.427 47.3927 163.05 46.8747C163.673 46.3567 164.172 45.7057 164.509 44.9695C165.535 44.5791 166.418 43.8862 167.042 42.9827C167.665 42.0791 167.999 41.0076 168 39.9099Z" fill="#F4FBFF"/>
<path d="M25.0106 26.8853C25.0106 25.449 24.4401 24.0716 23.4247 23.0559C22.4092 22.0402 21.0319 21.4694 19.5957 21.4691C19.4755 21.4691 19.3566 21.4691 19.239 21.4808C19.2469 21.3632 19.2508 21.2444 19.2508 21.1242C19.2506 20.3544 19.0864 19.5935 18.769 18.8921C18.4516 18.1908 17.9884 17.5652 17.4102 17.057C16.832 16.5488 16.1521 16.1697 15.4158 15.945C14.6795 15.7202 13.9038 15.655 13.1404 15.7537C12.3769 15.8523 11.6433 16.1126 10.9883 16.5171C10.3334 16.9216 9.77222 17.4611 9.3422 18.0996C8.91217 18.7381 8.62319 19.4609 8.49452 20.2199C8.36585 20.9789 8.40044 21.7565 8.59599 22.5011C7.94139 22.0264 7.1888 21.7042 6.39345 21.5583C5.5981 21.4125 4.78018 21.4465 3.9997 21.658C3.21923 21.8695 2.49601 22.253 1.88312 22.7805C1.27023 23.308 0.783228 23.966 0.457846 24.7063C0.132465 25.4465 -0.0230354 26.2502 0.00275602 27.0585C0.0285475 27.8667 0.234976 28.6588 0.606894 29.3769C0.978812 30.0949 1.50678 30.7205 2.15205 31.2078C2.79732 31.6951 3.54353 32.0318 4.3359 32.1931C4.65972 33.0503 5.19574 33.8114 5.89381 34.4051C6.59187 34.9988 7.42915 35.4056 8.32728 35.5875C9.2254 35.7695 10.155 35.7206 11.0291 35.4454C11.9032 35.1703 12.6931 34.6778 13.3251 34.0142C13.9716 34.5022 14.7193 34.839 15.5132 34.9997C16.3071 35.1605 17.127 35.1411 17.9124 34.9431C18.6978 34.745 19.4288 34.3733 20.0516 33.8553C20.6743 33.3374 21.173 32.6863 21.5108 31.9501C22.5393 31.5608 23.4249 30.8678 24.0501 29.9631C24.6752 29.0585 25.0102 27.9849 25.0106 26.8853Z" fill="#F4FBFF"/>
<path opacity="0.04" d="M119.951 72.6162H81.578L43.761 84.5878V84.8517H5.10925V97.6424H43.761V97.3786L81.578 85.4069H119.951V85.3194L158.325 73.1727V60.382L119.951 72.5287V72.6162Z" fill="#A8A8A8"/>
<path d="M20.2136 22.5927H53.2035V98.0646H20.2136V22.5927Z" fill="#F4FBFF"/>
<path d="M150.293 76.6139L117.305 87.0558V11.5838L150.293 1.14198V76.6139Z" fill="#F4FBFF"/>
<path d="M84.5526 11.5837H117.543V87.0556H84.5526V11.5837Z" fill="#F4FBFF"/>
<path d="M84.7904 87.0556L51.8005 97.4988V22.0268L84.7904 11.5837V87.0556Z" fill="#F4FBFF"/>
<path d="M42.0693 50.7436H49.4268V92.0394H42.0693V50.7436Z" fill="#F4FBFF"/>
<path d="M92.43 41.7256H87.6382V81.1233H103.325L92.43 41.7256Z" fill="#F4FBFF"/>
<path d="M94.0983 41.7256L104.994 81.1233H114.457V41.7256H94.0983Z" fill="#F4FBFF"/>
<path d="M145.613 7.96513L121.339 15.3984V18.9413V26.8083V27.4863L145.613 7.96513Z" fill="#F4FBFF"/>
<path d="M121.339 29.7411V30.3055V38.7407L146.971 30.8332V18.9413V9.12781L121.339 29.7411Z" fill="#F4FBFF"/>
<path d="M146.971 60.9229V58.4904V38.7132V35.216V32.5719L121.339 40.4781V41.4618L146.971 60.9229Z" fill="#F4FBFF"/>
<path d="M56.3101 79.6996V91.0912V91.1434L62.0032 89.2949L62.0124 89.2426L65.5723 88.0891L65.5644 88.1387L81.9425 82.8205V82.7839V72.4296V68.9324V54.0671L56.3101 79.6996Z" fill="#F4FBFF"/>
<path d="M81.8902 51.8762L81.9425 51.9285V49.1564V45.6592V42.4664L56.3101 50.3739V60.5245V64.0216V77.4564L81.8902 51.8762Z" fill="#F4FBFF"/>
<path d="M136.77 55.0951L121.339 43.3795V50.0825V53.5784V59.8555L136.77 55.0951Z" fill="#F4FBFF"/>
<path d="M40.4088 76.5654V50.7436H22.6082V82.0561L40.4088 76.5654Z" fill="#F4FBFF"/>
<path d="M22.6082 83.795V92.0395H40.4088V78.303L22.6082 83.795Z" fill="#F4FBFF"/>
<path d="M146.497 15.3812H147.683V16.8052H146.497V15.3812Z" fill="#F4FBFF"/>
<path d="M147.683 28.1968H146.497V25.3436H147.683V28.1968ZM147.683 22.501H146.497V19.6531H147.683V22.501Z" fill="#F4FBFF"/>
<path d="M146.438 34.1057L145.639 33.2291L146.497 32.4453V31.2826H147.683V32.9692L146.438 34.1057Z" fill="#F4FBFF"/>
<path d="M114.931 51.4556H112.087V50.2694H114.935L114.931 51.4556ZM109.473 51.4556H106.625V50.2694H109.474L109.473 51.4556ZM103.777 51.4556H100.929V50.2694H103.777V51.4556ZM117.971 51.1943L117.695 50.0395L120.448 49.3811L120.724 50.5359L117.971 51.1943ZM123.481 49.8775L123.204 48.7279L125.959 48.0747L126.235 49.2295L123.481 49.8775ZM128.992 48.5606L128.716 47.4058L130.427 46.9969L130.994 46.4744L131.794 47.3509L131.001 48.0747L128.992 48.5606ZM133.885 45.4462L133.086 44.5697L135.176 42.6597L135.975 43.5363L133.885 45.4462ZM138.066 41.6251L137.266 40.7485L139.356 38.8386L140.156 39.7152L138.066 41.6251ZM142.246 37.8053L141.447 36.9287L143.537 35.0188L144.336 35.8953L142.246 37.8053Z" fill="#F4FBFF"/>
<path d="M96.5229 52.4002L95.4713 51.8502L96.2969 50.2695H98.0802V51.4557H97.0155L96.5229 52.4002Z" fill="#F4FBFF"/>
<path d="M92.059 60.7047L91.0074 60.1561L92.1074 58.0502L93.159 58.5989L92.059 60.7047ZM94.259 56.493L93.2073 55.9443L94.3073 53.8384L95.3589 54.3871L94.259 56.493Z" fill="#F4FBFF"/>
<path d="M89.782 65.0642L88.5762 62.825L89.6213 62.262L89.7663 62.5311L89.9074 62.2607L90.9591 62.8094L89.782 65.0642Z" fill="#F4FBFF"/>
<path d="M86.1541 58.3242L87.1985 57.7619L88.4099 60.0117L87.3655 60.5741L86.1541 58.3242Z" fill="#F4FBFF"/>
<path d="M84.9432 56.0762L84.4938 55.2441L83.5846 55.504L83.258 54.3636L85.0856 53.8397L85.987 55.5145L84.9432 56.0762Z" fill="#F4FBFF"/>
<path d="M52.5804 64.5088H52.0369V63.3226H52.4132L54.5034 62.723L54.8299 63.8635L52.5804 64.5088ZM49.1838 64.5088H46.571V63.3226H49.1838V64.5088ZM43.7257 64.5088H41.113V63.3226H43.7257V64.5088ZM38.5002 64.5088H35.8875V63.3226H38.5002V64.5088ZM33.0422 64.5088H30.4386V63.3226H33.0514L33.0422 64.5088ZM57.4505 62.996L57.1226 61.8556L59.7354 61.1057L60.0633 62.2462L57.4505 62.996ZM62.676 61.4976L62.3494 60.3572L64.9622 59.6086L65.2888 60.7491L62.676 61.4976ZM67.9016 59.9992L67.575 58.8587L70.1877 58.1102L70.5143 59.2507L67.9016 59.9992ZM73.1271 58.5008L72.8005 57.3603L75.4132 56.6118L75.7398 57.7522L73.1271 58.5008ZM78.3526 57.0024L78.026 55.8619L80.6387 55.1134L80.9653 56.2538L78.3526 57.0024Z" fill="#F4FBFF"/>
<path d="M26.6436 65.2209H25.4561V63.0849H27.592V64.2724H26.6436V65.2209Z" fill="#F4FBFF"/>
<path d="M25.6938 68.782H26.88V72.3419H25.6938V68.782Z" fill="#F4FBFF"/>
<path d="M25.6938 76.1382H26.88V77.5622H25.6938V76.1382Z" fill="#F4FBFF"/>
<path d="M32.3394 27.7226H49.4268V49.0832H32.3394V27.7226Z" fill="#F4FBFF"/>
<path d="M22.6082 27.7226H30.6776V49.0832H22.6082V27.7226Z" fill="#F4FBFF"/>
<path d="M138.398 56.331L127.015 59.8425L134.745 76.3473L146.971 72.3772V72.3419V62.8407L138.398 56.331Z" fill="#F4FBFF"/>
<path d="M133.152 76.8647L125.412 60.3377L121.339 61.5944V80.6479V80.7015L127.032 78.853L127.041 78.8007L130.601 77.6472L130.593 77.6955L133.152 76.8647Z" fill="#F4FBFF"/>
<path d="M20.2672 98.173L18.6995 98.1678L18.7387 86.771V21.4352H51.679L84.4246 11.0691L88.7748 10.992H117.183L151.077 0.262733V17.7865H149.51V2.40388L117.426 12.5597H88.7827L84.6807 12.6328L51.922 23.0028H20.3064V86.7736L20.2672 98.173Z" fill="#05273B"/>
<path d="M52.5582 98.4748H19.5225V96.9071H52.4667L52.6326 96.8875L84.665 86.464H117.492L117.945 86.4052L149.51 76.235V36.9889H151.077V77.3768L118.29 87.9415L117.592 88.0316H84.9145L52.9684 98.4265L52.5582 98.4748Z" fill="#05273B" stroke="#05273B"/>
<path d="M149.51 30.5889H151.077V33.5282H149.51V30.5889Z" fill="#05273B"/>
<path d="M149.51 20.7689H151.077V28.6934H149.51V20.7689Z" fill="#05273B"/>
<path opacity="0.2" d="M87.266 3.07776C67.6285 3.03595 55.3904 15.393 55.3538 34.8527C55.3407 40.8621 58.5048 50.2497 63.9654 61.5838C66.4319 66.3664 69.4261 71.6795 72.6019 76.999C76.4792 83.5518 80.7093 90.1072 84.9445 96.1296L87.0609 98.9671C87.7702 98.0813 88.4796 97.1995 89.1889 96.1388C93.449 89.957 97.7078 83.5975 101.614 77.0657C104.812 71.7644 107.653 66.4644 110.139 61.6909C115.826 50.3816 119.029 41.011 119.042 34.9977C119.083 16.0605 106.373 3.11956 87.266 3.07776ZM87.1549 54.3791C75.4785 54.3543 65.9459 44.7825 65.972 33.1048C65.9982 21.4271 75.5713 11.8971 87.2477 11.9219C98.9241 11.9467 108.457 21.5212 108.429 33.1963C108.402 44.8713 98.8326 54.4053 87.1562 54.3804L87.1549 54.3791Z" fill="#F4FBFF"/>
<path d="M103.555 30.6083C103.53 42.2887 93.9559 51.8187 82.2795 51.7925C72.1669 51.7703 63.6611 44.5879 61.5839 35.0709C61.3706 33.8502 61.2653 32.6131 61.2691 31.3739C61.2913 19.7001 70.8657 10.1662 82.5408 10.1897C92.6378 10.2119 101.133 17.3748 103.23 26.863C103.229 26.8682 103.229 26.8735 103.23 26.8786C103.449 28.1098 103.558 29.3579 103.555 30.6083Z" fill="#F4FBFF"/>
<path d="M82.6022 0.757833C62.9674 0.714723 50.7318 13.073 50.6874 32.5289C50.6744 38.5382 53.8384 47.9259 59.2991 59.26C61.7655 64.0426 64.7597 69.3556 67.9355 74.6752C71.8128 81.228 76.0429 87.7834 80.2781 93.8058L82.3945 96.6432C83.1038 95.7575 83.8132 94.8757 84.5226 93.8149C88.7826 87.6332 93.0414 81.2737 96.9475 74.7418C100.146 69.4406 102.987 64.1406 105.473 59.3671C111.16 48.0578 114.363 38.6872 114.376 32.6739C114.418 13.7406 101.709 0.798331 82.6022 0.757833ZM82.4911 52.0592C70.8161 52.0344 61.2834 42.4574 61.3083 30.7849C61.3331 19.1124 70.9075 9.57587 82.5826 9.60069C94.2577 9.62551 103.792 19.2039 103.767 30.8763C103.742 42.5488 94.1675 52.0854 82.4911 52.0592Z" fill="white"/>
<path d="M104.249 62.1834C102.065 66.3233 99.6295 70.7794 96.941 75.2354C93.0375 81.7673 88.7775 88.1307 84.5174 94.3085C83.808 95.3693 83.0986 96.2511 82.388 97.1368L80.2716 94.2994C76.039 88.277 71.8063 81.7216 67.9303 75.1701C64.7545 69.8532 61.7603 64.5401 59.2938 59.7549C53.8332 48.4208 50.6718 39.0371 50.6822 33.0238C50.6992 24.9935 52.7933 18.1742 56.6262 12.9344C55.1082 16.8861 54.3048 21.3879 54.293 26.3508C54.28 32.3602 57.444 41.7491 62.9047 53.0819C65.3711 57.8645 68.3653 63.1776 71.5411 68.4971C75.4171 75.0486 79.6485 81.604 83.8825 87.6264L85.9988 90.4639C86.7095 89.5781 87.4188 88.6963 88.1282 87.6356C92.387 81.4551 96.6471 75.0943 100.552 68.5625C101.844 66.4265 103.073 64.288 104.249 62.1834Z" fill="#05273B"/>
<path d="M82.3644 98.2944L79.5257 94.4889C75.2891 88.4626 71.0081 81.8262 67.1452 75.2969C63.8335 69.7605 60.838 64.4044 58.4826 59.8399L58.4721 59.8177C52.6849 47.8069 49.7573 38.6792 49.7704 32.6882C49.7913 22.8721 52.8613 14.6262 58.6459 8.84159C64.4305 3.05696 72.679 3.8147e-05 82.4964 3.8147e-05H82.5983C92.2015 0.0209402 100.402 3.18237 106.313 9.14467C109.232 12.1048 111.498 15.6442 112.964 19.5343C114.514 23.584 115.296 28.0571 115.285 32.8293C115.272 38.8739 112.16 48.2445 106.284 59.9313V59.9431C104.071 64.1914 101.099 69.7827 97.7313 75.3675C93.5588 82.3514 89.0936 88.9538 85.2764 94.4915C84.5605 95.5601 83.8393 96.4641 83.1352 97.3381L82.3644 98.2944ZM81.015 93.4268L82.4141 95.3028C82.8674 94.7241 83.3116 94.127 83.7597 93.4647C87.5664 87.9414 92.0107 81.369 96.1585 74.4269C99.5002 68.8865 102.454 63.3292 104.65 59.1057C110.398 47.6749 113.441 38.5878 113.454 32.8267C113.473 23.7656 110.553 16.0214 105.012 10.4328C99.4532 4.82318 91.6998 1.84856 82.5944 1.82896H82.4964C73.1741 1.82896 65.375 4.70299 59.9379 10.1349C54.5008 15.5668 51.6189 23.3698 51.6019 32.6921C51.5901 38.3226 54.5347 47.4241 60.1169 59.013C62.454 63.5461 65.4286 68.8539 68.7194 74.3629C72.5549 80.8503 76.8071 87.441 81.015 93.4268ZM82.533 53.1317H82.4846C78.1046 53.1276 73.8243 51.8231 70.1865 49.3836C66.5487 46.9441 63.7171 43.4794 62.0506 39.4288C60.3841 35.3781 59.9578 30.9239 60.8257 26.6307C61.6936 22.3375 63.8166 18.3986 66.9257 15.3134C68.9718 13.2595 71.4038 11.6306 74.0819 10.5203C76.76 9.41008 79.6313 8.84045 82.5304 8.8442H82.5787C86.9585 8.84857 91.2384 10.1531 94.8759 12.5926C98.5135 15.032 101.345 18.4964 103.011 22.5468C104.678 26.5972 105.104 31.0511 104.237 35.3441C103.369 39.6371 101.246 43.5759 98.1376 46.6612C96.0917 48.7153 93.6596 50.3445 90.9815 51.4549C88.3034 52.5654 85.4322 53.1352 82.533 53.1317ZM82.533 10.6744C77.185 10.7291 72.0743 12.8905 68.3099 16.6896C64.5455 20.4887 62.431 25.619 62.4253 30.9673C62.4197 36.3155 64.5232 41.4503 68.2796 45.2574C72.0359 49.0644 77.142 51.2367 82.4899 51.3027H82.5343C87.8823 51.248 92.9929 49.0866 96.7574 45.2875C100.522 41.4884 102.636 36.3582 102.642 31.0099C102.648 25.6616 100.544 20.5269 96.7877 16.7198C93.0313 12.9127 87.9252 10.7405 82.5774 10.6744H82.533Z" fill="#05273B"/>
<path d="M124.652 103.959H46.7265V102.261H124.652C124.877 102.261 125.093 102.35 125.252 102.509C125.412 102.668 125.501 102.884 125.501 103.11C125.501 103.335 125.412 103.551 125.252 103.71C125.093 103.869 124.877 103.959 124.652 103.959Z" fill="#05273B"/>
<path d="M43.2411 103.959H38.4767C38.2515 103.959 38.0355 103.869 37.8763 103.71C37.717 103.551 37.6276 103.335 37.6276 103.11C37.6276 102.884 37.717 102.668 37.8763 102.509C38.0355 102.35 38.2515 102.261 38.4767 102.261H43.2411C43.4663 102.261 43.6823 102.35 43.8415 102.509C44.0007 102.668 44.0902 102.884 44.0902 103.11C44.0902 103.335 44.0007 103.551 43.8415 103.71C43.6823 103.869 43.4663 103.959 43.2411 103.959Z" fill="#05273B"/>
<path d="M35.3845 103.959H33.8665C33.6413 103.959 33.4253 103.869 33.2661 103.71C33.1069 103.551 33.0174 103.335 33.0174 103.11C33.0174 102.884 33.1069 102.668 33.2661 102.509C33.4253 102.35 33.6413 102.261 33.8665 102.261H35.3845C35.6098 102.261 35.8257 102.35 35.985 102.509C36.1442 102.668 36.2337 102.884 36.2337 103.11C36.2337 103.335 36.1442 103.551 35.985 103.71C35.8257 103.869 35.6098 103.959 35.3845 103.959Z" fill="#05273B"/>
<path d="M151.976 103.959H128.025V102.261H151.976C152.201 102.261 152.417 102.35 152.576 102.509C152.736 102.668 152.825 102.884 152.825 103.11C152.825 103.335 152.736 103.551 152.576 103.71C152.417 103.869 152.201 103.959 151.976 103.959Z" fill="#05273B"/>
<path d="M29.5241 103.959H5.57172V102.261H29.5241C29.7493 102.261 29.9653 102.35 30.1246 102.509C30.2838 102.668 30.3733 102.884 30.3733 103.11C30.3733 103.335 30.2838 103.551 30.1246 103.71C29.9653 103.869 29.7493 103.959 29.5241 103.959Z" fill="#05273B"/>
<path d="M100.21 11.4622C104.771 15.6962 107.928 21.1633 109.188 27.2759C109.639 29.5212 109.86 31.8064 109.849 34.0965C109.849 35.105 111.417 35.1063 111.417 34.0965C111.409 26.7442 109.186 19.631 104.583 13.8581C103.584 12.6092 102.492 11.4367 101.317 10.3505C100.579 9.66462 99.4675 10.7711 100.208 11.4596L100.21 11.4622Z" fill="#F4FBFF"/>
<path d="M92.0016 5.97805L92.093 6.01593C91.8422 5.91534 92.2237 6.07472 92.2812 6.10084C92.6639 6.27459 93.0402 6.4614 93.4125 6.65475C94.6975 7.33253 95.9353 8.09632 97.1174 8.94091C97.9417 9.52486 98.7268 8.16623 97.909 7.5875C96.2016 6.3778 94.3727 5.23602 92.4222 4.46657C91.4843 4.09556 91.0767 5.61095 92.0055 5.97805H92.0016Z" fill="#F4FBFF"/>
</svg>
