<svg width="160" height="160" viewBox="0 0 160 160" fill="none" xmlns="http://www.w3.org/2000/svg">
<path d="M73.5193 37.3934C74.9081 36.3015 76.8808 36.3015 78.2696 37.3934L110.245 62.5305C113.054 64.7389 111.466 69.1932 107.87 69.1932H43.9194C40.323 69.1932 38.735 64.7389 41.5442 62.5305L73.5193 37.3934Z" fill="#E5F3F8" stroke="#05273B" stroke-width="2"/>
<path fill-rule="evenodd" clip-rule="evenodd" d="M76.198 29.9635C75.6671 29.9876 75.2442 30.4256 75.2442 30.9624V36.5736C75.2442 37.1259 75.6919 37.5736 76.2442 37.5736C76.7965 37.5736 77.2442 37.1259 77.2442 36.5736V32.6115C78.2385 32.3824 79.1884 31.9788 80.0464 31.4151C81.4538 30.4902 82.5508 29.1757 83.1986 27.6377C83.8464 26.0998 84.0159 24.4074 83.6857 22.7747C83.3554 21.142 82.5403 19.6423 81.3433 18.4652C80.1464 17.2881 78.6213 16.4865 76.9611 16.1617C75.3009 15.837 73.58 16.0036 72.0161 16.6407C70.4522 17.2777 69.1155 18.3565 68.1751 19.7407C67.5138 20.7139 67.0693 21.8074 66.8637 22.9495C66.7194 23.7513 67.393 24.4168 68.2076 24.4168C69.0223 24.4168 69.6633 23.7446 69.8819 22.9598C70.0402 22.3911 70.2912 21.848 70.6279 21.3524C71.2442 20.4454 72.1202 19.7384 73.145 19.3209C74.1699 18.9035 75.2976 18.7942 76.3856 19.0071C77.4736 19.2199 78.473 19.7452 79.2574 20.5166C80.0418 21.288 80.5759 22.2708 80.7924 23.3407C81.0088 24.4107 80.8977 25.5197 80.4732 26.5275C80.0487 27.5354 79.3298 28.3968 78.4074 29.0029C77.89 29.3429 77.3216 29.594 76.7263 29.7489C76.5411 29.7971 76.3626 29.8698 76.198 29.9635Z" fill="#05273B"/>
<path fill-rule="evenodd" clip-rule="evenodd" d="M52.2339 48.6098C55.3943 48.6098 58.0123 50.9112 59.4347 53.7334C60.3482 55.5457 61.5373 57.22 62.9745 58.6881C66.6228 62.415 71.571 64.5088 76.7305 64.5088C81.89 64.5088 86.8382 62.415 90.4865 58.6881C91.9235 57.2201 93.1126 55.546 94.026 53.7339C95.4486 50.9115 98.0669 48.6098 101.228 48.6098C102.349 48.6098 103.406 48.8883 104.332 49.38C106.46 50.5095 108.848 51.7664 111.07 52.6987C111.188 52.7483 111.306 52.8013 111.423 52.8576L133.107 63.2849C136.84 65.0799 138.461 69.5848 136.727 73.3467L129.748 88.4921C128.015 92.2541 123.583 93.8486 119.85 92.0535L115.92 90.1636C112.186 88.3679 107.857 91.0892 107.857 95.2329V136.5C107.857 140.642 104.5 144 100.357 144H53.105C48.9628 144 45.605 140.642 45.605 136.5V95.387C45.605 91.1998 41.1935 88.4804 37.4527 90.3617L33.9429 92.1268C30.2424 93.9879 25.7848 92.4717 23.9865 88.7403L16.7505 73.726C14.9522 69.9946 16.4943 65.461 20.1948 63.5999L41.7009 52.7841C41.9092 52.6793 42.1199 52.5853 42.3324 52.5017C44.6175 51.6031 47.1007 50.3791 49.3022 49.2917C50.1861 48.8551 51.1814 48.6098 52.2339 48.6098Z" fill="white"/>
<path d="M59.4347 53.7334L58.5418 54.1835L58.5418 54.1835L59.4347 53.7334ZM62.9745 58.6881L63.6891 57.9886L63.6891 57.9886L62.9745 58.6881ZM90.4865 58.6881L91.2011 59.3877L91.2011 59.3877L90.4865 58.6881ZM94.026 53.7339L94.9189 54.184L94.9189 54.184L94.026 53.7339ZM111.423 52.8576L110.989 53.7588L110.989 53.7588L111.423 52.8576ZM133.107 63.2849L133.54 62.3836L133.54 62.3836L133.107 63.2849ZM136.727 73.3467L135.819 72.9282L135.819 72.9282L136.727 73.3467ZM129.748 88.4921L130.656 88.9106L130.656 88.9106L129.748 88.4921ZM119.85 92.0535L120.284 91.1523L120.284 91.1523L119.85 92.0535ZM33.9429 92.1268L33.4936 91.2335L33.4936 91.2335L33.9429 92.1268ZM23.9865 88.7403L24.8873 88.3061L24.8873 88.3061L23.9865 88.7403ZM16.7505 73.726L15.8497 74.1602L15.8497 74.1602L16.7505 73.726ZM20.1948 63.5999L20.6441 64.4933L20.6441 64.4933L20.1948 63.5999ZM41.7009 52.7841L42.1502 53.6775L42.1502 53.6775L41.7009 52.7841ZM37.4527 90.3617L37.0034 89.4684L37.4527 90.3617ZM115.92 90.1636L115.487 91.0648L115.92 90.1636ZM104.332 49.38L104.801 48.4967L104.332 49.38ZM60.3277 53.2833C58.8077 50.2676 55.9096 47.6098 52.2339 47.6098V49.6098C54.879 49.6098 57.2169 51.5548 58.5418 54.1835L60.3277 53.2833ZM63.6891 57.9886C62.3249 56.595 61.1956 55.0052 60.3277 53.2833L58.5418 54.1835C59.5008 56.0862 60.7497 57.8449 62.2599 59.3877L63.6891 57.9886ZM76.7305 63.5088C71.8432 63.5088 67.1516 61.5257 63.6891 57.9886L62.2599 59.3877C66.094 63.3044 71.2988 65.5088 76.7305 65.5088V63.5088ZM89.7719 57.9886C86.3094 61.5257 81.6178 63.5088 76.7305 63.5088V65.5088C82.1622 65.5088 87.3669 63.3044 91.2011 59.3877L89.7719 57.9886ZM93.133 53.2838C92.2652 55.0055 91.1359 56.5952 89.7719 57.9886L91.2011 59.3877C92.7112 57.845 93.96 56.0866 94.9189 54.184L93.133 53.2838ZM101.228 47.6098C97.5516 47.6098 94.6532 50.2679 93.133 53.2838L94.9189 54.184C96.2441 51.5551 98.5822 49.6098 101.228 49.6098V47.6098ZM104.801 48.4967C103.734 47.9303 102.517 47.6098 101.228 47.6098V49.6098C102.182 49.6098 103.078 49.8464 103.863 50.2632L104.801 48.4967ZM110.683 53.6208C110.785 53.6639 110.887 53.7098 110.989 53.7588L111.856 51.9564C111.724 51.8927 111.59 51.8328 111.456 51.7766L110.683 53.6208ZM110.989 53.7588L132.674 64.1861L133.54 62.3836L111.856 51.9564L110.989 53.7588ZM132.674 64.1861C135.915 65.7446 137.324 69.662 135.819 72.9282L137.635 73.7652C139.597 69.5075 137.765 64.4153 133.54 62.3836L132.674 64.1861ZM135.819 72.9282L128.84 88.0736L130.656 88.9106L137.635 73.7652L135.819 72.9282ZM128.84 88.0736C127.34 91.3281 123.513 92.7052 120.284 91.1523L119.417 92.9547C123.653 94.9919 128.689 93.18 130.656 88.9106L128.84 88.0736ZM120.284 91.1523L116.353 89.2624L115.487 91.0648L119.417 92.9547L120.284 91.1523ZM108.857 136.5V95.2329H106.857V136.5H108.857ZM100.357 145C105.052 145 108.857 141.194 108.857 136.5H106.857C106.857 140.09 103.947 143 100.357 143V145ZM53.105 145H100.357V143H53.105V145ZM44.605 136.5C44.605 141.194 48.4105 145 53.105 145V143C49.5151 143 46.605 140.09 46.605 136.5H44.605ZM44.605 95.387V136.5H46.605V95.387H44.605ZM34.3922 93.0202L37.902 91.2551L37.0034 89.4684L33.4936 91.2335L34.3922 93.0202ZM23.0856 89.1744C25.1266 93.4093 30.1924 95.1324 34.3922 93.0202L33.4936 91.2335C30.2924 92.8434 26.443 91.5341 24.8873 88.3061L23.0856 89.1744ZM15.8497 74.1602L23.0856 89.1744L24.8873 88.3061L17.6514 73.2919L15.8497 74.1602ZM19.7455 62.7066C15.5575 64.8128 13.8145 69.9372 15.8497 74.1602L17.6514 73.2919C16.09 70.052 17.4311 66.1092 20.6441 64.4933L19.7455 62.7066ZM41.2516 51.8907L19.7455 62.7066L20.6441 64.4933L42.1502 53.6775L41.2516 51.8907ZM41.9664 51.5711C41.7256 51.6658 41.4871 51.7723 41.2516 51.8907L42.1502 53.6775C42.3313 53.5864 42.5142 53.5048 42.6984 53.4323L41.9664 51.5711ZM52.2339 47.6098C51.0244 47.6098 49.8779 47.892 48.8594 48.3951L49.7451 50.1883C50.4943 49.8182 51.3384 49.6098 52.2339 49.6098V47.6098ZM42.6984 53.4323C45.0297 52.5155 47.5513 51.2718 49.7451 50.1883L48.8594 48.3951C46.65 49.4863 44.2054 50.6906 41.9664 51.5711L42.6984 53.4323ZM46.605 95.387C46.605 90.4554 41.4092 87.2526 37.0034 89.4684L37.902 91.2551C40.9777 89.7083 44.605 91.9442 44.605 95.387H46.605ZM116.353 89.2624C111.955 87.1474 106.857 90.3526 106.857 95.2329H108.857C108.857 91.8259 112.416 89.5883 115.487 91.0648L116.353 89.2624ZM103.863 50.2632C105.985 51.3898 108.413 52.6682 110.683 53.6208L111.456 51.7766C109.284 50.8647 106.934 49.6292 104.801 48.4967L103.863 50.2632Z" fill="#05273B"/>
<rect x="55.7916" y="87.8882" width="13.3136" height="14.9631" rx="3" fill="#E5F3F8" stroke="#05273B" stroke-width="2"/>
<rect x="97.9996" y="103.821" width="16.5553" height="40.179" fill="white"/>
<rect x="76.0005" y="135.97" width="68" height="8.02956" rx="4.01478" fill="white" stroke="#05273B" stroke-width="2"/>
<rect width="16.3065" height="6.18302" rx="3.09151" transform="matrix(0.174112 0.984726 -0.985198 0.171419 130.682 99.985)" fill="white" stroke="#05273B" stroke-width="2"/>
<rect x="103.02" y="99.0896" width="31.3504" height="7.4599" rx="3.72995" fill="white" stroke="#05273B" stroke-width="2"/>
<path d="M82.4143 123.312C85.125 117.029 91.3121 112.96 98.1546 112.96L133.051 112.96C136.514 112.96 139.433 115.542 139.857 118.978L140.531 124.45C140.951 127.858 138.293 130.864 134.86 130.864H84.3692C81.9042 130.864 80.2446 128.34 81.2212 126.077L82.4143 123.312Z" fill="#E5F3F8" stroke="#05273B" stroke-width="2"/>
<ellipse cx="106.019" cy="121.704" rx="2.79841" ry="2.77602" fill="#05273B"/>
<ellipse cx="115.969" cy="121.704" rx="2.79841" ry="2.77602" fill="#05273B"/>
<ellipse cx="125.918" cy="121.704" rx="2.79841" ry="2.77602" fill="#05273B"/>
</svg>
