<svg width="34" height="21" viewBox="0 0 34 21" fill="none" xmlns="http://www.w3.org/2000/svg">
<mask id="path-1-outside-1_49_258" maskUnits="userSpaceOnUse" x="-1" y="-1" width="36" height="23" fill="black">
<rect fill="white" x="-1" y="-1" width="36" height="23"/>
<path d="M15.6976 18.4257C15.4912 18.5978 15.1041 18.83 14.5363 19.1225C13.9857 19.415 13.3061 19.6731 12.4975 19.8968C11.6888 20.1204 10.7942 20.2237 9.81347 20.2065C8.31661 20.1721 6.97461 19.9054 5.78745 19.4064C4.6175 18.8903 3.6196 18.1935 2.79375 17.316C1.9851 16.4385 1.36571 15.432 0.935585 14.2965C0.505455 13.1609 0.29039 11.948 0.29039 10.6576C0.29039 9.21234 0.505455 7.88754 0.935585 6.68318C1.38292 5.47881 2.01091 4.4379 2.81955 3.56043C3.6454 2.68297 4.6261 2.00336 5.76164 1.52162C6.89719 1.03987 8.15316 0.799 9.52958 0.799C10.8028 0.799 11.9297 0.971052 12.9104 1.31516C13.8911 1.65926 14.6911 2.02917 15.3105 2.42489L13.8395 5.96056C13.4094 5.63366 12.833 5.29816 12.1104 4.95406C11.4049 4.59275 10.5877 4.41209 9.65862 4.41209C8.936 4.41209 8.23919 4.56694 7.56819 4.87663C6.91439 5.16912 6.32941 5.59065 5.81326 6.14121C5.31431 6.69178 4.91859 7.33698 4.6261 8.0768C4.33361 8.79942 4.18737 9.59086 4.18737 10.4511C4.18737 11.363 4.31641 12.1974 4.57448 12.9545C4.84977 13.7115 5.23688 14.3653 5.73583 14.9159C6.23479 15.4492 6.82836 15.8622 7.51657 16.1546C8.22199 16.4471 9.01342 16.5934 9.89089 16.5934C10.906 16.5934 11.7749 16.4299 12.4975 16.103C13.2201 15.7761 13.7707 15.432 14.1492 15.0707L15.6976 18.4257ZM33.6925 18.4257C33.4861 18.5978 33.099 18.83 32.5312 19.1225C31.9806 19.415 31.301 19.6731 30.4924 19.8968C29.6837 20.1204 28.7891 20.2237 27.8084 20.2065C26.3115 20.1721 24.9695 19.9054 23.7823 19.4064C22.6124 18.8903 21.6145 18.1935 20.7886 17.316C19.98 16.4385 19.3606 15.432 18.9305 14.2965C18.5003 13.1609 18.2853 11.948 18.2853 10.6576C18.2853 9.21234 18.5003 7.88754 18.9305 6.68318C19.3778 5.47881 20.0058 4.4379 20.8144 3.56043C21.6403 2.68297 22.621 2.00336 23.7565 1.52162C24.8921 1.03987 26.1481 0.799 27.5245 0.799C28.7977 0.799 29.9246 0.971052 30.9053 1.31516C31.886 1.65926 32.686 2.02917 33.3054 2.42489L31.8344 5.96056C31.4042 5.63366 30.8279 5.29816 30.1052 4.95406C29.3998 4.59275 28.5826 4.41209 27.6535 4.41209C26.9309 4.41209 26.2341 4.56694 25.5631 4.87663C24.9093 5.16912 24.3243 5.59065 23.8081 6.14121C23.3092 6.69178 22.9135 7.33698 22.621 8.0768C22.3285 8.79942 22.1823 9.59086 22.1823 10.4511C22.1823 11.363 22.3113 12.1974 22.5694 12.9545C22.8447 13.7115 23.2318 14.3653 23.7307 14.9159C24.2297 15.4492 24.8233 15.8622 25.5115 16.1546C26.2169 16.4471 27.0083 16.5934 27.8858 16.5934C28.9009 16.5934 29.7697 16.4299 30.4924 16.103C31.215 15.7761 31.7655 15.432 32.1441 15.0707L33.6925 18.4257Z"/>
</mask>
<path d="M15.6976 18.4257C15.4912 18.5978 15.1041 18.83 14.5363 19.1225C13.9857 19.415 13.3061 19.6731 12.4975 19.8968C11.6888 20.1204 10.7942 20.2237 9.81347 20.2065C8.31661 20.1721 6.97461 19.9054 5.78745 19.4064C4.6175 18.8903 3.6196 18.1935 2.79375 17.316C1.9851 16.4385 1.36571 15.432 0.935585 14.2965C0.505455 13.1609 0.29039 11.948 0.29039 10.6576C0.29039 9.21234 0.505455 7.88754 0.935585 6.68318C1.38292 5.47881 2.01091 4.4379 2.81955 3.56043C3.6454 2.68297 4.6261 2.00336 5.76164 1.52162C6.89719 1.03987 8.15316 0.799 9.52958 0.799C10.8028 0.799 11.9297 0.971052 12.9104 1.31516C13.8911 1.65926 14.6911 2.02917 15.3105 2.42489L13.8395 5.96056C13.4094 5.63366 12.833 5.29816 12.1104 4.95406C11.4049 4.59275 10.5877 4.41209 9.65862 4.41209C8.936 4.41209 8.23919 4.56694 7.56819 4.87663C6.91439 5.16912 6.32941 5.59065 5.81326 6.14121C5.31431 6.69178 4.91859 7.33698 4.6261 8.0768C4.33361 8.79942 4.18737 9.59086 4.18737 10.4511C4.18737 11.363 4.31641 12.1974 4.57448 12.9545C4.84977 13.7115 5.23688 14.3653 5.73583 14.9159C6.23479 15.4492 6.82836 15.8622 7.51657 16.1546C8.22199 16.4471 9.01342 16.5934 9.89089 16.5934C10.906 16.5934 11.7749 16.4299 12.4975 16.103C13.2201 15.7761 13.7707 15.432 14.1492 15.0707L15.6976 18.4257ZM33.6925 18.4257C33.4861 18.5978 33.099 18.83 32.5312 19.1225C31.9806 19.415 31.301 19.6731 30.4924 19.8968C29.6837 20.1204 28.7891 20.2237 27.8084 20.2065C26.3115 20.1721 24.9695 19.9054 23.7823 19.4064C22.6124 18.8903 21.6145 18.1935 20.7886 17.316C19.98 16.4385 19.3606 15.432 18.9305 14.2965C18.5003 13.1609 18.2853 11.948 18.2853 10.6576C18.2853 9.21234 18.5003 7.88754 18.9305 6.68318C19.3778 5.47881 20.0058 4.4379 20.8144 3.56043C21.6403 2.68297 22.621 2.00336 23.7565 1.52162C24.8921 1.03987 26.1481 0.799 27.5245 0.799C28.7977 0.799 29.9246 0.971052 30.9053 1.31516C31.886 1.65926 32.686 2.02917 33.3054 2.42489L31.8344 5.96056C31.4042 5.63366 30.8279 5.29816 30.1052 4.95406C29.3998 4.59275 28.5826 4.41209 27.6535 4.41209C26.9309 4.41209 26.2341 4.56694 25.5631 4.87663C24.9093 5.16912 24.3243 5.59065 23.8081 6.14121C23.3092 6.69178 22.9135 7.33698 22.621 8.0768C22.3285 8.79942 22.1823 9.59086 22.1823 10.4511C22.1823 11.363 22.3113 12.1974 22.5694 12.9545C22.8447 13.7115 23.2318 14.3653 23.7307 14.9159C24.2297 15.4492 24.8233 15.8622 25.5115 16.1546C26.2169 16.4471 27.0083 16.5934 27.8858 16.5934C28.9009 16.5934 29.7697 16.4299 30.4924 16.103C31.215 15.7761 31.7655 15.432 32.1441 15.0707L33.6925 18.4257Z" fill="#FFFFFF"/>
<path d="M15.6976 18.4257L16.3378 19.1939L16.927 18.703L16.6056 18.0067L15.6976 18.4257ZM14.5363 19.1225L14.0783 18.2335L14.0671 18.2394L14.5363 19.1225ZM12.4975 19.8968L12.2309 18.933L12.2309 18.933L12.4975 19.8968ZM9.81347 20.2065L9.79048 21.2062L9.79593 21.2063L9.81347 20.2065ZM5.78745 19.4064L5.38381 20.3213L5.39187 20.3249L5.39999 20.3283L5.78745 19.4064ZM2.79375 17.316L2.05835 17.9937L2.06555 18.0014L2.79375 17.316ZM0.935585 14.2965L1.87074 13.9423L1.87074 13.9422L0.935585 14.2965ZM0.935585 6.68318L-0.00191515 6.33496L-0.00615727 6.34684L0.935585 6.68318ZM2.81955 3.56043L2.09131 2.87503L2.0842 2.88275L2.81955 3.56043ZM5.76164 1.52162L6.15219 2.4422L6.15219 2.4422L5.76164 1.52162ZM12.9104 1.31516L13.2415 0.371556L13.2415 0.371556L12.9104 1.31516ZM15.3105 2.42489L16.2338 2.80903L16.5562 2.03409L15.8489 1.58219L15.3105 2.42489ZM13.8395 5.96056L13.2344 6.75672L14.2653 7.54024L14.7628 6.3447L13.8395 5.96056ZM12.1104 4.95406L11.6545 5.8441L11.6674 5.8507L11.6804 5.85692L12.1104 4.95406ZM7.56819 4.87663L7.97658 5.78951L7.98725 5.78459L7.56819 4.87663ZM5.81326 6.14121L5.08372 5.45727L5.07794 5.46344L5.07227 5.4697L5.81326 6.14121ZM4.6261 8.0768L5.55308 8.452L5.55606 8.44446L4.6261 8.0768ZM4.57448 12.9545L3.62797 13.2771L3.63124 13.2867L3.63469 13.2962L4.57448 12.9545ZM5.73583 14.9159L4.99485 15.5874L5.00016 15.5932L5.00556 15.599L5.73583 14.9159ZM7.51657 16.1546L7.12542 17.075L7.13356 17.0784L7.51657 16.1546ZM12.4975 16.103L12.0853 15.1919L12.0853 15.1919L12.4975 16.103ZM14.1492 15.0707L15.0571 14.6517L14.4708 13.3813L13.4587 14.3474L14.1492 15.0707ZM15.0575 17.6575C14.9439 17.7521 14.6454 17.9414 14.0783 18.2336L14.9943 20.0115C15.5627 19.7187 16.0385 19.4434 16.3378 19.1939L15.0575 17.6575ZM14.0671 18.2394C13.5987 18.4883 12.9917 18.7225 12.2309 18.933L12.7641 20.8606C13.6205 20.6237 14.3728 20.3418 15.0054 20.0057L14.0671 18.2394ZM12.2309 18.933C11.5288 19.1272 10.7315 19.2224 9.83101 19.2066L9.79593 21.2063C10.8568 21.2249 11.8489 21.1137 12.7641 20.8606L12.2309 18.933ZM9.83645 19.2067C8.44481 19.1747 7.22935 18.9277 6.17491 18.4845L5.39999 20.3283C6.71987 20.883 8.18842 21.1694 9.79048 21.2062L9.83645 19.2067ZM6.19109 18.4915C5.13599 18.026 4.25053 17.4047 3.52195 16.6306L2.06555 18.0014C2.98866 18.9822 4.09901 19.7545 5.38381 20.3213L6.19109 18.4915ZM3.5291 16.6383C2.80868 15.8566 2.25639 14.9603 1.87074 13.9423L0.000425192 14.6507C0.475042 15.9037 1.16152 17.0205 2.05839 17.9937L3.5291 16.6383ZM1.87074 13.9422C1.48612 12.9268 1.29039 11.8346 1.29039 10.6576H-0.70961C-0.70961 12.0613 -0.475206 13.395 0.000425262 14.6507L1.87074 13.9422ZM1.29039 10.6576C1.29039 9.31221 1.49042 8.10286 1.87733 7.01951L-0.00615727 6.34684C-0.479506 7.67222 -0.70961 9.11247 -0.70961 10.6576H1.29039ZM1.87301 7.03136C2.27856 5.93949 2.84098 5.0128 3.55491 4.23812L2.0842 2.88275C1.18084 3.863 0.487277 5.01814 -0.00184059 6.33499L1.87301 7.03136ZM3.54775 4.2458C4.27629 3.47173 5.14119 2.87111 6.15219 2.4422L5.37109 0.601037C4.11101 1.13562 3.01451 1.89421 2.09135 2.87507L3.54775 4.2458ZM6.15219 2.4422C7.15064 2.01862 8.27179 1.799 9.52958 1.799V-0.201C8.03454 -0.201 6.64374 0.0611276 5.37109 0.601037L6.15219 2.4422ZM9.52958 1.799C10.7145 1.799 11.7259 1.95931 12.5793 2.25876L13.2415 0.371556C12.1335 -0.0172026 10.891 -0.201 9.52958 -0.201V1.799ZM12.5793 2.25876C13.5146 2.58693 14.2383 2.92653 14.7721 3.26759L15.8489 1.58219C15.144 1.13181 14.2676 0.731587 13.2415 0.371556L12.5793 2.25876ZM14.3873 2.04075L12.9162 5.57642L14.7628 6.3447L16.2338 2.80903L14.3873 2.04075ZM14.4446 5.1644C13.9406 4.78138 13.2982 4.41213 12.5403 4.05119L11.6804 5.85692C12.3677 6.18419 12.8781 6.48594 13.2344 6.75672L14.4446 5.1644ZM12.5662 4.06401C11.6973 3.61895 10.719 3.41209 9.65862 3.41209V5.41209C10.4564 5.41209 11.1126 5.56654 11.6545 5.8441L12.5662 4.06401ZM9.65862 3.41209C8.78796 3.41209 7.94844 3.59976 7.14913 3.96867L7.98725 5.78459C8.52994 5.53412 9.08405 5.41209 9.65862 5.41209V3.41209ZM7.15982 3.96381C6.3784 4.3134 5.68573 4.81513 5.08372 5.45727L6.54279 6.82516C6.9731 6.36616 7.45039 6.02484 7.97655 5.78945L7.15982 3.96381ZM5.07227 5.4697C4.48702 6.11549 4.02969 6.86545 3.69614 7.70914L5.55606 8.44446C5.80748 7.8085 6.1416 7.26807 6.55424 6.81273L5.07227 5.4697ZM3.69915 7.70161C3.35365 8.55519 3.18737 9.47559 3.18737 10.4511H5.18737C5.18737 9.70612 5.31357 9.04364 5.55305 8.45199L3.69915 7.70161ZM3.18737 10.4511C3.18737 11.4576 3.3299 12.4028 3.62797 13.2771L5.52099 12.6318C5.30291 11.9921 5.18737 11.2684 5.18737 10.4511H3.18737ZM3.63469 13.2962C3.9505 14.1647 4.40181 14.933 4.99485 15.5874L6.47682 14.2443C6.07196 13.7976 5.74903 13.2583 5.51428 12.6127L3.63469 13.2962ZM5.00556 15.599C5.60209 16.2367 6.31202 16.7293 7.12543 17.075L7.90771 15.2343C7.3447 14.995 6.86748 14.6618 6.46611 14.2327L5.00556 15.599ZM7.13356 17.0784C7.97713 17.4282 8.9014 17.5934 9.89089 17.5934V15.5934C9.12545 15.5934 8.46684 15.4661 7.89959 15.2309L7.13356 17.0784ZM9.89089 17.5934C11.0098 17.5934 12.0266 17.4136 12.9096 17.0141L12.0853 15.1919C11.5231 15.4463 10.8022 15.5934 9.89089 15.5934V17.5934ZM12.9096 17.0141C13.6876 16.6622 14.349 16.2624 14.8397 15.7941L13.4587 14.3474C13.1923 14.6016 12.7526 14.89 12.0853 15.1919L12.9096 17.0141ZM13.2412 15.4898L14.7897 18.8448L16.6056 18.0067L15.0571 14.6517L13.2412 15.4898ZM33.6925 18.4257L34.3327 19.1939L34.9219 18.703L34.6005 18.0067L33.6925 18.4257ZM32.5312 19.1225L32.0732 18.2335L32.062 18.2394L32.5312 19.1225ZM30.4924 19.8968L30.2258 18.933L30.2258 18.933L30.4924 19.8968ZM27.8084 20.2065L27.7854 21.2062L27.7908 21.2063L27.8084 20.2065ZM23.7823 19.4064L23.3787 20.3213L23.3868 20.3249L23.3949 20.3283L23.7823 19.4064ZM20.7886 17.316L20.0532 17.9937L20.0604 18.0014L20.7886 17.316ZM18.9305 14.2965L19.8656 13.9423L19.8656 13.9422L18.9305 14.2965ZM18.9305 6.68318L17.993 6.33496L17.9887 6.34684L18.9305 6.68318ZM20.8144 3.56043L20.0862 2.87503L20.0791 2.88275L20.8144 3.56043ZM23.7565 1.52162L24.1471 2.4422L24.1471 2.4422L23.7565 1.52162ZM30.9053 1.31516L31.2364 0.371556L31.2364 0.371556L30.9053 1.31516ZM33.3054 2.42489L34.2287 2.80903L34.5511 2.03409L33.8438 1.58219L33.3054 2.42489ZM31.8344 5.96056L31.2293 6.75672L32.2602 7.54024L32.7576 6.3447L31.8344 5.96056ZM30.1052 4.95406L29.6494 5.8441L29.6623 5.8507L29.6753 5.85692L30.1052 4.95406ZM25.5631 4.87663L25.9715 5.78951L25.9821 5.78459L25.5631 4.87663ZM23.8081 6.14121L23.0786 5.45727L23.0728 5.46344L23.0672 5.4697L23.8081 6.14121ZM22.621 8.0768L23.548 8.452L23.5509 8.44446L22.621 8.0768ZM22.5694 12.9545L21.6229 13.2771L21.6261 13.2867L21.6296 13.2962L22.5694 12.9545ZM23.7307 14.9159L22.9897 15.5874L22.995 15.5932L23.0005 15.599L23.7307 14.9159ZM25.5115 16.1546L25.1203 17.075L25.1284 17.0784L25.5115 16.1546ZM30.4924 16.103L30.0802 15.1919L30.0802 15.1919L30.4924 16.103ZM32.1441 15.0707L33.052 14.6517L32.4657 13.3813L31.4536 14.3474L32.1441 15.0707ZM33.0523 17.6575C32.9388 17.7521 32.6403 17.9414 32.0732 18.2336L32.9891 20.0115C33.5576 19.7187 34.0334 19.4434 34.3327 19.1939L33.0523 17.6575ZM32.062 18.2394C31.5936 18.4883 30.9866 18.7225 30.2258 18.933L30.759 20.8606C31.6154 20.6237 32.3677 20.3418 33.0003 20.0057L32.062 18.2394ZM30.2258 18.933C29.5237 19.1272 28.7264 19.2224 27.8259 19.2066L27.7908 21.2063C28.8517 21.2249 29.8437 21.1137 30.759 20.8606L30.2258 18.933ZM27.8313 19.2067C26.4397 19.1747 25.2242 18.9277 24.1698 18.4845L23.3949 20.3283C24.7148 20.883 26.1833 21.1694 27.7854 21.2062L27.8313 19.2067ZM24.186 18.4915C23.1309 18.026 22.2454 17.4047 21.5168 16.6306L20.0604 18.0014C20.9836 18.9822 22.0939 19.7545 23.3787 20.3213L24.186 18.4915ZM21.524 16.6383C20.8036 15.8566 20.2513 14.9603 19.8656 13.9423L17.9953 14.6507C18.4699 15.9037 19.1564 17.0205 20.0533 17.9937L21.524 16.6383ZM19.8656 13.9422C19.481 12.9268 19.2853 11.8346 19.2853 10.6576H17.2853C17.2853 12.0613 17.5197 13.395 17.9953 14.6507L19.8656 13.9422ZM19.2853 10.6576C19.2853 9.31221 19.4853 8.10286 19.8722 7.01951L17.9887 6.34684C17.5154 7.67222 17.2853 9.11247 17.2853 10.6576H19.2853ZM19.8679 7.03136C20.2735 5.93949 20.8359 5.0128 21.5498 4.23812L20.0791 2.88275C19.1757 3.863 18.4822 5.01814 17.993 6.33499L19.8679 7.03136ZM21.5426 4.2458C22.2712 3.47173 23.1361 2.87111 24.1471 2.4422L23.366 0.601037C22.1059 1.13562 21.0094 1.89421 20.0862 2.87507L21.5426 4.2458ZM24.1471 2.4422C25.1455 2.01862 26.2667 1.799 27.5245 1.799V-0.201C26.0294 -0.201 24.6386 0.0611276 23.366 0.601037L24.1471 2.4422ZM27.5245 1.799C28.7094 1.799 29.7208 1.95931 30.5742 2.25876L31.2364 0.371556C30.1284 -0.0172026 28.8859 -0.201 27.5245 -0.201V1.799ZM30.5742 2.25876C31.5095 2.58693 32.2332 2.92653 32.767 3.26759L33.8438 1.58219C33.1389 1.13181 32.2625 0.731587 31.2364 0.371556L30.5742 2.25876ZM32.3821 2.04075L30.9111 5.57642L32.7576 6.3447L34.2287 2.80903L32.3821 2.04075ZM32.4395 5.1644C31.9355 4.78138 31.2931 4.41213 30.5352 4.05119L29.6753 5.85692C30.3626 6.18419 30.873 6.48594 31.2293 6.75672L32.4395 5.1644ZM30.5611 4.06401C29.6922 3.61895 28.7138 3.41209 27.6535 3.41209V5.41209C28.4513 5.41209 29.1075 5.56654 29.6494 5.8441L30.5611 4.06401ZM27.6535 3.41209C26.7828 3.41209 25.9433 3.59976 25.144 3.96867L25.9821 5.78459C26.5248 5.53412 27.0789 5.41209 27.6535 5.41209V3.41209ZM25.1547 3.96381C24.3733 4.3134 23.6806 4.81513 23.0786 5.45727L24.5377 6.82516C24.968 6.36616 25.4453 6.02484 25.9714 5.78945L25.1547 3.96381ZM23.0672 5.4697C22.4819 6.11549 22.0246 6.86545 21.691 7.70914L23.5509 8.44446C23.8024 7.8085 24.1365 7.26807 24.5491 6.81273L23.0672 5.4697ZM21.694 7.70161C21.3485 8.55519 21.1823 9.47559 21.1823 10.4511H23.1823C23.1823 9.70612 23.3085 9.04364 23.5479 8.45199L21.694 7.70161ZM21.1823 10.4511C21.1823 11.4576 21.3248 12.4028 21.6229 13.2771L23.5159 12.6318C23.2978 11.9921 23.1823 11.2684 23.1823 10.4511H21.1823ZM21.6296 13.2962C21.9454 14.1647 22.3967 14.933 22.9897 15.5874L24.4717 14.2443C24.0668 13.7976 23.7439 13.2583 23.5092 12.6127L21.6296 13.2962ZM23.0005 15.599C23.597 16.2367 24.3069 16.7293 25.1203 17.075L25.9026 15.2343C25.3396 14.995 24.8624 14.6618 24.461 14.2327L23.0005 15.599ZM25.1284 17.0784C25.972 17.4282 26.8963 17.5934 27.8858 17.5934V15.5934C27.1203 15.5934 26.4617 15.4661 25.8945 15.2309L25.1284 17.0784ZM27.8858 17.5934C29.0047 17.5934 30.0215 17.4136 30.9045 17.0141L30.0802 15.1919C29.518 15.4463 28.7971 15.5934 27.8858 15.5934V17.5934ZM30.9045 17.0141C31.6824 16.6622 32.3439 16.2624 32.8345 15.7941L31.4536 14.3474C31.1872 14.6016 30.7475 14.89 30.0802 15.1919L30.9045 17.0141ZM31.2361 15.4898L32.7846 18.8448L34.6005 18.0067L33.052 14.6517L31.2361 15.4898Z" fill="#FFFFFF" mask="url(#path-1-outside-1_49_258)"/>
</svg>
