<svg width="23" height="22" viewBox="0 0 23 22" fill="none" xmlns="http://www.w3.org/2000/svg">
<g clip-path="url(#clip0_27_486)">
<path fill-rule="evenodd" clip-rule="evenodd" d="M5.23334 10.9999C5.23334 10.3013 5.34937 9.63154 5.55646 9.00332L1.93159 6.23523C1.22512 7.66963 0.827087 9.2859 0.827087 10.9999C0.827087 12.7125 1.22463 14.3278 1.93012 15.7612L5.55304 12.9878C5.3479 12.3625 5.23334 11.6951 5.23334 10.9999Z" fill="#FBBC05"/>
<path fill-rule="evenodd" clip-rule="evenodd" d="M11.5979 4.64438C13.1156 4.64438 14.4865 5.18216 15.5635 6.06216L18.6969 2.93327C16.7875 1.27105 14.3396 0.244385 11.5979 0.244385C7.34148 0.244385 3.68331 2.67856 1.93158 6.23523L5.55645 9.00332C6.39168 6.46794 8.77253 4.64438 11.5979 4.64438Z" fill="#EB4335"/>
<path fill-rule="evenodd" clip-rule="evenodd" d="M11.5979 17.3555C8.77253 17.3555 6.39168 15.532 5.55645 12.9966L1.93158 15.7642C3.68331 19.3213 7.34148 21.7555 11.5979 21.7555C14.225 21.7555 16.7332 20.8227 18.6156 19.0749L15.1748 16.4149C14.204 17.0265 12.9815 17.3555 11.5979 17.3555Z" fill="#34A853"/>
<path fill-rule="evenodd" clip-rule="evenodd" d="M21.8792 11C21.8792 10.3644 21.7813 9.67999 21.6344 9.04443H11.5979V13.2H17.375C17.0862 14.6168 16.2999 15.706 15.1748 16.4149L18.6156 19.075C20.593 17.2397 21.8792 14.5058 21.8792 11Z" fill="#4285F4"/>
</g>
<defs>
<clipPath id="clip0_27_486">
<rect width="22" height="22" fill="white" transform="translate(0.5)"/>
</clipPath>
</defs>
</svg>
