<svg width="36" height="36" viewBox="0 0 36 36" fill="none" xmlns="http://www.w3.org/2000/svg">
<rect width="36" height="36" rx="18" fill="#fff"/>
<path d="M16.3 26.9973C16.4674 27.3018 16.7134 27.5557 17.0125 27.7325C17.3115 27.9094 17.6526 28.0026 18 28.0026C18.3474 28.0026 18.6885 27.9094 18.9875 27.7325C19.2866 27.5557 19.5326 27.3018 19.7 26.9973M12 13.9973C12 12.406 12.6321 10.8799 13.7574 9.75467C14.8826 8.62946 16.4087 7.99731 18 7.99731C19.5913 7.99731 21.1174 8.62946 22.2426 9.75467C23.3679 10.8799 24 12.406 24 13.9973C24 20.9973 27 22.9973 27 22.9973H9C9 22.9973 12 20.9973 12 13.9973Z" stroke="#FFC107" stroke-linecap="round" stroke-linejoin="round"/>
</svg>
