<svg width="35" height="36" viewBox="0 0 35 36" fill="none" xmlns="http://www.w3.org/2000/svg">
<rect width="35" height="36" rx="17.5" fill="#fff"/>
<path d="M8 13L12.41 8.59C12.5961 8.40283 12.8173 8.25434 13.061 8.15308C13.3047 8.05182 13.5661 7.99979 13.83 8H22.17C22.4339 7.99979 22.6953 8.05182 22.939 8.15308C23.1827 8.25434 23.4039 8.40283 23.59 8.59L28 13M8 13H28M8 13V16C8 16.5304 8.21071 17.0391 8.58579 17.4142C8.96086 17.7893 9.46957 18 10 18M28 13V16C28 16.5304 27.7893 17.0391 27.4142 17.4142C27.0391 17.7893 26.5304 18 26 18M10 18V26C10 26.5304 10.2107 27.0391 10.5858 27.4142C10.9609 27.7893 11.4696 28 12 28H24C24.5304 28 25.0391 27.7893 25.4142 27.4142C25.7893 27.0391 26 26.5304 26 26V18M10 18C10.5843 17.9678 11.1423 17.7467 11.59 17.37C11.7093 17.2838 11.8528 17.2374 12 17.2374C12.1472 17.2374 12.2907 17.2838 12.41 17.37C12.8577 17.7467 13.4157 17.9678 14 18C14.5843 17.9678 15.1423 17.7467 15.59 17.37C15.7093 17.2838 15.8528 17.2374 16 17.2374C16.1472 17.2374 16.2907 17.2838 16.41 17.37C16.8577 17.7467 17.4157 17.9678 18 18C18.5843 17.9678 19.1423 17.7467 19.59 17.37C19.7093 17.2838 19.8528 17.2374 20 17.2374C20.1472 17.2374 20.2907 17.2838 20.41 17.37C20.8577 17.7467 21.4157 17.9678 22 18C22.5843 17.9678 23.1423 17.7467 23.59 17.37C23.7093 17.2838 23.8528 17.2374 24 17.2374C24.1472 17.2374 24.2907 17.2838 24.41 17.37C24.8577 17.7467 25.4157 17.9678 26 18M21 28V24C21 23.4696 20.7893 22.9609 20.4142 22.5858C20.0391 22.2107 19.5304 22 19 22H17C16.4696 22 15.9609 22.2107 15.5858 22.5858C15.2107 22.9609 15 23.4696 15 24V28" stroke="#FFC107" stroke-linecap="round" stroke-linejoin="round"/>
</svg>
