<svg width="21" height="11" viewBox="0 0 21 11" fill="none" xmlns="http://www.w3.org/2000/svg">
<rect x="1" y="0.5" width="19" height="10" rx="1" stroke="#5549EF"/>
<circle cx="2.5" cy="2" r="0.5" fill="#5549EF"/>
<circle cx="2.5" cy="9" r="0.5" fill="#5549EF"/>
<circle cx="18.5" cy="2" r="0.5" fill="#5549EF"/>
<circle cx="18.5" cy="9" r="0.5" fill="#5549EF"/>
<path d="M5.64216 7.56441H5L6.44291 3.55482H7.14184L8.58475 7.56441H7.94259L6.80902 4.28312H6.77769L5.64216 7.56441ZM5.74984 5.99425H7.83295V6.50328H5.74984V5.99425Z" fill="#5549EF"/>
<path d="M9.16377 7.56441V3.55482H10.6321C10.9167 3.55482 11.1523 3.60181 11.3389 3.69578C11.5255 3.78845 11.6652 3.9144 11.7579 4.07364C11.8505 4.23157 11.8969 4.40973 11.8969 4.60812C11.8969 4.77519 11.8662 4.91615 11.8049 5.03101C11.7435 5.14456 11.6613 5.23592 11.5582 5.3051C11.4564 5.37297 11.3441 5.42257 11.2214 5.45389V5.49305C11.3546 5.49958 11.4844 5.54265 11.611 5.62226C11.7389 5.70058 11.8447 5.81217 11.9282 5.95705C12.0117 6.10193 12.0535 6.27813 12.0535 6.48566C12.0535 6.69058 12.0052 6.87461 11.9086 7.03776C11.8133 7.19961 11.6658 7.32817 11.4662 7.42345C11.2665 7.51742 11.0113 7.56441 10.7006 7.56441H9.16377ZM9.76873 7.04559H10.6419C10.9317 7.04559 11.1392 6.98947 11.2645 6.87722C11.3898 6.76497 11.4524 6.62466 11.4524 6.45629C11.4524 6.32969 11.4205 6.21352 11.3565 6.1078C11.2926 6.00208 11.2012 5.91789 11.0824 5.85524C10.965 5.79259 10.8253 5.76127 10.6635 5.76127H9.76873V7.04559ZM9.76873 5.28944H10.5793C10.715 5.28944 10.837 5.26333 10.9454 5.21112C11.055 5.15892 11.1418 5.08582 11.2058 4.99185C11.271 4.89657 11.3037 4.78432 11.3037 4.65511C11.3037 4.48935 11.2456 4.35034 11.1294 4.23809C11.0132 4.12585 10.8351 4.06972 10.5949 4.06972H9.76873V5.28944Z" fill="#5549EF"/>
<path d="M16.1013 4.85872H15.4904C15.4669 4.7282 15.4232 4.61334 15.3593 4.51414C15.2953 4.41495 15.217 4.33076 15.1243 4.26159C15.0316 4.19241 14.9279 4.1402 14.813 4.10496C14.6995 4.06972 14.5787 4.0521 14.4508 4.0521C14.2198 4.0521 14.0129 4.11018 13.8302 4.22635C13.6488 4.34251 13.5052 4.51284 13.3995 4.73733C13.2951 4.96183 13.2429 5.23592 13.2429 5.55961C13.2429 5.88592 13.2951 6.16131 13.3995 6.38581C13.5052 6.61031 13.6494 6.77998 13.8322 6.89484C14.0149 7.0097 14.2205 7.06713 14.4489 7.06713C14.5755 7.06713 14.6956 7.05016 14.8091 7.01622C14.924 6.98098 15.0277 6.92943 15.1204 6.86156C15.2131 6.79369 15.2914 6.71081 15.3553 6.61292C15.4206 6.51372 15.4656 6.40017 15.4904 6.27226L16.1013 6.27421C16.0686 6.4713 16.0053 6.65272 15.9114 6.81849C15.8187 6.98294 15.6993 7.12521 15.5531 7.24529C15.4082 7.36406 15.2424 7.45608 15.0558 7.52134C14.8692 7.5866 14.6655 7.61923 14.445 7.61923C14.0978 7.61923 13.7884 7.537 13.517 7.37255C13.2455 7.20678 13.0314 6.96989 12.8748 6.66186C12.7195 6.35383 12.6418 5.98642 12.6418 5.55961C12.6418 5.13151 12.7201 4.76409 12.8768 4.45737C13.0334 4.14934 13.2474 3.9131 13.5189 3.74864C13.7904 3.58288 14.0991 3.5 14.445 3.5C14.6577 3.5 14.8561 3.53067 15.0401 3.59202C15.2255 3.65206 15.3919 3.74081 15.5394 3.85828C15.6869 3.97444 15.8089 4.11671 15.9055 4.28508C16.0021 4.45215 16.0673 4.64336 16.1013 4.85872Z" fill="#5549EF"/>
</svg>
