<svg width="9" height="9" viewBox="0 0 9 9" fill="none" xmlns="http://www.w3.org/2000/svg">
<path d="M8.04031 7.02506C7.98538 6.91792 7.90424 6.82428 7.80224 6.75614L4.15348 4.31703V3.97225C4.15341 3.96039 4.15876 3.94967 4.16674 3.94209C4.19937 3.93905 4.24257 3.93351 4.29338 3.92291C4.39747 3.90095 4.53424 3.86056 4.67159 3.76616C4.87305 3.6266 5.04002 3.43655 5.15714 3.2119C5.27417 2.98727 5.341 2.72754 5.34093 2.45356C5.34106 2.02246 5.17602 1.62934 4.91078 1.34702C4.64588 1.06447 4.27686 0.888916 3.87231 0.888916C3.56908 0.888916 3.28494 0.987472 3.05084 1.15622C2.81663 1.32493 2.63088 1.56321 2.5191 1.84439C2.45862 1.99672 2.52562 2.17251 2.6686 2.23699C2.81165 2.30136 2.97673 2.23018 3.03716 2.07786C3.10575 1.90496 3.22109 1.75694 3.36584 1.6528C3.51073 1.5487 3.68364 1.48811 3.87229 1.48811C4.12326 1.48811 4.34811 1.59563 4.51303 1.77093C4.67746 1.94648 4.77833 2.186 4.77839 2.45356C4.77833 2.62418 4.73745 2.78231 4.66531 2.921C4.59315 3.05945 4.48949 3.17758 4.36511 3.26365C4.31664 3.2981 4.2445 3.32334 4.1862 3.33493C4.15719 3.34087 4.13201 3.34403 4.1156 3.34542C4.10731 3.34629 4.10132 3.34668 4.09819 3.3468H4.09652L4.05837 3.34731L4.02094 3.35918C3.766 3.43958 3.59103 3.68894 3.59096 3.97227V4.32626L0.294817 6.77581L0.294881 6.77558C0.106577 6.91552 -0.000174347 7.1423 2.13746e-07 7.37755C2.13746e-07 7.45098 0.0104421 7.52533 0.0317544 7.59738C0.121955 7.90329 0.387921 8.11114 0.688721 8.11114H7.43623C7.7433 8.11114 8.01311 7.8947 8.0981 7.58034V7.5802C8.11607 7.51319 8.125 7.44491 8.125 7.37753C8.125 7.25323 8.09532 7.13232 8.04031 7.02506ZM7.55755 7.41489V7.41475C7.54203 7.47218 7.49246 7.51206 7.43625 7.51206H0.688721C0.633576 7.51206 0.58481 7.47369 0.568353 7.41792C0.564259 7.40429 0.562498 7.39078 0.562498 7.37753C0.562609 7.33437 0.581922 7.29272 0.616453 7.26722H0.61658L3.88048 4.84191L7.50328 7.26357C7.52242 7.27645 7.53664 7.29311 7.54689 7.3128C7.55708 7.33248 7.56258 7.35483 7.56258 7.37755C7.56258 7.38979 7.56092 7.40202 7.55755 7.41489Z" fill="#5549EF"/>
</svg>
