<svg width="16" height="17" viewBox="0 0 16 17" fill="none" xmlns="http://www.w3.org/2000/svg">
<path d="M14.23 11.7V11.87H14.4H15.2C15.3671 11.87 15.5273 11.9364 15.6455 12.0546C15.7636 12.1727 15.83 12.3329 15.83 12.5V15.7C15.83 15.8671 15.7636 16.0273 15.6455 16.1455C15.5273 16.2636 15.3671 16.33 15.2 16.33H0.8C0.632913 16.33 0.47267 16.2636 0.354522 16.1455C0.236374 16.0273 0.17 15.8671 0.17 15.7V12.5C0.17 12.3329 0.236375 12.1727 0.354522 12.0546C0.47267 11.9364 0.632913 11.87 0.8 11.87H1.6H1.77V11.7V7.70006V7.53006H1.6H0.8C0.632913 7.53006 0.47267 7.46368 0.354522 7.34553C0.236375 7.22739 0.17 7.06715 0.17 6.90006L0.17 4.50008L0.17 4.50005C0.169985 4.37816 0.205331 4.25888 0.271754 4.15668C0.338177 4.05447 0.432824 3.97373 0.54422 3.92424L0.544243 3.92423L7.74422 0.72426C7.82475 0.688485 7.91188 0.67 8 0.67C8.08811 0.67 8.17524 0.688481 8.25576 0.724249C8.25576 0.724253 8.25577 0.724256 8.25578 0.72426L15.4558 3.92423L15.4558 3.92424C15.5672 3.97373 15.6618 4.05447 15.7282 4.15668C15.7947 4.25888 15.83 4.37816 15.83 4.50005V6.90006C15.83 7.06715 15.7636 7.22739 15.6455 7.34553C15.5273 7.46368 15.3671 7.53006 15.2 7.53006H14.4H14.23V7.70006V11.7ZM1.53095 4.86473L1.43 4.9096V5.02007V6.10007V6.27007H1.6H14.4H14.57V6.10007V5.02007V4.9096L14.4691 4.86473L8.06905 2.01995L8 1.98925L7.93095 2.01995L1.53095 4.86473ZM12.97 7.70006V7.53006H12.8H10.6664H10.4964V7.70006V11.7V11.87H10.6664H12.8H12.97V11.7V7.70006ZM9.2364 7.70006V7.53006H9.0664H6.9336H6.7636V7.70006V11.7V11.87H6.9336H9.0664H9.2364V11.7V7.70006ZM5.5036 7.70006V7.53006H5.3336H3.2H3.03V7.70006V11.7V11.87H3.2H5.3336H5.5036V11.7V7.70006ZM1.6 13.13H1.43V13.3V14.9V15.07H1.6H14.4H14.57V14.9V13.3V13.13H14.4H1.6Z" fill="#5549EF" stroke="white" stroke-width="0.34"/>
</svg>
