<svg width="307" height="277" viewBox="0 0 307 277" fill="none" xmlns="http://www.w3.org/2000/svg">
<path opacity="0.06" d="M306.946 45.3744C307.805 24.1015 298.356 3.86634 279.373 -15.1582C260.39 -34.1827 240.032 -43.7814 219.245 -42.8302C198.458 -41.879 177.585 -31.5884 157.657 -11.4398L144.429 1.79093C150.166 10.2229 154.007 19.8144 155.681 29.8953C158.187 44.5698 156.148 59.6652 149.84 73.1329L198.544 24.1015C214.177 8.47835 228.665 7.35418 242.008 20.729C255.408 34.3056 254.291 48.8334 238.658 64.4854L95.9825 208.207C80.1773 224.118 65.5747 225.329 52.1748 211.839C38.7748 198.349 40.006 183.677 55.8684 167.823L116.598 106.685C132.045 92.5324 142.657 73.8287 146.919 53.2436C147.422 50.3871 147.71 47.4963 147.779 44.5961C148.185 28.8076 143.382 13.3286 134.121 0.580284C130.042 -5.45955 125.381 -11.0789 120.205 -16.1958C100.964 -35.5663 80.7785 -44.7326 60.0773 -43.9543C39.376 -43.1761 18.5889 -32.6261 -1.33925 -12.5639L-138.775 125.796C-158.703 145.945 -169.183 166.612 -169.956 187.712C-170.729 208.812 -161.366 229.22 -142.383 248.245C-123.399 267.269 -103.042 276.868 -82.2545 276.003C-61.4674 275.139 -40.6802 264.675 -20.6661 244.613L-7.52386 231.296C-13.2047 222.833 -17.0398 213.255 -18.7764 203.191C-21.1837 188.515 -19.1485 173.45 -12.9354 159.954L-61.6392 208.985C-77.1866 224.724 -91.7033 226.28 -104.588 212.358C-117.472 198.435 -116.871 184.34 -101.324 168.601L40.6646 24.7933C56.4697 8.88192 70.9863 7.49833 84.3863 21.1614C97.7862 34.8245 96.5837 49.3523 80.7786 65.2637L20.1351 126.315C4.66887 140.453 -5.94693 159.163 -10.1867 179.757C-10.6939 182.613 -10.9811 185.504 -11.0457 188.404C-11.4317 204.203 -6.66454 219.694 2.52611 232.506C6.69507 238.473 11.4115 244.032 16.6133 249.11C35.7684 268.48 55.9542 277.733 76.7414 276.955C97.5286 276.176 118.316 265.54 138.244 245.478L275.68 107.118C295.722 87.1707 306.145 66.5896 306.946 45.3744Z" fill="#5549EF"/>
</svg>
