<svg width="368" height="263" viewBox="0 0 368 263" fill="none" xmlns="http://www.w3.org/2000/svg">
<path opacity="0.06" d="M367.959 73.2257C368.621 55.7966 361.332 39.2176 346.686 23.6305C332.041 8.04346 316.335 0.179096 300.298 0.958449C284.261 1.7378 268.158 10.169 252.783 26.6771L242.578 37.5172C247.005 44.4257 249.967 52.2841 251.259 60.5435C253.193 72.5665 251.619 84.9344 246.753 95.9687L284.327 55.7966C296.388 42.9963 307.566 42.0752 317.859 53.0334C328.197 64.1569 327.336 76.0597 315.275 88.8837L205.202 206.637C193.009 219.673 181.743 220.665 171.405 209.613C161.067 198.56 162.017 186.539 174.255 173.55L221.107 123.459C233.025 111.863 241.212 96.5388 244.5 79.6731C244.888 77.3328 245.109 74.9643 245.162 72.5881C245.476 59.6523 241.77 46.9702 234.626 36.5253C231.479 31.5768 227.883 26.9728 223.89 22.7804C209.046 6.90989 193.473 -0.600238 177.502 0.0374148C161.531 0.675068 145.494 9.31878 130.12 25.7561L24.0897 139.117C8.71538 155.625 0.630558 172.558 0.0341391 189.845C-0.56228 207.133 6.66106 223.853 21.3065 239.441C35.9519 255.028 51.6576 262.892 67.6946 262.184C83.7317 261.475 99.7687 252.902 115.209 236.465L125.348 225.554C120.966 218.62 118.007 210.772 116.667 202.528C114.81 190.503 116.38 178.16 121.174 167.102L83.5991 207.275C71.6045 220.169 60.405 221.445 50.4647 210.038C40.5244 198.631 40.9883 187.082 52.9829 174.187L162.525 56.3634C174.719 43.3269 185.918 42.1933 196.256 53.3877C206.594 64.582 205.666 76.4849 193.473 89.5213L146.687 139.542C134.755 151.125 126.565 166.455 123.294 183.327C122.903 185.667 122.681 188.036 122.631 190.412C122.334 203.357 126.011 216.049 133.102 226.546C136.318 231.434 139.957 235.989 143.97 240.149C158.748 256.02 174.321 263.601 190.358 262.963C206.395 262.325 222.432 253.611 237.807 237.173L343.837 123.813C359.299 107.47 367.34 90.6077 367.959 73.2257Z" fill="#E6E5FD"/>
</svg>
