<svg width="21" height="22" viewBox="0 0 21 22" fill="none" xmlns="http://www.w3.org/2000/svg">
<path d="M10.5688 21.9978L6.71652 21.9976C6.30151 21.9973 6.02021 21.9469 5.61177 21.8779C4.64308 21.7141 4.08444 21.3042 3.68244 20.4741C3.32027 20.7473 2.89383 21.0019 2.4253 21.0536C1.23076 21.1853 0.220069 20.5556 0.0414309 19.3866C-0.0139513 19.024 -0.00375147 18.6617 0.0145851 18.2975L0.265996 15.2748L0.700143 12.1273C0.759193 11.7208 0.828127 11.4725 0.929781 11.0712L1.7196 7.96777C2.02344 6.69977 2.30958 5.2918 3.6717 4.68314C4.172 4.45958 6.30807 4.08502 6.86584 4.03058L6.85828 3.95079C6.83129 3.6099 6.85272 3.25098 6.85275 2.90815C6.85281 2.22029 6.74242 1.53076 7.25068 0.968221C7.99626 0.143056 9.25309 0.0735756 10.3041 0.00649233C11.906 -0.051224 14.1563 0.244383 14.1613 2.1782L14.1625 3.65995C14.1621 4.05468 14.0443 4.00168 14.4188 4.06672L16.024 4.37208C16.392 4.44153 16.7663 4.48807 17.1225 4.6068C18.0594 4.91905 18.7504 5.80436 18.9783 6.71925C18.9999 6.80601 19.0251 6.9035 19.0551 6.98819L19.2101 7.58483C19.2353 7.71222 19.2782 7.8411 19.3098 7.96736L19.6537 9.39985C19.6948 9.55959 19.7501 9.71516 19.7832 9.87698L20.1564 11.3391C20.235 11.5883 20.2652 11.8708 20.307 12.1273L20.479 13.2913L20.9442 17.7759C21.0395 18.9378 21.1808 20.4078 19.7689 20.9273C18.8832 21.2532 18.0817 20.9534 17.2576 20.615C17.1903 20.7095 17.1484 20.8248 17.0819 20.9227C16.6701 21.5295 16.043 21.7663 15.3192 21.9008L14.8554 21.974C14.6767 22.0109 14.4858 21.9976 14.3039 21.9978L10.5688 21.9978ZM10.3019 0.827663C9.54969 0.847195 7.51553 1.04858 7.75027 2.11853L7.75336 2.13384C7.80256 2.36096 8.03434 2.58219 8.21186 2.72299C9.37328 3.64408 11.2871 3.71861 12.5493 2.91848C12.8257 2.74327 13.1622 2.42146 13.2473 2.10709L12.7171 2.27448C11.846 2.48458 10.9741 2.30096 10.0888 2.3284C9.79477 2.33752 9.17519 2.54499 8.92988 2.4043C8.72961 2.28944 8.64398 2.05822 8.7827 1.86422C9.0793 1.44948 10.6649 1.50414 11.1197 1.51841L11.705 1.56439C12.1104 1.58588 12.544 1.53786 12.8962 1.33058C12.2496 0.824522 11.1081 0.81094 10.3049 0.827332L10.3019 0.827663ZM7.75505 3.4354C7.73405 3.60653 7.71526 3.85531 7.75339 4.026C8.54118 4.58964 8.96343 4.88189 10.0423 4.95087L10.0567 4.94313L10.0651 4.44784C10.0663 4.40156 10.0863 4.30698 10.0685 4.26767C9.35245 4.20907 8.54092 3.98096 7.9528 3.56383C7.90137 3.52736 7.81697 3.44173 7.75505 3.4354ZM13.2284 3.44019C12.6558 3.92625 11.7204 4.21524 10.9546 4.25935L10.9564 4.95591C11.7783 4.88351 12.6012 4.66975 13.2194 4.1227L13.2284 3.44019ZM7.3099 4.79736L5.37153 5.15576C4.74774 5.277 4.09436 5.32632 3.57784 5.72281C3.67325 5.84499 3.78733 5.94445 3.87799 6.07297C4.06244 6.33455 4.17942 6.63115 4.33402 6.90788L4.49547 7.24267C4.64133 7.62202 4.84364 7.98662 5.00517 8.35988C5.25443 8.93581 5.10376 9.56942 5.17438 10.1676L5.30277 11.0753C5.39439 11.6119 5.51699 12.1414 5.56071 12.6858C5.5812 12.9406 5.52289 13.5658 5.57223 13.7551L6.36428 13.7547L10.0584 13.7552L10.0647 5.80039C9.31197 5.72788 8.58003 5.54456 7.92902 5.16292C7.79852 5.08641 7.43674 4.7796 7.3099 4.79736ZM13.7605 4.81287C12.9661 5.39131 11.9602 5.78397 10.9543 5.78482L10.9534 13.755L14.6622 13.7547L15.2548 13.7538C15.3494 13.7536 15.456 13.7632 15.5493 13.7494L15.5495 12.7816C15.5475 12.5118 15.5392 12.2529 15.5625 11.9833L15.8347 10.0036C15.877 9.58931 15.8348 9.1437 15.9421 8.73877C16.1825 7.83217 16.8286 6.3951 17.4325 5.73942C17.0143 5.27323 16.0795 5.23791 15.4954 5.12273L14.1416 4.86406C14.0285 4.84706 13.8723 4.79265 13.7605 4.81287ZM3.08473 6.44557C2.8567 6.86744 2.74327 7.40223 2.63815 7.86206L1.65238 11.7144L3.68035 12.5884L4.67351 13.0062C4.66695 12.3955 4.62815 12.1398 4.51366 11.537L4.37313 10.6488C4.33144 10.3342 4.28285 10.0213 4.27735 9.70293L4.27715 9.13273C4.27764 8.86713 4.26366 8.85669 4.16043 8.61348C3.98732 8.20569 3.37551 6.75181 3.08473 6.44557ZM17.9502 6.46563C17.5531 7.02263 16.8397 8.37994 16.7552 9.04862C16.7294 9.25186 16.7384 9.46027 16.7271 9.66471L16.465 11.5748C16.435 11.8128 16.3273 12.8284 16.3983 13.0468L17.3175 12.6349L19.3475 11.7025C19.2549 11.3892 19.2024 11.0657 19.1205 10.7498L18.5399 8.53579C18.4025 7.97496 18.2525 6.95472 17.9502 6.46563ZM19.4795 12.5681L16.4627 13.9532C16.4866 14.2574 16.5373 14.5878 16.5871 14.8883L17.3028 19.3583C17.344 19.6582 17.337 19.6394 17.6097 19.8099C18.0525 20.0602 18.6985 20.3589 19.2233 20.2265C20.3452 19.9433 20.1744 18.7947 20.1008 17.9382L19.7314 14.141L19.5037 12.5887C19.4866 12.5684 19.4963 12.5731 19.4795 12.5681ZM1.49277 12.5672C1.4367 12.8429 1.41321 13.1292 1.37828 13.4083L1.16896 14.9167L0.910527 17.7761C0.900299 17.9108 0.876003 18.0436 0.869872 18.1789L0.86715 18.8313C0.86758 19.0509 0.862938 19.2525 0.93849 19.4624C1.33654 20.5684 2.73398 20.4304 3.3162 19.5744C3.4612 19.3738 3.41 19.1636 3.47318 18.9053L4.46593 14.6335C4.51914 14.3927 4.56389 14.1331 4.63938 13.8983L1.49277 12.5672ZM11.7192 14.5892L10.9532 14.5914L10.9534 19.3781L15.2498 19.3779C15.3875 19.378 15.5449 19.3932 15.6807 19.3775L16.4214 19.392L15.7368 14.9924C15.7213 14.8659 15.7312 14.7058 15.6914 14.5864L11.7192 14.5892ZM5.35374 14.59L4.27351 19.3698C4.31291 19.3971 8.53399 19.3776 8.99658 19.3775L10.0628 19.3792L10.0621 14.5956L5.35374 14.59ZM4.51939 20.2367L4.55068 20.3281C4.57243 20.377 4.62225 20.4281 4.65634 20.4705C5.1206 21.0487 5.80708 21.1391 6.50075 21.1396L10.0755 21.1393C10.064 21.034 10.0824 20.2871 10.0508 20.235L4.51939 20.2367ZM10.9522 20.2343L10.9542 21.1388L14.5098 21.1392C14.7054 21.139 14.9071 21.1488 15.0992 21.1083L15.1464 21.0986C15.4847 21.0287 15.7747 20.9405 16.0731 20.7671C16.2718 20.6149 16.3723 20.4689 16.464 20.2423L10.9522 20.2343Z" fill="#5549EF"/>
</svg>
