<svg width="22" height="23" viewBox="0 0 22 23" fill="none" xmlns="http://www.w3.org/2000/svg">
<path d="M19.9474 6.78947V5.21053C19.9474 4.65218 19.7256 4.11669 19.3308 3.72188C18.9359 3.32707 18.4005 3.10526 17.8421 3.10526H3.10526C2.54691 3.10526 2.01143 3.32707 1.61662 3.72188C1.2218 4.11669 1 4.65218 1 5.21053V19.9474C1 20.5057 1.2218 21.0412 1.61662 21.436C2.01143 21.8308 2.54691 22.0526 3.10526 22.0526H6.78947M14.6842 1V5.21053M6.26316 1V5.21053M1 9.42105H6.26316M16.2632 17.3158L14.6842 16V13.6316M21 15.7368C21 17.4119 20.3346 19.0183 19.1501 20.2028C17.9657 21.3872 16.3593 22.0526 14.6842 22.0526C13.0092 22.0526 11.4027 21.3872 10.2183 20.2028C9.03383 19.0183 8.36842 17.4119 8.36842 15.7368C8.36842 14.0618 9.03383 12.4553 10.2183 11.2709C11.4027 10.0865 13.0092 9.42105 14.6842 9.42105C16.3593 9.42105 17.9657 10.0865 19.1501 11.2709C20.3346 12.4553 21 14.0618 21 15.7368Z" stroke="#5549EF" stroke-linecap="round" stroke-linejoin="round"/>
</svg>
