<svg width="24" height="20" viewBox="0 0 24 20" fill="none" xmlns="http://www.w3.org/2000/svg">
<path d="M14.75 1H9.25L6.5 4.375H3.2C2.61652 4.375 2.05694 4.61205 1.64437 5.03401C1.23178 5.45597 1 6.02826 1 6.625V16.75C1 17.3467 1.23178 17.919 1.64437 18.341C2.05694 18.7629 2.61652 19 3.2 19H20.8C21.3835 19 21.9431 18.7629 22.3556 18.341C22.7682 17.919 23 17.3467 23 16.75V6.625C23 6.02826 22.7682 5.45597 22.3556 5.03401C21.9431 4.61205 21.3835 4.375 20.8 4.375H17.5L14.75 1Z" fill="#F7F7FF"/>
<path d="M12 14.5C13.8225 14.5 15.3 12.989 15.3 11.125C15.3 9.26104 13.8225 7.75 12 7.75C10.1775 7.75 8.7 9.26104 8.7 11.125C8.7 12.989 10.1775 14.5 12 14.5Z" fill="#F7F7FF"/>
<path d="M14.75 1H9.25L6.5 4.375H3.2C2.61652 4.375 2.05694 4.61205 1.64437 5.03401C1.23178 5.45597 1 6.02826 1 6.625V16.75C1 17.3467 1.23178 17.919 1.64437 18.341C2.05694 18.7629 2.61652 19 3.2 19H20.8C21.3835 19 21.9431 18.7629 22.3556 18.341C22.7682 17.919 23 17.3467 23 16.75V6.625C23 6.02826 22.7682 5.45597 22.3556 5.03401C21.9431 4.61205 21.3835 4.375 20.8 4.375H17.5L14.75 1Z" stroke="#5549EF" stroke-linecap="round" stroke-linejoin="round"/>
<path d="M12 14.5C13.8225 14.5 15.3 12.989 15.3 11.125C15.3 9.26104 13.8225 7.75 12 7.75C10.1775 7.75 8.7 9.26104 8.7 11.125C8.7 12.989 10.1775 14.5 12 14.5Z" stroke="#5549EF" stroke-linecap="round" stroke-linejoin="round"/>
</svg>
