<svg width="63" height="55" viewBox="0 0 63 55" fill="none" xmlns="http://www.w3.org/2000/svg">
<path d="M54.4321 49.5748L54.1 49.6932V50.0458V52.8846C54.1 53.7796 53.3796 54.5 52.5 54.5H2.1C1.22038 54.5 0.5 53.7796 0.5 52.8846V2.11538C0.5 1.22039 1.22038 0.5 2.1 0.5H52.5C53.3796 0.5 54.1 1.22039 54.1 2.11538V26.1081V26.4607L54.4321 26.5791C59.1285 28.2528 62.5 32.7721 62.5 38.0769C62.5 43.3818 59.1285 47.901 54.4321 49.5748ZM17.3 4.23077V3.73077H16.8H4.2H3.7V4.23077V50.7692V51.2692H4.2H50.4V50.7692V50.2692C43.7265 50.2692 38.3 44.8083 38.3 38.0769C38.3 31.3456 43.7265 25.8846 50.4 25.8846H50.9V25.3846V4.23077V3.73077H50.4H37.8H37.3V4.23077V23.2692C37.3 23.8314 37.0125 24.3498 36.5399 24.6452C36.0689 24.9376 35.4816 24.9633 34.9862 24.7138L34.9862 24.7138L27.5249 20.9569L27.3 20.8436L27.0751 20.9569L19.6138 24.7138L19.6138 24.7138C19.1184 24.9633 18.5311 24.9376 18.06 24.6452C17.5875 24.3498 17.3 23.8314 17.3 23.2692V4.23077ZM47.7854 38.4292L48.1351 38.0769L47.7854 37.7247L46.3007 36.2291L46.3003 36.2286C45.6733 35.5987 45.6733 34.5728 46.3003 33.9429L46.3012 33.942C46.9245 33.3125 47.9367 33.3125 48.56 33.942L48.5605 33.9424L50.0452 35.438L50.4 35.7955L50.7548 35.438L52.2395 33.9424L52.24 33.942C52.8633 33.3125 53.8755 33.3125 54.4988 33.942L54.4997 33.9429C55.1267 34.5728 55.1267 35.5987 54.4997 36.2286L54.4993 36.2291L53.0146 37.7247L52.6649 38.0769L53.0146 38.4292L54.4993 39.9248L54.4997 39.9252C55.1267 40.5551 55.1267 41.581 54.4997 42.2109L54.4988 42.2118C53.8755 42.8414 52.8633 42.8414 52.24 42.2118L52.2395 42.2114L50.7548 40.7158L50.4 40.3584L50.0452 40.7158L48.5605 42.2114L48.56 42.2118C47.9367 42.8414 46.9245 42.8414 46.3012 42.2118L46.3003 42.2109C45.6733 41.581 45.6733 40.5551 46.3003 39.9252L46.3007 39.9248L47.7854 38.4292ZM34.1 4.23077V3.73077H33.6H26.8191H21H20.5V4.23077V19.8465V20.6581L21.2248 20.2931L26.5861 17.5939L26.5869 17.5935C27.0351 17.367 27.5649 17.367 28.0131 17.5935L28.0139 17.5939L33.3752 20.2931L34.1 20.6581V19.8465V4.23077ZM59.3 38.0769C59.3 33.1335 55.3164 29.1154 50.4 29.1154C45.4836 29.1154 41.5 33.1335 41.5 38.0769C41.5 43.0204 45.4836 47.0385 50.4 47.0385C55.3164 47.0385 59.3 43.0204 59.3 38.0769ZM18.9 43.9231H10.5C9.62038 43.9231 8.9 43.2027 8.9 42.3077C8.9 41.4127 9.62038 40.6923 10.5 40.6923H18.9C19.7796 40.6923 20.5 41.4127 20.5 42.3077C20.5 43.2027 19.7796 43.9231 18.9 43.9231ZM18.9 37.5769H10.5C9.62038 37.5769 8.9 36.8565 8.9 35.9615C8.9 35.0665 9.62038 34.3462 10.5 34.3462H18.9C19.7796 34.3462 20.5 35.0665 20.5 35.9615C20.5 36.8565 19.7796 37.5769 18.9 37.5769Z" fill="#5549EF" stroke="#F7F7FF"/>
</svg>
