<svg width="17" height="17" viewBox="0 0 17 17" fill="none" xmlns="http://www.w3.org/2000/svg">
<path d="M16.5278 12.2866C16.5278 12.2866 16.4922 12.2866 16.4743 12.2955C16.2692 12.2776 16.0819 12.3936 16.0105 12.5898C15.8589 13.0536 15.4664 13.3926 14.9937 13.4818C13.8787 13.6869 12.746 13.8296 11.6132 13.9277V12.7325C11.6132 12.3757 11.4794 12.0368 11.2207 11.7871C10.971 11.5373 10.632 11.3946 10.2753 11.3946H6.70747C5.96715 11.3946 5.36954 11.9922 5.36954 12.7325V13.9277C4.23676 13.8296 3.11291 13.678 1.98905 13.4818C1.36468 13.3658 0.909789 12.8128 0.909789 12.1706V11.573L2.99695 12.2687C3.04155 12.2866 3.09507 12.2955 3.13966 12.2955C3.32697 12.2955 3.49645 12.1795 3.55888 11.9922C3.63916 11.7603 3.51428 11.5106 3.27346 11.4303L0.90087 10.6364V10.2797C0.90087 9.77125 1.18629 9.30744 1.64119 9.08445L1.77498 9.01309C1.93553 8.93282 2.07824 8.8347 2.20312 8.72767C2.21204 8.72767 2.22096 8.72767 2.22988 8.72767H5.79768C6.04742 8.72767 6.24365 8.53144 6.24365 8.28169C6.24365 8.03195 6.04742 7.83572 5.79768 7.83572H2.8364C2.8364 7.83572 2.87208 7.76436 2.88992 7.71977L4.03162 4.28576C4.21892 3.74167 4.72734 3.36705 5.29818 3.36705H6.68963C6.93937 3.36705 7.1356 3.17082 7.1356 2.92107C7.1356 2.67133 6.93937 2.4751 6.68963 2.4751H5.29818C4.33488 2.4751 3.48753 3.09054 3.18426 4.00033L2.04257 7.43434C2.04257 7.43434 2.04257 7.44326 2.04257 7.45218L0.767077 6.17669C0.588687 5.9983 0.312183 5.9983 0.133793 6.17669C-0.0445975 6.35508 -0.0445975 6.63159 0.133793 6.80998L1.4628 8.13898C1.4628 8.13898 1.40928 8.1925 1.3736 8.21034L1.23981 8.28169C0.481653 8.66523 0.00891961 9.42339 0.00891961 10.2797V14.9713C0.00891961 15.9525 0.811675 16.7552 1.79282 16.7552H2.30123C2.97911 16.7552 3.59456 16.3806 3.89782 15.7652L4.41515 14.7305C5.77092 14.8821 7.12668 14.9624 8.48245 14.9624C9.83821 14.9624 11.194 14.8821 12.5497 14.7305L13.0671 15.7652C13.3703 16.3717 13.9858 16.7463 14.6637 16.7463H15.1721C16.1532 16.7463 16.956 15.9435 16.956 14.9624V12.7325C16.956 12.4828 16.7597 12.2866 16.51 12.2866H16.5278ZM3.12183 15.3638C2.97019 15.667 2.66693 15.8544 2.32799 15.8544H1.81958C1.32901 15.8544 0.927628 15.453 0.927628 14.9624V13.9456C1.19521 14.1507 1.5074 14.2934 1.84634 14.3559C2.39043 14.454 2.94344 14.5432 3.49644 14.6145L3.13075 15.3549L3.12183 15.3638ZM6.27041 13.9902V12.7325C6.27041 12.4828 6.47556 12.2866 6.71639 12.2866H10.2842C10.4001 12.2866 10.5161 12.3311 10.5964 12.4203C10.6766 12.5006 10.7302 12.6166 10.7302 12.7325V13.9902C9.2406 14.0794 7.75105 14.0794 6.27041 13.9902ZM15.1899 15.8544H14.6815C14.3426 15.8544 14.0393 15.667 13.8877 15.3638L13.513 14.6235C14.0661 14.5521 14.6191 14.4629 15.1632 14.3648C15.511 14.3024 15.8143 14.1507 16.0819 13.9456V14.9713C16.0819 15.4619 15.6805 15.8633 15.1899 15.8633V15.8544Z" fill="#5549EF"/>
<path d="M10.8193 3.45614C11.119 3.45614 11.3545 3.22066 11.3545 2.92097C11.3545 2.03259 12.0716 1.31546 12.96 1.31546C13.8484 1.31546 14.5655 2.03259 14.5655 2.92097C14.5655 3.50965 14.2444 4.05553 13.72 4.33382C12.9172 4.76195 12.4249 5.63963 12.4249 6.62435V7.20233C12.4249 7.50202 12.6603 7.7375 12.96 7.7375C13.2597 7.7375 13.4952 7.50202 13.4952 7.20233V6.62435C13.4952 6.04636 13.7842 5.52189 14.223 5.27572C15.09 4.80477 15.6359 3.90568 15.6359 2.92097C15.6359 1.4439 14.4371 0.245117 12.96 0.245117C11.483 0.245117 10.2842 1.4439 10.2842 2.92097C10.2842 3.22066 10.5197 3.45614 10.8193 3.45614Z" fill="#5549EF"/>
<path d="M12.9815 8.80811C12.6818 8.80811 12.4463 9.04358 12.4463 9.34328C12.4463 9.64297 12.6925 9.87845 12.9815 9.87845C13.2705 9.87845 13.5166 9.64297 13.5166 9.34328C13.5166 9.04358 13.2812 8.80811 12.9815 8.80811Z" fill="#5549EF"/>
</svg>
