<svg width="18" height="15" viewBox="0 0 18 15" fill="none" xmlns="http://www.w3.org/2000/svg">
<path d="M16.5815 10.4721C16.5815 10.4721 16.5457 10.4721 16.5278 10.4811C16.322 10.4632 16.1341 10.5795 16.0625 10.7764C15.9104 11.2417 15.5167 11.5817 15.0424 11.6712C13.9238 11.877 12.7874 12.0202 11.6509 12.1187V10.9196C11.6509 10.5616 11.5167 10.2216 11.2572 9.97102C11.0066 9.72046 10.6666 9.57728 10.3086 9.57728H6.72925C5.98653 9.57728 5.38698 10.1768 5.38698 10.9196V12.1187C4.25053 12.0202 3.12302 11.8681 1.99551 11.6712C1.36912 11.5549 0.912745 11.0001 0.912745 10.3558V9.75625L3.00669 10.4542C3.05143 10.4721 3.10512 10.4811 3.14986 10.4811C3.33778 10.4811 3.5078 10.3648 3.57044 10.1768C3.65098 9.94417 3.5257 9.69361 3.28409 9.61308L0.903796 8.81666V8.45873C0.903796 7.94866 1.19015 7.48334 1.64652 7.25963L1.78075 7.18804C1.94182 7.10751 2.085 7.00907 2.21027 6.90169C2.21922 6.90169 2.22817 6.90169 2.23712 6.90169H5.81651C6.06707 6.90169 6.26393 6.70482 6.26393 6.45427C6.26393 6.20371 6.06707 6.00684 5.81651 6.00684H2.84562C2.84562 6.00684 2.88141 5.93526 2.89931 5.89051L4.04471 2.44535C4.23263 1.89949 4.74269 1.52366 5.31539 1.52366H6.71136C6.96191 1.52366 7.15878 1.32679 7.15878 1.07623C7.15878 0.825676 6.96191 0.62881 6.71136 0.62881H5.31539C4.34896 0.62881 3.49885 1.24625 3.19461 2.159L2.0492 5.60416C2.0492 5.60416 2.0492 5.61311 2.0492 5.62206L0.769569 4.34243C0.590599 4.16346 0.313197 4.16346 0.134227 4.34243C-0.0447424 4.5214 -0.0447424 4.7988 0.134227 4.97777L1.46755 6.31109C1.46755 6.31109 1.41386 6.36478 1.37807 6.38268L1.24384 6.45427C0.483218 6.83905 0.00894859 7.59967 0.00894859 8.45873V13.1656C0.00894859 14.15 0.814311 14.9553 1.79864 14.9553H2.30871C2.98879 14.9553 3.60624 14.5795 3.91048 13.962L4.4295 12.924C5.78966 13.0761 7.14983 13.1567 8.51 13.1567C9.87017 13.1567 11.2303 13.0761 12.5905 12.924L13.1095 13.962C13.4138 14.5705 14.0312 14.9464 14.7113 14.9464H15.2214C16.2057 14.9464 17.0111 14.141 17.0111 13.1567V10.9196C17.0111 10.669 16.8142 10.4721 16.5636 10.4721H16.5815ZM3.13197 13.5594C2.97984 13.8636 2.67559 14.0515 2.33555 14.0515H1.82549C1.33332 14.0515 0.930641 13.6488 0.930641 13.1567V12.1365C1.1991 12.3424 1.51229 12.4855 1.85233 12.5482C2.39819 12.6466 2.953 12.7361 3.5078 12.8077L3.14091 13.5504L3.13197 13.5594ZM6.29078 12.1813V10.9196C6.29078 10.669 6.49659 10.4721 6.7382 10.4721H10.3176C10.4339 10.4721 10.5503 10.5169 10.6308 10.6064C10.7113 10.6869 10.765 10.8032 10.765 10.9196V12.1813C9.27062 12.2708 7.77623 12.2708 6.29078 12.1813ZM15.2393 14.0515H14.7292C14.3891 14.0515 14.0849 13.8636 13.9328 13.5594L13.5569 12.8166C14.1117 12.745 14.6666 12.6556 15.2124 12.5571C15.5614 12.4945 15.8656 12.3424 16.1341 12.1365V13.1656C16.1341 13.6578 15.7314 14.0605 15.2393 14.0605V14.0515Z" fill="#5549EF"/>
<path d="M11.5167 8.09184C12.4026 8.09184 13.2885 7.77864 14.0133 7.19699L16.2594 9.44306C16.3489 9.53254 16.4652 9.57728 16.5726 9.57728C16.68 9.57728 16.8052 9.53254 16.8858 9.44306C17.0647 9.26409 17.0647 8.98669 16.8858 8.80772L14.6397 6.56165C15.2124 5.85472 15.5346 4.98672 15.5346 4.06502C15.5346 2.99121 15.114 1.98003 14.3534 1.21941C12.7874 -0.346574 10.2281 -0.346574 8.66212 1.21941C7.09614 2.78539 7.09614 5.34466 8.66212 6.91064C9.44959 7.69811 10.4787 8.09184 11.5077 8.09184H11.5167ZM9.30641 1.85475C9.91491 1.24625 10.7203 0.942007 11.5167 0.942007C12.3131 0.942007 13.1185 1.24625 13.7359 1.85475C14.3534 2.46325 14.6576 3.23282 14.6576 4.06502C14.6576 4.89723 14.3355 5.6847 13.7359 6.28425C12.5189 7.50124 10.5324 7.50124 9.30641 6.28425C8.08047 5.06725 8.08942 3.08069 9.30641 1.85475Z" fill="#5549EF"/>
</svg>
