<svg width="49" height="32" viewBox="0 0 49 32" fill="none" xmlns="http://www.w3.org/2000/svg">
<path d="M48.9945 8.9096C49.0827 6.78894 48.1121 4.77172 46.162 2.8752C44.212 0.978672 42.1207 0.0217911 39.9853 0.116617C37.85 0.211444 35.7058 1.23729 33.6586 3.24588L32.2998 4.56483C32.8892 5.4054 33.2837 6.36156 33.4557 7.36651C33.7132 8.82939 33.5037 10.3342 32.8557 11.6768L37.8588 6.78894C39.4647 5.23149 40.953 5.11942 42.3237 6.45273C43.7002 7.80616 43.5855 9.25442 41.9795 10.8147L27.3231 25.1421C25.6996 26.7283 24.1995 26.849 22.823 25.5042C21.4465 24.1594 21.5729 22.6968 23.2024 21.1163L29.4409 15.0216C31.0277 13.6107 32.1179 11.7462 32.5557 9.69407C32.6073 9.40931 32.6368 9.12113 32.6439 8.83201C32.6857 7.25808 32.1923 5.715 31.2409 4.44414C30.822 3.84204 30.3432 3.28186 29.8115 2.77175C27.8349 0.840747 25.7613 -0.0730328 23.6348 0.00455237C21.5082 0.0821375 19.3729 1.13384 17.3257 3.13382L3.2076 16.9267C1.16047 18.9353 0.0839602 20.9956 0.0045457 23.0991C-0.0748688 25.2025 0.886935 27.2369 2.837 29.1334C4.78707 31.03 6.87832 31.9869 9.01369 31.9007C11.1491 31.8145 13.2844 30.7714 15.3404 28.7714L16.6904 27.4438C16.1069 26.6002 15.7129 25.6453 15.5345 24.6421C15.2872 23.1791 15.4963 21.6772 16.1345 20.3319L11.1314 25.2197C9.53429 26.7887 8.04306 26.9438 6.71948 25.5559C5.39591 24.168 5.45768 22.7629 7.0548 21.1939L21.6406 6.8579C23.2642 5.27172 24.7554 5.13379 26.1319 6.49584C27.5084 7.85789 27.3849 9.30614 25.7613 10.8923L19.5317 16.9784C17.9429 18.3878 16.8524 20.253 16.4169 22.306C16.3648 22.5907 16.3353 22.8789 16.3286 23.168C16.289 24.743 16.7787 26.2873 17.7228 27.5645C18.1511 28.1593 18.6356 28.7134 19.1699 29.2197C21.1376 31.1507 23.2112 32.0731 25.3466 31.9955C27.482 31.9179 29.6173 30.8576 31.6645 28.8576L45.7826 15.0647C47.8415 13.0762 48.9121 11.0245 48.9945 8.9096Z" fill="#5549EF"/>
</svg>
