<svg width="21" height="26" viewBox="0 0 21 26" fill="none" xmlns="http://www.w3.org/2000/svg">
<path d="M2.53532 25.2417C1.74745 25.24 0.997873 24.8609 0.729827 24.139C0.648368 23.9197 0.633498 23.6947 0.612276 23.4653L0.013585 18.9089C-0.0960115 18.1687 0.471647 17.379 1.20633 17.1047C1.58788 16.9622 1.44267 17.114 1.44309 16.5217L1.4443 14.2739C1.44452 13.8983 1.42181 13.511 1.45059 13.1371L1.49987 12.7522C1.89716 9.79563 3.51752 7.63722 6.5738 6.53044C6.89391 6.41452 7.25224 6.29016 7.59008 6.23304L7.31548 5.82438C6.76486 4.95137 6.4619 3.98632 6.7017 2.9771C7.06512 1.4478 8.41451 0.359209 10.1173 0.258389C12.2166 0.150081 13.8407 1.09052 14.3486 3.08102C14.6401 4.22346 14.1278 5.29276 13.409 6.20759L14.2875 6.47689C17.6453 7.65241 19.6066 10.4024 19.6084 13.6919L19.6022 17.0341C19.6509 17.0583 19.6973 17.0675 19.749 17.0837C20.4968 17.3186 20.9929 18.0303 20.9999 18.7484C21.0028 19.0473 20.9487 19.332 20.912 19.6274L20.4019 23.5344C20.3086 24.407 19.8859 25.0572 18.8627 25.2302C18.6477 25.2666 18.3875 25.2417 18.1683 25.2417L2.53532 25.2417ZM10.4301 0.999219C10.2348 1.00894 10.0368 1.01078 9.84365 1.04021C8.7248 1.21068 7.7442 1.9974 7.50921 3.04451L7.4359 3.36183C7.19554 4.26442 7.90571 5.36068 8.44231 6.06206L8.45606 6.05922C8.75072 6.00018 9.26253 5.9508 9.57974 5.93486L10.6769 5.92887C11.009 5.92947 11.361 5.90962 11.6902 5.94866L12.2081 6.00393C12.3134 6.01755 12.4839 6.06604 12.5844 6.04638C13.0162 5.32394 13.5707 4.8211 13.6431 3.92163C13.709 3.1035 13.2414 2.14201 12.5754 1.6231C11.9906 1.16747 11.1837 0.961483 10.4301 0.999219ZM10.4346 6.66444C10.1062 6.67199 9.77509 6.6667 9.44748 6.69064C7.49954 6.83295 5.62591 7.53224 4.23545 8.82441C3.26438 9.72684 2.67904 10.8703 2.40037 12.1153L2.29774 12.7131C2.26603 12.9793 2.23132 13.2271 2.23005 13.4959L2.22873 16.9414L3.53369 16.8663C3.67004 16.8582 3.80443 16.8338 3.94217 16.8279L6.15616 16.7745C6.28153 16.774 6.42969 16.787 6.55126 16.7634L6.73054 16.7459C6.91021 16.7189 7.1016 16.7218 7.28349 16.7203L10.5915 16.7176L18.8111 16.9307L18.8127 14.631C18.8125 14.2075 18.8333 13.7748 18.8088 13.3523C18.6179 10.0581 16.3991 7.55708 12.8658 6.86678C12.4019 6.77612 11.8059 6.69397 11.3264 6.68197L10.4346 6.66444ZM9.31335 17.464L7.52647 17.4655C7.37876 17.4693 7.2354 17.4996 7.08634 17.5021L4.84156 17.5387L4.29769 17.5814L2.36031 17.6858C1.73188 17.7238 1.15343 17.7607 0.877343 18.3973L0.866858 18.4207C0.691037 18.817 0.93446 19.7826 0.989553 20.2204L1.42589 23.6062C1.43733 23.6954 1.43457 23.7825 1.47033 23.8679L1.48927 23.9104C1.57166 24.1156 1.78014 24.2965 1.99371 24.3841L2.06716 24.4131C2.16467 24.451 2.32683 24.4327 2.43168 24.4327L18.8412 24.43C18.9064 24.4272 18.9572 24.4134 19.017 24.3889L19.0403 24.3796C19.5417 24.174 19.5813 23.7646 19.623 23.3232L20.0792 19.8167C20.1529 19.1252 20.4557 18.1052 19.4696 17.7781C19.1961 17.6874 18.8741 17.6951 18.587 17.6754L16.0623 17.5409L13.8442 17.5026C13.7147 17.4994 13.5888 17.4697 13.4576 17.4672L9.31335 17.464Z" fill="#5549EF"/>
<path d="M9.1689 22.7025C8.61111 22.7497 8.67845 22.26 8.67817 21.9128L8.68157 19.1444C8.69248 18.922 8.76104 18.7986 8.99811 18.7181C9.04823 18.7158 9.09573 18.7132 9.1447 18.7252L9.16232 18.7298C9.28381 18.7603 9.33404 18.8122 9.40667 18.9002L9.42646 18.9227C9.4551 18.9647 9.46233 19.0201 9.46486 19.0688L9.46584 22.0101C9.46553 22.3278 9.53215 22.5453 9.1689 22.7025Z" fill="#5549EF"/>
<path d="M12.019 22.7039C11.7915 22.736 11.6663 22.6434 11.5652 22.4576L11.5514 22.4337C11.5085 22.3257 11.5301 22.1573 11.5299 22.0419L11.532 19.0747C11.5344 19.0307 11.5404 18.9928 11.5636 18.9535L11.5733 18.9379C11.6456 18.8166 11.7256 18.7605 11.8649 18.7176C12.0776 18.709 12.2787 18.8133 12.3133 19.0254L12.3153 19.0407C12.3469 19.2532 12.3307 19.4828 12.3311 19.6977L12.3331 21.8917C12.3331 22.192 12.4226 22.5886 12.019 22.7039Z" fill="#5549EF"/>
<path d="M5.57027 22.7142C5.37981 22.7575 5.20283 22.628 5.12832 22.4727C5.08809 22.3888 5.09602 19.0489 5.12958 18.9768C5.18712 18.8532 5.27895 18.7909 5.40823 18.7432C5.57334 18.7416 5.72768 18.7605 5.82117 18.9091L5.83146 18.9262C5.90913 19.0536 5.8804 19.1888 5.88054 19.3294L5.87927 22.3657C5.87211 22.5322 5.73603 22.6603 5.57027 22.7142Z" fill="#5549EF"/>
<path d="M15.5887 22.716C15.3397 22.7213 15.1379 22.5818 15.1267 22.3324C15.1142 22.0556 15.1078 19.0517 15.1365 18.9873C15.1926 18.8615 15.312 18.789 15.4435 18.7443C16.0356 18.7215 15.9001 19.3562 15.9004 19.7171L15.901 21.9371C15.9015 22.2491 15.9991 22.5953 15.5887 22.716Z" fill="#5549EF"/>
<path d="M18.2772 22.6637C17.8409 22.593 17.8744 22.2917 17.877 21.9465L17.8786 19.9203C17.8786 19.5508 17.7402 19.1121 18.2626 19.0182L18.3398 19.0259C18.4549 19.0489 18.5406 19.1091 18.6066 19.198L18.6212 19.2181C18.6983 19.3223 18.6634 19.4672 18.6636 19.5868L18.6657 22.3305C18.6645 22.3705 18.6628 22.4129 18.6379 22.4471L18.5961 22.5027C18.5099 22.6111 18.4152 22.6452 18.2772 22.6637Z" fill="#5549EF"/>
<path d="M2.79712 22.6487C2.63106 22.6535 2.52621 22.6231 2.42749 22.486L2.41271 22.4652C2.30772 22.323 2.35227 22.1612 2.35216 21.9972L2.3543 19.9525C2.35458 19.7859 2.30066 19.3726 2.39309 19.2361L2.4402 19.1676C2.51224 19.0752 2.61194 19.0505 2.72581 19.0318C3.0876 19.0167 3.13325 19.2961 3.1335 19.5403L3.13204 22.1783C3.13232 22.4327 3.08085 22.5545 2.79712 22.6487Z" fill="#5549EF"/>
</svg>
