<svg width="18" height="25" viewBox="0 0 18 25" fill="none" xmlns="http://www.w3.org/2000/svg">
<path d="M8.62017 23.6127L6.62319 24.3725C5.6384 24.7345 4.39627 24.8613 3.37824 24.6419C0.647918 24.0536 -0.783791 20.7336 0.442933 18.0935C1.14038 16.5925 2.0109 16.0219 3.3821 15.4367L7.7995 13.4838C7.96729 13.4077 7.96664 13.4574 7.9677 13.2506L7.97061 1.46694C7.97064 1.37076 7.96019 1.25174 7.99395 1.16161L7.99997 1.14639C8.0753 0.94481 8.2216 0.820092 8.42281 0.780711L16.5766 0.776475C17.0031 0.77627 17.9882 0.57962 18 1.26132L17.9963 15.7647C17.9896 16.0855 17.953 16.4112 17.8985 16.7273C17.4953 19.0634 16.3684 20.492 14.283 21.4015L8.62017 23.6127ZM10.0282 1.77647L8.91271 1.78386L8.91195 2.64587L16.7438 2.64461C16.8307 2.64458 16.9707 2.6634 17.0505 2.63634L17.052 1.7812L10.0282 1.77647ZM15.8959 3.64089L8.92038 3.64279L8.92028 5.40511L10.0972 5.40663L16.3519 5.40657C16.5792 5.40713 16.8258 5.43027 17.0501 5.40491L17.048 3.64621L15.8959 3.64089ZM8.92414 6.43061L8.92052 7.1426L17.0441 7.15163L17.0474 6.43111L8.92414 6.43061ZM9.71992 8.15962L8.93301 8.16287C8.91293 8.18837 8.91339 8.23292 8.91258 8.26599L8.91345 13.5012C8.91309 14.2114 8.78024 14.1694 8.1726 14.4334L3.08235 16.6761C3.36724 16.8203 3.66893 16.9127 3.94985 17.072C5.0272 17.6828 6.01188 18.7565 6.4203 20.0111L6.58028 20.5057C6.84472 21.4565 6.79313 22.3709 6.5552 23.3116L9.60681 22.1549L12.4082 21.0682C11.8727 19.7481 11.7404 18.2942 12.2428 16.9264C12.9109 15.1076 14.6469 13.7171 16.4905 13.6955L17.045 13.6946L17.0456 8.15913L9.71992 8.15962ZM16.4697 14.7183C14.6486 14.831 13.0997 16.3615 12.9025 18.3159C12.8496 18.8399 12.8663 19.4784 13.04 19.977L13.2353 20.5714C13.2504 20.6165 13.2741 20.6724 13.3069 20.7052L13.4212 20.6585C16.128 19.7366 17.2356 17.6338 17.0348 14.7241L16.4697 14.7183ZM2.06238 17.4251C1.6806 17.8901 1.35772 18.323 1.1643 18.9189C0.47727 21.0354 1.69629 23.4504 3.85427 23.6694C4.14613 23.699 4.44889 23.6828 4.74206 23.6819C4.9733 23.6752 5.21265 23.6762 5.4403 23.6305C5.63263 23.101 5.78714 22.5976 5.80067 22.0283C5.84678 20.0839 4.65089 18.4367 3.00549 17.7403L2.06238 17.4251Z" fill="#5549EF"/>
</svg>
