<svg width="21" height="20" viewBox="0 0 21 20" fill="none" xmlns="http://www.w3.org/2000/svg">
<path d="M12.8982 19.9889L7.49873 20C6.36787 20.0004 5.25574 19.8462 4.2387 19.3255C4.12701 19.8092 3.83651 19.8152 3.37167 19.8146C2.52879 19.8134 1.67828 19.6511 0.886006 19.3768C-0.301904 18.9657 -0.0214275 18.7088 0.185127 17.7146L1.2757 11.887L2.0808 6.11553C2.11937 5.79179 2.13703 5.463 2.19847 5.14256C2.43101 3.92952 3.28827 2.85439 4.44147 2.33773C4.7144 2.21546 5.00558 2.12602 5.29217 2.03931L6.32859 1.69462C6.77921 1.54411 6.58481 1.65132 6.87861 1.36388C7.26959 0.981314 7.7253 0.677309 7.99439 0.190618C8.05659 0.0781207 8.13005 0.0375236 8.25092 0.00282792C8.46395 -0.00768949 8.67113 0.0355272 8.8816 0.0407709L11.106 0.0767384C11.2247 0.0748827 11.3405 0.0575084 11.4584 0.053114L12.1954 0.0334939C12.3556 0.025139 12.5111 0.00295725 12.673 0.000192298C13.0401 -0.00607846 12.9921 0.141274 13.191 0.404401C13.3381 0.59893 13.5069 0.775259 13.6888 0.93894C13.878 1.10904 14.1383 1.27251 14.2686 1.48955C14.3572 1.63717 14.7397 1.70622 14.9034 1.75959L15.8257 2.06555C16.2072 2.18921 16.5894 2.28993 16.9378 2.49363C17.7939 2.99407 18.5257 3.84851 18.7631 4.80878L18.8223 5.03868C18.8836 5.23047 18.8894 5.45074 18.9134 5.64967L19.4582 9.729C19.4745 9.82458 19.4783 9.9219 19.4967 10.0175L19.7611 11.8562C19.7667 11.911 19.7827 11.9616 19.7924 12.0154L20.5252 15.9893L20.9925 18.393C21.0862 19.0264 20.2847 19.3002 19.7843 19.4694C19.0911 19.7037 18.3321 19.8205 17.5991 19.8133C17.2812 19.8101 16.8376 19.8303 16.765 19.4316C16.757 19.3877 16.7567 19.3226 16.7348 19.2847C15.8145 19.8245 14.9062 19.986 13.8629 19.9877L12.8982 19.9889ZM8.53279 0.608647C8.59411 0.777775 8.69708 0.939748 8.78548 1.09701C9.14014 1.72806 10.0106 3.0959 10.5826 3.58311C10.9001 3.24199 11.1674 2.88451 11.4263 2.49961L12.4865 0.620671L8.53279 0.608647ZM12.9668 1.04702C12.8696 1.205 12.7932 1.37861 12.7104 1.54434L12.3477 2.20982C12.1547 2.53132 11.9488 2.85889 11.7272 3.16304L11.1837 3.88287C11.3199 3.99718 11.4812 4.06915 11.6419 4.14418L12.154 4.3708L12.433 4.48246C13.0505 3.90969 13.5803 2.63855 13.8024 1.83697L12.9668 1.04702ZM8.05816 1.06883C7.80471 1.3463 7.53541 1.61328 7.23453 1.84253C7.24268 1.8802 7.25147 1.91274 7.26586 1.94863L7.44471 2.50681C7.49854 2.69932 7.61173 2.88317 7.69283 3.06511C7.90588 3.54302 8.24824 4.1145 8.63984 4.48269L9.00173 4.32415L9.94434 3.84504C9.90911 3.77758 9.85058 3.71725 9.80121 3.65893L8.90338 2.45945L8.39402 1.62397C8.28631 1.43428 8.19386 1.24186 8.05816 1.06883ZM6.69231 2.19801L6.67757 2.2062C6.42137 2.34641 6.09826 2.40499 5.82009 2.49929L5.32464 2.66655C4.16197 3.03056 3.25054 3.69244 2.89059 4.89681C2.75405 5.35367 2.73435 5.81695 2.67312 6.28609L2.10415 10.4699L1.82453 12.2817L0.713201 18.122C0.683329 18.2718 0.661871 18.4289 0.617357 18.5751C0.869981 18.8283 2.05868 19.0843 2.40216 19.1415C2.60367 19.175 3.46646 19.2717 3.65503 19.2095C3.74053 19.0886 3.73731 18.8802 3.75741 18.7384L3.97516 17.1195L4.11887 15.3925L4.13744 14.5572C4.14037 14.4588 4.16427 14.3639 4.16652 14.2646L4.1668 10.1098C4.16415 9.99996 4.13881 9.8904 4.13665 9.77874L4.12682 8.65499C4.11634 8.41284 4.08329 8.20662 4.08147 7.94559L4.07893 7.27302C4.07886 7.17981 4.06191 7.04514 4.09041 6.95746C4.19087 6.64833 4.64829 6.69342 4.66969 7.10793C4.67382 7.18809 4.68029 7.26864 4.67825 7.34891L4.68813 7.91235C4.69243 8.14749 4.73104 8.36908 4.73407 8.60387L4.73936 9.48304C4.74254 9.59514 4.76707 9.70502 4.76991 9.81756L4.77025 14.5311C4.76771 14.6474 4.74583 14.7603 4.74201 14.8758L4.67467 16.3155L4.39448 18.6512C4.36549 18.9281 5.97625 19.2696 6.23515 19.3209C6.45866 19.3652 6.74762 19.3842 6.97567 19.386L10.1998 19.3932L10.2004 4.79717C10.2003 4.6794 10.2144 4.5421 10.193 4.42723L9.01659 4.97579C8.64664 5.13294 8.54388 5.19569 8.22966 4.92238C7.77724 4.52892 7.39244 3.90408 7.14457 3.37632L6.69231 2.19801ZM14.3394 2.19925C14.1317 2.86937 13.335 4.81827 12.5841 5.09255L12.5688 5.09841C12.3892 5.16289 12.2617 5.0511 12.1089 4.9838L10.9248 4.4672C10.897 4.45363 10.856 4.42409 10.8263 4.4207L10.8306 19.387L13.0038 19.3865C13.4051 19.3863 13.8161 19.4057 14.216 19.382C14.8939 19.3419 15.4934 19.2004 16.1152 18.93C16.2968 18.851 16.5141 18.7647 16.6585 18.6286L16.2838 14.5311C16.2529 14.3341 16.2698 14.1127 16.2696 13.913L16.2726 10.3118C16.2756 10.2321 16.2979 10.1528 16.3016 10.0722L16.3086 8.81172L16.353 7.42519C16.355 7.20046 16.3062 6.81893 16.6199 6.76412C16.9652 6.70379 16.9635 6.98614 16.9615 7.21196L16.9544 8.93539C16.9507 9.0248 16.9302 9.11229 16.9255 9.20138L16.8787 10.4841L16.8785 13.7261C16.8802 13.8155 16.8969 13.9031 16.8988 13.9924L16.9266 15.3349L17.2069 18.1935L17.2781 18.632C17.3048 18.8279 17.3089 19.0296 17.3404 19.2243C18.2245 19.2786 19.7307 19.0256 20.3925 18.4927L19.1645 11.9709L18.3562 6.04779C18.2238 4.81811 17.9612 3.95472 16.8769 3.16442C16.4913 2.88336 16.0664 2.756 15.6143 2.6149L14.5113 2.25531C14.4549 2.23773 14.3975 2.20939 14.3394 2.19925Z" fill="#5549EF"/>
</svg>
