<svg width="30" height="30" viewBox="0 0 30 30" fill="none" xmlns="http://www.w3.org/2000/svg">
<path d="M19.1063 11.9881C19.1063 12.4045 19.1063 12.8105 19.1063 13.2175C19.1063 13.2903 19.1489 13.3091 19.1966 13.333C19.7082 13.5974 20.2187 13.8639 20.7313 14.1241C20.8292 14.1692 20.9064 14.25 20.9471 14.35C21.2751 15.111 21.6081 15.8708 21.9402 16.6318C22.0284 16.84 21.99 16.917 21.7752 16.9784C21.5324 17.0481 21.2906 17.121 21.0488 17.1866C21.029 17.1882 21.0098 17.1939 20.9923 17.2034C20.9748 17.2129 20.9595 17.2259 20.9474 17.2417C20.9353 17.2575 20.9266 17.2757 20.9219 17.2951C20.9172 17.3144 20.9166 17.3346 20.9202 17.3542C20.9254 18.5481 20.9202 19.7431 20.9202 20.9381C20.9202 21.1401 20.8953 21.1744 20.7064 21.2286C18.6871 21.8129 16.6674 22.3969 14.6474 22.9805C14.5601 23.0065 14.4671 23.0065 14.3797 22.9805C12.3604 22.3955 10.3407 21.8115 8.32073 21.2286C8.12876 21.1734 8.10386 21.139 8.10386 20.9402C8.10386 19.7536 8.10386 18.5669 8.10386 17.3812C8.10801 17.3589 8.10742 17.336 8.10212 17.3139C8.09683 17.2919 8.08696 17.2712 8.07315 17.2532C8.05934 17.2352 8.04191 17.2204 8.02199 17.2096C8.00207 17.1988 7.98011 17.1924 7.95755 17.1908C7.69709 17.1231 7.43871 17.0461 7.18137 16.9701C7.00496 16.918 6.96034 16.8264 7.03402 16.663C7.38786 15.876 7.74482 15.0901 8.09659 14.3021C8.11482 14.2628 8.14133 14.228 8.1743 14.1999C8.20726 14.1719 8.24589 14.1514 8.28753 14.1397C8.92881 13.9055 9.56905 13.6692 10.2114 13.4371C10.2871 13.41 10.3214 13.3799 10.3203 13.2903C10.3141 12.8594 10.3203 12.4274 10.3203 11.9683C10.2166 12.0724 10.1221 12.1516 10.0308 12.2327C10.0126 12.256 9.9891 12.2746 9.96227 12.2869C9.93544 12.2992 9.90607 12.3049 9.8766 12.3034C9.84714 12.302 9.81844 12.2935 9.79292 12.2787C9.76739 12.2639 9.74578 12.2431 9.72989 12.2182C8.98623 11.4062 8.24291 10.5936 7.49993 9.78028C7.4771 9.76306 7.45881 9.7405 7.44665 9.71457C7.43449 9.68864 7.42882 9.66012 7.43015 9.63149C7.43148 9.60287 7.43977 9.575 7.45428 9.55032C7.46879 9.52563 7.48909 9.50488 7.51342 9.48986L10.3639 6.8594C10.4014 6.82691 10.4457 6.80341 10.4936 6.7907L12.7412 6.03601C12.9135 5.97876 12.9685 6.0027 13.0525 6.16093C13.185 6.43553 13.3813 6.67418 13.6249 6.85679C13.8685 7.03939 14.1523 7.1606 14.4523 7.2102C14.6007 7.2383 14.6723 7.31429 14.6495 7.42671C14.6267 7.53913 14.5322 7.58702 14.3828 7.55995C14.0628 7.50623 13.7582 7.38323 13.4903 7.19952C13.2224 7.0158 12.9976 6.77577 12.8315 6.49611C12.8257 6.48036 12.8166 6.46607 12.8048 6.45425C12.7929 6.44244 12.7786 6.43338 12.7628 6.42772C12.7471 6.42206 12.7303 6.41994 12.7137 6.4215C12.697 6.42307 12.6809 6.42828 12.6665 6.43678C12.0398 6.65121 11.4116 6.8594 10.7821 7.06134C10.6897 7.09153 10.6783 7.14045 10.6783 7.22373C10.6783 9.72199 10.6783 12.2203 10.6783 14.7185C10.6752 14.7362 10.6758 14.7544 10.68 14.7719C10.6842 14.7893 10.692 14.8058 10.7028 14.8201C10.7136 14.8345 10.7272 14.8464 10.7428 14.8553C10.7584 14.8641 10.7757 14.8697 10.7935 14.8715C12.0076 15.2185 13.2206 15.5686 14.4326 15.9218C14.4878 15.9385 14.5466 15.9385 14.6018 15.9218C15.9459 15.5325 17.29 15.145 18.6342 14.7591C18.654 14.7571 18.6731 14.7511 18.6904 14.7413C18.7077 14.7315 18.7228 14.7182 18.7347 14.7022C18.7466 14.6863 18.7551 14.668 18.7596 14.6486C18.7641 14.6292 18.7645 14.609 18.7608 14.5894C18.7608 12.1384 18.7608 9.68695 18.7608 7.23518C18.7642 7.21563 18.7638 7.19559 18.7595 7.17621C18.7552 7.15684 18.7471 7.1385 18.7357 7.12226C18.7243 7.10601 18.7099 7.09218 18.6932 7.08155C18.6765 7.07092 18.6578 7.0637 18.6383 7.0603C18.0251 6.85836 17.4149 6.64392 16.8058 6.43573C16.7238 6.40763 16.6854 6.41596 16.6398 6.49403C16.4595 6.79607 16.2106 7.05109 15.9134 7.2383C15.7889 7.31845 15.682 7.30805 15.6218 7.20916C15.5616 7.11027 15.5948 7.02075 15.7173 6.94059C16.0232 6.74426 16.2686 6.46636 16.426 6.13803C16.4337 6.11057 16.4475 6.08521 16.4664 6.06385C16.4852 6.04249 16.5087 6.02568 16.5349 6.01467C16.5611 6.00366 16.5895 5.99874 16.6179 6.00027C16.6463 6.00181 16.674 6.00975 16.6989 6.02352L18.9559 6.79278C19.0023 6.80981 19.0447 6.8364 19.0804 6.87085L21.8759 9.44718C22.0367 9.595 22.0398 9.65537 21.8935 9.81984L19.73 12.1828C19.5919 12.3337 19.5172 12.3358 19.3668 12.1984L19.1364 11.9902C19.1364 11.9902 19.126 11.9902 19.1063 11.9881ZM14.333 17.02H14.3102L13.6098 18.569C13.5184 18.7699 13.4759 18.7896 13.2652 18.7293C11.7025 18.2775 10.1405 17.8264 8.57911 17.376C8.47535 17.3459 8.45563 17.3615 8.45563 17.4676C8.45978 18.5738 8.45978 19.6807 8.45563 20.7882C8.45252 20.8047 8.45276 20.8216 8.45634 20.8379C8.45992 20.8543 8.46676 20.8697 8.47646 20.8834C8.48616 20.897 8.49851 20.9085 8.51276 20.9172C8.52702 20.9259 8.54288 20.9316 8.5594 20.934C10.4362 21.4732 12.3127 22.0141 14.1888 22.5568C14.3299 22.5974 14.3299 22.5974 14.3299 22.4444V17.02H14.333ZM14.7149 17.045H14.692V22.4454C14.692 22.5964 14.692 22.5964 14.8373 22.5547C16.7093 22.0134 18.5823 21.4732 20.4563 20.934C20.5445 20.909 20.5684 20.8694 20.5684 20.7799C20.5684 19.6737 20.5684 18.5665 20.5684 17.4583C20.5684 17.3396 20.5362 17.3365 20.4376 17.3646C18.8562 17.8247 17.2738 18.2824 15.6903 18.7376C15.516 18.7886 15.463 18.7636 15.3904 18.5971L14.7149 17.045ZM8.41205 14.5561C8.35913 14.5478 8.35809 14.6019 8.34356 14.6352C8.05094 15.2817 7.76143 15.9291 7.46673 16.5745C7.43248 16.6484 7.43767 16.6724 7.52172 16.6963C9.41859 17.2411 11.3148 17.7886 13.2103 18.3389C13.2964 18.3639 13.3234 18.3389 13.3555 18.2681C13.6378 17.6363 13.92 17.0034 14.2095 16.3747C14.2593 16.2706 14.2448 16.2372 14.1327 16.206C12.3549 15.696 10.578 15.1831 8.80221 14.6675C8.67354 14.63 8.54591 14.5946 8.40997 14.5561H8.41205ZM21.55 16.6318C21.5438 16.6172 21.5365 16.6016 21.5293 16.587C21.245 15.9323 20.9586 15.2796 20.6763 14.6238C20.6431 14.5468 20.6037 14.5572 20.5425 14.5759C18.6497 15.1234 16.7567 15.6692 14.8633 16.2133C14.7668 16.2404 14.7657 16.2737 14.801 16.3559C15.0777 16.9895 15.3544 17.6245 15.6311 18.2608C15.6685 18.3483 15.7069 18.3597 15.7961 18.3337C17.1389 17.9423 18.4827 17.5533 19.8275 17.1668C20.3723 17.0096 20.9171 16.8545 21.4608 16.6942C21.4919 16.6849 21.5521 16.7005 21.548 16.6318H21.55ZM19.1084 7.3882V7.5485C19.1084 8.70083 19.1219 9.85315 19.1001 11.0055C19.0928 11.3459 19.1572 11.6051 19.4487 11.7976C19.5214 11.8455 19.5453 11.8622 19.6096 11.7903C20.2322 11.1012 20.8607 10.4149 21.495 9.73136C21.5625 9.65745 21.5469 9.62726 21.4816 9.56897C20.7898 8.93469 20.098 8.29902 19.4062 7.66196L19.1084 7.3882ZM10.3214 7.3882C9.50264 8.14184 8.70986 8.87258 7.91396 9.60228C7.86312 9.64912 7.88491 9.67307 7.91396 9.70638C8.55663 10.408 9.1986 11.1099 9.83989 11.8122C9.87828 11.8538 9.90111 11.8643 9.94365 11.8184C10.0381 11.7248 10.1346 11.6332 10.2373 11.5488C10.2644 11.5274 10.2856 11.4995 10.2992 11.4676C10.3128 11.4358 10.3183 11.4011 10.3151 11.3667C10.3151 10.0849 10.3151 8.80388 10.3151 7.52352L10.3214 7.3882ZM10.3151 13.7765L8.85617 14.3136L10.3151 14.73V13.7765ZM20.2592 14.2855L19.1779 13.7255C19.1374 13.7036 19.1094 13.6963 19.1094 13.7598C19.1094 14.0409 19.1094 14.3219 19.1094 14.6144L20.2592 14.2855Z" fill="white" stroke="white" stroke-width="0.5"/>
</svg>
