<svg width="18" height="18" viewBox="0 0 18 18" fill="none" xmlns="http://www.w3.org/2000/svg">
<path d="M1 5L4.528 1.472C4.67685 1.32227 4.85386 1.20347 5.04883 1.12246C5.2438 1.04145 5.45287 0.999833 5.664 1H12.336C12.5471 0.999833 12.7562 1.04145 12.9512 1.12246C13.1461 1.20347 13.3232 1.32227 13.472 1.472L17 5M1 5H17M1 5V7.4C1 7.82435 1.16857 8.23131 1.46863 8.53137C1.76869 8.83143 2.17565 9 2.6 9M17 5V7.4C17 7.82435 16.8314 8.23131 16.5314 8.53137C16.2313 8.83143 15.8243 9 15.4 9M2.6 9V15.4C2.6 15.8243 2.76857 16.2313 3.06863 16.5314C3.36869 16.8314 3.77565 17 4.2 17H13.8C14.2243 17 14.6313 16.8314 14.9314 16.5314C15.2314 16.2313 15.4 15.8243 15.4 15.4V9M2.6 9C3.06741 8.97427 3.51382 8.7974 3.872 8.496C3.96746 8.42702 4.08223 8.38989 4.2 8.38989C4.31777 8.38989 4.43254 8.42702 4.528 8.496C4.88618 8.7974 5.33259 8.97427 5.8 9C6.26741 8.97427 6.71382 8.7974 7.072 8.496C7.16746 8.42702 7.28223 8.38989 7.4 8.38989C7.51777 8.38989 7.63254 8.42702 7.728 8.496C8.08618 8.7974 8.53259 8.97427 9 9C9.46741 8.97427 9.91382 8.7974 10.272 8.496C10.3675 8.42702 10.4822 8.38989 10.6 8.38989C10.7178 8.38989 10.8325 8.42702 10.928 8.496C11.2862 8.7974 11.7326 8.97427 12.2 9C12.6674 8.97427 13.1138 8.7974 13.472 8.496C13.5675 8.42702 13.6822 8.38989 13.8 8.38989C13.9178 8.38989 14.0325 8.42702 14.128 8.496C14.4862 8.7974 14.9326 8.97427 15.4 9M11.4 17V13.8C11.4 13.3757 11.2314 12.9687 10.9314 12.6686C10.6313 12.3686 10.2243 12.2 9.8 12.2H8.2C7.77565 12.2 7.36869 12.3686 7.06863 12.6686C6.76857 12.9687 6.6 13.3757 6.6 13.8V17" stroke="#5549EF" stroke-linecap="round" stroke-linejoin="round"/>
</svg>
