<svg width="15" height="28" viewBox="0 0 15 28" fill="none" xmlns="http://www.w3.org/2000/svg">
<path d="M9.98858 0.25L11.4027 0.375056C11.7181 0.405354 12.0391 0.463843 12.3512 0.520406C13.404 0.711185 14.4385 1.06983 14.846 2.25378L14.8873 2.37858C15.2181 3.6435 14.772 4.13708 14.1829 5.11126L12.0949 8.48781C11.6326 9.2531 11.147 9.71038 10.2462 9.54283C10.1715 9.52897 10.0894 9.48992 10.0163 9.46529L9.58091 10.5542C9.59741 10.7477 9.69077 11.0831 9.75339 11.2625L10.0501 12.3098C10.0728 12.431 10.1165 12.5529 10.1383 12.6754L11.3848 20.4542C11.4171 20.6443 11.4401 20.8328 11.4825 21.0214L11.5453 21.3217C11.5797 21.5019 11.6261 21.6882 11.6761 21.8641C11.8472 22.466 11.2713 23.3549 10.9421 23.7961L10.1694 24.7335L8.28061 26.7332C8.16192 26.8589 8.04342 27.0001 7.9042 27.1003L7.88627 27.1129C7.41041 27.4515 7.0731 27.0986 6.74539 26.7487L5.54537 25.5022C4.83714 24.7824 4.03115 24.0095 3.57889 23.0672C3.14707 22.1674 3.40776 21.6149 3.5822 20.6778L4.00569 18.3079L4.88032 12.5791L5.06501 11.795C5.17333 11.4159 5.472 10.7664 5.34084 10.4045L5.01134 9.49297C3.85143 9.71692 3.46682 9.4043 2.82465 8.35554L0.429973 4.48281C0.248432 4.19005 0.080399 3.86864 0.0258977 3.51761C-0.140756 2.44427 0.517217 1.33038 1.41555 0.878148C1.91382 0.627326 2.48241 0.539212 3.02373 0.466606L4.73474 0.295344C4.86912 0.286937 5.00736 0.284558 5.13924 0.254012L5.15571 0.25H9.98858ZM7.7838 1.12001L4.88097 1.19092L3.34879 1.33856C3.05723 1.37802 2.76301 1.41317 2.47549 1.47989C2.53546 1.57609 2.62117 1.62751 2.7018 1.70108L6.52754 5.02154C6.78112 4.86373 7.01427 4.76811 7.30505 4.71782C7.72641 4.66751 8.14868 4.77715 8.49648 5.03427C8.50065 5.03737 8.50395 5.04447 8.50895 5.04359C8.5179 5.04201 12.3683 1.70134 12.5715 1.46673C11.1688 1.14152 9.20508 1.12093 7.7838 1.12001ZM1.52554 1.82813C1.06603 2.19576 0.72226 2.78839 0.83816 3.42318L0.85578 3.48902C0.953409 3.82077 1.20413 4.11777 1.37956 4.40848L3.33379 7.59128C3.4973 7.85919 3.65024 8.13966 3.83008 8.39515C4.30121 9.06445 5.0047 8.52616 5.4601 8.2225C6.02706 7.84446 6.61192 7.50184 7.08189 6.98552C7.16648 6.89255 7.22661 6.75352 7.33113 6.6851C7.58891 6.5164 7.84309 6.84638 8.02622 6.99436L9.51553 8.17566C9.96614 8.5108 10.6475 9.0239 11.1366 8.44155C11.2167 8.3462 11.2779 8.23099 11.3428 8.12355L12.4397 6.35806C12.63 6.048 12.8034 5.71855 13.0132 5.42307L13.6854 4.32436C13.9813 3.84088 14.2704 3.48314 14.1739 2.86651L14.1614 2.8125C14.0631 2.43981 13.8266 2.02611 13.4956 1.83474L13.4728 1.8233L9.00342 5.7693C8.87109 5.89383 8.64981 6.24893 8.43865 6.14917L8.42556 6.14329C8.09267 5.98008 8.13452 5.41542 7.2177 5.62675C6.97242 5.68327 6.89184 5.92589 6.69346 6.02786L6.68159 6.0341C6.61801 6.06539 6.55015 6.05515 6.48524 6.0363L6.46879 6.03172C6.37567 6.00426 6.29399 5.93196 6.21778 5.87136L1.52554 1.82813ZM7.54922 7.71417C7.31211 7.96203 7.05654 8.19311 6.78289 8.39437L6.35508 8.67967C6.1503 8.81518 5.947 8.95568 5.72675 9.06218L5.98166 9.78354C6.00118 9.84641 6.0116 9.9792 6.05233 10.0226L7.42548 10.0217L8.9554 10.0232L9.25841 9.06539L7.54922 7.71417ZM6.54557 10.8896L6.23978 10.8956C6.15217 11.0038 5.93703 11.7667 5.90517 11.9185C5.99379 12.057 6.12505 12.1789 6.23434 12.3L8.71847 14.9995C8.99254 15.2922 9.29073 15.5653 9.54872 15.8745L9.85459 16.2012C9.78947 15.981 9.78176 15.731 9.7435 15.5031L9.3766 13.0977C9.24792 12.3439 8.98809 11.6178 8.7667 10.8919L6.54557 10.8896ZM5.63235 12.9156L5.35256 14.7911C5.31601 15.0765 5.26378 15.3533 5.253 15.6421L10.6008 21.4641L10.8219 21.6953C10.6562 21.2561 10.5926 20.7707 10.5206 20.3053L10.2821 18.8179C10.2229 18.4533 10.1676 18.0926 10.0743 17.7354L10.0703 17.7195C10.0529 17.6596 9.96495 17.5868 9.92151 17.5403L5.63235 12.9156ZM5.0909 16.717C5.05566 16.8329 5.04806 16.9482 5.03005 17.0675L4.63152 19.4215C4.72033 19.5532 4.82295 19.6611 4.92386 19.7816L9.24279 24.4753L9.71264 23.965L10.3163 23.2137C10.4284 23.0596 10.5406 22.9023 10.6271 22.7298L10.4588 22.5778C10.2618 22.3811 10.0858 22.157 9.89587 21.9519L5.3252 17.0233C5.25826 16.9412 5.1757 16.7702 5.0909 16.717ZM4.43428 20.5151L4.20766 21.7951C4.08346 22.505 4.38304 22.8944 4.809 23.4384C5.05017 23.7464 5.31266 24.0488 5.5816 24.3298L7.28569 26.0758C7.35799 26.1537 7.42319 26.2378 7.49989 26.311L7.95516 25.8331L8.46678 25.3047C8.52319 25.2471 8.63068 25.1635 8.66774 25.0925L4.43428 20.5151Z" fill="#5549EF"/>
</svg>
