<svg width="19" height="29" viewBox="0 0 19 29" fill="none" xmlns="http://www.w3.org/2000/svg">
<path d="M2.74945 27.9356C2.67425 28.0749 2.59781 28.2298 2.47366 28.3319C2.15525 28.5938 1.75783 28.2714 1.82925 27.9045C1.86126 27.7401 1.98992 27.5769 2.06106 27.4241C2.17722 27.1745 2.26746 26.9064 2.32866 26.6383L1.35965 26.4407C1.25552 26.8154 1.00745 27.2153 0.758372 27.5108C0.491591 27.8274 0.00203594 27.6855 3.53344e-06 27.2676C-0.000899757 27.0796 0.1716 26.891 0.270031 26.7384C0.77545 25.955 0.634 25.0083 0.658192 24.125C0.689496 22.9814 0.801025 21.542 1.11926 20.4654C1.85957 17.961 3.87975 16.3315 5.64639 14.5523L9.1441 10.9686L10.3107 9.89641C10.5756 9.66638 10.8645 9.44402 11.1114 9.19564C10.7835 9.07858 10.4078 9.06145 10.0662 8.98288C9.13379 8.7684 8.19287 8.41029 7.41308 7.84859C5.5171 6.48295 5.40797 4.19925 7.06224 2.52015C7.32812 2.25027 7.62674 2.03203 7.9189 1.79347C8.11957 1.62962 8.29856 1.43368 8.51721 1.29285C9.06622 0.939285 9.74459 0.855258 10.3812 0.802995L11.3849 0.75L12.2666 0.752393C12.6646 0.756257 12.9791 0.793715 13.3692 0.822933L13.8504 0.882444C15.6225 1.11246 18.0486 1.96539 18.7023 3.82168L18.8808 4.37485L18.9562 4.791C19.1714 5.99057 18.56 7.01651 17.859 7.91904C17.1852 8.78637 16.4131 9.57917 15.624 10.3413L12.036 13.7036L9.60531 15.8663L7.69008 17.8173C6.17602 19.4731 5.50988 20.4066 5.3907 22.6737L5.34215 24.0449C5.28767 25.5576 5.16499 26.85 4.52046 28.2455C4.44899 28.4003 4.39451 28.5828 4.24677 28.6821C3.9176 28.9037 3.51838 28.534 3.5953 28.2738L3.60142 28.2546C3.73539 27.81 4.00068 27.3836 4.14625 26.8783L3.19573 26.7485C3.08118 27.1705 2.93827 27.5416 2.74945 27.9356ZM11.1468 1.60121L10.0905 1.69129C9.70738 1.7371 9.30381 1.80422 8.97112 2.0141C8.31341 2.429 8.0125 3.47909 8.58708 4.07883C9.71774 3.6561 10.5838 3.42615 11.8236 3.36409L12.4761 3.35918C13.7082 3.35881 15.0423 3.48279 16.0481 4.26961C16.1331 4.33607 16.2061 4.40403 16.25 4.50518L16.2593 4.52468C16.311 4.63573 16.3136 4.77966 16.2717 4.89551L16.252 4.94445C16.1502 5.19505 15.9774 5.42049 15.8238 5.64197C14.8979 6.97731 13.6175 7.99213 12.4467 9.09839C11.9576 9.56046 11.9364 9.32665 11.8082 10.0059C11.7388 10.3738 11.7295 10.6461 11.6785 10.9938C11.657 11.5607 11.6734 12.1701 11.7824 12.7297C12.0404 12.5202 12.2772 12.2786 12.5232 12.0546L13.9458 10.7514C14.8045 9.94496 15.6739 9.15382 16.4571 8.27161C17.3376 7.2797 18.2884 6.14189 18.0993 4.72491C17.8267 2.68161 15.2859 1.88707 13.5462 1.69316L12.7129 1.60937L11.1468 1.60121ZM7.43538 3.34295C6.85363 4.1147 6.48605 5.17874 6.93713 6.09795C7.72347 7.70035 10.3308 8.36525 11.9466 8.3747C11.9926 8.34287 12.038 8.31281 12.0773 8.27277L12.5181 7.86668L13.5024 6.97107C13.568 6.90785 13.6914 6.81405 13.7304 6.73387L12.503 6.65773C11.1414 6.51842 9.8031 6.24738 8.6909 5.38659C8.04242 4.88473 7.4624 4.20476 7.43538 3.34295ZM12.3353 4.19982C11.2845 4.24167 10.2312 4.36765 9.23536 4.71766C9.8772 5.29502 10.7605 5.53304 11.589 5.6843L12.4532 5.80825L14.5124 5.9232L15.3566 4.79069C14.308 4.2647 13.5184 4.19426 12.3353 4.19982ZM10.8311 10.5843C10.6755 10.6964 10.5436 10.8355 10.405 10.9672L9.49443 11.8613C9.45799 11.8992 9.41455 11.9353 9.39196 11.9828L9.39637 12.0081C9.48884 12.5737 9.45949 13.3169 9.40193 13.8854L9.23434 15.0272L9.3949 14.8988L11.0944 13.392C10.8405 12.6693 10.7851 11.8217 10.8026 11.0597L10.8311 10.5843ZM8.50045 12.8278C8.28013 13.0372 8.0851 13.2781 7.88516 13.504L6.37184 15.0906C6.03285 15.4254 6.05352 15.382 5.9012 15.837C5.63586 16.6299 5.21693 18.5259 5.3905 19.3689C5.58956 19.0134 5.84057 18.6879 6.09089 18.3693L7.71735 16.5278C7.89428 16.3483 8.02111 16.2504 8.07982 16.0019L8.14667 15.7299C8.39013 14.735 8.49488 13.8509 8.50045 12.8278ZM4.76404 16.6018C4.54084 16.7996 4.35335 17.0335 4.14814 17.2489C2.98456 18.4701 1.88328 20.0208 1.71041 21.7508L2.24403 21.8153L4.61026 22.1116C4.63758 22.0693 4.76449 20.9957 4.72963 20.8371C4.49926 19.7885 4.42963 18.818 4.56447 17.7499L4.76404 16.6018ZM1.60975 22.6032C1.55095 22.7353 1.5096 23.6861 1.50311 23.9621L1.47623 25.6368L4.32919 26.0721C4.34006 26.0522 4.34328 26.0475 4.34311 26.024C4.42522 25.6421 4.43084 25.2512 4.45489 24.8634L4.5494 22.9404L1.60975 22.6032Z" fill="#5549EF"/>
</svg>
