<svg width="16" height="16" viewBox="0 0 16 16" fill="none" xmlns="http://www.w3.org/2000/svg">
<g clip-path="url(#clip0_397_3207)">
<path d="M14.1333 5.60016C14.4666 5.8535 14.6666 6.24683 14.6666 6.66683V13.3335C14.6666 13.6871 14.5261 14.0263 14.2761 14.2763C14.026 14.5264 13.6869 14.6668 13.3333 14.6668H2.66659C2.31296 14.6668 1.97382 14.5264 1.72378 14.2763C1.47373 14.0263 1.33325 13.6871 1.33325 13.3335V6.66683C1.33325 6.45984 1.38145 6.25569 1.47402 6.07054C1.56659 5.8854 1.70099 5.72436 1.86659 5.60016L7.19992 1.60016C7.43071 1.42707 7.71143 1.3335 7.99992 1.3335C8.28841 1.3335 8.56912 1.42707 8.79992 1.60016L14.1333 5.60016Z" stroke="##5549EF" stroke-linecap="round" stroke-linejoin="round"/>
<path d="M14.6666 6.6665L8.68659 10.4665C8.48077 10.5955 8.2428 10.6638 7.99992 10.6638C7.75704 10.6638 7.51907 10.5955 7.31325 10.4665L1.33325 6.6665" stroke="##5549EF" stroke-linecap="round" stroke-linejoin="round"/>
</g>
<defs>
<clipPath id="clip0_397_3207">
<rect width="16" height="16" fill="white"/>
</clipPath>
</defs>
</svg>
