<svg width="80" height="80" viewBox="0 0 80 80" fill="none" xmlns="http://www.w3.org/2000/svg">
<rect x="0.5" y="0.5" width="79" height="79" rx="39.5" fill="#F7F7FF"/>
<rect x="0.5" y="0.5" width="79" height="79" rx="39.5" stroke="#5549EF"/>
<path d="M53.75 35.3333V53.75H26.25V29.5C26.25 28.638 26.5924 27.8114 27.2019 27.2019C27.8114 26.5924 28.638 26.25 29.5 26.25H41.1667C42.0286 26.25 42.8553 26.5924 43.4648 27.2019C44.0743 27.8114 44.4167 28.638 44.4167 29.5V31.8333V32.0833H44.6667H50.5C51.362 32.0833 52.1886 32.4257 52.7981 33.0352C53.4076 33.6447 53.75 34.4714 53.75 35.3333ZM28.0833 51.6667V51.9167H28.3333H42.3333H42.5833V51.6667V29.5C42.5833 29.1243 42.4341 28.7639 42.1684 28.4983C41.9027 28.2326 41.5424 28.0833 41.1667 28.0833H29.5C29.1243 28.0833 28.7639 28.2326 28.4983 28.4983C28.2326 28.7639 28.0833 29.1243 28.0833 29.5V51.6667ZM44.6667 33.9167H44.4167V34.1667V51.6667V51.9167H44.6667H51.6667H51.9167V51.6667V35.3333C51.9167 34.9576 51.7674 34.5973 51.5017 34.3316C51.2361 34.0659 50.8757 33.9167 50.5 33.9167H44.6667ZM30.9167 41.4167H33.9167V43.25H30.9167V41.4167ZM39.75 41.4167V43.25H36.75V41.4167H39.75ZM33.9167 46.0833V47.9167H30.9167V46.0833H33.9167ZM39.75 46.0833V47.9167H36.75V46.0833H39.75ZM33.9167 33.9167H30.9167V32.0833H33.9167V33.9167ZM39.75 32.0833V33.9167H36.75V32.0833H39.75ZM33.9167 38.5833H30.9167V36.75H33.9167V38.5833ZM39.75 36.75V38.5833H36.75V36.75H39.75ZM49.0833 41.4167V43.25H47.25V41.4167H49.0833ZM49.0833 46.0833V47.9167H47.25V46.0833H49.0833ZM49.0833 36.75V38.5833H47.25V36.75H49.0833Z" fill="#5549EF" stroke="#F7F7FF" stroke-width="0.5"/>
</svg>
