<svg width="17" height="19" viewBox="0 0 17 19" fill="none" xmlns="http://www.w3.org/2000/svg">
<path d="M2.7 5.25V2.7C2.7 2.24913 2.87911 1.81673 3.19792 1.49792C3.51673 1.17911 3.94913 1 4.4 1H11.625L16.3 5.675V16.3C16.3 16.7509 16.1209 17.1833 15.8021 17.5021C15.4833 17.8209 15.0509 18 14.6 18H9.5M11.2 1V6.1H16.3M5.25 13.325L6.1 18L3.55 17.15L1 18L1.85 13.325M3.55 13.75C3.88487 13.75 4.21646 13.684 4.52584 13.5559C4.83522 13.4277 5.11633 13.2399 5.35312 13.0031C5.58991 12.7663 5.77774 12.4852 5.90589 12.1758C6.03404 11.8665 6.1 11.5349 6.1 11.2C6.1 10.8651 6.03404 10.5335 5.90589 10.2242C5.77774 9.91478 5.58991 9.63367 5.35312 9.39688C5.11633 9.16009 4.83522 8.97226 4.52584 8.84411C4.21646 8.71596 3.88487 8.65 3.55 8.65C2.8737 8.65 2.2251 8.91866 1.74688 9.39688C1.26866 9.8751 1 10.5237 1 11.2C1 11.8763 1.26866 12.5249 1.74688 13.0031C2.2251 13.4813 2.8737 13.75 3.55 13.75Z" stroke="#5549EF" stroke-linecap="round" stroke-linejoin="round"/>
</svg>
