<svg width="19" height="20" viewBox="0 0 19 20" fill="none" xmlns="http://www.w3.org/2000/svg">
<path d="M3.98551 7.71739H7.71739V8.46377H3.98551V7.71739ZM7.71739 4.73188H3.98551V5.47826H7.71739V4.73188ZM1.74638 18.1667H12.942V18.913H1V2.86594C1 1.83743 1.83743 1 2.86594 1H10.4842L15.9275 6.44333V6.97101H9.95652V1.74638H2.86594C2.24869 1.74638 1.74638 2.24869 1.74638 2.86594V18.1667ZM10.7029 6.22464H14.6535L10.7029 2.27407V6.22464ZM18.1667 12.1957V11.8225C18.1667 10.794 17.33 9.95652 16.3007 9.95652H15.5543V8.46377H14.808V9.95652H14.0616C13.0323 9.95652 12.1957 10.794 12.1957 11.8225C12.1957 12.845 12.9278 13.7041 13.9377 13.8668L16.3067 14.2474C16.9516 14.3512 17.4203 14.9005 17.4203 15.5543C17.4203 16.1716 16.918 16.6739 16.3007 16.6739H14.0616C13.4443 16.6739 12.942 16.1716 12.942 15.5543V15.1812H12.1957V15.5543C12.1957 16.5829 13.0323 17.4203 14.0616 17.4203H14.808V18.913H15.5543V17.4203H16.3007C17.33 17.4203 18.1667 16.5829 18.1667 15.5543C18.1667 14.5318 17.4345 13.6727 16.4246 13.51L14.0556 13.1294C13.4108 13.0256 12.942 12.4763 12.942 11.8225C12.942 11.2052 13.4443 10.7029 14.0616 10.7029H16.3007C16.918 10.7029 17.4203 11.2052 17.4203 11.8225V12.1957H18.1667ZM10.741 11.4493C10.7701 11.1903 10.8246 10.941 10.9096 10.7029H3.98551V15.1812H10.7029V14.4348H4.73188V11.4493H10.741Z" fill="#5549EF" stroke="#5549EF" stroke-width="0.3"/>
</svg>
