<svg width="21" height="19" viewBox="0 0 21 19" fill="none" xmlns="http://www.w3.org/2000/svg">
<path d="M14.9347 18.7471C13.6357 18.7502 13.1615 18.1883 13.0315 16.8811C11.9723 16.3233 12.1317 14.6336 12.2489 13.5702L12.3004 13.1748C12.3188 13.0216 12.2996 13.0128 12.2159 12.8848L11.6987 12.1647C11.3462 11.6788 11.0005 11.1725 10.7057 10.6459L10.4877 10.2154L8.70659 12.9928C8.66677 13.0576 8.69371 13.1069 8.70114 13.1811L8.75051 13.6081C8.85926 14.593 9.06481 16.1119 8.14091 16.7768L8.08734 16.8159C7.88345 16.9738 8.00018 17.0637 7.96193 17.323C7.8955 17.7732 7.63786 18.2245 7.28106 18.4904C6.86992 18.7968 6.40315 18.7468 5.92765 18.7472L3.44719 18.7473C2.40481 18.7471 1.86804 18.4761 1.54462 17.3224C1.49182 17.1341 1.54508 17.1084 1.38872 16.9768C0.645256 16.351 0.515616 15.2372 0.640632 14.3103C0.701383 13.8599 0.768606 13.2918 0.976226 12.8828C1.00107 12.8339 0.812682 11.8759 0.787408 11.7388L0.359594 9.76715C0.263798 9.2798 0.166985 8.78302 0.110611 8.28878L0.00751006 6.85363C-0.124718 3.98285 1.49379 0.896645 4.49395 0.757865C5.10879 0.709492 5.80723 0.888766 6.35953 1.17167C8.50101 2.26863 9.04678 4.54797 8.71008 6.81182C8.93009 6.81934 9.16128 6.79004 9.37821 6.83343C9.73193 6.90416 10.1925 7.17072 10.4012 7.4963L10.5091 7.65717C10.9298 7.00865 11.4996 6.73196 12.2553 6.81069L12.1896 5.6971C12.0974 3.3544 13.5425 1.04417 15.8868 0.77877C17.933 0.547137 19.6047 1.86724 20.4436 3.74369C20.5545 3.99189 20.6659 4.26282 20.7294 4.52909L20.7915 4.75269C21.0089 5.86049 21.0601 6.94143 20.927 8.05923L20.6449 9.87203L20.0406 12.8079C20.0202 12.914 20.1012 13.0227 20.1303 13.1223C20.3034 13.7143 20.5316 14.9226 20.3907 15.4546L20.322 15.7664C20.2276 16.2438 19.9651 16.7041 19.5948 17.0045C19.4696 17.1061 19.5392 17.1712 19.4997 17.3185C19.3199 17.9873 18.9112 18.6148 18.2029 18.7232L18.1826 18.7262C18.0243 18.7522 17.8647 18.747 17.7049 18.747L14.9347 18.7471ZM4.37519 1.64165C1.90139 1.83534 0.826213 4.43631 0.827323 6.72726C0.82757 7.22446 0.860519 7.92476 0.970678 8.40784L1.28454 10.1031C1.3063 10.1783 1.31345 10.2545 1.3305 10.3301L1.57708 11.5214C1.68058 12.0228 1.79145 12.5403 1.80334 13.0545L7.86416 13.0632C7.86983 12.9613 7.87753 12.8697 7.90444 12.771L7.91193 12.743C8.02619 12.3338 8.39335 12.0474 8.60876 11.6954L9.26368 10.6648C9.50138 10.2724 9.76321 9.85524 9.91252 9.41603C10.1452 8.73149 9.98492 7.8954 9.21331 7.69528L9.1832 7.68724C8.96917 7.6316 8.70964 7.68554 8.50686 7.7671L8.48569 7.7754C7.9876 7.97465 7.56441 8.52655 7.28944 8.9839C7.20376 9.12641 7.13925 9.30434 7.02157 9.42121C6.63977 9.80031 6.18492 9.28938 6.39421 8.84551C6.61332 8.38079 7.14143 7.70554 7.53198 7.38849C7.70672 7.24662 7.79225 7.26833 7.83099 7.03483L7.88071 6.73775C8.02684 5.84679 8.06312 4.94296 7.78525 4.07425C7.30137 2.56163 5.90352 1.53324 4.37519 1.64165ZM16.3292 1.64262C15.6282 1.67559 15.0316 1.87017 14.4539 2.28953C13.0148 3.33442 12.9059 5.08824 13.1149 6.72498C13.2002 7.39322 13.1071 7.03724 13.5964 7.48581C13.8938 7.75842 14.8075 8.81364 14.6666 9.25432C14.5857 9.50751 14.354 9.61692 14.1186 9.50808C13.908 9.41066 13.5512 8.71158 13.3847 8.49243C13.0014 7.98806 12.3588 7.51337 11.7147 7.71709C11.3169 7.84288 11.0559 8.21178 11.0006 8.63012L10.9969 8.65594C10.8664 9.65532 11.9673 11.1723 12.5354 11.8712C12.7427 12.1728 12.9513 12.4177 13.1055 12.7555C13.1476 12.8477 13.1348 12.9557 13.164 13.0534L19.1995 13.0545C19.3001 11.9334 19.5863 10.8597 19.8163 9.76384L20.0878 8.06872C20.3248 6.13332 20.1886 4.46313 18.9302 2.87505C18.4355 2.25071 17.5711 1.72228 16.7781 1.65555L16.3292 1.64262ZM1.55744 13.9268C1.49336 14.0793 1.46417 14.3995 1.44577 14.5752C1.41782 14.8421 1.45443 16.1422 1.80741 16.1538L7.05325 16.1545C7.37719 16.1544 7.52209 16.192 7.75579 15.9292C8.09468 15.4919 8.02619 15.0795 7.99897 14.545C7.98951 14.3589 7.99854 14.1703 7.98378 13.9846L7.97382 13.9302L1.55744 13.9268ZM13.0272 13.9267L13.0135 14.916C13.0121 15.3458 12.9882 15.6159 13.2801 15.9569C13.5131 16.229 13.6517 16.1546 13.9731 16.1547L18.934 16.1553C19.1806 16.1551 19.2374 16.1797 19.3759 15.9386C19.6946 15.3316 19.581 14.5749 19.4824 13.9236L13.0272 13.9267ZM2.56302 17.0286L2.33142 17.0416C2.5792 18.0071 2.88185 17.8885 3.64519 17.8892L6.07252 17.8893C6.34539 17.889 6.5605 17.9284 6.80122 17.7745C6.99487 17.6193 7.10975 17.4372 7.1418 17.1822L7.15361 17.0376L2.56302 17.0286ZM13.9541 17.0286L13.8906 17.0334C13.8647 17.0676 13.8737 17.1025 13.8802 17.1451L13.8987 17.2353C14.0347 17.9449 14.5503 17.8891 15.0609 17.8895L17.8042 17.8884C18.0796 17.8878 18.1859 17.8753 18.3978 17.6955C18.5438 17.5055 18.6629 17.2893 18.6745 17.0392L13.9541 17.0286Z" fill="#5549EF"/>
</svg>
