<svg width="22" height="22" viewBox="0 0 22 22" fill="none" xmlns="http://www.w3.org/2000/svg">
<path d="M8.09 7.82068C8.3251 7.15235 8.78915 6.58879 9.39995 6.22981C10.0108 5.87084 10.7289 5.73962 11.4272 5.85939C12.1255 5.97916 12.7588 6.3422 13.2151 6.88421C13.6713 7.42621 13.9211 8.1122 13.92 8.82068C13.92 10.8207 10.92 11.8207 10.92 11.8207M11 15.8207H11.01M21 10.8207C21 16.3435 16.5228 20.8207 11 20.8207C5.47715 20.8207 1 16.3435 1 10.8207C1 5.29783 5.47715 0.820679 11 0.820679C16.5228 0.820679 21 5.29783 21 10.8207Z" stroke="#5549EF" stroke-linecap="round" stroke-linejoin="round"/>
</svg>
