<svg width="20" height="20" viewBox="0 0 20 20" fill="none" xmlns="http://www.w3.org/2000/svg">
<path d="M6.25004 15.25H13.45M1 10.1835C1 8.12394 1 7.09415 1.46728 6.24047C1.93456 5.38679 2.78825 4.85696 4.49563 3.79732L6.29563 2.68018C8.10045 1.56006 9.00289 1 10 1C10.9971 1 11.8995 1.56006 13.7044 2.68018L15.5044 3.79731C17.2118 4.85696 18.0654 5.38679 18.5327 6.24047C19 7.09415 19 8.12394 19 10.1835V11.5525C19 15.0632 19 16.8187 17.9456 17.9093C16.8912 19 15.1941 19 11.8 19H8.2C4.80588 19 3.10883 19 2.05441 17.9093C1 16.8187 1 15.0632 1 11.5525V10.1835Z" stroke="#5549EF" stroke-linecap="round"/>
</svg>
