<svg width="21" height="24" viewBox="0 0 21 24" fill="none" xmlns="http://www.w3.org/2000/svg">
<path d="M11.3677 19.3784L10.523 14.3588C10.4261 14.5418 10.4129 14.8563 10.3812 15.0544L10.188 16.2847L9.15029 21.8496C9.05789 22.3287 9.02071 22.9335 8.73751 23.368C8.30402 24.033 6.74814 24.0336 5.91215 23.9778C5.8167 23.9715 5.72394 23.9496 5.62852 23.9415L3.30157 23.6899C2.36307 23.5457 0.787361 23.2957 0.227623 22.5769C-0.140391 22.1044 0.025118 21.6354 0.124225 21.1297L1.04779 16.0157L1.71916 11.9215C1.731 11.8502 1.75484 11.7807 1.7657 11.7093L2.52567 5.86745L2.8957 3.47296C2.93735 3.11843 2.92891 2.35256 3.1163 2.05346C3.23087 1.87067 3.20264 1.73879 3.2031 1.53276L3.20395 0.746165C3.20427 0.343223 3.31182 0.0737264 3.84651 0.00309028L16.8317 0.00414018C16.9766 0.00462009 17.1949 -0.0160759 17.3292 0.0308349L17.3591 0.0426226C17.4937 0.0919329 17.5873 0.15972 17.6638 0.266109L17.747 0.396283C17.8115 0.555582 17.778 0.789387 17.7783 0.960383L17.7797 1.8435C17.7776 1.95151 17.9087 2.10955 17.9509 2.22967C18.0025 2.37644 17.9942 2.5321 18.0057 2.68364L18.0535 3.11654C18.0739 3.35685 18.1113 3.57881 18.1477 3.81561L19.1511 11.1642L19.7185 14.726L20.2456 17.6714C20.3012 17.9826 20.3871 18.3619 20.4195 18.6585L20.9548 21.5561C21.0092 21.8336 21.0259 22.0013 20.9398 22.2733L20.935 22.2886C20.6028 23.2815 17.2684 23.6761 16.2321 23.8125L15.0965 23.9439C14.7534 23.9761 13.8485 24.0413 13.5194 23.9595C12.299 23.656 12.1887 23.4841 11.9689 22.491L11.3677 19.3784ZM6.14339 0.740706L4.09268 0.747274L4.09244 1.69266C4.22818 1.7064 4.35705 1.69326 4.49191 1.69923L6.48881 1.72034L6.47965 0.741276L6.14339 0.740706ZM10.1161 0.744485L9.21956 0.759182L9.21368 1.39437C9.21385 1.51066 9.20417 1.63477 9.22144 1.74986L10.859 1.7399L11.7237 1.73783L11.723 0.746555L10.1161 0.744485ZM14.4547 0.744125L14.4534 1.69533L16.8978 1.7043L16.8961 1.03465C16.8959 0.944306 16.9126 0.833148 16.8874 0.746645L14.4547 0.744125ZM7.40851 0.748654L7.37484 1.69251C7.37222 2.91153 7.32919 3.28877 6.33841 4.32557C5.63558 5.06109 4.97422 5.4263 3.97886 5.86886C3.88461 5.91076 3.42909 6.04787 3.41717 6.11982L2.72707 11.3552L1.02317 21.1597C0.960319 21.4396 0.753308 21.9755 1.03183 22.2058C1.54308 22.6285 3.18465 22.8914 3.84846 22.9302L6.45014 23.1747C6.99519 23.1963 7.5201 23.1927 8.00304 22.9525L8.71711 19.2776L9.9402 12.1615C9.96531 12.0191 10.0272 11.8765 10.0391 11.7333C10.0623 11.4548 10.045 11.1667 10.0451 10.8868L10.0445 2.54692L9.17391 2.54845C8.99507 2.54845 8.77564 2.57185 8.61056 2.50898L8.58637 2.50037C8.22318 2.3684 8.31104 2.05352 8.31068 1.7845L8.31072 0.752373L7.40851 0.748654ZM12.6477 0.750364C12.6225 1.10516 12.6361 1.46947 12.6423 1.82412C12.6512 2.3348 12.5496 2.55001 11.8327 2.54956L10.9434 2.53954L10.9368 10.9416C10.9376 11.2898 10.9534 11.5954 11.0212 11.9381L11.1703 12.8438C11.2361 13.2468 11.2804 13.6585 11.3646 14.0586L11.5982 15.4466C11.6115 15.523 11.6148 15.6028 11.6313 15.6783L12.6003 21.0205C12.6575 21.3253 12.8913 22.901 13.0601 22.9909C13.988 23.4851 16.7986 22.9449 17.8241 22.7806C18.194 22.6984 20.0916 22.3421 20.106 21.9996C20.1181 21.7143 20.0112 21.3959 19.9544 21.1147L18.3943 12.289L17.5306 5.88185C17.4588 5.83032 17.2339 5.80437 17.1374 5.7808C15.4495 5.36871 14.4124 4.32239 13.8383 2.93325C13.7174 2.64071 13.5985 2.32134 13.5692 2.01147L13.5609 0.752494L12.6477 0.750364ZM4.60131 2.5082L3.9044 2.51285C3.87634 2.639 3.88255 2.76108 3.87255 2.88829L3.65954 4.47767C3.62464 4.70284 3.57512 4.92825 3.57583 5.15581C3.9967 4.99513 4.38802 4.79882 4.74816 4.5541C5.51111 4.04498 6.20606 3.34723 6.41864 2.52902C6.17627 2.49983 5.92488 2.50886 5.6802 2.50844L4.60131 2.5082ZM14.7423 2.50886L14.6836 2.52047C14.6804 2.55862 14.6893 2.58645 14.7017 2.62239L14.9056 3.11075C15.2414 3.92734 16.4039 4.86103 17.3883 5.00866L17.1044 2.53019C16.7902 2.47413 16.4041 2.50787 16.0826 2.50781L14.7423 2.50886Z" fill="#5549EF"/>
</svg>
