<svg width="21" height="16" viewBox="0 0 21 16" fill="none" xmlns="http://www.w3.org/2000/svg">
<path d="M7.21535 15.6311C6.76689 15.4528 6.48184 15.4442 6.02483 15.3475C5.41839 15.2193 4.86373 14.971 4.33412 14.659L3.96458 14.4287C2.97438 13.8526 1.60904 13.971 0.492062 13.4646C0.245813 13.3529 -0.111117 13.2137 0.03334 12.8719L3.22631 6.21506C3.8426 4.86715 4.29242 3.92236 5.6048 3.03032C5.70299 2.96358 5.7126 3.00038 5.71229 2.87545L5.71547 1.94116C5.71858 1.86395 5.73381 1.7891 5.73965 1.71246L5.78348 1.08898C5.83306 0.576393 5.79304 0.213934 6.36634 0.0964548C6.68657 0.0308183 6.75321 0.0125944 7.06444 0.0496122L7.6632 0.128977C7.89564 0.16731 8.13272 0.181938 8.36714 0.2031L8.92483 0.245513C8.99855 0.251631 9.06804 0.269767 9.14314 0.273145L11.5722 0.279088C11.7151 0.278781 11.8626 0.284789 12.005 0.272706L13.6732 0.0893493C13.8157 0.0623316 13.9634 0.023669 14.1075 0.0129232C14.6285 -0.0510904 15.0717 0.115643 15.1512 0.671766L15.2498 1.61851L15.2631 2.45702C15.265 2.68413 15.1884 2.88536 15.3484 3.01117L15.9249 3.47207C16.5537 4.02866 17.1159 4.73246 17.4877 5.47703L19.68 10.3218L20.9729 12.8649C21.2361 13.4197 19.5011 13.8171 19.1862 13.885L18.491 14.0303C17.82 14.1573 17.4806 14.2434 16.8664 14.5754C16.274 14.8956 15.8489 15.1561 15.1726 15.3022C14.7301 15.3978 14.2483 15.4215 13.8261 15.5924C13.7158 15.637 13.6136 15.6954 13.505 15.742C13.0429 15.9404 12.1694 16.0447 11.6513 15.9627C11.3634 15.9171 11.0959 15.8058 10.8098 15.7624C10.4145 15.7024 10.0707 15.8257 9.69127 15.9085C8.81434 16.0997 8.01688 15.9836 7.21535 15.6311ZM14.3176 0.681964L12.1838 0.951878C12.0862 0.967076 11.9839 0.961308 11.8852 0.965497L10.9477 0.984225C10.2713 0.986002 9.5877 1.00372 8.91283 0.957734L6.77903 0.707534C6.47616 0.672885 6.50717 0.789487 6.4904 1.02863L6.46039 1.28096C6.44259 1.53548 6.41139 1.78772 6.40895 2.0423C6.40665 2.28454 6.42084 2.53832 6.40129 2.77896L6.6951 2.82985C6.87496 2.86953 7.05794 2.89124 7.23969 2.91975L8.43392 3.05297C8.55894 3.06301 8.67895 3.08729 8.80574 3.09242L12.11 3.08707C12.201 3.08308 12.2845 3.06396 12.3734 3.05587L13.7038 2.91225C13.9916 2.87389 14.2858 2.84229 14.5704 2.78626L14.5666 1.87408C14.5626 1.78807 14.5468 1.70428 14.5387 1.61877L14.4899 1.07747C14.4773 0.949905 14.5207 0.663433 14.3176 0.681964ZM14.7495 3.45596L13.9418 3.58537C13.9356 3.62508 13.9459 3.66335 13.9591 3.70054L14.0262 3.955C14.0504 4.0907 14.1668 4.4543 14.2278 4.60197L14.5465 5.56216L15.8005 8.98324C15.8631 9.13864 15.9211 9.29618 15.9793 9.45305L17.4048 13.4411C17.4136 13.4737 17.4303 13.5053 17.4442 13.536L19.044 13.1916C19.4388 13.1135 19.8065 13.0217 20.1683 12.8409C20.1546 12.7776 20.105 12.7055 20.0751 12.6465L19.1223 10.7488L16.8698 5.80273C16.3875 4.87895 15.6527 4.03664 14.7698 3.454L14.7495 3.45596ZM6.21843 3.46784C4.64823 4.49965 4.45489 5.28895 3.69243 6.8507L0.889089 12.6866C0.865182 12.735 0.831901 12.7886 0.818876 12.8407C1.05376 12.9286 1.28433 13.0097 1.52703 13.0749L1.9183 13.1617L3.57132 13.4908C3.59838 13.4585 3.6106 13.3999 3.6246 13.3603L4.91675 9.68059L6.69096 4.85928C6.82807 4.44428 6.92148 4.01515 7.00247 3.58679C6.89577 3.56295 6.31535 3.44602 6.21843 3.46784ZM7.68277 3.68714L7.64503 3.94629C7.48221 4.78943 7.16635 5.56909 6.87407 6.37357L4.36509 13.307C4.31224 13.4562 4.26736 13.6072 4.20446 13.7531C4.52108 13.9567 4.82687 14.1702 5.16727 14.3361C5.78059 14.635 6.44277 14.6741 7.09113 14.8544C7.74236 15.0466 7.86803 15.2433 8.65799 15.2826L8.70369 13.8459L8.75959 13.1027C8.83266 12.2692 8.92767 11.4291 9.07937 10.6054L9.71535 7.69167L9.95272 6.31874C10.0108 5.93723 10.0297 5.54108 10.0587 5.15641L10.1289 3.79633C9.59258 3.776 9.06042 3.79885 8.52401 3.75695L8.00387 3.72072C7.91407 3.71287 7.76663 3.66841 7.68277 3.68714ZM13.2059 3.68714L11.3009 3.79151C11.1402 3.79265 10.9676 3.8089 10.8084 3.79346C10.8085 3.94122 10.8282 4.08506 10.8361 4.23219L10.942 5.47501L11.1362 6.71919C11.1758 6.94827 11.2109 7.18055 11.2593 7.40794L11.438 8.28218C11.7084 9.54309 11.9563 10.7995 12.1085 12.0809L12.245 13.6434C12.254 13.7751 12.2767 13.9028 12.2783 14.0356L12.2809 14.8834C12.2811 15.013 12.2683 15.1584 12.2867 15.2856C12.9013 15.2723 13.3567 15.0238 13.9181 14.8383C14.5574 14.6974 15.2176 14.6208 15.8187 14.3505C16.1552 14.1991 16.4569 13.9864 16.7897 13.831L13.2059 3.68714ZM10.4947 7.21787C10.4891 7.31016 10.4609 7.39362 10.4461 7.48454L9.82615 10.3778L9.5529 12.1357L9.40116 13.957C9.39662 14.0402 9.38065 14.1218 9.37711 14.2051L9.37084 14.8451C9.36641 14.9843 9.34332 15.1269 9.34975 15.2661C9.71304 15.199 10.0804 15.0572 10.4513 15.0515C10.6559 15.0539 10.8494 15.0632 11.049 15.1127C11.1176 15.1297 11.5658 15.2699 11.5984 15.2393L11.5691 13.7472L11.5361 13.3536C11.4526 12.1896 11.2903 11.0295 11.0652 9.88371L10.5777 7.52193C10.5566 7.42038 10.5278 7.32276 10.5112 7.21994L10.4947 7.21787Z" fill="#5549EF"/>
</svg>
