<svg width="14" height="12" viewBox="0 0 14 12" fill="none" xmlns="http://www.w3.org/2000/svg">
<path fill-rule="evenodd" clip-rule="evenodd" d="M10.4433 7.60621C10.9096 7.77097 11.2979 8.09768 11.5346 8.52433C12.3583 8.54593 13.0112 9.21206 12.9999 10.0191C12.9885 10.8262 12.317 11.4744 11.4931 11.4738C11.4633 11.4734 11.4336 11.4713 11.404 11.4677L9.88326 11.465C9.80271 11.4753 9.7212 11.4761 9.64046 11.4674L6.68308 11.465C6.59003 11.4749 6.49621 11.4755 6.40304 11.4669L2.765 11.465C2.69941 11.4747 2.6328 11.4756 2.56697 11.4677L2.47767 11.465C2.45547 11.4651 2.43354 11.4603 2.41347 11.451C1.64688 11.3488 1.05858 10.7339 1.00409 9.97786C0.949609 9.22186 1.44388 8.53206 2.1882 8.32533C2.27518 7.52343 2.79981 6.83106 3.55816 6.51735V4.45091L3.06688 4.93191C3.03836 4.96012 2.99951 4.97599 2.95897 4.97599C2.91844 4.97599 2.87958 4.96012 2.85106 4.93191L1.25933 3.37395C1.19977 3.31555 1.19977 3.22092 1.25933 3.16252L3.65447 0.817785C3.67657 0.796283 3.70478 0.781821 3.73541 0.776293L5.49333 0.476065C5.53988 0.468331 5.58745 0.482205 5.62211 0.513617C5.65676 0.54503 5.67457 0.590423 5.67031 0.636486C5.6695 0.643886 5.60367 1.36486 6.01887 1.81414C6.2436 2.0557 6.57247 2.17938 6.99899 2.17885C7.42552 2.17832 7.7552 2.0557 7.97912 1.81414C8.38055 1.38052 8.33157 0.691456 8.32788 0.639543L8.32768 0.636486C8.32315 0.590103 8.3409 0.544292 8.37571 0.512536C8.41122 0.481409 8.45935 0.467966 8.50628 0.476065L10.2661 0.776293C10.2967 0.781821 10.3249 0.796283 10.347 0.817785L12.7408 3.16173C12.8004 3.22013 12.8004 3.31475 12.7408 3.37316L11.1504 4.93112C11.1219 4.95933 11.0831 4.9752 11.0425 4.9752C11.002 4.9752 10.9631 4.95933 10.9346 4.93112L10.4433 4.45012V7.60621ZM3.60106 3.98471C3.64443 3.94195 3.70987 3.92911 3.76671 3.9522C3.82469 3.97495 3.86264 4.0303 3.86248 4.09148V6.41719C4.61095 6.22486 5.40775 6.42472 5.96977 6.94576C6.47403 6.38408 7.23491 6.11162 7.99008 6.2223C8.74524 6.33299 9.39138 6.81169 9.70574 7.49336C9.72247 7.49072 9.74109 7.49072 9.7597 7.49072C9.88715 7.4908 10.0143 7.50247 10.1396 7.5256V5.66001C9.86414 5.85858 9.47998 5.82059 9.25064 5.5721C9.0213 5.32361 9.0213 4.94536 9.25064 4.69687C9.47998 4.44838 9.86414 4.41038 10.1396 4.60895V4.09069C10.1393 4.03031 10.1762 3.97574 10.2331 3.95256C10.29 3.92938 10.3556 3.94219 10.3991 3.98498L11.0423 4.61477L12.4182 3.26691L10.1663 1.06119L8.63821 0.79955C8.63254 1.0826 8.57049 1.6183 8.20655 2.01209C7.92328 2.3176 7.5186 2.47617 7.00385 2.47617H6.99576C6.48101 2.47485 6.07633 2.31866 5.79306 2.01209C5.42831 1.61883 5.36626 1.0826 5.3614 0.79955L3.83334 1.06119L1.58145 3.26691L2.95735 4.61477L3.60106 3.98471ZM10.1066 5.13382C10.1066 5.27721 10.0184 5.40648 9.88319 5.4613C9.74793 5.51613 9.59228 5.48571 9.48885 5.38424C9.38543 5.28277 9.35461 5.13025 9.41078 4.99783C9.46694 4.86542 9.59903 4.7792 9.7454 4.77942C9.84128 4.77956 9.93318 4.817 10.0009 4.88352C10.0686 4.95003 10.1068 5.0399 10.1066 5.13382ZM11.4394 11.1711C11.4573 11.1735 11.4753 11.1749 11.4933 11.1754C11.9225 11.1758 12.3199 10.9515 12.5348 10.5876C12.7498 10.2237 12.7502 9.77505 12.5359 9.41074C12.3216 9.04643 11.9252 8.82177 11.496 8.82139L11.4507 8.82615C11.3722 8.82403 11.3355 8.79523 11.3085 8.74237C11.0989 8.3158 10.7161 7.99506 10.2534 7.85834C10.2491 7.85729 10.2449 7.85597 10.2407 7.85437C10.0845 7.81006 9.92263 7.78764 9.75997 7.78777C9.73583 7.78845 9.71176 7.79075 9.68794 7.79464L9.6213 7.80204C9.55477 7.80676 9.4927 7.769 9.46752 7.70849C9.21137 7.06402 8.61869 6.60624 7.9192 6.51259C7.21971 6.41893 6.52337 6.70412 6.10007 7.25762C6.07281 7.2928 6.031 7.31429 5.98595 7.31629C5.94077 7.3191 5.89678 7.30135 5.86671 7.26819C5.33973 6.695 4.51165 6.49019 3.77008 6.74962C3.02851 7.00905 2.52019 7.68139 2.48307 8.45192C2.47951 8.51925 2.43011 8.57579 2.36275 8.58961C1.72072 8.71998 1.27153 9.28933 1.30458 9.93082C1.33762 10.5723 1.84305 11.0945 2.49521 11.1608C2.5054 11.1619 2.51545 11.164 2.52516 11.1672H2.55213C2.55568 11.1672 2.56878 11.1686 2.58175 11.17C2.59447 11.1714 2.60707 11.1727 2.61041 11.1727C2.64709 11.1751 2.68392 11.1744 2.72048 11.1706C2.72227 11.1705 2.72824 11.17 2.7353 11.1694C2.74741 11.1684 2.76274 11.1672 2.7658 11.1672H6.38443L6.4284 11.1701C6.49699 11.1755 6.56592 11.1755 6.63452 11.1701L6.67283 11.1672H9.62022C9.62252 11.1672 9.63351 11.168 9.6445 11.1689C9.6555 11.1698 9.66649 11.1706 9.66878 11.1706C9.72217 11.1755 9.77591 11.1755 9.82931 11.1706L9.87355 11.1667H11.387C11.3899 11.1667 11.4015 11.1678 11.4132 11.1689C11.4249 11.17 11.4365 11.1711 11.4394 11.1711Z" fill="#5549EF"/>
<path fill-rule="evenodd" clip-rule="evenodd" d="M7.19139 4.45139C7.06471 4.75105 6.76623 4.94644 6.43515 4.94644C5.98331 4.94615 5.61706 4.58749 5.61662 4.14487C5.61651 3.82053 5.81587 3.52807 6.12172 3.40388C6.42758 3.27968 6.77968 3.34822 7.01383 3.57752C7.24799 3.80683 7.31807 4.15173 7.19139 4.45139ZM6.9099 3.95269C6.83052 3.76439 6.64311 3.64151 6.43515 3.64141C6.15185 3.64155 5.92198 3.86603 5.92094 4.14355C5.92039 4.34727 6.04523 4.53124 6.2372 4.6096C6.42917 4.68796 6.65042 4.64526 6.79771 4.50143C6.945 4.3576 6.98928 4.14099 6.9099 3.95269Z" fill="#5549EF"/>
<path fill-rule="evenodd" clip-rule="evenodd" d="M4.62678 8.96296C4.62668 8.49417 5.01451 8.11405 5.49306 8.1139C5.9715 8.11434 6.35928 8.4941 6.35988 8.96278C6.35988 9.43157 5.97196 9.81162 5.49342 9.81167C5.01487 9.81172 4.62688 9.43175 4.62678 8.96296ZM4.9311 8.96437C4.9314 9.26824 5.18286 9.51446 5.49306 9.51461V9.5125C5.80349 9.51221 6.05511 9.26583 6.05556 8.96173C6.05437 8.65786 5.80218 8.41234 5.49198 8.41307C5.18179 8.4138 4.9308 8.66049 4.9311 8.96437Z" fill="#5549EF"/>
<path fill-rule="evenodd" clip-rule="evenodd" d="M10.4433 7.60621C10.9096 7.77097 11.2979 8.09768 11.5346 8.52433C12.3583 8.54593 13.0112 9.21206 12.9999 10.0191C12.9885 10.8262 12.317 11.4744 11.4931 11.4738C11.4633 11.4734 11.4336 11.4713 11.404 11.4677L9.88326 11.465C9.80271 11.4753 9.7212 11.4761 9.64046 11.4674L6.68308 11.465C6.59003 11.4749 6.49621 11.4755 6.40304 11.4669L2.765 11.465C2.69941 11.4747 2.6328 11.4756 2.56697 11.4677L2.47767 11.465C2.45547 11.4651 2.43354 11.4603 2.41347 11.451C1.64688 11.3488 1.05858 10.7339 1.00409 9.97786C0.949609 9.22186 1.44388 8.53206 2.1882 8.32533C2.27518 7.52343 2.79981 6.83106 3.55816 6.51735V4.45091L3.06688 4.93191C3.03836 4.96012 2.99951 4.97599 2.95897 4.97599C2.91844 4.97599 2.87958 4.96012 2.85106 4.93191L1.25933 3.37395C1.19977 3.31555 1.19977 3.22092 1.25933 3.16252L3.65447 0.817785C3.67657 0.796283 3.70478 0.781821 3.73541 0.776293L5.49333 0.476065C5.53988 0.468331 5.58745 0.482205 5.62211 0.513617C5.65676 0.54503 5.67457 0.590423 5.67031 0.636486C5.6695 0.643886 5.60367 1.36486 6.01887 1.81414C6.2436 2.0557 6.57247 2.17938 6.99899 2.17885C7.42552 2.17832 7.7552 2.0557 7.97912 1.81414C8.38055 1.38052 8.33157 0.691456 8.32788 0.639543L8.32768 0.636486C8.32315 0.590103 8.3409 0.544292 8.37571 0.512536C8.41122 0.481409 8.45935 0.467966 8.50628 0.476065L10.2661 0.776293C10.2967 0.781821 10.3249 0.796283 10.347 0.817785L12.7408 3.16173C12.8004 3.22013 12.8004 3.31475 12.7408 3.37316L11.1504 4.93112C11.1219 4.95933 11.0831 4.9752 11.0425 4.9752C11.002 4.9752 10.9631 4.95933 10.9346 4.93112L10.4433 4.45012V7.60621ZM3.60106 3.98471C3.64443 3.94195 3.70987 3.92911 3.76671 3.9522C3.82469 3.97495 3.86264 4.0303 3.86248 4.09148V6.41719C4.61095 6.22486 5.40775 6.42472 5.96977 6.94576C6.47403 6.38408 7.23491 6.11162 7.99008 6.2223C8.74524 6.33299 9.39138 6.81169 9.70574 7.49336C9.72247 7.49072 9.74109 7.49072 9.7597 7.49072C9.88715 7.4908 10.0143 7.50247 10.1396 7.5256V5.66001C9.86414 5.85858 9.47998 5.82059 9.25064 5.5721C9.0213 5.32361 9.0213 4.94536 9.25064 4.69687C9.47998 4.44838 9.86414 4.41038 10.1396 4.60895V4.09069C10.1393 4.03031 10.1762 3.97574 10.2331 3.95256C10.29 3.92938 10.3556 3.94219 10.3991 3.98498L11.0423 4.61477L12.4182 3.26691L10.1663 1.06119L8.63821 0.79955C8.63254 1.0826 8.57049 1.6183 8.20655 2.01209C7.92328 2.3176 7.5186 2.47617 7.00385 2.47617H6.99576C6.48101 2.47485 6.07633 2.31866 5.79306 2.01209C5.42831 1.61883 5.36626 1.0826 5.3614 0.79955L3.83334 1.06119L1.58145 3.26691L2.95735 4.61477L3.60106 3.98471ZM10.1066 5.13382C10.1066 5.27721 10.0184 5.40648 9.88319 5.4613C9.74793 5.51613 9.59228 5.48571 9.48885 5.38424C9.38543 5.28277 9.35461 5.13025 9.41078 4.99783C9.46694 4.86542 9.59903 4.7792 9.7454 4.77942C9.84128 4.77956 9.93318 4.817 10.0009 4.88352C10.0686 4.95003 10.1068 5.0399 10.1066 5.13382ZM11.4394 11.1711C11.4573 11.1735 11.4753 11.1749 11.4933 11.1754C11.9225 11.1758 12.3199 10.9515 12.5348 10.5876C12.7498 10.2237 12.7502 9.77505 12.5359 9.41074C12.3216 9.04643 11.9252 8.82177 11.496 8.82139L11.4507 8.82615C11.3722 8.82403 11.3355 8.79523 11.3085 8.74237C11.0989 8.3158 10.7161 7.99506 10.2534 7.85834C10.2491 7.85729 10.2449 7.85597 10.2407 7.85437C10.0845 7.81006 9.92263 7.78764 9.75997 7.78777C9.73583 7.78845 9.71176 7.79075 9.68794 7.79464L9.6213 7.80204C9.55477 7.80676 9.4927 7.769 9.46752 7.70849C9.21137 7.06402 8.61869 6.60624 7.9192 6.51259C7.21971 6.41893 6.52337 6.70412 6.10007 7.25762C6.07281 7.2928 6.031 7.31429 5.98595 7.31629C5.94077 7.3191 5.89678 7.30135 5.86671 7.26819C5.33973 6.695 4.51165 6.49019 3.77008 6.74962C3.02851 7.00905 2.52019 7.68139 2.48307 8.45192C2.47951 8.51925 2.43011 8.57579 2.36275 8.58961C1.72072 8.71998 1.27153 9.28933 1.30458 9.93082C1.33762 10.5723 1.84305 11.0945 2.49521 11.1608C2.5054 11.1619 2.51545 11.164 2.52516 11.1672H2.55213C2.55568 11.1672 2.56878 11.1686 2.58175 11.17C2.59447 11.1714 2.60707 11.1727 2.61041 11.1727C2.64709 11.1751 2.68392 11.1744 2.72048 11.1706C2.72227 11.1705 2.72824 11.17 2.7353 11.1694C2.74741 11.1684 2.76274 11.1672 2.7658 11.1672H6.38443L6.4284 11.1701C6.49699 11.1755 6.56592 11.1755 6.63452 11.1701L6.67283 11.1672H9.62022C9.62252 11.1672 9.63351 11.168 9.6445 11.1689C9.6555 11.1698 9.66649 11.1706 9.66878 11.1706C9.72217 11.1755 9.77591 11.1755 9.82931 11.1706L9.87355 11.1667H11.387C11.3899 11.1667 11.4015 11.1678 11.4132 11.1689C11.4249 11.17 11.4365 11.1711 11.4394 11.1711Z" stroke="#5549EF" stroke-width="0.4"/>
<path fill-rule="evenodd" clip-rule="evenodd" d="M7.19139 4.45139C7.06471 4.75105 6.76623 4.94644 6.43515 4.94644C5.98331 4.94615 5.61706 4.58749 5.61662 4.14487C5.61651 3.82053 5.81587 3.52807 6.12172 3.40388C6.42758 3.27968 6.77968 3.34822 7.01383 3.57752C7.24799 3.80683 7.31807 4.15173 7.19139 4.45139ZM6.9099 3.95269C6.83052 3.76439 6.64311 3.64151 6.43515 3.64141C6.15185 3.64155 5.92198 3.86603 5.92094 4.14355C5.92039 4.34727 6.04523 4.53124 6.2372 4.6096C6.42917 4.68796 6.65042 4.64526 6.79771 4.50143C6.945 4.3576 6.98928 4.14099 6.9099 3.95269Z" stroke="#5549EF" stroke-width="0.4"/>
<path fill-rule="evenodd" clip-rule="evenodd" d="M4.62678 8.96296C4.62668 8.49417 5.01451 8.11405 5.49306 8.1139C5.9715 8.11434 6.35928 8.4941 6.35988 8.96278C6.35988 9.43157 5.97196 9.81162 5.49342 9.81167C5.01487 9.81172 4.62688 9.43175 4.62678 8.96296ZM4.9311 8.96437C4.9314 9.26824 5.18286 9.51446 5.49306 9.51461V9.5125C5.80349 9.51221 6.05511 9.26583 6.05556 8.96173C6.05437 8.65786 5.80218 8.41234 5.49198 8.41307C5.18179 8.4138 4.9308 8.66049 4.9311 8.96437Z" stroke="#5549EF" stroke-width="0.4"/>
</svg>
