<svg width="18" height="16" viewBox="0 0 18 16" fill="none" xmlns="http://www.w3.org/2000/svg">
<path fill-rule="evenodd" clip-rule="evenodd" d="M17.1866 4.58787L13.8163 1.0715C13.7886 1.04293 13.7534 1.02357 13.7151 1.01588L12.1063 0.692953L12.0967 0.6908L10.8762 0.446449C10.8075 0.433202 10.7373 0.459031 10.6918 0.514264L8.99979 2.60399L7.30809 0.514264C7.26281 0.458714 7.19242 0.432818 7.12375 0.446449L5.90115 0.691518H5.89599L4.28409 1.01445C4.24585 1.02214 4.21066 1.04149 4.18298 1.07007L0.812654 4.58643C0.736928 4.6658 0.736928 4.79411 0.812654 4.87348L3.15675 7.31951C3.23399 7.39551 3.35463 7.39551 3.43188 7.31951L4.2411 6.4745V15.3548C4.24129 15.4664 4.32802 15.5569 4.43506 15.5571H13.5638C13.6709 15.5571 13.7578 15.4665 13.7578 15.3548V6.4745L14.5677 7.31951C14.6041 7.35772 14.6536 7.37921 14.7053 7.37921C14.7569 7.37921 14.8064 7.35772 14.8428 7.31951L17.1869 4.87384C17.2235 4.83585 17.2441 4.7842 17.2441 4.73031C17.2441 4.67643 17.2235 4.62477 17.1869 4.58679L17.1866 4.58787ZM10.9141 0.866136L11.7762 1.03801L10.6248 3.42555L9.31797 2.83889L10.9141 0.866136ZM8.68232 2.83961L7.0852 0.866136L6.22336 1.03801L7.37546 3.42627L8.68232 2.83961ZM14.7053 6.89032L13.7014 5.84295C13.6459 5.78471 13.5622 5.76722 13.4895 5.79869C13.4168 5.83017 13.3696 5.90435 13.3699 5.98647V7.07798C13.0655 6.95132 12.5239 6.57205 12.5239 5.4705C12.5195 5.36195 12.4339 5.2763 12.3297 5.2763C12.2256 5.2763 12.14 5.36195 12.1356 5.4705C12.1356 6.95598 11.1304 7.13144 11.0884 7.1379C10.993 7.15252 10.9223 7.23789 10.9223 7.33848C10.9223 7.43906 10.993 7.52443 11.0884 7.53905C11.1314 7.54587 12.1366 7.72133 12.1366 9.20646C12.141 9.31501 12.2266 9.40066 12.3308 9.40066C12.4349 9.40066 12.5205 9.31501 12.5249 9.20646C12.5249 8.11567 13.0666 7.73174 13.3709 7.60185V15.1505H4.62908V5.98611C4.62941 5.90399 4.58215 5.82981 4.50945 5.79834C4.43675 5.76686 4.35303 5.78435 4.29755 5.84259L3.29436 6.89032L1.22471 4.73063L4.41551 1.40156L5.82726 1.11846L7.11073 3.7787C7.15681 3.87445 7.26653 3.91602 7.36076 3.87342L8.99983 3.13786L10.6389 3.87271C10.7332 3.91487 10.8427 3.87323 10.8889 3.77762L12.1721 1.11738L13.5838 1.40049L16.775 4.72955L14.7053 6.89032ZM12.3305 8.14902C12.4724 7.80943 12.7138 7.52552 13.02 7.3381H13.0193C12.713 7.15107 12.4716 6.86736 12.3298 6.52791C12.188 6.86723 11.9467 7.15089 11.6406 7.3381C11.9469 7.52558 12.1884 7.80946 12.3305 8.14902Z" fill="#5549EF"/>
<path d="M13.8163 1.0715L13.9245 0.967706L13.924 0.967118L13.8163 1.0715ZM17.1866 4.58787L17.0783 4.69166L17.3295 4.63343L17.1866 4.58787ZM13.7151 1.01588L13.7447 0.868829L13.7447 0.868818L13.7151 1.01588ZM12.1063 0.692953L12.0736 0.839375L12.0768 0.84002L12.1063 0.692953ZM12.0967 0.6908L12.1294 0.544377L12.1261 0.543719L12.0967 0.6908ZM10.8762 0.446449L10.9056 0.299364L10.9046 0.299167L10.8762 0.446449ZM10.6918 0.514264L10.576 0.418899L10.5752 0.419873L10.6918 0.514264ZM8.99979 2.60399L8.8832 2.69837L9.11636 2.69838L8.99979 2.60399ZM7.30809 0.514264L7.42468 0.419884L7.42436 0.41949L7.30809 0.514264ZM7.12375 0.446449L7.09455 0.29932L7.09427 0.299374L7.12375 0.446449ZM5.90115 0.691518V0.841518L5.93063 0.838592L5.90115 0.691518ZM5.89599 0.691518V0.541518L5.86653 0.54444L5.89599 0.691518ZM4.28409 1.01445L4.25462 0.867372L4.25451 0.867393L4.28409 1.01445ZM4.18298 1.07007L4.07525 0.965683L4.07469 0.966272L4.18298 1.07007ZM0.812654 4.58643L0.704363 4.48264L0.704123 4.48289L0.812654 4.58643ZM0.812654 4.87348L0.704123 4.97702L0.704355 4.97727L0.812654 4.87348ZM3.15675 7.31951L3.0484 7.42334L3.05154 7.42643L3.15675 7.31951ZM3.43188 7.31951L3.53713 7.42647L3.54021 7.42325L3.43188 7.31951ZM4.2411 6.4745H4.3911L4.13276 6.37075L4.2411 6.4745ZM4.2411 15.3548H4.0911L4.0911 15.355L4.2411 15.3548ZM4.43506 15.5571L4.43479 15.7071H4.43506V15.5571ZM13.7578 6.4745L13.8661 6.37071L13.6078 6.4745H13.7578ZM14.5677 7.31951L14.6763 7.21604L14.676 7.21571L14.5677 7.31951ZM14.8428 7.31951L14.7345 7.21571L14.7342 7.21604L14.8428 7.31951ZM17.1869 4.87384L17.0789 4.76972L17.0786 4.77005L17.1869 4.87384ZM17.1869 4.58679L17.2949 4.48267L17.044 4.54122L17.1869 4.58679ZM11.7762 1.03801L11.9114 1.10317L11.8056 0.890902L11.7762 1.03801ZM10.9141 0.866136L10.9434 0.719031L10.7974 0.771789L10.9141 0.866136ZM10.6248 3.42555L10.5634 3.56239L10.7599 3.49071L10.6248 3.42555ZM9.31797 2.83889L9.20136 2.74454L9.25654 2.97573L9.31797 2.83889ZM7.0852 0.866136L7.2018 0.771773L7.05586 0.719033L7.0852 0.866136ZM8.68232 2.83961L8.74375 2.97645L8.79892 2.74524L8.68232 2.83961ZM6.22336 1.03801L6.19402 0.890904L6.08826 1.10318L6.22336 1.03801ZM7.37546 3.42627L7.24036 3.49144L7.43689 3.56311L7.37546 3.42627ZM13.7014 5.84295L13.5928 5.94641L13.5931 5.94674L13.7014 5.84295ZM14.7053 6.89032L14.597 6.99411L14.8136 6.99408L14.7053 6.89032ZM13.3699 5.98647H13.5199L13.5199 5.98586L13.3699 5.98647ZM13.3699 7.07798L13.3123 7.21647L13.5199 7.07798H13.3699ZM12.5239 5.4705H12.674L12.6738 5.46445L12.5239 5.4705ZM12.1356 5.4705L11.9856 5.46445V5.4705H12.1356ZM11.0884 7.1379L11.1111 7.28617L11.1112 7.28615L11.0884 7.1379ZM11.0884 7.53905L11.1119 7.3909L11.1111 7.39079L11.0884 7.53905ZM12.1366 9.20646H11.9865L11.9868 9.2125L12.1366 9.20646ZM12.5249 9.20646L12.6749 9.21251V9.20646H12.5249ZM13.3709 7.60185H13.5209L13.3121 7.46388L13.3709 7.60185ZM13.3709 15.1505V15.3005L13.5209 15.1505H13.3709ZM4.62908 15.1505H4.47908L4.62908 15.3005V15.1505ZM4.62908 5.98611L4.47908 5.9855V5.98611H4.62908ZM4.50945 5.79834L4.44986 5.93599H4.44986L4.50945 5.79834ZM4.29755 5.84259L4.40589 5.94633L4.40615 5.94605L4.29755 5.84259ZM3.29436 6.89032L3.18606 6.9941L3.4027 6.99406L3.29436 6.89032ZM1.22471 4.73063L1.11642 4.62683L1.11641 4.83441L1.22471 4.73063ZM4.41551 1.40156L4.38602 1.25449L4.30722 1.29777L4.41551 1.40156ZM5.82726 1.11846L5.96236 1.05328L5.79777 0.971387L5.82726 1.11846ZM7.11073 3.7787L7.2459 3.71366L7.24583 3.71352L7.11073 3.7787ZM7.36076 3.87342L7.29934 3.73657L7.29897 3.73674L7.36076 3.87342ZM8.99983 3.13786L9.0612 3.00098L8.93842 3.00101L8.99983 3.13786ZM10.6389 3.87271L10.5775 4.00958L10.5777 4.00965L10.6389 3.87271ZM10.8889 3.77762L11.024 3.84288L11.024 3.84279L10.8889 3.77762ZM12.1721 1.11738L12.2016 0.97031L12.037 1.05222L12.1721 1.11738ZM13.5838 1.40049L13.6921 1.29669L13.6133 1.25341L13.5838 1.40049ZM16.775 4.72955L16.8833 4.83331L16.8832 4.62575L16.775 4.72955ZM13.02 7.3381L13.0983 7.46605L13.02 7.1881V7.3381ZM12.3305 8.14902L12.1921 8.20692L12.4689 8.20684L12.3305 8.14902ZM13.0193 7.3381L12.9412 7.46612L13.0193 7.4881V7.3381ZM12.3298 6.52791L12.4682 6.47009L12.1914 6.47006L12.3298 6.52791ZM11.6406 7.3381L11.5623 7.21014L11.5623 7.46604L11.6406 7.3381ZM13.708 1.17529L17.0783 4.69166L17.2949 4.48407L13.9245 0.967707L13.708 1.17529ZM13.6856 1.16294C13.6934 1.16452 13.7015 1.16865 13.7085 1.17588L13.924 0.967118C13.8756 0.917207 13.8134 0.882631 13.7447 0.868829L13.6856 1.16294ZM12.0768 0.84002L13.6856 1.16295L13.7447 0.868818L12.1358 0.545887L12.0768 0.84002ZM12.064 0.837187L12.0736 0.83934L12.1391 0.546566L12.1294 0.544414L12.064 0.837187ZM10.8467 0.59353L12.0673 0.837882L12.1261 0.543719L10.9056 0.299367L10.8467 0.59353ZM10.8076 0.609627C10.8192 0.595552 10.8346 0.591201 10.8477 0.593731L10.9046 0.299167C10.7804 0.275202 10.6554 0.32251 10.576 0.418902L10.8076 0.609627ZM9.11636 2.69838L10.8084 0.608656L10.5752 0.419873L8.88321 2.5096L9.11636 2.69838ZM7.1915 0.608645L8.8832 2.69837L9.11637 2.50961L7.42468 0.419884L7.1915 0.608645ZM7.15296 0.593578C7.16557 0.591074 7.18056 0.595225 7.19182 0.609039L7.42436 0.41949C7.34505 0.322203 7.21926 0.274562 7.09455 0.29932L7.15296 0.593578ZM5.93063 0.838592L7.15324 0.593523L7.09427 0.299374L5.87167 0.544443L5.93063 0.838592ZM5.89599 0.841518H5.90115V0.541518H5.89599V0.841518ZM4.31355 1.16153L5.92546 0.838595L5.86653 0.54444L4.25462 0.867372L4.31355 1.16153ZM4.2907 1.17445C4.29771 1.16722 4.30582 1.16308 4.31366 1.16151L4.25451 0.867393C4.18588 0.881195 4.12362 0.915771 4.07525 0.965684L4.2907 1.17445ZM0.920945 4.69022L4.29127 1.17386L4.07469 0.966272L0.704363 4.48264L0.920945 4.69022ZM0.921184 4.76994C0.900751 4.74852 0.900751 4.71139 0.921184 4.68997L0.704123 4.48289C0.573105 4.62022 0.573105 4.83969 0.704123 4.97702L0.921184 4.76994ZM3.26505 7.21572L0.920952 4.76969L0.704355 4.97727L3.04845 7.42329L3.26505 7.21572ZM3.32667 7.21259C3.3078 7.23115 3.28082 7.23115 3.26195 7.21259L3.05154 7.42643C3.18716 7.55987 3.40146 7.55987 3.53708 7.42643L3.32667 7.21259ZM4.13276 6.37075L3.32354 7.21576L3.54021 7.42325L4.34943 6.57825L4.13276 6.37075ZM4.3911 15.3548V6.4745H4.0911V15.3548H4.3911ZM4.43534 15.4071C4.41683 15.4071 4.39116 15.3896 4.3911 15.3545L4.0911 15.355C4.09142 15.5433 4.2392 15.7068 4.43479 15.7071L4.43534 15.4071ZM13.5638 15.4071H4.43506V15.7071H13.5638V15.4071ZM13.6078 15.3548C13.6078 15.3897 13.5822 15.4071 13.5638 15.4071V15.7071C13.7597 15.7071 13.9078 15.5433 13.9078 15.3548H13.6078ZM13.6078 6.4745V15.3548H13.9078V6.4745H13.6078ZM14.676 7.21571L13.8661 6.37071L13.6495 6.5783L14.4594 7.4233L14.676 7.21571ZM14.7053 7.22921C14.6957 7.22921 14.6851 7.22528 14.6763 7.21604L14.4591 7.42298C14.5231 7.49016 14.6116 7.52921 14.7053 7.52921V7.22921ZM14.7342 7.21604C14.7254 7.22528 14.7149 7.22921 14.7053 7.22921V7.52921C14.799 7.52921 14.8874 7.49017 14.9514 7.42297L14.7342 7.21604ZM17.0786 4.77005L14.7345 7.21571L14.9511 7.4233L17.2952 4.97763L17.0786 4.77005ZM17.0941 4.73031C17.0941 4.74627 17.088 4.76034 17.0789 4.76972L17.2949 4.97796C17.3591 4.91136 17.3941 4.82212 17.3941 4.73031H17.0941ZM17.0789 4.6909C17.088 4.70028 17.0941 4.71436 17.0941 4.73031H17.3941C17.3941 4.63851 17.3591 4.54927 17.2949 4.48267L17.0789 4.6909ZM17.3295 4.63343L17.3298 4.63236L17.044 4.54122L17.0437 4.5423L17.3295 4.63343ZM11.8056 0.890902L10.9434 0.719031L10.8847 1.01324L11.7469 1.18511L11.8056 0.890902ZM10.7599 3.49071L11.9114 1.10317L11.6411 0.97285L10.4897 3.36039L10.7599 3.49071ZM9.25654 2.97573L10.5634 3.56239L10.6863 3.2887L9.3794 2.70204L9.25654 2.97573ZM10.7974 0.771789L9.20136 2.74454L9.43458 2.93324L11.0307 0.960484L10.7974 0.771789ZM6.9686 0.9605L8.56572 2.93397L8.79892 2.74524L7.2018 0.771773L6.9686 0.9605ZM6.2527 1.18511L7.11454 1.01324L7.05586 0.719033L6.19402 0.890904L6.2527 1.18511ZM7.51056 3.36109L6.35846 0.972834L6.08826 1.10318L7.24036 3.49144L7.51056 3.36109ZM8.62089 2.70276L7.31403 3.28942L7.43689 3.56311L8.74375 2.97645L8.62089 2.70276ZM13.5931 5.94674L14.597 6.99411L14.8136 6.78653L13.8097 5.73915L13.5931 5.94674ZM13.5491 5.93635C13.5629 5.93037 13.5798 5.93274 13.5928 5.94641L13.81 5.73948C13.7121 5.63667 13.5615 5.60408 13.4299 5.66104L13.5491 5.93635ZM13.5199 5.98586C13.5198 5.9609 13.5341 5.94286 13.5491 5.93635L13.4299 5.66104C13.2996 5.71748 13.2193 5.8478 13.2199 5.98708L13.5199 5.98586ZM13.5199 7.07798V5.98647H13.2199V7.07798H13.5199ZM12.3739 5.4705C12.3739 6.0468 12.516 6.44824 12.7098 6.72572C12.9031 7.00254 13.1401 7.14483 13.3123 7.21647L13.4275 6.93949C13.2953 6.88446 13.1093 6.77379 12.9557 6.55393C12.8026 6.33473 12.6739 5.99575 12.6739 5.4705H12.3739ZM12.3297 5.4263C12.3478 5.4263 12.3726 5.44273 12.374 5.47655L12.6738 5.46445C12.6664 5.28117 12.5199 5.1263 12.3297 5.1263V5.4263ZM12.2855 5.47654C12.2869 5.44273 12.3117 5.4263 12.3297 5.4263V5.1263C12.1395 5.1263 11.9931 5.28117 11.9857 5.46445L12.2855 5.47654ZM11.1112 7.28615C11.1481 7.28048 11.4417 7.22749 11.728 6.97045C12.0196 6.70862 12.2856 6.25108 12.2856 5.4705H11.9856C11.9856 6.1754 11.749 6.54834 11.5275 6.74722C11.4145 6.8487 11.3006 6.90918 11.2134 6.94452C11.1698 6.96216 11.1332 6.97342 11.1072 6.9803C11.0941 6.98373 11.0838 6.98606 11.0767 6.98755C11.0694 6.98905 11.0656 6.98965 11.0656 6.98965L11.1112 7.28615ZM11.0723 7.33848C11.0723 7.30722 11.0935 7.28886 11.1111 7.28617L11.0657 6.98963C10.8925 7.01618 10.7723 7.16857 10.7723 7.33848H11.0723ZM11.1111 7.39079C11.0935 7.38809 11.0723 7.36973 11.0723 7.33848H10.7723C10.7723 7.50839 10.8925 7.66078 11.0657 7.68732L11.1111 7.39079ZM12.2866 9.20646C12.2866 8.42604 12.0206 7.96858 11.7288 7.70675C11.4423 7.44964 11.1484 7.3967 11.1119 7.39091L11.0649 7.6872C11.0714 7.68822 11.3016 7.72643 11.5285 7.93003C11.7501 8.12891 11.9866 8.50175 11.9866 9.20646H12.2866ZM12.3308 9.25066C12.3127 9.25066 12.2879 9.23423 12.2865 9.20041L11.9868 9.2125C11.9942 9.39579 12.1406 9.55066 12.3308 9.55066V9.25066ZM12.375 9.20041C12.3737 9.23423 12.3488 9.25066 12.3308 9.25066V9.55066C12.521 9.55066 12.6674 9.39579 12.6748 9.2125L12.375 9.20041ZM13.3121 7.46388C13.1404 7.53716 12.9038 7.68131 12.7108 7.95797C12.5172 8.23541 12.3749 8.63519 12.3749 9.20646H12.6749C12.6749 8.68693 12.8035 8.34935 12.9568 8.12965C13.1107 7.90918 13.2971 7.79643 13.4298 7.73981L13.3121 7.46388ZM13.5209 15.1505V7.60185H13.2209V15.1505H13.5209ZM4.62908 15.3005H13.3709V15.0005H4.62908V15.3005ZM4.47908 5.98611V15.1505H4.77908V5.98611H4.47908ZM4.44986 5.93599C4.46489 5.9425 4.47918 5.96054 4.47908 5.9855L4.77908 5.98672C4.77964 5.84745 4.69941 5.71712 4.56904 5.66068L4.44986 5.93599ZM4.40615 5.94605C4.41918 5.93238 4.43604 5.93001 4.44986 5.93599L4.56904 5.66068C4.43747 5.60372 4.28689 5.63631 4.18894 5.73912L4.40615 5.94605ZM3.4027 6.99406L4.40589 5.94632L4.1892 5.73885L3.18602 6.78658L3.4027 6.99406ZM1.11641 4.83441L3.18606 6.9941L3.40266 6.78654L1.33301 4.62684L1.11641 4.83441ZM4.30722 1.29777L1.11642 4.62683L1.333 4.83442L4.5238 1.50536L4.30722 1.29777ZM5.79777 0.971387L4.38602 1.25449L4.445 1.54863L5.85675 1.26553L5.79777 0.971387ZM7.24583 3.71352L5.96236 1.05328L5.69216 1.18364L6.97564 3.84388L7.24583 3.71352ZM7.29897 3.73674C7.28231 3.74427 7.25828 3.73939 7.2459 3.71366L6.97557 3.84373C7.05533 4.00952 7.25074 4.08778 7.42255 4.0101L7.29897 3.73674ZM8.93842 3.00101L7.29934 3.73657L7.42217 4.01027L9.06125 3.27471L8.93842 3.00101ZM10.7003 3.73583L9.0612 3.00098L8.93847 3.27473L10.5775 4.00958L10.7003 3.73583ZM10.7539 3.71236C10.7413 3.73829 10.7171 3.74333 10.7001 3.73576L10.5777 4.00965C10.7494 4.0864 10.9441 4.00817 11.024 3.84288L10.7539 3.71236ZM12.037 1.05222L10.7538 3.71245L11.024 3.84279L12.3072 1.18255L12.037 1.05222ZM13.6133 1.25341L12.2016 0.97031L12.1426 1.26445L13.5543 1.54756L13.6133 1.25341ZM16.8832 4.62575L13.6921 1.29669L13.4755 1.50428L16.6667 4.83335L16.8832 4.62575ZM14.8136 6.99408L16.8833 4.83331L16.6666 4.62579L14.597 6.78656L14.8136 6.99408ZM12.9417 7.21016C12.6079 7.41448 12.3458 7.72328 12.1921 8.0912L12.4689 8.20684C12.5989 7.89559 12.8197 7.63656 13.0983 7.46605L12.9417 7.21016ZM13.0193 7.4881H13.02V7.1881H13.0193V7.4881ZM12.1914 6.58572C12.345 6.95356 12.6072 7.26218 12.9412 7.46612L13.0975 7.21008C12.8189 7.03995 12.5981 6.78117 12.4682 6.47009L12.1914 6.58572ZM11.7189 7.46607C12.0526 7.26195 12.3146 6.95341 12.4682 6.58575L12.1914 6.47006C12.0614 6.78105 11.8408 7.03983 11.5623 7.21014L11.7189 7.46607ZM12.4689 8.09112C12.315 7.72326 12.0528 7.41453 11.7189 7.21017L11.5623 7.46604C11.841 7.63663 12.0619 7.89566 12.1921 8.20692L12.4689 8.09112Z" fill="#5549EF"/>
<path fill-rule="evenodd" clip-rule="evenodd" d="M15.5768 9.5316C15.5768 10.7903 16.4122 10.926 16.4483 10.931L16.449 10.9324C16.5453 10.9459 16.6172 11.0316 16.6172 11.133C16.6172 11.2344 16.5453 11.3201 16.449 11.3336C16.4146 11.3389 15.5775 11.4871 15.5775 12.7311C15.5731 12.8397 15.4875 12.9253 15.3834 12.9253C15.2792 12.9253 15.1936 12.8397 15.1892 12.7311C15.1892 11.4857 14.3515 11.3375 14.3171 11.3318C14.2213 11.3177 14.1501 11.2322 14.1501 11.1314C14.1501 11.0305 14.2213 10.945 14.3171 10.931C14.3176 10.9309 14.3183 10.9307 14.3192 10.9305C14.3768 10.919 15.1886 10.7567 15.1886 9.5316C15.1929 9.42305 15.2786 9.3374 15.3827 9.3374C15.4868 9.3374 15.5725 9.42305 15.5768 9.5316ZM14.8465 11.1315C15.0776 11.2834 15.2632 11.4998 15.3823 11.7562L15.383 11.7558C15.5023 11.4993 15.6883 11.283 15.9198 11.1315C15.6884 10.9798 15.5025 10.7634 15.3833 10.5068C15.2639 10.7633 15.0779 10.9797 14.8465 11.1315Z" fill="#5549EF"/>
<path d="M16.4483 10.931L16.5836 10.8661L16.469 10.7824L16.4483 10.931ZM15.5768 9.5316H15.727L15.7267 9.52556L15.5768 9.5316ZM16.449 10.9324L16.3137 10.9972L16.4282 11.081L16.449 10.9324ZM16.449 11.3336L16.4282 11.185L16.4258 11.1854L16.449 11.3336ZM15.5775 12.7311L15.7275 12.7372V12.7311H15.5775ZM15.1892 12.7311H15.0391L15.0394 12.7372L15.1892 12.7311ZM14.3171 11.3318L14.3418 11.1838L14.3389 11.1834L14.3171 11.3318ZM14.3171 10.931L14.3389 11.0797L14.3477 11.0778L14.3171 10.931ZM14.3192 10.9305L14.2898 10.7835L14.2898 10.7835L14.3192 10.9305ZM15.1886 9.5316L15.0386 9.52555V9.5316H15.1886ZM15.3823 11.7562L15.2462 11.8194L15.4517 11.8892L15.3823 11.7562ZM14.8465 11.1315L14.7642 11.0061L14.7641 11.2569L14.8465 11.1315ZM15.383 11.7558L15.4523 11.8888L15.519 11.8191L15.383 11.7558ZM15.9198 11.1315L16.0019 11.257L16.0021 11.0061L15.9198 11.1315ZM15.3833 10.5068L15.5193 10.4436L15.2473 10.4435L15.3833 10.5068ZM16.469 10.7824C16.4697 10.7825 16.4226 10.7757 16.3522 10.7478C16.2822 10.72 16.1904 10.6718 16.0993 10.5899C15.9216 10.4301 15.7268 10.1241 15.7268 9.5316H15.4268C15.4268 10.1978 15.6497 10.589 15.8987 10.813C16.1424 11.0321 16.393 11.0747 16.4276 11.0795L16.469 10.7824ZM16.5843 10.8676L16.5836 10.8661L16.313 10.9958L16.3137 10.9972L16.5843 10.8676ZM16.7672 11.133C16.7672 10.9616 16.6449 10.8083 16.4698 10.7839L16.4282 11.081C16.4457 11.0834 16.4672 11.1016 16.4672 11.133H16.7672ZM16.4698 11.4821C16.6449 11.4576 16.7672 11.3043 16.7672 11.133H16.4672C16.4672 11.1644 16.4457 11.1826 16.4282 11.185L16.4698 11.4821ZM15.7275 12.7311C15.7275 12.1467 15.9223 11.8408 16.101 11.6791C16.1926 11.5962 16.2848 11.5469 16.3551 11.5181C16.4257 11.4892 16.4729 11.4816 16.4722 11.4818L16.4258 11.1854C16.3926 11.1906 16.1429 11.2366 15.8997 11.4566C15.6513 11.6814 15.4275 12.0716 15.4275 12.7311H15.7275ZM15.3834 13.0753C15.5736 13.0753 15.72 12.9205 15.7274 12.7372L15.4276 12.7251C15.4263 12.7589 15.4015 12.7753 15.3834 12.7753V13.0753ZM15.0394 12.7372C15.0468 12.9205 15.1932 13.0753 15.3834 13.0753V12.7753C15.3653 12.7753 15.3405 12.7589 15.3391 12.7251L15.0394 12.7372ZM14.2924 11.4797C14.2953 11.4802 14.4815 11.5113 14.6654 11.6778C14.8443 11.8397 15.0392 12.146 15.0392 12.7311H15.3392C15.3392 12.0709 15.1153 11.6803 14.8667 11.4554C14.6232 11.2349 14.3733 11.1891 14.3418 11.1838L14.2924 11.4797ZM14.0001 11.1314C14.0001 11.3019 14.1213 11.4546 14.2953 11.4802L14.3389 11.1834C14.3214 11.1808 14.3001 11.1626 14.3001 11.1314H14.0001ZM14.2953 10.7826C14.1213 10.8081 14.0001 10.9609 14.0001 11.1314H14.3001C14.3001 11.1001 14.3214 11.0819 14.3389 11.0794L14.2953 10.7826ZM14.2898 10.7835C14.2892 10.7836 14.2877 10.7839 14.2864 10.7841L14.3477 11.0778L14.3486 11.0776L14.2898 10.7835ZM15.0386 9.5316C15.0386 10.1073 14.8496 10.4126 14.6734 10.5762C14.4928 10.744 14.3072 10.78 14.2898 10.7835L14.3486 11.0776C14.3888 11.0696 14.6379 11.0187 14.8776 10.7961C15.1217 10.5694 15.3386 10.181 15.3386 9.5316H15.0386ZM15.3827 9.1874C15.1925 9.1874 15.0461 9.34227 15.0387 9.52556L15.3384 9.53765C15.3398 9.50383 15.3646 9.4874 15.3827 9.4874V9.1874ZM15.7267 9.52556C15.7193 9.34227 15.5729 9.1874 15.3827 9.1874V9.4874C15.4008 9.4874 15.4256 9.50383 15.427 9.53765L15.7267 9.52556ZM15.5183 11.693C15.3877 11.4119 15.1838 11.1737 14.9289 11.0061L14.7641 11.2569C14.9713 11.393 15.1386 11.5877 15.2462 11.8194L15.5183 11.693ZM15.3136 11.6228L15.3129 11.6232L15.4517 11.8892L15.4523 11.8888L15.3136 11.6228ZM15.8377 11.006C15.5822 11.1732 15.3778 11.4113 15.247 11.6926L15.519 11.8191C15.6268 11.5874 15.7944 11.3928 16.0019 11.257L15.8377 11.006ZM15.2473 10.57C15.378 10.8513 15.5823 11.0896 15.8376 11.257L16.0021 11.0061C15.7946 10.8701 15.6271 10.6754 15.5193 10.4436L15.2473 10.57ZM14.9287 11.2569C15.184 11.0895 15.3884 10.8513 15.5193 10.5701L15.2473 10.4435C15.1394 10.6753 14.9717 10.87 14.7642 11.0061L14.9287 11.2569Z" fill="#5549EF"/>
<path fill-rule="evenodd" clip-rule="evenodd" d="M9.66033 8.20776C9.76446 8.20776 9.85008 8.29341 9.85446 8.40197C9.85446 10.6632 11.4392 10.9187 11.455 10.9212C11.5508 10.9352 11.622 11.0207 11.622 11.1216C11.622 11.2225 11.5508 11.3079 11.455 11.322C11.39 11.332 9.85378 11.5932 9.85378 13.8408C9.8494 13.9494 9.76377 14.0351 9.65964 14.0351C9.5555 14.0351 9.46988 13.9494 9.4655 13.8408C9.4655 11.58 7.88145 11.3241 7.86529 11.3223C7.7699 11.3077 7.69922 11.2223 7.69922 11.1218C7.69922 11.0212 7.7699 10.9358 7.86529 10.9212C7.93063 10.9115 9.46619 10.6499 9.46619 8.40197C9.47057 8.29341 9.55619 8.20776 9.66033 8.20776ZM8.47303 11.1218C8.87163 11.331 9.38508 11.745 9.66021 12.5509C9.93534 11.745 10.4495 11.3302 10.8481 11.1218C10.4495 10.9119 9.93534 10.4985 9.66021 9.69191C9.38543 10.4985 8.87163 10.9129 8.47303 11.1218Z" fill="#5549EF"/>
<path d="M9.85446 8.40197H10.0046L10.0043 8.39592L9.85446 8.40197ZM11.455 10.9212L11.4315 11.0693L11.4332 11.0696L11.455 10.9212ZM11.455 11.322L11.4332 11.1736L11.4321 11.1737L11.455 11.322ZM9.85378 13.8408L10.0038 13.8469V13.8408H9.85378ZM9.4655 13.8408H9.31538L9.31562 13.8469L9.4655 13.8408ZM7.86529 11.3223L7.84254 11.4707L7.84874 11.4714L7.86529 11.3223ZM7.86529 10.9212L7.84329 10.7728L7.84256 10.7729L7.86529 10.9212ZM9.46619 8.40197L9.31619 8.39591V8.40197H9.46619ZM9.66021 12.5509L9.51826 12.5994H9.80217L9.66021 12.5509ZM8.47303 11.1218L8.40342 10.9889L8.40333 11.2546L8.47303 11.1218ZM10.8481 11.1218L10.9176 11.2547L10.918 10.9891L10.8481 11.1218ZM9.66021 9.69191L9.80218 9.64348L9.51823 9.64354L9.66021 9.69191ZM10.0043 8.39592C9.99695 8.21263 9.85053 8.05776 9.66033 8.05776V8.35776C9.67839 8.35776 9.70322 8.37419 9.70459 8.40801L10.0043 8.39592ZM11.4785 10.773C11.4847 10.774 11.1158 10.7165 10.7473 10.3955C10.3846 10.0795 10.0045 9.49294 10.0045 8.40197H9.70446C9.70446 9.57223 10.1167 10.244 10.5503 10.6217C10.9781 10.9944 11.4095 11.0658 11.4315 11.0693L11.4785 10.773ZM11.772 11.1216C11.772 10.9511 11.6508 10.7983 11.4768 10.7728L11.4332 11.0696C11.4507 11.0722 11.472 11.0903 11.472 11.1216H11.772ZM11.4768 11.4704C11.6508 11.4448 11.772 11.2921 11.772 11.1216H11.472C11.472 11.1528 11.4507 11.171 11.4332 11.1736L11.4768 11.4704ZM10.0038 13.8408C10.0038 12.7554 10.3727 12.1707 10.7295 11.8546C11.0917 11.5336 11.4602 11.473 11.4779 11.4702L11.4321 11.1737C11.3848 11.1811 10.9527 11.256 10.5305 11.6301C10.103 12.0089 9.70378 12.6787 9.70378 13.8408H10.0038ZM9.65964 14.1851C9.84984 14.1851 9.99626 14.0302 10.0037 13.8469L9.7039 13.8348C9.70253 13.8686 9.67771 13.8851 9.65964 13.8851V14.1851ZM9.31562 13.8469C9.32302 14.0302 9.46944 14.1851 9.65964 14.1851V13.8851C9.64157 13.8851 9.61674 13.8686 9.61538 13.8348L9.31562 13.8469ZM7.84874 11.4714C7.83472 11.4699 8.20347 11.5256 8.57292 11.8475C8.93554 12.1635 9.3155 12.75 9.3155 13.8408H9.6155C9.6155 12.6708 9.20344 11.999 8.76999 11.6213C8.34337 11.2496 7.91202 11.1766 7.88183 11.1733L7.84874 11.4714ZM7.54922 11.1218C7.54922 11.2917 7.66938 11.4441 7.84256 11.4706L7.88801 11.1741C7.87043 11.1714 7.84922 11.153 7.84922 11.1218H7.54922ZM7.84256 10.7729C7.66938 10.7995 7.54922 10.9519 7.54922 11.1218H7.84922C7.84922 11.0905 7.87043 11.0722 7.88801 11.0695L7.84256 10.7729ZM9.31619 8.40197C9.31619 9.48763 8.94739 10.0725 8.59073 10.3887C8.22852 10.7098 7.86009 10.7703 7.84329 10.7728L7.88728 11.0696C7.93582 11.0624 8.36785 10.9872 8.78975 10.6132C9.21721 10.2342 9.61619 9.56426 9.61619 8.40197H9.31619ZM9.66033 8.05776C9.47012 8.05776 9.32371 8.21263 9.31631 8.39592L9.61607 8.40801C9.61743 8.37419 9.64226 8.35776 9.66033 8.35776V8.05776ZM9.80217 12.5025C9.51219 11.6531 8.96795 11.2121 8.54274 10.989L8.40333 11.2546C8.7753 11.4498 9.25798 11.837 9.51826 12.5994L9.80217 12.5025ZM10.7786 10.9889C10.3532 11.2113 9.80823 11.6531 9.51826 12.5025L9.80217 12.5994C10.0625 11.837 10.5458 11.4491 10.9176 11.2547L10.7786 10.9889ZM9.51824 9.74033C9.80827 10.5906 10.3533 11.0307 10.7782 11.2545L10.918 10.9891C10.5457 10.793 10.0624 10.4064 9.80218 9.64348L9.51824 9.74033ZM8.54265 11.2546C8.96798 11.0318 9.51258 10.5904 9.8022 9.74028L9.51823 9.64354C9.25828 10.4066 8.77528 10.7941 8.40342 10.9889L8.54265 11.2546Z" fill="#5549EF"/>
</svg>
