<svg width="18" height="16" viewBox="0 0 18 16" fill="none" xmlns="http://www.w3.org/2000/svg">
<path fill-rule="evenodd" clip-rule="evenodd" d="M13.7312 10.243C14.3719 10.4694 14.9055 10.9183 15.2307 11.5046C16.3624 11.5342 17.2596 12.4495 17.2439 13.5584C17.2283 14.6674 16.3057 15.5581 15.1736 15.5571C15.1327 15.5566 15.0918 15.5538 15.0513 15.5488L12.9617 15.5451C12.851 15.5592 12.739 15.5603 12.6281 15.5484L8.56454 15.5451C8.4367 15.5587 8.30778 15.5596 8.17976 15.5477L3.181 15.5451C3.09089 15.5584 2.99936 15.5596 2.90892 15.5488L2.78622 15.5451C2.75571 15.5453 2.72557 15.5387 2.69799 15.5259C1.64469 15.3854 0.83635 14.5405 0.761486 13.5017C0.686621 12.463 1.36576 11.5152 2.38847 11.2311C2.50798 10.1293 3.22884 9.17795 4.27083 8.74692V5.90758L3.59581 6.56848C3.55661 6.60724 3.50323 6.62905 3.44753 6.62905C3.39183 6.62905 3.33845 6.60724 3.29925 6.56848L1.11218 4.42781C1.03035 4.34756 1.03035 4.21755 1.11218 4.1373L4.40317 0.915577C4.43353 0.886033 4.47229 0.866161 4.51438 0.858565L6.9298 0.446045C6.99376 0.435419 7.05913 0.454481 7.10675 0.497643C7.15436 0.540805 7.17883 0.603175 7.17297 0.666467C7.17186 0.676635 7.08141 1.66726 7.6519 2.28459C7.96069 2.6165 8.41256 2.78644 8.99862 2.78572C9.58468 2.78499 10.0377 2.6165 10.3453 2.28459C10.8969 1.68879 10.8296 0.741998 10.8245 0.670668L10.8243 0.666467C10.818 0.602735 10.8424 0.53979 10.8903 0.496158C10.9391 0.453388 11.0052 0.434917 11.0697 0.446045L13.4877 0.858565C13.5298 0.866161 13.5685 0.886033 13.5989 0.915577L16.888 4.13621C16.9699 4.21646 16.9699 4.34647 16.888 4.42672L14.7028 6.56739C14.6636 6.60615 14.6102 6.62796 14.5545 6.62796C14.4988 6.62796 14.4454 6.60615 14.4063 6.56739L13.7312 5.90649V10.243ZM4.32976 5.26726C4.38934 5.20851 4.47927 5.19086 4.55736 5.22259V5.22296C4.63703 5.2542 4.68918 5.3299 4.68896 5.41397V8.60954C5.71738 8.34528 6.81219 8.61989 7.58442 9.33581C8.27729 8.56405 9.32276 8.18968 10.3604 8.34176C11.398 8.49385 12.2858 9.15159 12.7177 10.0882C12.7407 10.0846 12.7663 10.0846 12.7919 10.0846H12.7919C12.967 10.0847 13.1417 10.1007 13.3138 10.1325V7.56916C12.9354 7.842 12.4075 7.7898 12.0924 7.44836C11.7773 7.10693 11.7773 6.58721 12.0924 6.24578C12.4075 5.90435 12.9354 5.85214 13.3138 6.12498V5.41288C13.3134 5.32992 13.3642 5.25493 13.4424 5.22308C13.5206 5.19123 13.6107 5.20883 13.6704 5.26762L14.5541 6.13297L16.4447 4.28099L13.3505 1.25027L11.2509 0.890772C11.2431 1.27969 11.1579 2.01576 10.6578 2.55683C10.2686 2.97661 9.71255 3.19449 9.00527 3.19449H8.99415C8.28688 3.19268 7.73084 2.97806 7.34162 2.55683C6.84044 2.01649 6.75518 1.27969 6.74851 0.890772L4.64892 1.25027L1.55477 4.28099L3.44529 6.13297L4.32976 5.26726ZM13.2687 6.84621C13.2687 7.04324 13.1475 7.22085 12.9616 7.29618C12.7758 7.37151 12.5619 7.32971 12.4198 7.19029C12.2777 7.05087 12.2353 6.8413 12.3125 6.65936C12.3897 6.47742 12.5712 6.35896 12.7723 6.35925C12.904 6.35944 13.0303 6.41089 13.1233 6.50229C13.2163 6.59368 13.2685 6.71752 13.2683 6.84658L13.2687 6.84621ZM15.0994 15.1412C15.124 15.1444 15.1487 15.1463 15.1735 15.147L15.1742 15.1467C15.764 15.1472 16.3092 14.8394 16.6045 14.3394C16.8998 13.8393 16.9004 13.2229 16.606 12.7224C16.3116 12.2218 15.7669 11.9131 15.1772 11.9126L15.1149 11.9191C15.0071 11.9162 14.9566 11.8766 14.9196 11.804C14.6315 11.2179 14.1055 10.7772 13.4698 10.5893C13.4639 10.5879 13.4581 10.5861 13.4524 10.5839C13.2377 10.523 13.0153 10.4922 12.7918 10.4924C12.7586 10.4933 12.7256 10.4965 12.6928 10.5018L12.6013 10.512C12.5099 10.5185 12.4246 10.4666 12.39 10.3834C12.038 9.49791 11.2237 8.86892 10.2625 8.74023C9.30144 8.61155 8.34465 9.0034 7.76303 9.76392C7.72556 9.81226 7.66812 9.8418 7.60622 9.84454C7.54413 9.8484 7.48369 9.82401 7.44238 9.77845C6.7183 8.99088 5.58049 8.70946 4.56156 9.06593C3.54263 9.42239 2.84419 10.3462 2.79318 11.4049C2.78829 11.4974 2.72041 11.5751 2.62785 11.5941C1.7457 11.7732 1.12849 12.5555 1.1739 13.437C1.21931 14.3184 1.91378 15.0358 2.80986 15.127C2.82386 15.1284 2.83767 15.1314 2.85101 15.1358H2.88808C2.89294 15.1358 2.91094 15.1377 2.92877 15.1396C2.94625 15.1415 2.96356 15.1434 2.96815 15.1434C3.01855 15.1466 3.06915 15.1457 3.11939 15.1405C3.12185 15.1403 3.13006 15.1397 3.13978 15.1389C3.15641 15.1375 3.17745 15.1358 3.18166 15.1358H8.15373L8.21416 15.1398C8.30841 15.1472 8.40311 15.1472 8.49736 15.1398L8.55 15.1358H12.5998C12.6029 15.1358 12.6181 15.1369 12.6332 15.1381C12.6483 15.1393 12.6634 15.1405 12.6665 15.1405C12.7399 15.1472 12.8137 15.1472 12.8871 15.1405L12.9479 15.135H15.0274C15.0313 15.135 15.0474 15.1366 15.0634 15.1381C15.0794 15.1397 15.0955 15.1412 15.0994 15.1412Z" fill="#5549EF"/>
<path d="M15.2307 11.5046L15.0558 11.6016L15.1112 11.7015L15.2254 11.7045L15.2307 11.5046ZM13.7312 10.243H13.5312V10.3845L13.6646 10.4316L13.7312 10.243ZM17.2439 13.5584L17.044 13.5556L17.2439 13.5584ZM15.1736 15.5571L15.1709 15.7571L15.1734 15.7571L15.1736 15.5571ZM15.0513 15.5488L15.0758 15.3503L15.0637 15.3488L15.0516 15.3488L15.0513 15.5488ZM12.9617 15.5451L12.962 15.3451L12.9492 15.3451L12.9364 15.3467L12.9617 15.5451ZM12.6281 15.5484L12.6494 15.3496L12.6388 15.3484L12.6282 15.3484L12.6281 15.5484ZM8.56454 15.5451L8.5647 15.3451L8.55404 15.3451L8.54344 15.3463L8.56454 15.5451ZM8.17976 15.5477L8.19823 15.3485L8.18907 15.3477L8.17987 15.3477L8.17976 15.5477ZM3.181 15.5451L3.18111 15.3451L3.16643 15.3451L3.15191 15.3473L3.181 15.5451ZM2.90892 15.5488L2.93271 15.3502L2.9238 15.3491L2.91483 15.3489L2.90892 15.5488ZM2.78622 15.5451L2.79214 15.3451L2.78552 15.3451L2.78622 15.5451ZM2.69799 15.5259L2.78208 15.3444L2.75453 15.3317L2.72443 15.3277L2.69799 15.5259ZM0.761486 13.5017L0.562003 13.5161L0.761486 13.5017ZM2.38847 11.2311L2.44199 11.4238L2.57268 11.3875L2.5873 11.2527L2.38847 11.2311ZM4.27083 8.74692L4.34728 8.93173L4.47083 8.88062V8.74692H4.27083ZM4.27083 5.90758H4.47083V5.43186L4.13092 5.76467L4.27083 5.90758ZM3.59581 6.56848L3.45589 6.42557L3.45517 6.42628L3.59581 6.56848ZM3.29925 6.56848L3.4399 6.42628L3.43915 6.42555L3.29925 6.56848ZM1.11218 4.42781L0.972144 4.5706L0.972284 4.57074L1.11218 4.42781ZM1.11218 4.1373L0.972271 3.99438L0.972144 3.99451L1.11218 4.1373ZM4.40317 0.915577L4.26369 0.772243L4.26326 0.77266L4.40317 0.915577ZM4.51438 0.858565L4.48071 0.661411L4.47885 0.661745L4.51438 0.858565ZM6.9298 0.446045L6.89702 0.248747L6.89613 0.2489L6.9298 0.446045ZM7.10675 0.497643L6.97243 0.645826L6.97243 0.645827L7.10675 0.497643ZM7.17297 0.666467L7.37181 0.688213L7.37212 0.684904L7.17297 0.666467ZM7.6519 2.28459L7.50502 2.42033L7.50547 2.42082L7.6519 2.28459ZM10.3453 2.28459L10.492 2.42056L10.4921 2.42046L10.3453 2.28459ZM10.8245 0.670668L10.625 0.683718L10.625 0.684847L10.8245 0.670668ZM10.8243 0.666467L11.0239 0.653411L11.0233 0.647002L10.8243 0.666467ZM10.8903 0.496158L10.7584 0.345722L10.7555 0.348405L10.8903 0.496158ZM11.0697 0.446045L11.0357 0.643132L11.036 0.643197L11.0697 0.446045ZM13.4877 0.858565L13.5232 0.661736L13.5213 0.661414L13.4877 0.858565ZM13.5989 0.915577L13.7388 0.772675L13.7384 0.772243L13.5989 0.915577ZM16.888 4.13621L17.0281 3.99342L17.028 3.99331L16.888 4.13621ZM16.888 4.42672L17.028 4.56959L17.0281 4.56951L16.888 4.42672ZM14.7028 6.56739L14.5628 6.42452L14.5622 6.42519L14.7028 6.56739ZM14.4063 6.56739L14.5469 6.42519L14.5462 6.42448L14.4063 6.56739ZM13.7312 5.90649L13.8711 5.76358L13.5312 5.43077V5.90649H13.7312ZM4.55736 5.22259H4.75736V5.08798L4.63265 5.03731L4.55736 5.22259ZM4.32976 5.26726L4.46965 5.41019L4.47017 5.40968L4.32976 5.26726ZM4.55736 5.22296H4.35736V5.35935L4.48434 5.40915L4.55736 5.22296ZM4.68896 5.41397L4.48896 5.41343V5.41397H4.68896ZM4.68896 8.60954H4.48896V8.86743L4.73873 8.80325L4.68896 8.60954ZM7.58442 9.33581L7.44845 9.48248L7.59748 9.62064L7.73324 9.46942L7.58442 9.33581ZM12.7177 10.0882L12.5361 10.172L12.5995 10.3094L12.749 10.2858L12.7177 10.0882ZM12.7919 10.0846L12.792 9.88459H12.7919V10.0846ZM13.3138 10.1325L13.2775 10.3292L13.5138 10.3728V10.1325H13.3138ZM13.3138 7.56916H13.5138V7.17841L13.1968 7.40693L13.3138 7.56916ZM13.3138 6.12498L13.1968 6.28721L13.5138 6.51574V6.12498H13.3138ZM13.3138 5.41288H13.5138L13.5138 5.41186L13.3138 5.41288ZM13.6704 5.26762L13.5301 5.41017L13.5305 5.41052L13.6704 5.26762ZM14.5541 6.13297L14.4142 6.27587L14.5542 6.41292L14.6941 6.27584L14.5541 6.13297ZM16.4447 4.28099L16.5846 4.42386L16.7305 4.28098L16.5846 4.13811L16.4447 4.28099ZM13.3505 1.25027L13.4905 1.1074L13.4458 1.06369L13.3843 1.05314L13.3505 1.25027ZM11.2509 0.890772L11.2847 0.693641L11.0556 0.65442L11.051 0.88677L11.2509 0.890772ZM10.6578 2.55683L10.8045 2.69281L10.8047 2.69258L10.6578 2.55683ZM8.99415 3.19449L8.99364 3.39449H8.99415V3.19449ZM7.34162 2.55683L7.48851 2.4211L7.48825 2.42082L7.34162 2.55683ZM6.74851 0.890772L6.94848 0.887342L6.94448 0.654306L6.71476 0.693641L6.74851 0.890772ZM4.64892 1.25027L4.61517 1.05314L4.5536 1.06369L4.50897 1.1074L4.64892 1.25027ZM1.55477 4.28099L1.41482 4.13811L1.26896 4.28098L1.41481 4.42386L1.55477 4.28099ZM3.44529 6.13297L3.30533 6.27584L3.44523 6.41289L3.58519 6.2759L3.44529 6.13297ZM12.9616 7.29618L13.0367 7.48153L12.9616 7.29618ZM13.2687 6.84621L13.4687 6.84621L13.4687 6.37081L13.1288 6.70324L13.2687 6.84621ZM12.3125 6.65936L12.4966 6.73746V6.73746L12.3125 6.65936ZM12.7723 6.35925L12.7726 6.15925H12.7726L12.7723 6.35925ZM13.1233 6.50229L12.9831 6.64495L12.9831 6.64495L13.1233 6.50229ZM13.2683 6.84658L13.0683 6.84627L13.0676 7.32268L13.4081 6.98955L13.2683 6.84658ZM15.1735 15.147L15.1679 15.3469L15.2173 15.3483L15.2616 15.3265L15.1735 15.147ZM15.0994 15.1412L15.125 14.9429L15.1122 14.9412H15.0994V15.1412ZM15.1742 15.1467L15.1744 14.9467L15.1279 14.9466L15.0861 14.9671L15.1742 15.1467ZM16.606 12.7224L16.4336 12.8237V12.8238L16.606 12.7224ZM15.1772 11.9126L15.1774 11.7126L15.1668 11.7126L15.1563 11.7137L15.1772 11.9126ZM15.1149 11.9191L15.1095 12.119L15.1227 12.1194L15.1358 12.118L15.1149 11.9191ZM14.9196 11.804L14.7401 11.8922L14.7414 11.8949L14.9196 11.804ZM13.4698 10.5893L13.5266 10.3973L13.5168 10.3949L13.4698 10.5893ZM13.4524 10.5839L13.5245 10.3973L13.5159 10.394L13.507 10.3915L13.4524 10.5839ZM12.7918 10.4924L12.7916 10.2923L12.7862 10.2924L12.7918 10.4924ZM12.6928 10.5018L12.7149 10.7009L12.7251 10.6992L12.6928 10.5018ZM12.6013 10.512L12.6154 10.7116L12.6234 10.7108L12.6013 10.512ZM12.39 10.3834L12.2041 10.4573L12.2053 10.4603L12.39 10.3834ZM10.2625 8.74023L10.2891 8.542H10.2891L10.2625 8.74023ZM7.76303 9.76392L7.92112 9.88643L7.92189 9.88542L7.76303 9.76392ZM7.60622 9.84454L7.59738 9.6447L7.59382 9.64492L7.60622 9.84454ZM7.44238 9.77845L7.59055 9.64411L7.58961 9.64308L7.44238 9.77845ZM4.56156 9.06593L4.6276 9.25471H4.6276L4.56156 9.06593ZM2.79318 11.4049L2.9929 11.4155L2.99295 11.4145L2.79318 11.4049ZM2.62785 11.5941L2.66765 11.7901L2.66806 11.79L2.62785 11.5941ZM1.1739 13.437L1.37364 13.4267L1.1739 13.437ZM2.80986 15.127L2.78961 15.326L2.79003 15.3261L2.80986 15.127ZM2.85101 15.1358L2.7884 15.3257L2.8189 15.3358H2.85101V15.1358ZM2.92877 15.1396L2.90729 15.3385L2.9073 15.3385L2.92877 15.1396ZM2.96815 15.1434L2.98107 14.9434H2.96815V15.1434ZM3.11939 15.1405L3.10854 14.9405L3.09882 14.9415L3.11939 15.1405ZM3.13978 15.1389L3.12334 14.9395L3.12333 14.9395L3.13978 15.1389ZM8.15373 15.1358L8.16695 14.9358H8.15373V15.1358ZM8.21416 15.1398L8.22991 14.9404L8.22735 14.9402L8.21416 15.1398ZM8.49736 15.1398L8.48223 14.9403L8.48162 14.9404L8.49736 15.1398ZM8.55 15.1358V14.9358H8.54242L8.53487 14.9363L8.55 15.1358ZM12.6332 15.1381L12.6487 14.9387L12.6487 14.9387L12.6332 15.1381ZM12.6665 15.1405L12.6847 14.9413L12.6756 14.9405H12.6665V15.1405ZM12.8871 15.1405L12.8692 14.9413L12.8689 14.9413L12.8871 15.1405ZM12.9479 15.135V14.935H12.9389L12.93 14.9358L12.9479 15.135ZM15.0634 15.1381L15.0442 15.3372H15.0442L15.0634 15.1381ZM15.4056 11.4075C15.0563 10.778 14.4839 10.2969 13.7979 10.0545L13.6646 10.4316C14.2599 10.642 14.7546 11.0587 15.0558 11.6016L15.4056 11.4075ZM17.4439 13.5613C17.4611 12.339 16.4733 11.3371 15.2359 11.3046L15.2254 11.7045C16.2515 11.7314 17.058 12.56 17.044 13.5556L17.4439 13.5613ZM15.1734 15.7571C16.4111 15.7581 17.4267 14.7834 17.4439 13.5613L17.044 13.5556C17.0299 14.5514 16.2003 15.358 15.1737 15.3571L15.1734 15.7571ZM15.0267 15.7473C15.0746 15.7532 15.1227 15.7565 15.1709 15.7571L15.1763 15.3571C15.1427 15.3567 15.1091 15.3544 15.0758 15.3503L15.0267 15.7473ZM12.9613 15.7451L15.0509 15.7488L15.0516 15.3488L12.962 15.3451L12.9613 15.7451ZM12.6067 15.7473C12.7331 15.7608 12.8608 15.7596 12.9869 15.7435L12.9364 15.3467C12.8412 15.3588 12.7448 15.3598 12.6494 15.3496L12.6067 15.7473ZM8.56438 15.7451L12.6279 15.7484L12.6282 15.3484L8.5647 15.3451L8.56438 15.7451ZM8.1613 15.7468C8.30248 15.7599 8.44465 15.759 8.58564 15.744L8.54344 15.3463C8.42875 15.3584 8.31309 15.3592 8.19823 15.3485L8.1613 15.7468ZM3.1809 15.7451L8.17966 15.7477L8.17987 15.3477L3.18111 15.3451L3.1809 15.7451ZM2.88512 15.7474C2.99315 15.7603 3.10246 15.7588 3.2101 15.743L3.15191 15.3473C3.07932 15.3579 3.00558 15.3589 2.93271 15.3502L2.88512 15.7474ZM2.7803 15.7451L2.903 15.7487L2.91483 15.3489L2.79214 15.3452L2.7803 15.7451ZM2.61391 15.7074C2.66815 15.7325 2.72725 15.7454 2.78692 15.7451L2.78552 15.3451C2.78418 15.3451 2.78299 15.3449 2.78208 15.3444L2.61391 15.7074ZM0.562003 13.5161C0.643883 14.6522 1.52708 15.5715 2.67156 15.7241L2.72443 15.3277C1.76229 15.1993 1.02882 14.4288 0.960968 13.4874L0.562003 13.5161ZM2.33495 11.0384C1.22308 11.3472 0.480102 12.3797 0.562003 13.5161L0.960968 13.4874C0.89314 12.5462 1.50843 11.6831 2.44199 11.4238L2.33495 11.0384ZM4.19438 8.56211C3.0863 9.02048 2.3172 10.0335 2.18963 11.2095L2.5873 11.2527C2.69876 10.2251 3.37139 9.33543 4.34728 8.93173L4.19438 8.56211ZM4.07083 5.90758V8.74692H4.47083V5.90758H4.07083ZM3.73573 6.71139L4.41075 6.05048L4.13092 5.76467L3.45589 6.42557L3.73573 6.71139ZM3.44753 6.82905C3.55528 6.82905 3.65938 6.7869 3.73645 6.71068L3.45517 6.42628C3.45385 6.42759 3.45118 6.42905 3.44753 6.42905V6.82905ZM3.15862 6.71068C3.23568 6.7869 3.33979 6.82905 3.44753 6.82905V6.42905C3.44388 6.42905 3.44121 6.42759 3.43989 6.42628L3.15862 6.71068ZM0.972284 4.57074L3.15936 6.71141L3.43915 6.42555L1.25208 4.28488L0.972284 4.57074ZM0.972144 3.99451C0.810367 4.15316 0.810367 4.41194 0.972144 4.5706L1.25222 4.28501C1.25076 4.28358 1.25081 4.28296 1.25081 4.28255C1.25081 4.28215 1.25076 4.28152 1.25222 4.28009L0.972144 3.99451ZM4.26326 0.77266L0.972272 3.99438L1.25209 4.28022L4.54308 1.05849L4.26326 0.77266ZM4.47885 0.661745C4.39796 0.676346 4.32289 0.714633 4.26369 0.772243L4.54265 1.05891C4.54417 1.05743 4.54663 1.05598 4.5499 1.05538L4.47885 0.661745ZM6.89613 0.2489L4.48071 0.66142L4.54805 1.05571L6.96347 0.643191L6.89613 0.2489ZM7.24107 0.34946C7.14771 0.264837 7.02063 0.228213 6.89702 0.248749L6.96257 0.643341C6.96688 0.642625 6.97055 0.644126 6.97243 0.645826L7.24107 0.34946ZM7.37212 0.684904C7.38385 0.558153 7.33469 0.434322 7.24107 0.34946L6.97243 0.645827C6.97328 0.6466 6.9736 0.647227 6.97372 0.647539C6.97384 0.647842 6.97383 0.647961 6.97382 0.648031L7.37212 0.684904ZM7.79879 2.14885C7.55217 1.88199 7.44162 1.52536 7.3959 1.21839C7.35049 0.913417 7.37257 0.68103 7.37178 0.68821L6.97415 0.644724C6.97226 0.662073 6.94856 0.930084 7.00027 1.2773C7.05167 1.62251 7.18114 2.06987 7.50502 2.42033L7.79879 2.14885ZM8.99837 2.58572C8.45159 2.58639 8.05936 2.42893 7.79833 2.14836L7.50547 2.42082C7.86201 2.80406 8.37352 2.98649 8.99887 2.98572L8.99837 2.58572ZM10.1987 2.14863C9.93915 2.42858 9.54619 2.58504 8.99837 2.58572L8.99887 2.98572C9.62317 2.98494 10.1362 2.80441 10.492 2.42056L10.1987 2.14863ZM10.625 0.684847C10.6271 0.714076 10.6442 0.951106 10.5962 1.24919C10.5479 1.54986 10.4367 1.89149 10.1986 2.14872L10.4921 2.42046C10.8055 2.08189 10.9365 1.65223 10.9911 1.31272C11.0462 0.97062 11.027 0.69859 11.024 0.656489L10.625 0.684847ZM10.6247 0.679517L10.625 0.683717L11.0241 0.657618L11.0238 0.653418L10.6247 0.679517ZM10.7555 0.348405C10.6617 0.43398 10.6128 0.558637 10.6252 0.685932L11.0233 0.647002C11.0233 0.646834 11.0232 0.645601 11.025 0.64391L10.7555 0.348405ZM11.1037 0.248958C10.9803 0.227665 10.8531 0.262798 10.7584 0.345752L11.0221 0.646564C11.025 0.643978 11.0301 0.642169 11.0357 0.643132L11.1037 0.248958ZM13.5213 0.661414L11.1033 0.248894L11.036 0.643197L13.454 1.05572L13.5213 0.661414ZM13.7384 0.772243C13.6792 0.714633 13.6041 0.676346 13.5232 0.661745L13.4522 1.05538C13.4554 1.05598 13.4579 1.05743 13.4594 1.05891L13.7384 0.772243ZM17.028 3.99331L13.7388 0.772675L13.459 1.05848L16.7481 4.27911L17.028 3.99331ZM17.0281 4.56951C17.1898 4.41085 17.1898 4.15207 17.0281 3.99342L16.748 4.279C16.7494 4.28043 16.7494 4.28106 16.7494 4.28146C16.7494 4.28187 16.7494 4.28249 16.748 4.28393L17.0281 4.56951ZM14.8428 6.71026L17.028 4.56959L16.7481 4.28385L14.5628 6.42452L14.8428 6.71026ZM14.5545 6.82796C14.6623 6.82796 14.7664 6.78581 14.8434 6.70959L14.5622 6.42519C14.5608 6.4265 14.5582 6.42796 14.5545 6.42796V6.82796ZM14.2656 6.70959C14.3427 6.78581 14.4468 6.82796 14.5545 6.82796V6.42796C14.5509 6.42796 14.5482 6.4265 14.5469 6.42519L14.2656 6.70959ZM13.5913 6.0494L14.2663 6.7103L14.5462 6.42448L13.8711 5.76358L13.5913 6.0494ZM13.9312 10.243V5.90649H13.5312V10.243H13.9312ZM4.63265 5.03731C4.48126 4.97579 4.30636 5.00947 4.18934 5.12484L4.47017 5.40968C4.47233 5.40755 4.47728 5.40593 4.48207 5.40788L4.63265 5.03731ZM4.75736 5.22296V5.22259H4.35736V5.22296H4.75736ZM4.88895 5.4145C4.8894 5.246 4.78499 5.0974 4.63038 5.03677L4.48434 5.40915C4.48665 5.41006 4.48783 5.41127 4.48842 5.41212C4.48899 5.41295 4.48896 5.41332 4.48896 5.41343L4.88895 5.4145ZM4.88896 8.60954V5.41397H4.48896V8.60954H4.88896ZM7.72039 9.18914C6.89777 8.42651 5.73282 8.13482 4.63918 8.41583L4.73873 8.80325C5.70193 8.55575 6.72661 8.81328 7.44845 9.48248L7.72039 9.18914ZM10.3894 8.14388C9.28635 7.9822 8.17384 8.37991 7.4356 9.2022L7.73324 9.46942C8.38075 8.74819 9.35916 8.39715 10.3314 8.53965L10.3894 8.14388ZM12.8994 10.0045C12.4385 9.00521 11.4925 8.30557 10.3894 8.14388L10.3314 8.53965C11.3034 8.68213 12.1331 9.29797 12.5361 10.172L12.8994 10.0045ZM12.7919 9.88459C12.77 9.88459 12.7279 9.88413 12.6865 9.89067L12.749 10.2858C12.7535 10.2851 12.7625 10.2846 12.7919 10.2846V9.88459ZM12.7919 9.88459H12.7919V10.2846H12.7919V9.88459ZM13.3501 9.93585C13.1661 9.90187 12.9793 9.88471 12.792 9.88459L12.7918 10.2846C12.9547 10.2847 13.1174 10.2996 13.2775 10.3292L13.3501 9.93585ZM13.1138 7.56916V10.1325H13.5138V7.56916H13.1138ZM11.9454 7.58401C12.3296 8.00024 12.9708 8.06301 13.4308 7.73139L13.1968 7.40693C12.8999 7.621 12.4855 7.57935 12.2394 7.31272L11.9454 7.58401ZM11.9454 6.11014C11.5596 6.52818 11.5596 7.16597 11.9454 7.58401L12.2394 7.31272C11.995 7.0479 11.995 6.64625 12.2394 6.38143L11.9454 6.11014ZM13.4308 5.96275C12.9708 5.63114 12.3296 5.6939 11.9454 6.11014L12.2394 6.38143C12.4855 6.11479 12.8999 6.07315 13.1968 6.28721L13.4308 5.96275ZM13.1138 5.41288V6.12498H13.5138V5.41288H13.1138ZM13.3669 5.03786C13.2149 5.0998 13.113 5.24733 13.1138 5.41389L13.5138 5.41186C13.5138 5.41175 13.5138 5.41173 13.5138 5.41169C13.5139 5.41161 13.5139 5.41136 13.5142 5.41098C13.5147 5.41027 13.5157 5.40917 13.5178 5.40831L13.3669 5.03786ZM13.8107 5.12507C13.6935 5.00971 13.5184 4.97616 13.3669 5.03786L13.5178 5.40831C13.5228 5.4063 13.5279 5.40794 13.5301 5.41017L13.8107 5.12507ZM14.6941 5.99007L13.8103 5.12472L13.5305 5.41052L14.4142 6.27587L14.6941 5.99007ZM16.3047 4.13812L14.4142 5.9901L14.6941 6.27584L16.5846 4.42386L16.3047 4.13812ZM13.2106 1.39315L16.3047 4.42387L16.5846 4.13811L13.4905 1.1074L13.2106 1.39315ZM11.2172 1.0879L13.3168 1.44741L13.3843 1.05314L11.2847 0.693641L11.2172 1.0879ZM10.8047 2.69258C11.3558 2.09623 11.4428 1.29758 11.4509 0.894775L11.051 0.88677C11.0435 1.2618 10.9599 1.93529 10.5109 2.42108L10.8047 2.69258ZM9.00527 3.39449C9.75541 3.39449 10.3695 3.16194 10.8045 2.69281L10.5112 2.42085C10.1677 2.79128 9.66969 2.99449 9.00527 2.99449V3.39449ZM8.99415 3.39449H9.00527V2.99449H8.99415V3.39449ZM7.19472 2.69256C7.63018 3.16383 8.24466 3.39257 8.99364 3.39449L8.99467 2.99449C8.32909 2.99278 7.8315 2.7923 7.48851 2.4211L7.19472 2.69256ZM6.54854 0.894203C6.55546 1.2975 6.64243 2.0971 7.19498 2.69284L7.48825 2.42082C7.03845 1.93587 6.95491 1.26188 6.94848 0.887342L6.54854 0.894203ZM4.68267 1.44741L6.78227 1.0879L6.71476 0.693641L4.61517 1.05314L4.68267 1.44741ZM1.69472 4.42387L4.78887 1.39315L4.50897 1.1074L1.41482 4.13811L1.69472 4.42387ZM3.58525 5.9901L1.69473 4.13812L1.41481 4.42386L3.30533 6.27584L3.58525 5.9901ZM4.18986 5.12433L3.30539 5.99004L3.58519 6.2759L4.46965 5.41019L4.18986 5.12433ZM13.0367 7.48153C13.2963 7.37632 13.4687 7.12659 13.4687 6.84621L13.0687 6.84621C13.0687 6.95989 12.9986 7.06537 12.8865 7.11083L13.0367 7.48153ZM12.2797 7.33306C12.4792 7.52878 12.7778 7.58649 13.0367 7.48153L12.8865 7.11083C12.7738 7.15652 12.6446 7.13064 12.5599 7.04752L12.2797 7.33306ZM12.1284 6.58126C12.0188 6.83962 12.0795 7.13663 12.2797 7.33306L12.5599 7.04752C12.4759 6.96511 12.4519 6.84298 12.4966 6.73746L12.1284 6.58126ZM12.7726 6.15925C12.493 6.15884 12.2377 6.32361 12.1284 6.58126L12.4966 6.73746C12.5417 6.63122 12.6494 6.55907 12.772 6.55925L12.7726 6.15925ZM13.2635 6.35962C13.1327 6.23114 12.9561 6.15952 12.7726 6.15925L12.772 6.55925C12.852 6.55937 12.9279 6.59065 12.9831 6.64495L13.2635 6.35962ZM13.4683 6.84688C13.4686 6.66344 13.3944 6.48825 13.2635 6.35962L12.9831 6.64495C13.0383 6.6991 13.0684 6.77161 13.0683 6.84627L13.4683 6.84688ZM13.1288 6.70324L13.1284 6.7036L13.4081 6.98955L13.4085 6.98919L13.1288 6.70324ZM15.1791 14.9471C15.161 14.9466 15.1429 14.9452 15.125 14.9429L15.0737 15.3396C15.105 15.3436 15.1364 15.3461 15.1679 15.3469L15.1791 14.9471ZM15.0861 14.9671L15.0854 14.9675L15.2616 15.3265L15.2624 15.3262L15.0861 14.9671ZM16.4323 14.2377C16.1737 14.6756 15.6947 14.9471 15.1744 14.9467L15.1741 15.3467C15.8333 15.3472 16.4447 15.0033 16.7767 14.4411L16.4323 14.2377ZM16.4336 12.8238C16.6911 13.2616 16.6906 13.8003 16.4323 14.2377L16.7767 14.4411C17.109 13.8784 17.1097 13.1842 16.7784 12.621L16.4336 12.8238ZM15.177 12.1126C15.6973 12.113 16.1758 12.3854 16.4336 12.8237L16.7784 12.621C16.4474 12.0582 15.8366 11.7132 15.1774 11.7126L15.177 12.1126ZM15.1358 12.118L15.1981 12.1115L15.1563 11.7137L15.0941 11.7202L15.1358 12.118ZM14.7414 11.8949C14.77 11.9509 14.813 12.0122 14.8842 12.057C14.9545 12.1013 15.0326 12.117 15.1095 12.119L15.1203 11.7192C15.1049 11.7188 15.0968 11.7172 15.0938 11.7164C15.0914 11.7158 15.0933 11.716 15.0972 11.7184C15.1013 11.721 15.1037 11.7236 15.1043 11.7243C15.1045 11.7245 15.1021 11.7217 15.0977 11.7131L14.7414 11.8949ZM13.4131 10.7811C13.9962 10.9534 14.4771 11.3571 14.7401 11.8922L15.0991 11.7158C14.786 11.0786 14.2149 10.601 13.5265 10.3975L13.4131 10.7811ZM13.3802 10.7704C13.3941 10.7758 13.4084 10.7802 13.4228 10.7837L13.5168 10.3949C13.5194 10.3955 13.522 10.3964 13.5245 10.3973L13.3802 10.7704ZM12.792 10.6924C12.997 10.6922 13.201 10.7205 13.3978 10.7763L13.507 10.3915C13.2744 10.3255 13.0336 10.2922 12.7916 10.2924L12.792 10.6924ZM12.7251 10.6992C12.749 10.6953 12.7732 10.693 12.7974 10.6923L12.7862 10.2924C12.7441 10.2936 12.7021 10.2976 12.6605 10.3044L12.7251 10.6992ZM12.6234 10.7108L12.7149 10.7006L12.6708 10.303L12.5792 10.3132L12.6234 10.7108ZM12.2053 10.4603C12.2737 10.6247 12.4403 10.7239 12.6154 10.7115L12.5871 10.3125C12.5794 10.313 12.5754 10.3085 12.5746 10.3066L12.2053 10.4603ZM10.236 8.93846C11.127 9.05776 11.8795 9.64045 12.2041 10.4573L12.5758 10.3096C12.1966 9.35537 11.3203 8.68007 10.2891 8.542L10.236 8.93846ZM7.92189 9.88542C8.45925 9.18277 9.34485 8.81915 10.236 8.93846L10.2891 8.542C9.25802 8.40395 8.23004 8.82403 7.60416 9.64242L7.92189 9.88542ZM7.61507 10.0443C7.73476 10.039 7.84713 9.98189 7.92111 9.88643L7.60494 9.64141C7.604 9.64262 7.60147 9.64455 7.59738 9.64473L7.61507 10.0443ZM7.29421 9.91278C7.37689 10.004 7.49668 10.0517 7.61863 10.0442L7.59382 9.64492C7.59159 9.64506 7.5905 9.64406 7.59055 9.64411L7.29421 9.91278ZM4.6276 9.25471C5.57205 8.9243 6.62576 9.18572 7.29515 9.91381L7.58961 9.64308C6.81084 8.79603 5.58894 8.49462 4.49552 8.87714L4.6276 9.25471ZM2.99295 11.4145C3.03994 10.4392 3.6837 9.58492 4.6276 9.25471L4.49552 8.87714C3.40155 9.25986 2.64844 10.2532 2.59341 11.3953L2.99295 11.4145ZM2.66806 11.79C2.84725 11.7533 2.98307 11.6014 2.9929 11.4155L2.59346 11.3944C2.59345 11.3945 2.59345 11.3945 2.59343 11.3945C2.59338 11.3946 2.59322 11.395 2.59279 11.3955C2.59195 11.3964 2.5904 11.3976 2.58764 11.3982L2.66806 11.79ZM1.37364 13.4267C1.33347 12.6471 1.87958 11.9501 2.66765 11.7901L2.58805 11.3981C1.61182 11.5964 0.923509 12.464 0.974165 13.4472L1.37364 13.4267ZM2.83012 14.9281C2.02916 14.8465 1.41381 14.2065 1.37364 13.4267L0.974165 13.4472C1.02481 14.4303 1.7984 15.2251 2.78961 15.326L2.83012 14.9281ZM2.91361 14.9458C2.88636 14.9368 2.85821 14.9309 2.82969 14.928L2.79003 15.3261C2.78952 15.326 2.78897 15.3259 2.7884 15.3257L2.91361 14.9458ZM2.88808 14.9358H2.85101V15.3358H2.88808V14.9358ZM2.95025 14.9408C2.94218 14.9399 2.90711 14.9358 2.88808 14.9358V15.3358C2.88525 15.3358 2.88306 15.3357 2.88186 15.3356C2.88056 15.3356 2.87958 15.3355 2.87905 15.3355C2.87803 15.3355 2.8776 15.3354 2.87801 15.3355C2.87885 15.3355 2.8807 15.3357 2.88385 15.336C2.89012 15.3366 2.89811 15.3375 2.90729 15.3385L2.95025 14.9408ZM2.96815 14.9434C2.97104 14.9434 2.97329 14.9435 2.97452 14.9435C2.97585 14.9435 2.97686 14.9436 2.97741 14.9436C2.97847 14.9437 2.97895 14.9437 2.97858 14.9437C2.97782 14.9436 2.97608 14.9435 2.97304 14.9432C2.967 14.9426 2.95925 14.9418 2.95024 14.9408L2.9073 15.3385C2.9149 15.3393 2.94939 15.3434 2.96815 15.3434V14.9434ZM3.09882 14.9415C3.05971 14.9456 3.0203 14.9463 2.98105 14.9438L2.95524 15.343C3.0168 15.3469 3.07859 15.3458 3.13995 15.3394L3.09882 14.9415ZM3.12333 14.9395C3.11839 14.9399 3.11418 14.9403 3.1109 14.9406C3.10926 14.9407 3.10809 14.9408 3.10733 14.9408C3.10612 14.9409 3.10694 14.9409 3.10855 14.9408L3.13022 15.3402C3.13637 15.3398 3.149 15.3388 3.15623 15.3382L3.12333 14.9395ZM3.18166 14.9358C3.16657 14.9358 3.13184 14.9388 3.12334 14.9395L3.15621 15.3382C3.16468 15.3375 3.17351 15.3368 3.18072 15.3362C3.18436 15.3359 3.18701 15.3357 3.18869 15.3356C3.18955 15.3356 3.18966 15.3356 3.18924 15.3356C3.18902 15.3356 3.18835 15.3356 3.18738 15.3357C3.18658 15.3357 3.18448 15.3358 3.18166 15.3358V14.9358ZM8.15373 14.9358H3.18166V15.3358H8.15373V14.9358ZM8.22735 14.9402L8.16692 14.9362L8.14054 15.3353L8.20096 15.3393L8.22735 14.9402ZM8.48162 14.9404C8.39785 14.947 8.31367 14.947 8.2299 14.9404L8.19841 15.3391C8.30314 15.3474 8.40838 15.3474 8.51311 15.3391L8.48162 14.9404ZM8.53487 14.9363L8.48223 14.9403L8.5125 15.3392L8.56513 15.3352L8.53487 14.9363ZM12.5998 14.9358H8.55V15.3358H12.5998V14.9358ZM12.6487 14.9387C12.6414 14.9382 12.6133 14.9358 12.5998 14.9358V15.3358C12.5972 15.3358 12.5952 15.3357 12.5943 15.3357C12.5933 15.3356 12.5926 15.3356 12.5922 15.3356C12.5916 15.3356 12.5914 15.3356 12.5919 15.3356C12.5929 15.3356 12.5947 15.3358 12.5974 15.336C12.6029 15.3364 12.6099 15.3369 12.6176 15.3375L12.6487 14.9387ZM12.6665 14.9405C12.6691 14.9405 12.6711 14.9405 12.672 14.9406C12.673 14.9406 12.6737 14.9406 12.6741 14.9406C12.6747 14.9407 12.6749 14.9407 12.6744 14.9407C12.6734 14.9406 12.6716 14.9405 12.6689 14.9403C12.6634 14.9399 12.6565 14.9393 12.6487 14.9387L12.6176 15.3375C12.6249 15.3381 12.6531 15.3405 12.6665 15.3405V14.9405ZM12.8689 14.9413C12.8076 14.9469 12.746 14.9469 12.6847 14.9413L12.6483 15.3396C12.7338 15.3475 12.8198 15.3475 12.9053 15.3396L12.8689 14.9413ZM12.93 14.9358L12.8692 14.9413L12.9049 15.3397L12.9657 15.3342L12.93 14.9358ZM15.0274 14.935H12.9479V15.335H15.0274V14.935ZM15.0826 14.939C15.0756 14.9384 15.044 14.935 15.0274 14.935V15.335C15.0246 15.335 15.0225 15.335 15.0214 15.3349C15.0201 15.3349 15.0192 15.3348 15.0187 15.3348C15.0178 15.3348 15.0174 15.3347 15.0178 15.3348C15.0186 15.3348 15.0203 15.335 15.0231 15.3352C15.0288 15.3357 15.036 15.3364 15.0442 15.3372L15.0826 14.939ZM15.0994 14.9412C15.1022 14.9412 15.1044 14.9413 15.1055 14.9413C15.1067 14.9413 15.1076 14.9414 15.1081 14.9414C15.109 14.9415 15.1094 14.9415 15.109 14.9415C15.1082 14.9414 15.1065 14.9413 15.1037 14.941C15.098 14.9405 15.0908 14.9398 15.0826 14.939L15.0442 15.3372C15.0512 15.3379 15.0828 15.3412 15.0994 15.3412V14.9412Z" fill="#5549EF"/>
<path fill-rule="evenodd" clip-rule="evenodd" d="M15.2949 9.44809C15.2949 9.00888 15.6584 8.65283 16.1067 8.65283C16.555 8.65303 16.9183 9.00897 16.9185 9.44809C16.9185 9.88731 16.5551 10.2434 16.1067 10.2434C15.6584 10.2434 15.2949 9.88731 15.2949 9.44809ZM15.7138 9.44786C15.7136 9.6606 15.8895 9.83319 16.1067 9.83339V9.83302C16.3238 9.83302 16.5 9.6608 16.5004 9.4481C16.5004 9.23536 16.3244 9.06288 16.1072 9.06282C15.89 9.06275 15.7139 9.23512 15.7138 9.44786Z" fill="#5549EF"/>
<path d="M16.1067 8.65283L16.1068 8.45283H16.1067V8.65283ZM16.9185 9.44809H17.1185L17.1185 9.448L16.9185 9.44809ZM16.1067 9.83339L16.1065 10.0334L16.3067 10.0336V9.83339H16.1067ZM15.7138 9.44786L15.9138 9.44799V9.44799L15.7138 9.44786ZM16.1067 9.83302L16.1067 9.63302L15.9067 9.63302V9.83302H16.1067ZM16.5004 9.4481L16.7004 9.44849V9.4481H16.5004ZM16.1072 9.06282L16.1071 9.26282H16.1071L16.1072 9.06282ZM16.1067 8.45283C15.5518 8.45283 15.0949 8.89456 15.0949 9.44809H15.4949C15.4949 9.1232 15.7649 8.85283 16.1067 8.85283V8.45283ZM17.1185 9.448C17.1183 8.89463 16.6616 8.45308 16.1068 8.45283L16.1066 8.85283C16.4484 8.85298 16.7184 9.1233 16.7185 9.44819L17.1185 9.448ZM16.1067 10.4434C16.6616 10.4434 17.1185 10.0016 17.1185 9.44809H16.7185C16.7185 9.77299 16.4485 10.0434 16.1067 10.0434V10.4434ZM15.0949 9.44809C15.0949 10.0016 15.5518 10.4434 16.1067 10.4434V10.0434C15.7649 10.0434 15.4949 9.77299 15.4949 9.44809H15.0949ZM16.1069 9.63339C15.9963 9.63328 15.9137 9.54643 15.9138 9.44799L15.5138 9.44773C15.5136 9.77477 15.7828 10.0331 16.1065 10.0334L16.1069 9.63339ZM15.9067 9.83302V9.83339H16.3067V9.83302H15.9067ZM16.3004 9.44772C16.3002 9.54626 16.2174 9.63302 16.1067 9.63302L16.1067 10.033C16.4303 10.033 16.6998 9.77535 16.7004 9.44849L16.3004 9.44772ZM16.1071 9.26282C16.2178 9.26285 16.3004 9.34966 16.3004 9.4481H16.7004C16.7004 9.12107 16.431 8.86292 16.1073 8.86282L16.1071 9.26282ZM15.9138 9.44799C15.9138 9.34954 15.9965 9.26278 16.1071 9.26282L16.1073 8.86282C15.7836 8.86272 15.514 9.1207 15.5138 9.44773L15.9138 9.44799Z" fill="#5549EF"/>
<path fill-rule="evenodd" clip-rule="evenodd" d="M9.2629 5.90833C9.08884 6.32007 8.67872 6.58854 8.2238 6.58854C7.60297 6.58814 7.09973 6.09532 7.09912 5.48715C7.09897 5.0415 7.37289 4.63966 7.79314 4.46901C8.2134 4.29837 8.6972 4.39254 9.01893 4.70761C9.34066 5.02268 9.43695 5.49659 9.2629 5.90833ZM8.87634 5.22282C8.76726 4.96409 8.50977 4.79526 8.22401 4.79511C7.83476 4.79531 7.51891 5.10374 7.51748 5.48506C7.51673 5.76499 7.68826 6.01777 7.95203 6.12543C8.2158 6.2331 8.51981 6.17443 8.72219 5.9768C8.92456 5.77918 8.98541 5.48155 8.87634 5.22282Z" fill="#5549EF"/>
<path d="M8.2238 6.58854L8.22367 6.78854H8.2238V6.58854ZM9.2629 5.90833L9.44711 5.9862H9.44711L9.2629 5.90833ZM7.09912 5.48715L6.89912 5.48722L6.89912 5.48735L7.09912 5.48715ZM7.79314 4.46901L7.7179 4.28371L7.79314 4.46901ZM9.01893 4.70761L9.15886 4.56471V4.56471L9.01893 4.70761ZM8.22401 4.79511L8.22412 4.59511L8.22391 4.59511L8.22401 4.79511ZM8.87634 5.22282L9.06063 5.14513L8.87634 5.22282ZM7.51748 5.48506L7.31748 5.48431L7.31748 5.48453L7.51748 5.48506ZM7.95203 6.12543L8.02762 5.94026H8.02762L7.95203 6.12543ZM8.72219 5.9768L8.58246 5.83371L8.58246 5.83371L8.72219 5.9768ZM8.2238 6.78854C8.75722 6.78854 9.24104 6.47367 9.44711 5.9862L9.07868 5.83045C8.93664 6.16646 8.60022 6.38854 8.2238 6.38854V6.78854ZM6.89912 5.48735C6.89985 6.20971 7.49641 6.78807 8.22367 6.78854L8.22393 6.38854C7.70953 6.38821 7.29962 5.98094 7.29912 5.48695L6.89912 5.48735ZM7.7179 4.28371C7.22398 4.48426 6.89894 4.95825 6.89912 5.48722L7.29912 5.48709C7.299 5.12476 7.52181 4.79505 7.86839 4.65432L7.7179 4.28371ZM9.15886 4.56471C8.77971 4.19341 8.21122 4.08339 7.7179 4.28371L7.86839 4.65432C8.21557 4.51335 8.61469 4.59167 8.879 4.8505L9.15886 4.56471ZM9.44711 5.9862C9.65348 5.49802 9.53874 4.93672 9.15886 4.56471L8.879 4.8505C9.14259 5.10863 9.22042 5.49515 9.07868 5.83045L9.44711 5.9862ZM8.22391 4.99511C8.43113 4.99522 8.61492 5.11758 8.69204 5.30052L9.06063 5.14513C8.9196 4.81061 8.5884 4.5953 8.22412 4.59511L8.22391 4.99511ZM7.71748 5.48581C7.71848 5.21846 7.9411 4.99525 8.22412 4.99511L8.22391 4.59511C7.72841 4.59536 7.31934 4.98903 7.31748 5.48431L7.71748 5.48581ZM8.02762 5.94026C7.83749 5.86266 7.71695 5.68216 7.71748 5.4856L7.31748 5.48453C7.31651 5.84781 7.53903 6.17287 7.87645 6.3106L8.02762 5.94026ZM8.58246 5.83371C8.4376 5.97517 8.21833 6.01811 8.02762 5.94026L7.87645 6.3106C8.21327 6.44809 8.60202 6.37369 8.86192 6.11989L8.58246 5.83371ZM8.69204 5.30052C8.76887 5.48274 8.72659 5.69296 8.58246 5.83371L8.86192 6.11989C9.12253 5.8654 9.20196 5.48037 9.06063 5.14513L8.69204 5.30052Z" fill="#5549EF"/>
<path fill-rule="evenodd" clip-rule="evenodd" d="M2.79843 7.33616C2.79863 7.77537 2.43534 8.13158 1.98699 8.13179C1.53881 8.13159 1.17542 7.77593 1.1748 7.33689C1.1746 6.89767 1.53789 6.54146 1.98625 6.54126C2.4346 6.54106 2.79822 6.89695 2.79843 7.33616ZM2.38021 7.33758C2.38035 7.12484 2.20445 6.95225 1.98728 6.95205C1.77001 6.95205 1.59381 7.12449 1.59361 7.33734C1.59361 7.55008 1.76962 7.72256 1.98679 7.72262C2.20395 7.72269 2.38008 7.55032 2.38021 7.33758Z" fill="#5549EF"/>
<path d="M1.98699 8.13179L1.9869 8.33179L1.98708 8.33179L1.98699 8.13179ZM2.79843 7.33616L2.99843 7.33607V7.33607L2.79843 7.33616ZM1.1748 7.33689L0.974805 7.33698L0.974805 7.33717L1.1748 7.33689ZM1.98625 6.54126L1.98616 6.34126H1.98616L1.98625 6.54126ZM1.98728 6.95205L1.98747 6.75205H1.98728L1.98728 6.95205ZM2.38021 7.33758L2.58021 7.33771V7.33771L2.38021 7.33758ZM1.59361 7.33734L1.39361 7.33714V7.33734L1.59361 7.33734ZM1.98708 8.33179C2.54198 8.33154 2.99869 7.8896 2.99843 7.33607L2.59843 7.33625C2.59858 7.66114 2.32869 7.93163 1.9869 7.93179L1.98708 8.33179ZM0.974805 7.33717C0.975578 7.89038 1.4323 8.33154 1.9869 8.33179L1.98708 7.93179C1.64532 7.93163 1.37526 7.66149 1.3748 7.33661L0.974805 7.33717ZM1.98616 6.34126C1.43125 6.34151 0.974547 6.78345 0.974805 7.33698L1.3748 7.33679C1.37465 7.0119 1.64454 6.74141 1.98634 6.74126L1.98616 6.34126ZM2.99843 7.33607C2.99817 6.78254 2.54106 6.34101 1.98616 6.34126L1.98634 6.74126C2.32813 6.74111 2.59828 7.01136 2.59843 7.33625L2.99843 7.33607ZM1.9871 7.15205C2.09773 7.15215 2.18028 7.23901 2.18021 7.33745L2.58021 7.33771C2.58042 7.01067 2.31117 6.75235 1.98747 6.75205L1.9871 7.15205ZM1.79361 7.33753C1.7937 7.23892 1.87649 7.15205 1.98728 7.15205L1.98728 6.75205C1.66352 6.75205 1.39392 7.01006 1.39361 7.33714L1.79361 7.33753ZM1.98685 7.52262C1.87621 7.52259 1.79361 7.43578 1.79361 7.33734L1.39361 7.33734C1.39361 7.66437 1.66303 7.92252 1.98673 7.92262L1.98685 7.52262ZM2.18021 7.33745C2.18015 7.4359 2.09749 7.52266 1.98685 7.52262L1.98673 7.92262C2.31042 7.92272 2.58 7.66474 2.58021 7.33771L2.18021 7.33745Z" fill="#5549EF"/>
<path fill-rule="evenodd" clip-rule="evenodd" d="M5.73926 12.1073C5.73912 11.4632 6.27201 10.9409 6.92954 10.9407C7.58693 10.9413 8.11976 11.4631 8.12057 12.1071C8.12057 12.7512 7.58757 13.2734 6.93004 13.2734C6.27251 13.2735 5.73939 12.7514 5.73926 12.1073ZM6.15687 12.1094C6.15728 12.527 6.50279 12.8653 6.92901 12.8655V12.8626C7.35555 12.8622 7.70129 12.5236 7.7019 12.1058C7.70026 11.6883 7.35375 11.3509 6.92754 11.3519C6.50132 11.3529 6.15646 11.6919 6.15687 12.1094Z" fill="#5549EF"/>
<path d="M6.92954 10.9407L6.92973 10.7407L6.92948 10.7407L6.92954 10.9407ZM5.73926 12.1073L5.53926 12.1073V12.1073L5.73926 12.1073ZM8.12057 12.1071H8.32057L8.32057 12.1068L8.12057 12.1071ZM6.93004 13.2734L6.93006 13.4734L6.93004 13.2734ZM6.92901 12.8655L6.92892 13.0655L7.12901 13.0656V12.8655H6.92901ZM6.15687 12.1094L6.35687 12.1092L6.15687 12.1094ZM6.92901 12.8626L6.92882 12.6626L6.72901 12.6628V12.8626H6.92901ZM7.7019 12.1058L7.9019 12.1061L7.9019 12.105L7.7019 12.1058ZM6.92754 11.3519L6.928 11.5519H6.928L6.92754 11.3519ZM6.92948 10.7407C6.1654 10.7409 5.5391 11.3489 5.53926 12.1073L5.93926 12.1073C5.93915 11.5774 6.37862 11.1408 6.92961 11.1407L6.92948 10.7407ZM8.32057 12.1068C8.31961 11.3487 7.69351 10.7414 6.92973 10.7407L6.92936 11.1407C7.48035 11.1412 7.9199 11.5775 7.92057 12.1073L8.32057 12.1068ZM6.93006 13.4734C7.69414 13.4734 8.32057 12.8655 8.32057 12.1071H7.92057C7.92057 12.6369 7.48101 13.0734 6.93002 13.0734L6.93006 13.4734ZM5.53926 12.1073C5.53942 12.8658 6.16598 13.4735 6.93006 13.4734L6.93002 13.0734C6.37903 13.0735 5.93937 12.6371 5.93926 12.1073L5.53926 12.1073ZM6.92911 12.6655C6.60934 12.6653 6.35716 12.4126 6.35687 12.1092L5.95687 12.1096C5.95739 12.6413 6.39625 13.0652 6.92892 13.0655L6.92911 12.6655ZM6.72901 12.8626V12.8655H7.12901V12.8626H6.72901ZM7.5019 12.1055C7.50146 12.4092 7.24898 12.6623 6.92882 12.6626L6.9292 13.0626C7.46212 13.0621 7.90112 12.6381 7.9019 12.1061L7.5019 12.1055ZM6.928 11.5519C7.24778 11.5512 7.50071 11.8032 7.5019 12.1066L7.9019 12.105C7.89982 11.5733 7.45972 11.1507 6.92707 11.1519L6.928 11.5519ZM6.35687 12.1092C6.35657 11.8059 6.60824 11.5527 6.928 11.5519L6.92707 11.1519C6.3944 11.1532 5.95635 11.5779 5.95687 12.1096L6.35687 12.1092Z" fill="#5549EF"/>
</svg>
