<svg width="17" height="16" viewBox="0 0 17 16" fill="none" xmlns="http://www.w3.org/2000/svg">
<path d="M5.05705 6.66663V15.6666V6.66663Z" fill="#FDFDFD"/>
<path d="M11.1085 3.57663L10.3521 6.66663H14.762C14.9969 6.66663 15.2285 6.72084 15.4386 6.82499C15.6487 6.92913 15.8314 7.08033 15.9723 7.26663C16.1132 7.45292 16.2085 7.66919 16.2505 7.8983C16.2925 8.12741 16.2802 8.36307 16.2144 8.58663L14.4519 14.5866C14.3603 14.8982 14.1691 15.1719 13.9073 15.3666C13.6454 15.5614 13.3269 15.6666 12.9996 15.6666H2.78776C2.38653 15.6666 2.00172 15.5086 1.71801 15.2273C1.43429 14.946 1.2749 14.5645 1.2749 14.1666V8.16663C1.2749 7.7688 1.43429 7.38727 1.71801 7.10597C2.00172 6.82466 2.38653 6.66663 2.78776 6.66663H4.87551C5.15696 6.66648 5.4328 6.58849 5.67199 6.44142C5.91119 6.29435 6.10427 6.08404 6.22952 5.83413L8.8392 0.666626C9.19591 0.671006 9.54702 0.755253 9.86628 0.913073C10.1855 1.07089 10.4647 1.29821 10.6829 1.57803C10.9011 1.85785 11.0528 2.18295 11.1264 2.52903C11.2001 2.87511 11.194 3.23323 11.1085 3.57663Z" fill="#FDFDFD"/>
<path d="M5.05705 6.66663V15.6666M11.1085 3.57663L10.3521 6.66663H14.762C14.9969 6.66663 15.2285 6.72084 15.4386 6.82499C15.6487 6.92913 15.8314 7.08033 15.9723 7.26663C16.1133 7.45292 16.2085 7.66919 16.2505 7.8983C16.2925 8.12741 16.2802 8.36307 16.2144 8.58663L14.4519 14.5866C14.3603 14.8982 14.1691 15.1719 13.9073 15.3666C13.6454 15.5614 13.3269 15.6666 12.9996 15.6666H2.78776C2.38653 15.6666 2.00172 15.5086 1.71801 15.2273C1.43429 14.946 1.2749 14.5645 1.2749 14.1666V8.16663C1.2749 7.7688 1.43429 7.38727 1.71801 7.10597C2.00172 6.82466 2.38653 6.66663 2.78776 6.66663H4.87551C5.15696 6.66648 5.4328 6.58849 5.67199 6.44142C5.91119 6.29435 6.10427 6.08404 6.22952 5.83413L8.8392 0.666626C9.19591 0.671006 9.54702 0.755253 9.86628 0.913073C10.1855 1.07089 10.4647 1.29821 10.6829 1.57803C10.9011 1.85785 11.0528 2.18295 11.1264 2.52903C11.2001 2.87511 11.194 3.23323 11.1085 3.57663Z" stroke="#5549EF" stroke-width="0.64804" stroke-linecap="round" stroke-linejoin="round"/>
</svg>
