<svg width="37" height="56" viewBox="0 0 37 56" fill="none" xmlns="http://www.w3.org/2000/svg">
<path d="M20.051 46.5024H10.6097C10.4588 46.5024 10.3142 46.5638 10.2075 46.6731C10.1008 46.7825 10.0409 46.9308 10.0409 47.0854V52.2364C10.0409 52.3911 10.1008 52.5394 10.2075 52.6487C10.3142 52.7581 10.4588 52.8195 10.6097 52.8195H20.051C20.2018 52.8195 20.3465 52.7581 20.4532 52.6487C20.5598 52.5394 20.6198 52.3911 20.6198 52.2364V47.0854C20.6198 46.9308 20.5598 46.7825 20.4532 46.6731C20.3465 46.5638 20.2018 46.5024 20.051 46.5024ZM19.4822 51.6534H11.1784V47.6685H19.4822V51.6534Z" fill="#5549EF"/>
<path d="M13.5393 50.2434H16.9343C17.0851 50.2434 17.2297 50.182 17.3364 50.0727C17.443 49.9633 17.503 49.815 17.503 49.6604C17.503 49.5058 17.443 49.3575 17.3364 49.2481C17.2297 49.1388 17.0851 49.0773 16.9343 49.0773H13.5393C13.3884 49.0773 13.2438 49.1388 13.1371 49.2481C13.0305 49.3575 12.9705 49.5058 12.9705 49.6604C12.9705 49.815 13.0305 49.9633 13.1371 50.0727C13.2438 50.182 13.3884 50.2434 13.5393 50.2434Z" fill="#5549EF"/>
<path d="M14.3986 14.8055C14.3575 14.8943 14.3359 14.9913 14.3355 15.0896C14.3351 15.1889 14.3565 15.2871 14.3982 15.3768C14.4399 15.4665 14.5009 15.5455 14.5765 15.6077C14.6521 15.6699 14.7404 15.7138 14.8348 15.7362C14.9293 15.7585 15.0275 15.7587 15.122 15.7368C15.2166 15.7149 15.3051 15.6713 15.3809 15.6095C15.4568 15.5476 15.518 15.4689 15.5601 15.3794C15.6022 15.2899 15.624 15.1918 15.624 15.0924C15.624 14.993 15.6021 14.8949 15.5599 14.8055H16.2703C16.4212 14.8055 16.5658 14.744 16.6725 14.6347C16.7792 14.5253 16.8391 14.377 16.8391 14.2224C16.8391 14.0678 16.7792 13.9195 16.6725 13.8101C16.5658 13.7008 16.4212 13.6393 16.2703 13.6393H13.6851C13.5342 13.6393 13.3896 13.7008 13.2829 13.8101C13.1763 13.9195 13.1163 14.0678 13.1163 14.2224C13.1163 14.377 13.1763 14.5253 13.2829 14.6347C13.3896 14.744 13.5342 14.8055 13.6851 14.8055H14.3986Z" fill="#5549EF"/>
<path d="M21.4419 14.8055C21.3944 14.9061 21.3727 15.0175 21.3788 15.1292C21.3848 15.2408 21.4183 15.349 21.4763 15.4437C21.5343 15.5384 21.6148 15.6165 21.7102 15.6706C21.8056 15.7247 21.9129 15.7531 22.022 15.7531C22.1311 15.7531 22.2383 15.7247 22.3338 15.6706C22.4292 15.6165 22.5097 15.5384 22.5677 15.4437C22.6257 15.349 22.6593 15.2408 22.6653 15.1292C22.6713 15.0175 22.6495 14.9061 22.6021 14.8055H23.3136C23.4645 14.8055 23.6091 14.744 23.7157 14.6347C23.8224 14.5253 23.8824 14.377 23.8824 14.2224C23.8824 14.0678 23.8224 13.9195 23.7157 13.8101C23.6091 13.7008 23.4645 13.6393 23.3136 13.6393H20.7284C20.5775 13.6393 20.4328 13.7008 20.3262 13.8101C20.2195 13.9195 20.1596 14.0678 20.1596 14.2224C20.1596 14.377 20.2195 14.5253 20.3262 14.6347C20.4328 14.744 20.5775 14.8055 20.7284 14.8055H21.4419Z" fill="#5549EF"/>
<path d="M18.4874 18.943C18.7493 18.9379 19.0058 18.8665 19.2342 18.7352C19.4626 18.6039 19.6558 18.4167 19.7966 18.1903C19.8739 18.0579 19.8969 17.8995 19.8605 17.7498C19.8241 17.6 19.7312 17.4712 19.6023 17.3915C19.4734 17.3119 19.319 17.2878 19.1728 17.3247C19.0266 17.3615 18.9006 17.4563 18.8225 17.5882C18.7863 17.646 18.7365 17.6935 18.6776 17.7264C18.6188 17.7593 18.5529 17.7766 18.4859 17.7766C18.4189 17.7766 18.353 17.7593 18.2941 17.7264C18.2353 17.6935 18.1856 17.646 18.1493 17.5882C18.1109 17.5224 18.0601 17.465 18 17.4193C17.9399 17.3736 17.8715 17.3405 17.7989 17.322C17.7263 17.3034 17.6509 17.2997 17.5768 17.3111C17.5028 17.3225 17.4317 17.3488 17.3676 17.3884C17.3036 17.428 17.2477 17.4802 17.2033 17.542C17.159 17.6038 17.1269 17.6739 17.109 17.7484C17.0911 17.8229 17.0878 17.9003 17.0991 17.9761C17.1105 18.052 17.1363 18.1248 17.1752 18.1903C17.3162 18.4172 17.5099 18.6047 17.7389 18.7361C17.9679 18.8674 18.2251 18.9385 18.4874 18.943Z" fill="#5549EF"/>
<path d="M20.2009 20.4272C19.8287 20.6508 18.9766 20.7515 18.4812 20.7515C17.9859 20.7515 17.1421 20.6508 16.7708 20.4272C16.6408 20.3487 16.4858 20.3264 16.3397 20.3652C16.1937 20.4039 16.0687 20.5006 15.9921 20.6339C15.9156 20.7671 15.8939 20.9261 15.9317 21.0758C15.9695 21.2255 16.0638 21.3537 16.1938 21.4321C16.9777 21.9039 18.3292 21.9176 18.4905 21.9176C18.6519 21.9176 19.9941 21.9039 20.7769 21.4321C20.8436 21.3946 20.9024 21.3437 20.9496 21.2825C20.9967 21.2213 21.0314 21.1511 21.0517 21.0758C21.0719 21.0006 21.0772 20.922 21.0672 20.8447C21.0573 20.7673 21.0323 20.6928 20.9937 20.6256C20.9552 20.5583 20.9039 20.4997 20.8428 20.4531C20.7818 20.4066 20.7122 20.373 20.6383 20.3545C20.5643 20.336 20.4875 20.3329 20.4124 20.3454C20.3373 20.3579 20.2654 20.3857 20.2009 20.4272Z" fill="#5549EF"/>
<path d="M18.5174 6.07554C18.9755 6.07554 19.3468 5.64506 19.3468 5.11403C19.3468 4.58301 18.9755 4.15252 18.5174 4.15252C18.0594 4.15252 17.6881 4.58301 17.6881 5.11403C17.6881 5.64506 18.0594 6.07554 18.5174 6.07554Z" fill="#5549EF"/>
<path d="M36.9638 43.2468C36.699 40.4185 36.2047 36.4622 35.7331 33.4091C35.1003 29.3023 33.423 27.1863 29.9422 26.105L29.874 26.0849C28.8463 25.767 27.7825 25.5888 26.7096 25.5548H26.6972C26.569 25.5548 26.4408 25.5474 26.3125 25.5474H24.3095L23.8079 23.4908C24.2274 23.0053 24.6104 22.4879 24.9537 21.9431C25.8172 20.5989 26.4873 18.8254 27.0012 16.5313C27.458 16.4592 27.8779 16.2318 28.1935 15.8857C28.7271 15.3005 28.9877 14.3613 28.9081 13.3096C28.8119 12.0471 28.4252 11.2552 27.7571 10.9403C27.8605 10.793 27.9639 10.6403 28.0529 10.4781C28.0611 10.4642 28.0684 10.4497 28.0746 10.4347L28.0798 10.4241C28.086 10.4103 28.0912 10.3955 28.0963 10.3806V10.3711C28.0963 10.3573 28.1046 10.3424 28.1077 10.3287V10.3149C28.1077 10.3011 28.1139 10.2863 28.116 10.2725C28.1155 10.2675 28.1155 10.2626 28.116 10.2576V10.2184C28.116 10.2184 28.116 10.2078 28.116 10.2025V3.4253C28.116 1.94116 26.905 0.736877 25.4159 0.736877H11.5683C10.0792 0.736877 8.86723 1.94222 8.86723 3.4253V10.1855C8.86723 10.1919 8.86723 10.1972 8.86723 10.2025C8.86723 10.2078 8.86723 10.2131 8.86723 10.2195V10.2576C8.86723 10.2576 8.86723 10.2672 8.86723 10.2725C8.86723 10.2778 8.87241 10.3022 8.87551 10.3159V10.3297C8.87551 10.3435 8.88274 10.3573 8.88687 10.3711V10.3806C8.88687 10.3965 8.89723 10.4103 8.90344 10.4251L8.90859 10.4357L8.9303 10.4781C9.0244 10.6414 9.12369 10.7961 9.2271 10.9424C8.56217 11.2605 8.17748 12.0503 8.08131 13.3096C8.00168 14.3613 8.26229 15.3005 8.79589 15.8857C9.10315 16.2209 9.50869 16.4442 9.95097 16.5217C10.468 18.8179 11.135 20.5936 11.9985 21.9388C12.3522 22.4999 12.7485 23.0316 13.1836 23.529L12.6913 25.5432H10.6873C10.559 25.5432 10.4308 25.5432 10.3026 25.5506H10.2902C9.21732 25.5846 8.15344 25.7628 7.12582 26.0806L7.05756 26.1008C3.57884 27.1821 1.90153 29.298 1.26659 33.4049C0.795044 36.4622 0.300754 40.4153 0.0360243 43.2426C-0.23491 46.1494 1.01844 49.7357 3.93046 51.0619C4.55092 51.8686 5.4392 52.3605 6.55086 52.4834V55.1538C6.55086 55.3085 6.61077 55.4568 6.71743 55.5661C6.8241 55.6755 6.96877 55.7369 7.11961 55.7369H29.8615C30.0124 55.7369 30.1571 55.6755 30.2637 55.5661C30.3704 55.4568 30.4303 55.3085 30.4303 55.1538V52.4834C31.542 52.3605 32.4302 51.8686 33.0507 51.0619C35.9813 49.7399 37.2357 46.1536 36.9638 43.2468ZM18.4854 25.9545C20.3809 25.9545 21.7842 25.3057 22.8627 24.4121L23.2619 26.0488C22.8069 26.6531 20.5733 28.275 18.5051 29.5991C16.442 28.2708 14.2073 26.6531 13.7482 26.0488L14.1401 24.4449C15.2228 25.3216 16.6137 25.9545 18.4854 25.9545ZM12.8237 26.7093C13.134 27.1333 13.863 27.8001 15.6013 29.0298C16.3707 29.5737 17.1349 30.0825 17.6354 30.408L15.6561 32.6586L11.4421 26.7061L12.8237 26.7093ZM21.4171 29.0298C23.1554 27.8001 23.8803 27.1354 24.1947 26.7093H25.5762L21.3623 32.6586L19.383 30.4069C19.8835 30.0825 20.6477 29.5737 21.4171 29.0298ZM18.5009 11.0485C16.6454 11.0509 14.795 11.2484 12.9788 11.6379C12.9662 11.64 12.9537 11.6432 12.9416 11.6474C11.8692 11.9559 10.8796 11.2234 10.2374 10.3541C12.135 9.32157 16.0698 8.85405 18.4834 8.85405C20.8969 8.85405 24.8585 9.32263 26.7644 10.3552C26.1212 11.2202 25.1316 11.9549 24.0602 11.6474C24.0481 11.6432 24.0356 11.64 24.023 11.6379C22.2068 11.2484 20.3564 11.0509 18.5009 11.0485ZM25.4377 1.89452C26.3001 1.89452 27.0002 2.57721 27.0002 3.41681V9.17208C24.4853 7.96993 20.1389 7.68795 18.4874 7.68795C16.836 7.68795 12.5166 7.96993 10.0078 9.17208V3.41893C10.0047 2.57721 10.7059 1.89452 11.5683 1.89452H25.4377ZM11.0181 15.9832C10.9416 15.6249 10.8723 15.2581 10.8113 14.8924C10.8008 14.8151 10.7754 14.7407 10.7363 14.6737C10.6973 14.6067 10.6455 14.5484 10.5841 14.5023C10.5227 14.4562 10.4529 14.4232 10.3788 14.4053C10.3047 14.3873 10.2279 14.3848 10.1528 14.3978C10.0778 14.4109 10.006 14.4393 9.94188 14.4813C9.87772 14.5233 9.82247 14.578 9.77934 14.6424C9.73621 14.7067 9.7061 14.7792 9.69083 14.8556C9.67555 14.9321 9.67539 15.0109 9.69037 15.0874C9.69037 15.1033 9.69555 15.1192 9.69865 15.1351C9.68077 15.1196 9.66382 15.103 9.64796 15.0853C9.33773 14.7429 9.18158 14.1111 9.23432 13.3955C9.34393 11.9548 9.77515 11.9495 9.98197 11.9474C10.0294 11.9461 10.0767 11.9394 10.1226 11.9273C10.832 12.5453 11.6428 12.8814 12.4514 12.8814C12.7148 12.8819 12.977 12.8462 13.2312 12.7754C16.7092 12.027 20.3009 12.027 23.779 12.7754C24.0331 12.8462 24.2953 12.8819 24.5587 12.8814C25.3684 12.8814 26.1791 12.5432 26.8885 11.9273C26.9359 11.9412 26.985 11.9487 27.0343 11.9495C27.2411 11.9495 27.6724 11.957 27.782 13.3976C27.8368 14.1132 27.6786 14.745 27.3683 15.0874C27.339 15.1196 27.3076 15.1498 27.2742 15.1776L27.2897 15.0896C27.3101 14.9394 27.2726 14.787 27.1852 14.6647C27.0978 14.5424 26.9674 14.4598 26.8216 14.4344C26.6758 14.4091 26.526 14.4429 26.4042 14.5288C26.2823 14.6147 26.1979 14.7458 26.1688 14.8945C26.1078 15.2602 26.0374 15.627 25.962 15.9853C25.4718 18.2815 24.8327 20.019 24.0117 21.2996C23.6591 21.8632 23.2579 22.3932 22.8131 22.8834C22.7916 22.9026 22.7715 22.9235 22.7531 22.9459C21.7573 23.9933 20.4326 24.7905 18.4906 24.7905C16.5734 24.7905 15.258 24.0135 14.2663 22.9883C14.2486 22.9663 14.2292 22.9458 14.2084 22.9269C13.7462 22.426 13.3307 21.882 12.9674 21.3017C12.1433 20.0169 11.5052 18.2794 11.0141 15.9832H11.0181ZM4.80531 50.306C4.78352 50.2677 4.7575 50.2321 4.72775 50.2C4.30067 49.5639 4.08038 48.6692 4.08038 47.5296C4.08038 45.6946 4.53123 43.5362 6.57358 43.2012V51.3163C5.80938 51.2103 5.21688 50.8647 4.80117 50.306H4.80531ZM29.3135 54.575H7.70695V37.8414H15.4938V41.1393C15.4941 41.2589 15.5302 41.3754 15.5972 41.4733L17.261 43.9115C17.3048 43.976 17.3609 44.0309 17.4259 44.0726C17.4909 44.1143 17.5634 44.1421 17.6392 44.1543C17.715 44.1665 17.7924 44.1628 17.8667 44.1435C17.9411 44.1242 18.0108 44.0896 18.0718 44.0419L19.2879 43.0878L20.779 44.6154C20.8586 44.697 20.9601 44.7526 21.0705 44.7751C21.181 44.7976 21.2954 44.786 21.3994 44.7417C21.5034 44.6974 21.5923 44.6225 21.6547 44.5264C21.7171 44.4303 21.7503 44.3174 21.7501 44.202V37.8414H29.3124L29.3135 54.575ZM20.6136 37.8414V42.7952L19.7418 41.9037C19.6447 41.8037 19.5154 41.7433 19.378 41.7337C19.2407 41.7242 19.1046 41.7661 18.9952 41.8517L17.8577 42.7422L16.6364 40.9528V37.8414H20.6136ZM30.4489 51.3163V43.2002C32.4913 43.5352 32.9421 45.6935 32.9421 47.5285C32.9421 48.6682 32.7218 49.5618 32.2948 50.1989C32.265 50.2311 32.239 50.2667 32.2172 50.3049C31.8015 50.8647 31.209 51.2103 30.4489 51.3163ZM33.9276 49.0986C34.0315 48.5821 34.0824 48.0559 34.0796 47.5285C34.0796 44.2666 32.7643 42.2949 30.4489 42.0224V37.2604C30.4489 37.1058 30.389 36.9575 30.2823 36.8482C30.1756 36.7388 30.031 36.6774 29.8802 36.6774H7.13718C6.98634 36.6774 6.84167 36.7388 6.73501 36.8482C6.62834 36.9575 6.56843 37.1058 6.56843 37.2604V42.0224C4.25308 42.2949 2.93772 44.2666 2.93772 47.5285C2.93491 48.0559 2.98583 48.5821 3.0897 49.0986C1.61611 47.6696 1.00189 45.3363 1.18596 43.3602C1.44862 40.5542 1.93977 36.6286 2.40718 33.5925C3.0566 29.3797 4.8001 28.0323 7.40293 27.2234L7.4712 27.2022C8.31027 26.9424 9.17627 26.7848 10.0513 26.7326L15.1473 33.9317C15.1971 34.002 15.2615 34.06 15.336 34.1014C15.4104 34.1429 15.4929 34.1667 15.5775 34.1713H15.6075C15.6873 34.1713 15.7661 34.1541 15.8389 34.1209C15.9118 34.0876 15.977 34.0391 16.0304 33.9784L18.5123 31.1585L20.9941 33.9784C21.0475 34.0391 21.1128 34.0876 21.1856 34.1209C21.2585 34.1541 21.3373 34.1713 21.4171 34.1713H21.4471C21.5316 34.1667 21.6142 34.1429 21.6886 34.1014C21.763 34.06 21.8275 34.002 21.8773 33.9317L26.9733 26.7326C27.85 26.7846 28.7178 26.9422 29.5585 27.2022L29.6258 27.2234C32.2286 28.0323 33.969 29.3797 34.6215 33.5925C35.0889 36.6286 35.5801 40.5531 35.8428 43.3602C36.0155 45.3341 35.4012 47.6674 33.9276 49.0964V49.0986Z" fill="#5549EF"/>
</svg>
