<svg width="18" height="20" viewBox="0 0 18 20" fill="none" xmlns="http://www.w3.org/2000/svg">
<path d="M4.66667 9.25V5.58333C4.66667 4.36776 5.14955 3.20197 6.00909 2.34243C6.86864 1.48289 8.03442 1 9.25 1C10.4656 1 11.6314 1.48289 12.4909 2.34243C13.3504 3.20197 13.8333 4.36776 13.8333 5.58333V9.25M2.83333 9.25H15.6667C16.6792 9.25 17.5 10.0708 17.5 11.0833V17.5C17.5 18.5125 16.6792 19.3333 15.6667 19.3333H2.83333C1.82081 19.3333 1 18.5125 1 17.5V11.0833C1 10.0708 1.82081 9.25 2.83333 9.25Z" stroke="#5549EF" stroke-linecap="round" stroke-linejoin="round"/>
</svg>
