<svg width="84" height="56" viewBox="0 0 84 56" fill="none" xmlns="http://www.w3.org/2000/svg">
<path d="M83.3949 15.5918C83.5451 11.8806 81.8929 8.35051 78.5737 5.03159C75.2544 1.71268 71.6948 0.0381345 68.0602 0.20408C64.4255 0.370026 60.7758 2.16526 57.2913 5.68029L54.9784 7.98845C55.9816 9.45945 56.6531 11.1327 56.9459 12.8914C57.3841 15.4514 57.0275 18.0849 55.9246 20.4344L64.4405 11.8806C67.174 9.1551 69.7073 8.95899 72.0403 11.2923C74.3833 13.6608 74.188 16.1952 71.4545 18.9258L46.5075 43.9987C43.7439 46.7746 41.1906 46.9858 38.8476 44.6323C36.5046 42.2789 36.7199 39.7193 39.4935 36.9536L50.1121 26.2878C52.8131 23.8187 54.6687 20.5558 55.4139 16.9646C55.5018 16.4663 55.5521 15.962 55.5641 15.456C55.6352 12.7016 54.7953 10.0013 53.176 7.77725C52.4629 6.72357 51.6479 5.74325 50.7429 4.85057C47.3786 1.47131 43.8491 -0.127807 40.2294 0.00796664C36.6098 0.143741 32.9751 1.98423 29.4906 5.48418L5.45975 29.6218C1.97527 33.1368 0.142911 36.7424 0.00773735 40.4233C-0.127436 44.1043 1.50968 47.6646 4.82894 50.9835C8.1482 54.3025 11.7078 55.977 15.3424 55.8262C18.9771 55.6753 22.6118 53.8499 26.1113 50.3499L28.4092 48.0267C27.4159 46.5503 26.7454 44.8793 26.4417 43.1237C26.0208 40.5634 26.3766 37.9351 27.463 35.5807L18.9471 44.1345C16.2286 46.8802 13.6903 47.1517 11.4374 44.7229C9.18453 42.294 9.28967 39.835 12.0082 37.0893L36.8351 12.0013C39.5986 9.22551 42.1369 8.98413 44.4799 11.3677C46.8229 13.7513 46.6126 16.2858 43.8491 19.0616L33.2454 29.7123C30.5411 32.1787 28.685 35.4428 27.9436 39.0354C27.8549 39.5337 27.8047 40.038 27.7934 40.544C27.7259 43.3002 28.5595 46.0027 30.1665 48.2379C30.8954 49.2787 31.7201 50.2485 32.6296 51.1344C35.979 54.5137 39.5085 56.1279 43.1432 55.9921C46.7778 55.8563 50.4125 54.0007 53.897 50.5008L77.9278 26.3632C81.4323 22.8834 83.2547 19.2929 83.3949 15.5918Z" fill="white"/>
</svg>
