<svg width="21" height="18" viewBox="0 0 21 18" fill="none" xmlns="http://www.w3.org/2000/svg">
<path d="M14.0777 16.754L12.9267 16.9821C12.1784 17.1273 12.235 17.0911 11.9733 16.416L10.7849 13.1935C10.7482 13.0903 10.6174 12.6411 10.5579 12.5855C10.3592 12.4001 10.1716 13.2555 10.1268 13.3794L9.00626 16.629C8.86668 17.0626 8.84614 17.1659 8.32976 17.0461L5.03282 16.3057L0.4746 15.4209C0.014949 15.3262 -0.0393398 15.2071 0.0193133 14.7947L1.6566 5.46998L2.01038 3.48089C2.07583 2.8914 2.09097 2.6009 2.44576 2.12291C2.50291 2.04592 2.50587 2.06063 2.49142 1.96857L2.38001 1.21782C2.33424 0.922687 2.19759 0.486881 2.62596 0.407791C2.72631 0.406193 2.80862 0.430133 2.90565 0.447753L5.1778 0.724452L7.38749 0.890065C7.46526 0.895691 7.54087 0.913032 7.61973 0.916806L8.20406 0.927063C8.32495 0.932805 8.44381 0.958273 8.56479 0.962741L9.2643 0.967627C9.35895 0.969826 9.45119 0.987932 9.54519 0.990131L11.6666 0.989275C11.7454 0.987168 11.8222 0.973345 11.9005 0.969919L13.3707 0.913009L16.8119 0.634573L17.8508 0.495864C18.111 0.455069 18.4677 0.300871 18.6298 0.610795L18.6371 0.625242C18.7077 0.759066 18.6532 0.898052 18.6334 1.03583L18.5689 1.48769C18.5369 1.67893 18.495 1.87225 18.4989 2.06651L18.5273 2.08966C18.5322 2.12696 18.557 2.15576 18.5763 2.18697L18.7017 2.39393C18.9377 2.82393 18.9073 3.06101 18.9704 3.51935L19.3118 5.50584C19.3336 5.64237 19.3486 5.78712 19.3793 5.92146L19.7931 8.22329C19.821 8.38263 19.8641 8.54442 19.8829 8.70522L20.6241 12.8258C20.637 12.9483 20.6744 13.076 20.6988 13.1972L20.9534 14.7948C20.9775 14.9471 21.0415 15.1789 20.9596 15.3222L20.9532 15.3331C20.9072 15.4177 20.8423 15.4784 20.7492 15.509L20.7333 15.5139C20.6615 15.5367 20.5874 15.5397 20.5134 15.5515L15.8307 16.3812L14.0777 16.754ZM3.12361 1.25889L3.25019 2.0985C3.44634 2.20366 3.67685 2.23659 3.8937 2.27574L4.74334 2.41271C5.19452 2.48898 5.63968 2.58214 6.09586 2.63063L8.32342 2.77867C8.4646 2.78457 8.60345 2.80791 8.74704 2.81143L12.2894 2.80832C12.4116 2.80485 12.5295 2.78334 12.6505 2.77813L14.9162 2.62627L16.9206 2.31855C17.1134 2.27912 17.3052 2.24462 17.4942 2.18787L17.6397 2.1352C17.7792 2.0672 17.7551 1.9952 17.7774 1.85234L17.859 1.2631L16.3948 1.45543L13.2115 1.69236L12.0661 1.73621L8.7764 1.73716L7.65122 1.69472C7.54875 1.6896 7.44639 1.67089 7.34384 1.66261L4.19063 1.40519C3.83521 1.36549 3.47891 1.28433 3.12361 1.25889ZM18.0619 2.74317C17.8439 2.90411 17.614 2.93918 17.3518 2.99327L14.9448 3.40176L13.1436 3.54741L7.99928 3.54929C7.86527 3.54505 7.73198 3.52562 7.59832 3.51537L4.90536 3.25981L3.77393 3.05798C3.38528 2.97609 3.21013 2.92863 2.85657 2.78191C2.74904 3.15196 2.7884 3.45431 2.71473 3.78026L1.29028 11.8023C1.2805 11.8497 1.25328 11.9302 1.2633 11.9776C1.682 12.1048 2.09222 12.2212 2.52284 12.3035C3.75839 12.5397 5.04354 12.6097 6.23688 13.0405C7.00489 13.289 7.72475 13.6212 8.40591 14.0544L8.97769 14.4501C9.10133 14.001 9.27028 13.5582 9.42468 13.1187C9.52959 12.82 9.61912 12.4739 9.78103 12.2013C10.1664 11.5522 11.0096 11.7088 11.2893 12.4274L11.6632 13.4403C11.7852 13.7292 11.8892 14.2001 12.0287 14.4468C12.8576 13.7646 13.8015 13.3058 14.8249 12.9916L15.715 12.755C16.3484 12.5917 17.0001 12.4837 17.6482 12.3972L19.7637 12.1504L18.2793 3.84349L18.2332 3.48462C18.2047 3.21107 18.2027 2.98774 18.0619 2.74317ZM1.1304 12.7041L0.777405 14.7212C0.929306 14.7733 1.09586 14.7948 1.2543 14.8208L3.87131 15.2874L8.32342 16.2868L8.34581 16.2592L8.71817 15.1928C7.55071 14.2627 6.14652 13.6587 4.68823 13.3547C3.60232 13.1282 2.13014 13.1054 1.1304 12.7041ZM19.8784 12.8905C19.331 12.9165 18.7793 13.0043 18.2361 13.0757L16.9733 13.2748C15.5214 13.5269 13.9687 13.9183 12.7649 14.8138C12.6054 14.9325 12.42 15.0641 12.2818 15.2066L12.4457 15.5936C12.5123 15.7641 12.621 16.0849 12.7011 16.2317L12.7167 16.2643C12.7808 16.2811 12.9104 16.2312 12.9769 16.2154L15.4239 15.6539L20.237 14.8589L19.8784 12.8905Z" fill="#5549EF"/>
<path d="M10.29 8.52616C9.93656 8.54267 9.87845 8.30841 9.89222 8.0062L10.0969 5.69172C10.1097 5.55903 10.1345 5.41423 10.1287 5.28161C9.85314 5.30062 9.42912 5.36117 9.30768 5.65507C9.26443 5.75972 9.26244 5.75312 9.35971 5.80033C9.44924 5.84381 9.52342 5.9007 9.56123 5.99606L9.5679 6.01375C9.69156 6.33264 9.41516 6.58748 9.10521 6.50816C8.44973 6.34039 8.42725 5.52483 8.80013 5.05701C9.12612 4.64799 9.67227 4.57242 10.1559 4.51551C10.1761 4.16454 10.0544 3.75012 10.4742 3.61308C10.6373 3.60569 10.789 3.67513 10.8655 3.83039L10.8744 3.84915C10.9182 3.93854 10.9085 4.02509 10.9078 4.12205L10.9039 4.4972C10.9765 4.52384 11.0522 4.52503 11.1272 4.54061C11.6112 4.64102 12.1604 4.8387 12.3468 5.34385L12.3522 5.35987C12.4803 5.70388 12.4391 6.111 12.1441 6.35949C11.5951 6.82195 11.118 6.15644 11.5652 5.83247L11.6918 5.739C11.5778 5.35536 11.2131 5.32773 10.8662 5.25617C10.851 5.36612 10.8524 5.47311 10.8442 5.58316L10.6354 7.93563C10.6222 8.04565 10.6327 8.1923 10.5878 8.29262L10.5816 8.30607C10.5263 8.43464 10.4261 8.49667 10.29 8.52616Z" fill="#5549EF"/>
</svg>
