<svg width="20" height="29" viewBox="0 0 20 29" fill="none" xmlns="http://www.w3.org/2000/svg">
<path d="M10.8162 28.4523C10.4844 28.2176 10.2813 27.852 9.96851 27.5999C9.83213 27.7123 9.71899 27.8626 9.60215 27.9953C8.78719 28.9213 8.30754 28.803 7.21481 28.6321L3.44357 28.0889C2.9144 28.0189 2.56936 28.0688 2.09807 27.7235L2.07411 27.7058C1.51567 27.2957 1.42224 26.8047 1.51159 26.184L2.18948 21.7618C1.64888 21.6802 1.02641 21.9403 0.627412 21.46C0.432999 21.226 0.441742 20.9339 0.409102 20.6492L0.213573 19.1309L0 16.1631L0.000348158 12.5983L0.0740939 11.2957L0.518866 7.87747C0.71854 6.81673 0.957055 5.77832 1.29684 4.7517C1.92717 2.84733 2.95679 1.67914 5.12408 1.76267C5.51072 1.77758 5.42645 1.91075 5.6272 1.56913C6.20846 0.579917 7.34185 0.121525 8.43859 0.0140602C8.55438 -0.0105115 8.69811 0.00466774 8.81624 0.00432103L9.69307 0.00309364C11.0565 0.00266025 12.4622 -0.0754027 13.595 0.823311C13.8756 1.04597 14.1454 1.30313 14.2956 1.63355C14.3408 1.73285 14.3071 1.79775 14.4268 1.79318C17.2548 1.68528 18.0331 2.87063 18.795 5.23377L19.4433 7.77346C19.5239 8.11542 19.5686 8.47171 19.6267 8.81815L19.9185 11.3039C19.9446 11.6389 19.9894 11.9795 19.9975 12.3168L20 15.5604C19.9954 15.6886 19.9774 15.8116 19.9647 15.9386L19.8706 17.3434L19.4892 20.586C19.4204 21.3571 19.3494 21.7472 18.5291 21.7492L17.828 21.7485C17.9449 22.0793 17.9727 22.4956 18.0255 22.8429L18.3431 24.5285C18.3847 24.7249 18.4034 24.9296 18.4467 25.1266L18.5858 25.8633C18.657 26.1872 18.7375 26.649 18.6296 26.9662L18.6209 26.9901C18.4762 27.4171 18.1214 27.8153 17.6837 27.9491L17.5424 27.988C17.2904 28.042 17.0257 28.0464 16.7697 28.0714L12.8351 28.6314C12.1041 28.7557 11.4709 28.8765 10.8162 28.4523ZM8.44751 1.05381C7.80258 1.12454 7.077 1.32785 6.65539 1.8594C6.53748 2.00804 6.35097 2.23867 6.37086 2.43814C6.44962 3.2266 6.13865 4.37586 6.30018 4.94159L6.35658 5.09547C6.42409 5.26061 6.5327 5.38386 6.66574 5.50046C7.39849 6.14255 6.73081 6.36073 6.42872 6.90667L6.41709 6.92734C6.38883 6.97948 6.38288 7.03048 6.37657 7.0887C7.45214 8.21823 8.56281 8.77838 9.53826 10.1477C9.80464 10.5216 9.92639 10.8448 10.1529 11.1866L10.6264 10.2942C11.0723 9.50371 11.6971 8.82005 12.3413 8.18747L13.4622 7.14227C13.8237 6.84589 12.6259 6.44065 12.9769 5.75842C13.0638 5.5896 13.2157 5.50986 13.3456 5.38317C13.9267 4.81657 13.545 3.98549 13.5168 3.29217L13.5059 2.7394C13.5059 2.5658 13.5434 2.39989 13.4718 2.23468C12.8973 0.908256 11.0389 1.0519 9.87888 1.05294L8.92952 1.05318C8.7706 1.05304 8.60591 1.04396 8.44751 1.05381ZM5.09416 2.80642C3.23087 2.81463 2.67787 3.58823 2.1846 5.24625C1.52803 7.45313 1.21891 9.44154 1.06853 11.7443L1.00565 12.3761L1.00008 16.192L1.10625 17.9856L1.36873 20.3286C1.38458 20.4658 1.38124 20.6011 1.42332 20.7341L2.36686 20.7285C2.40365 20.2974 2.48488 19.8691 2.5503 19.4414L3.59382 12.7369C3.69404 12.1288 3.74472 11.5003 3.88047 10.8992C3.98777 10.424 4.62211 10.2919 4.81269 10.7689L4.82635 10.8014C4.87982 10.9383 4.84714 11.1536 4.83042 11.3002L3.51377 19.7353L2.49509 26.4049C2.45029 26.6553 2.55163 26.9034 2.81411 26.9823L2.84243 26.991C3.01253 27.0418 3.18747 27.0379 3.3623 27.0573L7.33304 27.6087C7.69838 27.6556 8.1133 27.8507 8.46507 27.6531C8.86759 27.4269 9.05176 26.9464 9.42501 26.6825L9.4325 13.4313C9.44017 13.1175 9.67137 12.6967 9.62173 12.5356L9.5205 12.2256C9.15097 11.2015 8.53944 10.4287 7.77499 9.67856L6.14969 8.26285C5.94173 8.08419 5.70095 7.90348 5.55461 7.66945L5.53684 7.64136C5.21918 7.1276 5.43338 6.4885 5.79765 6.06811C4.95855 4.95855 5.37751 4.06593 5.36625 2.81828L5.09416 2.80642ZM14.6055 2.80985L14.5344 2.8138C14.4327 3.9701 15.1423 4.95127 14.0778 6.05223L14.0884 6.06388C14.5061 6.53402 14.6762 7.25699 14.2541 7.77523C14.0825 7.98596 13.8366 8.15384 13.6365 8.33878C12.0204 9.83184 11.1142 10.9917 10.539 13.2163C10.4139 13.6998 10.4761 13.7034 10.4811 14.1886L10.482 26.4181C10.4778 26.8584 10.5442 26.7091 10.8628 27.0569C11.1853 27.4089 11.3593 27.7724 11.8961 27.7296C12.315 27.6961 12.7453 27.6048 13.1601 27.5366L16.6293 27.0543C16.975 27.0184 17.5903 27.1059 17.6811 26.6348L17.6855 26.6131C17.7109 26.4694 17.6527 26.3108 17.6294 26.1692L16.3932 19.5308L15.1072 11.5527C15.0688 11.2845 14.9587 10.9212 15.1346 10.6846C15.3088 10.4501 15.6117 10.4135 15.838 10.5944C16.0582 10.7705 16.0398 11.0674 16.0832 11.3168L16.2528 12.3501C16.2695 12.4531 16.2699 12.56 16.2882 12.6621L17.0882 17.6115C17.1053 17.7001 17.1069 17.7916 17.1228 17.8802L17.3671 19.2931C17.4063 19.5129 17.44 19.7344 17.475 19.955L17.5987 20.7231L18.4838 20.7256L18.9268 16.6264L18.999 12.3035L18.882 10.8852C18.7278 9.20702 18.4409 7.53596 17.9597 5.91853C17.4944 4.35429 17.0522 2.85853 15.1566 2.81561L14.6055 2.80985Z" fill="#5549EF"/>
<path d="M10.6016 8.42867C10.4513 8.72235 10.061 8.86423 9.78765 8.63941C9.04959 8.03239 7.84649 5.09836 7.54172 3.97627C7.30454 3.10306 8.11343 2.51931 9.08545 2.50311L10.9717 2.5C11.6127 2.5093 12.1261 2.84372 12.4157 3.33545C12.6213 3.6847 12.402 4.15932 12.2751 4.50171L10.6016 8.42867ZM8.92587 3.41444C8.64193 3.46171 8.46959 3.57442 8.56064 3.82527L8.94018 4.88268C8.99712 5.011 9.02803 5.14411 9.08337 5.27144L10.0059 7.25296L10.3128 6.59727L11.4232 3.80615C11.5908 3.31371 10.7488 3.4155 10.4613 3.41484L8.92587 3.41444Z" fill="#5549EF"/>
</svg>
