<svg width="19" height="24" viewBox="0 0 19 24" fill="none" xmlns="http://www.w3.org/2000/svg">
<path d="M8.68571 23.7333C8.95714 23.8667 9.22857 24 9.5 24C9.77143 24 10.0429 23.8667 10.3143 23.7333C10.7214 23.4667 19 17.0667 19 9.33333C19 4.13333 14.7929 0 9.5 0C4.20714 0 0 4.13333 0 9.33333C0 17.0667 8.27857 23.4667 8.68571 23.7333ZM9.5 5.33333C11.8071 5.33333 13.5714 7.06667 13.5714 9.33333C13.5714 11.6 11.8071 13.3333 9.5 13.3333C7.19286 13.3333 5.42857 11.6 5.42857 9.33333C5.42857 7.06667 7.19286 5.33333 9.5 5.33333Z" fill="#5549EF"/>
</svg>
