<svg width="16" height="18" viewBox="0 0 16 18" fill="none" xmlns="http://www.w3.org/2000/svg">
<path d="M15 7.30293C15 12.4029 8 17.5029 8 17.5029C8 17.5029 1 12.4029 1 7.30293C1 5.49946 1.7375 3.76985 3.05025 2.4946C4.36301 1.21936 6.14348 0.50293 8 0.50293C9.85652 0.50293 11.637 1.21936 12.9497 2.4946C14.2625 3.76985 15 5.49946 15 7.30293Z" stroke="#5549EF" stroke-linecap="round" stroke-linejoin="round"/>
<path d="M8 9.85293C9.44975 9.85293 10.625 8.71126 10.625 7.30293C10.625 5.8946 9.44975 4.75293 8 4.75293C6.55025 4.75293 5.375 5.8946 5.375 7.30293C5.375 8.71126 6.55025 9.85293 8 9.85293Z" stroke="#5549EF" stroke-linecap="round" stroke-linejoin="round"/>
</svg>
