<svg width="41" height="36" viewBox="0 0 41 36" fill="none" xmlns="http://www.w3.org/2000/svg">
<path d="M39.5 18.9501V5.6501C39.5 4.64227 39.0996 3.67573 38.387 2.96309C37.6744 2.25045 36.7078 1.8501 35.7 1.8501H5.3C4.29218 1.8501 3.32563 2.25045 2.61299 2.96309C1.90036 3.67573 1.5 4.64227 1.5 5.6501V28.4501C1.5 30.5401 3.21 32.2501 5.3 32.2501H20.5M39.5 7.5501L22.457 18.3801C21.8704 18.7476 21.1922 18.9425 20.5 18.9425C19.8078 18.9425 19.1296 18.7476 18.543 18.3801L1.5 7.5501M28.1 30.3501L31.9 34.1501L39.5 26.5501" stroke="#5549EF" stroke-width="1.9" stroke-linecap="round" stroke-linejoin="round"/>
</svg>
