<svg width="40" height="40" viewBox="0 0 40 40" fill="none" xmlns="http://www.w3.org/2000/svg">
<rect width="40" height="40" rx="20" fill="white"/>
<path d="M18.4889 27.1959C18.6377 27.4394 18.8564 27.6425 19.1222 27.7839C19.388 27.9254 19.6912 28 20 28C20.3088 28 20.612 27.9254 20.8778 27.7839C21.1436 27.6425 21.3623 27.4394 21.5111 27.1959M14.6667 16.7987C14.6667 15.526 15.2286 14.3054 16.2288 13.4055C17.229 12.5056 18.5855 12 20 12C21.4145 12 22.771 12.5056 23.7712 13.4055C24.7714 14.3054 25.3333 15.526 25.3333 16.7987C25.3333 22.3972 28 23.9968 28 23.9968H12C12 23.9968 14.6667 22.3972 14.6667 16.7987Z" stroke="#5549EF" stroke-linecap="round" stroke-linejoin="round"/>
</svg>
