<svg width="20" height="29" viewBox="0 0 20 29" fill="none" xmlns="http://www.w3.org/2000/svg">
<path d="M11.0105 17.1025L10.2452 12.5478C10.0621 12.3501 9.77498 12.3653 9.72792 12.6572L7.04283 27.7558C6.85939 28.4835 5.82934 28.7309 5.21708 28.8617C4.38227 29.0401 3.43449 29.0693 2.60943 28.809C2.30311 28.7123 2.0131 28.5688 1.71262 28.4557L0.797511 28.1029C0.259483 27.9012 -0.0694608 27.9138 0.0124573 27.2001L0.9324 20.7838L2.49888 9.27619L2.64114 7.07536L2.91855 5.20178C3.0984 4.27226 3.40291 3.39599 3.13332 2.43996C3.05109 2.14837 2.93784 1.88609 2.90816 1.57879C2.82128 0.679524 3.53166 0.082397 4.35072 0.00713439C4.58948 -0.00874633 4.84076 0.00682856 5.0808 0.0069294L15.2797 0.00762231C16.0814 0.00911865 16.667 0.134808 16.9884 0.984283C17.1113 1.30925 17.0822 1.71541 16.9992 2.04607L16.8209 2.6583C16.6555 3.14776 16.8845 4.38862 17.0066 4.86338C17.0634 5.08403 17.0753 5.32139 17.12 5.545C17.2736 6.31155 17.3499 7.10851 17.3989 7.88992L17.7225 11.0578L19.3953 23.2957C19.4041 23.3881 19.4277 23.4766 19.441 23.5683L19.9714 27.1585C20.0674 27.7829 19.9407 27.8454 19.3035 28.0674L17.6649 28.6429C16.5707 29.0286 14.6541 29.0069 13.6135 28.4809C13.3625 28.354 13.0777 28.142 12.9867 27.8574L12.9788 27.8316C12.8826 27.5245 12.8484 27.1769 12.7866 26.8587L11.0105 17.1025ZM4.50594 1.01366C3.64602 1.05917 3.87271 1.51034 4.05615 2.10966C4.141 2.38687 4.17773 2.65215 4.20191 2.94062L15.5265 2.92949L15.8155 2.93343C15.8379 2.71929 15.8535 2.51553 15.9051 2.30571C15.9928 1.94959 16.417 1.08873 15.6977 1.0182L4.50594 1.01366ZM6.17074 3.92664L4.18119 3.93542C4.14103 4.06665 3.95555 4.88771 3.95841 5.01035C4.2164 5.03657 4.48881 5.01279 4.74884 5.01158L6.27118 5.00999L8.48631 5.01617L8.48634 4.28137C8.48625 4.16915 8.50013 4.03942 8.47779 3.9309L6.17074 3.92664ZM11.8422 3.92664C11.7689 3.92866 11.5649 3.91168 11.5106 3.94645L11.5099 5.0217L15.7091 5.00999L16.048 5.01012L15.8688 4.13974C15.8556 4.07302 15.8608 3.99804 15.8327 3.93702L11.8422 3.92664ZM9.47988 3.93217L9.47432 7.82627C9.47438 8.0191 9.46154 8.22328 9.47635 8.41472C9.50692 8.81056 9.96376 9.47829 10.2992 8.92464C10.559 8.49744 10.519 8.02473 10.5192 7.54635L10.5189 4.70539C10.5188 4.45251 10.5357 4.1859 10.513 3.93445L9.47988 3.93217ZM3.87875 6.00587L3.78482 6.01862C3.74046 6.09698 3.73122 6.24597 3.71666 6.33532L3.61415 7.13512C3.60135 7.24718 3.5798 7.35619 3.57227 7.46932L3.55546 8.066C3.5201 8.64434 3.384 8.8307 3.99162 8.2615C4.59558 7.58243 4.67655 6.87342 4.6747 6.01368L3.87875 6.00587ZM5.76922 6.00587L5.67895 6.02191C5.66611 6.20257 5.67078 6.38266 5.65165 6.56365C5.52201 7.79032 4.96237 9.1706 3.75517 9.65456C3.6974 9.67772 3.42515 9.74158 3.40704 9.7662C3.37488 9.80996 3.08305 12.216 3.04676 12.4725L1.67535 22.3669L1.1663 25.956C1.11724 26.3266 1.0915 26.7268 1.00056 27.0886C1.17294 27.1984 2.89167 27.8398 3.06192 27.8771C3.71987 28.0213 4.66825 27.9771 5.30539 27.7847C5.58171 27.7012 5.84243 27.5824 6.11367 27.4856L8.5959 13.7113L8.7198 12.9143C8.74967 12.7132 8.76749 12.5041 8.82583 12.3086C9.21696 10.9976 10.9866 11.1428 11.2152 12.514L12.0886 17.6897L13.843 27.2597C13.8987 27.5183 13.868 27.4866 14.1235 27.5848C15.1414 27.9756 16.4074 27.9686 17.4319 27.6357C17.738 27.5362 18.0317 27.3987 18.3393 27.3039L18.7775 27.1749C18.8457 27.1558 18.9303 27.148 18.9928 27.1157L16.5557 9.74939C15.9677 9.64738 15.3659 9.11666 15.0239 8.62007C14.4924 7.84825 14.3381 6.93383 14.3312 6.00867L11.5079 6.01439L11.5074 7.16553C11.5067 8.00004 11.5275 9.08033 10.9025 9.71754C10.4169 10.2127 9.56545 10.2492 9.07845 9.74031C8.30128 8.92816 8.48685 7.6807 8.4864 6.64471C8.48631 6.44182 8.50893 6.2081 8.47932 6.0085L5.76922 6.00587ZM15.4072 6.00587L15.3263 6.01862C15.1973 6.99703 15.6144 8.02557 16.4078 8.59327L16.4553 8.61236C16.4767 8.43466 16.4244 7.48601 16.4055 7.31393C16.3582 6.88207 16.2619 6.44667 16.2327 6.01462L15.4072 6.00587Z" fill="#5549EF"/>
</svg>
