<svg width="21" height="19" viewBox="0 0 21 19" fill="none" xmlns="http://www.w3.org/2000/svg">
<path d="M10.4444 2.70945C11.8611 1.29278 13.0322 0.820557 14.6944 0.820557C16.0721 0.820557 17.3933 1.36783 18.3675 2.34197C19.3416 3.31612 19.8889 4.63735 19.8889 6.015C19.8889 8.17778 18.4628 9.83056 17.0556 11.2094L10.4444 17.8206L3.83333 11.2094C2.41667 9.84 1 8.18722 1 6.015C1 4.63735 1.54727 3.31612 2.52142 2.34197C3.49557 1.36783 4.81679 0.820557 6.19444 0.820557C7.85667 0.820557 9.02778 1.29278 10.4444 2.70945ZM10.4444 2.70945L7.64887 5.505C7.45698 5.6955 7.30468 5.92209 7.20075 6.17171C7.09682 6.42133 7.04331 6.68905 7.04331 6.95945C7.04331 7.22984 7.09682 7.49756 7.20075 7.74718C7.30468 7.9968 7.45698 8.22339 7.64887 8.41389C8.42332 9.18833 9.66054 9.21667 10.4822 8.48L12.4372 6.68556C12.9272 6.24091 13.5652 5.99459 14.2269 5.99459C14.8886 5.99459 15.5266 6.24091 16.0166 6.68556L18.8122 9.19778M16.1111 12.1539L14.2222 10.265M13.2778 14.9872L11.3889 13.0983" stroke="#5549EF" stroke-linecap="round" stroke-linejoin="round"/>
</svg>
