<svg width="63" height="60" viewBox="0 0 63 60" fill="none" xmlns="http://www.w3.org/2000/svg">
<path d="M49.8 42.3998V20.1998C49.8 17.7998 47.8 15.7998 45.4 15.7998H43.2M43.2 15.7998H38.1M43.2 15.7998H19.8M43.2 15.7998H43.1V8.1998C43.1 4.3998 40 1.2998 36.2 1.2998H26.7C22.9 1.2998 19.8 4.3998 19.8 8.1998V15.7998M38.1 15.7998H24.9M38.1 15.7998H38.2V8.1998C38.2 6.7998 37.1 5.6998 35.7 5.6998H27.4C26 5.6998 24.9 6.7998 24.9 8.1998L24.9 15.7998M24.9 15.7998H19.8M19.8 15.7998H17.6C15.2 15.7998 13.2 17.7998 13.2 20.1998V42.2998M28.4 47.9998L34.6 53.0998M34.6 47.9998L28.4 53.0998M31.5 54.1998V46.8998M5.89999 47.9998L12 53.0998M12 47.9998L5.89999 53.0998M8.89999 54.1998V46.8998M17.2 47.9998L23.3 53.0998M23.3 47.9998L17.2 53.0998M20.2 54.1998V46.8998M39.7 47.9998L45.8 53.0998M45.8 47.9998L39.7 53.0998M42.8 54.1998V46.8998M51 47.9998L57.1 53.0998M57.1 47.9998L51 53.0998M54.1 54.1998V46.8998M57.7 58.6998H5.29999C3.39999 58.6998 1.79999 57.0998 1.79999 55.1998V45.8998C1.79999 43.9998 3.39999 42.3998 5.29999 42.3998H57.7C59.6 42.3998 61.2 43.9998 61.2 45.8998V55.1998C61.2 57.0998 59.6 58.6998 57.7 58.6998ZM33.9 30.6998V35.6998C33.9 36.9998 32.8 38.0998 31.5 38.0998C30.2 38.0998 29.1 36.9998 29.1 35.6998V30.6998C27 29.6998 25.7 27.3998 26.2 24.8998C26.6 22.7998 28.2 21.0998 30.3 20.5998C33.8 19.8998 36.9 22.4998 36.9 25.8998C36.9 27.9998 35.7 29.7998 33.9 30.6998Z" stroke="#5549EF" stroke-width="2" stroke-miterlimit="10" stroke-linecap="round" stroke-linejoin="round"/>
<path d="M33.7758 27.2301L33.7764 27.2307L35.3135 28.645L35.7488 29.0455L36.1841 28.645L40.0822 25.0582C40.6841 24.5044 41.684 24.5044 42.2859 25.0582C42.857 25.5837 42.857 26.4152 42.2859 26.9407L37.0376 31.7698C37.0021 31.8024 36.9882 31.8148 36.9764 31.8242L36.9499 31.8453L36.9259 31.8691L36.8991 31.8958L36.8807 31.9142L36.8702 31.9243C36.8679 31.9264 36.867 31.9272 36.8671 31.9272L36.8587 31.9343L36.8506 31.9418C36.2487 32.4956 35.2488 32.4956 34.647 31.9418L31.5728 29.1132L31.5722 29.1126C30.9997 28.5872 30.9997 27.7567 31.5722 27.2312L31.5722 27.2312L31.5734 27.2301C32.1751 26.6751 33.1741 26.6751 33.7758 27.2301Z" fill="#5549EF" stroke="#F7F7FF" stroke-width="1.28571"/>
</svg>
