<svg width="40" height="40" viewBox="0 0 40 40" fill="none" xmlns="http://www.w3.org/2000/svg">
<rect width="40" height="40" rx="20" fill="#5549EF"/>
<path d="M23.75 13.25C23.941 13.0243 24.1773 12.8405 24.4438 12.7105C24.7102 12.5805 25.0011 12.507 25.2977 12.4948C25.5944 12.4825 25.8904 12.5318 26.1668 12.6394C26.4432 12.747 26.694 12.9107 26.9032 13.1199C27.1124 13.3291 27.2755 13.5793 27.3819 13.8545C27.4883 14.1298 27.5359 14.424 27.5215 14.7185C27.507 15.013 27.431 15.3012 27.2982 15.5649C27.1653 15.8286 26.9787 16.0619 26.75 16.25L16.625 26.375L12.5 27.5L13.625 23.375L23.75 13.25Z" stroke="#F7F7FF" stroke-linecap="round" stroke-linejoin="round"/>
<path d="M22.25 14.75L25.25 17.75" stroke="#F7F7FF" stroke-width="0.75" stroke-linecap="round" stroke-linejoin="round"/>
</svg>
