<svg width="22" height="22" viewBox="0 0 22 22" fill="none" xmlns="http://www.w3.org/2000/svg">
<rect x="0.25" y="0.25" width="21.5" height="21.5" rx="10.75" fill="white"/>
<rect x="0.25" y="0.25" width="21.5" height="21.5" rx="10.75" stroke="#5549EF" stroke-width="0.5"/>
<path d="M12.1823 6.67528C12.3449 6.48306 12.538 6.33058 12.7505 6.22654C12.9631 6.12251 13.1908 6.06897 13.4209 6.06897C13.6509 6.06897 13.8787 6.12251 14.0912 6.22654C14.3037 6.33058 14.4968 6.48306 14.6594 6.67528C14.8221 6.86751 14.9511 7.09571 15.0391 7.34687C15.1272 7.59802 15.1725 7.86721 15.1725 8.13905C15.1725 8.4109 15.1272 8.68008 15.0391 8.93124C14.9511 9.18239 14.8221 9.4106 14.6594 9.60282L10.1222 14.9453L6.82764 15.931L7.65335 12.0375L12.1823 6.67528Z" stroke="#5549EF" stroke-width="0.944061" stroke-linecap="round" stroke-linejoin="round"/>
</svg>
