<svg width="58" height="58" viewBox="0 0 58 58" fill="none" xmlns="http://www.w3.org/2000/svg">
<mask id="path-1-inside-1_780_7210" fill="white">
<path d="M-1.01765e-05 29C-9.92575e-06 23.2643 1.70081 17.6575 4.88737 12.8885C8.07393 8.11944 12.6031 4.40243 17.9022 2.20749C23.2012 0.0125488 29.0322 -0.561746 34.6576 0.557227C40.2831 1.6762 45.4504 4.43818 49.5061 8.4939C53.5618 12.5496 56.3238 17.7169 57.4428 23.3424C58.5617 28.9678 57.9874 34.7988 55.7925 40.0978C53.5976 45.3969 49.8805 49.9261 45.1115 53.1126C40.3425 56.2992 34.7356 58 29 58L29 52.964C33.7396 52.964 38.3728 51.5585 42.3137 48.9253C46.2545 46.2921 49.3261 42.5495 51.1398 38.1706C52.9536 33.7918 53.4282 28.9734 52.5035 24.3249C51.5789 19.6763 49.2965 15.4063 45.9451 12.0549C42.5937 8.70347 38.3237 6.42112 33.6751 5.49647C29.0266 4.57181 24.2082 5.04638 19.8294 6.86016C15.4505 8.67393 11.7079 11.7455 9.07466 15.6863C6.44146 19.6272 5.03599 24.2604 5.03599 29L-1.01765e-05 29Z"/>
</mask>
<path d="M-1.01765e-05 29L-5.68629 29L-5.68629 34.6863L-1.0425e-05 34.6863L-1.01765e-05 29ZM4.88737 12.8885L0.159407 9.72934L4.88737 12.8885ZM17.9022 2.20749L15.7261 -3.04594L17.9022 2.20749ZM34.6576 0.557227L35.7669 -5.01979L34.6576 0.557227ZM49.5061 8.4939L45.4853 12.5147L49.5061 8.4939ZM57.4428 23.3424L51.8657 24.4517L57.4428 23.3424ZM55.7925 40.0978L50.5391 37.9218L55.7925 40.0978ZM29 58L23.3137 58L23.3137 63.6863L29 63.6863L29 58ZM29 52.964L29 47.2777L23.3137 47.2777L23.3137 52.964L29 52.964ZM42.3137 48.9253L39.1545 44.1974L42.3137 48.9253ZM51.1398 38.1706L45.8864 35.9946L51.1398 38.1706ZM52.5035 24.3249L46.9265 25.4342L52.5035 24.3249ZM45.9451 12.0549L49.9659 8.03409L45.9451 12.0549ZM33.6751 5.49647L34.7845 -0.0805483L33.6751 5.49647ZM19.8294 6.86016L22.0054 12.1136L19.8294 6.86016ZM9.07466 15.6863L13.8026 18.8454L9.07466 15.6863ZM5.03599 29L5.03599 34.6863L10.7223 34.6863L10.7223 29L5.03599 29ZM5.68626 29C5.68626 24.389 7.05359 19.8815 9.61534 16.0476L0.159407 9.72934C-3.65197 15.4335 -5.68629 22.1397 -5.68629 29L5.68626 29ZM9.61534 16.0476C12.1771 12.2137 15.8182 9.22548 20.0782 7.46092L15.7261 -3.04594C9.38804 -0.420618 3.97078 4.02521 0.159407 9.72934L9.61534 16.0476ZM20.0782 7.46092C24.3382 5.69636 29.0259 5.23468 33.5483 6.13424L35.7669 -5.01979C29.0385 -6.35816 22.0642 -5.67126 15.7261 -3.04594L20.0782 7.46092ZM33.5483 6.13424C38.0707 7.0338 42.2248 9.25422 45.4853 12.5147L53.5269 4.4731C48.6759 -0.377861 42.4954 -3.68141 35.7669 -5.01979L33.5483 6.13424ZM45.4853 12.5147C48.7458 15.7752 50.9662 19.9293 51.8657 24.4517L63.0198 22.233C61.6814 15.5046 58.3779 9.32406 53.5269 4.4731L45.4853 12.5147ZM51.8657 24.4517C52.7653 28.9741 52.3036 33.6618 50.5391 37.9218L61.0459 42.2739C63.6712 35.9358 64.3582 28.9615 63.0198 22.233L51.8657 24.4517ZM50.5391 37.9218C48.7745 42.1818 45.7863 45.8229 41.9524 48.3847L48.2706 57.8406C53.9748 54.0292 58.4206 48.612 61.0459 42.2739L50.5391 37.9218ZM41.9524 48.3847C38.1185 50.9464 33.611 52.3137 29 52.3137L29 63.6863C35.8603 63.6863 42.5665 61.652 48.2706 57.8406L41.9524 48.3847ZM34.6863 58L34.6863 52.964L23.3137 52.964L23.3137 58L34.6863 58ZM29 58.6503C34.8643 58.6503 40.5968 56.9113 45.4728 53.6533L39.1545 44.1974C36.1488 46.2058 32.615 47.2777 29 47.2777L29 58.6503ZM45.4728 53.6533C50.3488 50.3953 54.1491 45.7645 56.3933 40.3467L45.8864 35.9946C44.503 39.3344 42.1603 42.189 39.1545 44.1974L45.4728 53.6533ZM56.3933 40.3467C58.6374 34.9288 59.2246 28.9671 58.0805 23.2155L46.9265 25.4342C47.6318 28.9797 47.2698 32.6548 45.8864 35.9946L56.3933 40.3467ZM58.0805 23.2155C56.9365 17.4639 54.1126 12.1808 49.9659 8.03409L41.9243 16.0757C44.4805 18.6319 46.2213 21.8887 46.9265 25.4342L58.0805 23.2155ZM49.9659 8.03409C45.8192 3.88743 40.5361 1.06351 34.7845 -0.0805483L32.5658 11.0735C36.1113 11.7787 39.3681 13.5195 41.9243 16.0757L49.9659 8.03409ZM34.7845 -0.0805483C29.0329 -1.22461 23.0712 -0.637437 17.6533 1.60672L22.0054 12.1136C25.3452 10.7302 29.0203 10.3682 32.5658 11.0735L34.7845 -0.0805483ZM17.6533 1.60672C12.2354 3.85088 7.6047 7.65123 4.34669 12.5272L13.8026 18.8454C15.811 15.8397 18.6656 13.497 22.0054 12.1136L17.6533 1.60672ZM4.34669 12.5272C1.08868 17.4032 -0.650282 23.1357 -0.650283 29L10.7223 29C10.7223 25.385 11.7942 21.8512 13.8026 18.8454L4.34669 12.5272ZM5.03599 23.3137L-9.92791e-06 23.3137L-1.0425e-05 34.6863L5.03599 34.6863L5.03599 23.3137Z" fill="#D9D9D9" mask="url(#path-1-inside-1_780_7210)"/>
<mask id="path-3-inside-2_780_7210" fill="white">
<path d="M29 58C21.3087 58 13.9325 54.9447 8.49391 49.5061C3.05535 44.0675 1.61979e-06 36.6913 0 29C-1.61979e-06 21.3087 3.05534 13.9325 8.4939 8.49391C13.9324 3.05535 21.3087 3.57577e-06 29 0L29 5.03601C22.6443 5.03601 16.549 7.56078 12.0549 12.0549C7.56077 16.549 5.036 22.6444 5.03601 29C5.03601 35.3557 7.56078 41.451 12.0549 45.9451C16.549 50.4392 22.6444 52.964 29 52.964V58Z"/>
</mask>
<path d="M29 58V63.6863H34.6863V58H29ZM8.49391 49.5061L4.4731 53.5269L8.49391 49.5061ZM29 0L34.6863 -2.64362e-06L34.6863 -5.68628L29 -5.68627L29 0ZM29 5.03601L29 10.7223L34.6863 10.7223V5.036L29 5.03601ZM29 52.964L34.6863 52.964V47.2777H29L29 52.964ZM29 52.3137C22.8168 52.3137 16.8869 49.8575 12.5147 45.4853L4.4731 53.5269C10.978 60.0318 19.8006 63.6863 29 63.6863V52.3137ZM12.5147 45.4853C8.14254 41.1131 5.68628 35.1832 5.68627 29L-5.68627 29C-5.68627 38.1994 -2.03184 47.022 4.4731 53.5269L12.5147 45.4853ZM5.68627 29C5.68627 22.8168 8.14253 16.8869 12.5147 12.5147L4.47309 4.47311C-2.03184 10.978 -5.68628 19.8006 -5.68627 29L5.68627 29ZM12.5147 12.5147C16.8869 8.14254 22.8168 5.68628 29 5.68627L29 -5.68627C19.8006 -5.68627 10.978 -2.03183 4.47309 4.47311L12.5147 12.5147ZM23.3137 2.64362e-06L23.3137 5.03601L34.6863 5.036L34.6863 -2.64362e-06L23.3137 2.64362e-06ZM29 -0.650269C21.1362 -0.650265 13.5946 2.4736 8.03409 8.0341L16.0757 16.0757C19.5034 12.648 24.1524 10.7223 29 10.7223L29 -0.650269ZM8.03409 8.0341C2.47359 13.5946 -0.650271 21.1363 -0.650269 29L10.7223 29C10.7223 24.1525 12.648 19.5034 16.0757 16.0757L8.03409 8.0341ZM-0.650269 29C-0.650267 36.8637 2.47359 44.4054 8.0341 49.9659L16.0757 41.9243C12.648 38.4966 10.7223 33.8476 10.7223 29L-0.650269 29ZM8.0341 49.9659C13.5946 55.5264 21.1363 58.6503 29 58.6503L29 47.2777C24.1524 47.2777 19.5034 45.352 16.0757 41.9243L8.0341 49.9659ZM23.3137 52.964V58H34.6863V52.964L23.3137 52.964Z" fill="#5549EF" mask="url(#path-3-inside-2_780_7210)"/>
<path d="M18.1727 33.196V31.9296L22.0909 27.87C22.5093 27.429 22.8542 27.0426 23.1255 26.7109C23.4007 26.3755 23.6061 26.057 23.7418 25.7554C23.8775 25.4539 23.9454 25.1335 23.9454 24.7943C23.9454 24.4098 23.8549 24.0781 23.674 23.7992C23.4931 23.5165 23.2462 23.2997 22.9333 23.1489C22.6205 22.9944 22.268 22.9171 21.876 22.9171C21.4614 22.9171 21.0995 23.0019 20.7905 23.1716C20.4814 23.3412 20.2439 23.5805 20.0781 23.8896C19.9122 24.1987 19.8293 24.5606 19.8293 24.9752H18.1614C18.1614 24.2703 18.3234 23.654 18.6476 23.1263C18.9718 22.5986 19.4165 22.1897 19.9819 21.8994C20.5473 21.6054 21.19 21.4584 21.9099 21.4584C22.6374 21.4584 23.2782 21.6035 23.8323 21.8938C24.3901 22.1802 24.8255 22.5722 25.1384 23.0698C25.4512 23.5636 25.6076 24.1214 25.6076 24.7434C25.6076 25.1731 25.5266 25.5933 25.3645 26.0042C25.2062 26.4151 24.9292 26.873 24.5334 27.3781C24.1376 27.8794 23.5873 28.4882 22.8824 29.2043L20.5813 31.6129V31.6977H25.7942V33.196H18.1727ZM32.3698 21.0739L28.6382 34.9375H27.1286L30.8602 21.0739H32.3698ZM33.5401 30.9345V29.521L38.5439 21.6167H39.6577V23.6974H38.951L35.372 29.3627V29.4531H42.2303V30.9345H33.5401ZM39.0302 33.196V30.5048L39.0415 29.8602V21.6167H40.6981V33.196H39.0302Z" fill="#0B1215"/>
</svg>
