<svg width="58" height="58" viewBox="0 0 58 58" fill="none" xmlns="http://www.w3.org/2000/svg">
<mask id="path-1-inside-1_780_7155" fill="white">
<path d="M29 -1.01765e-05C34.7357 -9.92575e-06 40.3425 1.70081 45.1115 4.88737C49.8806 8.07393 53.5976 12.6031 55.7925 17.9022C57.9875 23.2012 58.5617 29.0322 57.4428 34.6576C56.3238 40.2831 53.5618 45.4504 49.5061 49.5061C45.4504 53.5618 40.2831 56.3238 34.6576 57.4428C29.0322 58.5617 23.2012 57.9874 17.9022 55.7925C12.6031 53.5976 8.07394 49.8805 4.88738 45.1115C1.70082 40.3425 9.4852e-07 34.7356 1.26763e-06 29L5.03601 29C5.03601 33.7396 6.44147 38.3728 9.07467 42.3137C11.7079 46.2545 15.4505 49.3261 19.8294 51.1398C24.2082 52.9536 29.0266 53.4282 33.6751 52.5035C38.3237 51.5789 42.5937 49.2965 45.9451 45.9451C49.2965 42.5937 51.5789 38.3237 52.5035 33.6751C53.4282 29.0266 52.9536 24.2082 51.1398 19.8294C49.3261 15.4505 46.2545 11.7079 42.3137 9.07466C38.3728 6.44146 33.7396 5.03599 29 5.03599L29 -1.01765e-05Z"/>
</mask>
<path d="M29 -1.01765e-05L29 -5.68629L23.3137 -5.68629L23.3137 -1.0425e-05L29 -1.01765e-05ZM45.1115 4.88737L48.2707 0.159407L45.1115 4.88737ZM55.7925 17.9022L61.0459 15.7261L55.7925 17.9022ZM57.4428 34.6576L63.0198 35.7669L57.4428 34.6576ZM49.5061 49.5061L45.4853 45.4853L49.5061 49.5061ZM34.6576 57.4428L33.5483 51.8657L34.6576 57.4428ZM17.9022 55.7925L20.0782 50.5391L17.9022 55.7925ZM1.26763e-06 29L1.58399e-06 23.3137L-5.68627 23.3137L-5.68627 29L1.26763e-06 29ZM5.03601 29L10.7223 29L10.7223 23.3137L5.03601 23.3137L5.03601 29ZM9.07467 42.3137L13.8026 39.1545L9.07467 42.3137ZM19.8294 51.1398L22.0054 45.8864L19.8294 51.1398ZM33.6751 52.5035L32.5658 46.9265L33.6751 52.5035ZM45.9451 45.9451L49.9659 49.9659L45.9451 45.9451ZM52.5035 33.6751L58.0805 34.7845L52.5035 33.6751ZM51.1398 19.8294L45.8864 22.0054L51.1398 19.8294ZM42.3137 9.07466L39.1546 13.8026L42.3137 9.07466ZM29 5.03599L23.3137 5.03599L23.3137 10.7223L29 10.7223L29 5.03599ZM29 5.68626C33.611 5.68626 38.1185 7.05359 41.9524 9.61534L48.2707 0.159407C42.5665 -3.65197 35.8603 -5.68629 29 -5.68629L29 5.68626ZM41.9524 9.61534C45.7863 12.1771 48.7745 15.8182 50.5391 20.0782L61.0459 15.7261C58.4206 9.38804 53.9748 3.97078 48.2707 0.159407L41.9524 9.61534ZM50.5391 20.0782C52.3036 24.3382 52.7653 29.0259 51.8658 33.5483L63.0198 35.7669C64.3582 29.0385 63.6713 22.0642 61.0459 15.7261L50.5391 20.0782ZM51.8658 33.5483C50.9662 38.0707 48.7458 42.2248 45.4853 45.4853L53.5269 53.5269C58.3779 48.6759 61.6814 42.4954 63.0198 35.7669L51.8658 33.5483ZM45.4853 45.4853C42.2248 48.7458 38.0707 50.9662 33.5483 51.8657L35.767 63.0198C42.4954 61.6814 48.6759 58.3779 53.5269 53.5269L45.4853 45.4853ZM33.5483 51.8657C29.0259 52.7653 24.3382 52.3036 20.0782 50.5391L15.7261 61.0459C22.0642 63.6712 29.0385 64.3582 35.767 63.0198L33.5483 51.8657ZM20.0782 50.5391C15.8182 48.7745 12.1771 45.7863 9.61535 41.9524L0.159417 48.2706C3.97079 53.9748 9.38805 58.4206 15.7261 61.0459L20.0782 50.5391ZM9.61535 41.9524C7.0536 38.1185 5.68628 33.611 5.68628 29L-5.68627 29C-5.68627 35.8603 -3.65196 42.5665 0.159417 48.2706L9.61535 41.9524ZM9.51268e-07 34.6863L5.03601 34.6863L5.03601 23.3137L1.58399e-06 23.3137L9.51268e-07 34.6863ZM-0.650268 29C-0.650268 34.8643 1.08869 40.5968 4.3467 45.4728L13.8026 39.1545C11.7942 36.1488 10.7223 32.615 10.7223 29L-0.650268 29ZM4.3467 45.4728C7.60472 50.3488 12.2355 54.1491 17.6533 56.3933L22.0054 45.8864C18.6656 44.503 15.811 42.1603 13.8026 39.1545L4.3467 45.4728ZM17.6533 56.3933C23.0712 58.6374 29.0329 59.2246 34.7845 58.0805L32.5658 46.9265C29.0203 47.6318 25.3452 47.2698 22.0054 45.8864L17.6533 56.3933ZM34.7845 58.0805C40.5361 56.9365 45.8192 54.1126 49.9659 49.9659L41.9243 41.9243C39.3681 44.4805 36.1113 46.2213 32.5658 46.9265L34.7845 58.0805ZM49.9659 49.9659C54.1126 45.8192 56.9365 40.5361 58.0805 34.7845L46.9265 32.5658C46.2213 36.1113 44.4805 39.3681 41.9243 41.9243L49.9659 49.9659ZM58.0805 34.7845C59.2246 29.0329 58.6374 23.0712 56.3933 17.6533L45.8864 22.0054C47.2698 25.3452 47.6318 29.0203 46.9265 32.5658L58.0805 34.7845ZM56.3933 17.6533C54.1491 12.2354 50.3488 7.6047 45.4728 4.34669L39.1546 13.8026C42.1603 15.811 44.503 18.6656 45.8864 22.0054L56.3933 17.6533ZM45.4728 4.34669C40.5968 1.08868 34.8643 -0.650282 29 -0.650283L29 10.7223C32.615 10.7223 36.1488 11.7942 39.1546 13.8026L45.4728 4.34669ZM34.6863 5.03599L34.6863 -9.92791e-06L23.3137 -1.0425e-05L23.3137 5.03599L34.6863 5.03599Z" fill="#D9D9D9" mask="url(#path-1-inside-1_780_7155)"/>
<mask id="path-3-inside-2_780_7155" fill="white">
<path d="M0.218453 32.5528C-0.290188 28.4323 0.0918692 24.2505 1.33879 20.2904C2.58571 16.3302 4.66842 12.684 7.4461 9.59822C10.2238 6.51243 13.6317 4.05904 17.4393 2.40394C21.247 0.748843 25.3656 -0.0693779 29.5168 0.00460504L29.427 5.03981C25.9967 4.97867 22.5933 5.65481 19.4469 7.02249C16.3005 8.39017 13.4844 10.4175 11.189 12.9674C8.89373 15.5174 7.17269 18.5304 6.14231 21.8029C5.11192 25.0753 4.79621 28.5308 5.21652 31.9358L0.218453 32.5528Z"/>
</mask>
<path d="M0.218453 32.5528L-5.42499 33.2494L-4.72836 38.8929L0.91508 38.1962L0.218453 32.5528ZM1.33879 20.2904L-4.08498 18.5826L1.33879 20.2904ZM17.4393 2.40394L19.7061 7.61885L17.4393 2.40394ZM29.5168 0.00460504L35.2021 0.105931L35.3035 -5.57944L29.6181 -5.68077L29.5168 0.00460504ZM29.427 5.03981L29.3257 10.7252L35.0111 10.8265L35.1124 5.14114L29.427 5.03981ZM19.4469 7.02249L21.7137 12.2374L19.4469 7.02249ZM5.21652 31.9358L5.91315 37.5793L11.5566 36.8827L10.86 31.2392L5.21652 31.9358ZM5.86189 31.8562C5.45299 28.5436 5.76013 25.1818 6.76256 21.9982L-4.08498 18.5826C-5.57639 23.3193 -6.03336 28.3209 -5.42499 33.2494L5.86189 31.8562ZM6.76256 21.9982C7.76498 18.8145 9.43932 15.8832 11.6724 13.4025L3.21984 5.79395C-0.102476 9.48479 -2.59356 13.846 -4.08498 18.5826L6.76256 21.9982ZM11.6724 13.4025C13.9054 10.9218 16.6451 8.94942 19.7061 7.61885L15.1725 -2.81097C10.6183 -0.831343 6.54216 2.1031 3.21984 5.79395L11.6724 13.4025ZM19.7061 7.61885C22.7672 6.28829 26.0782 5.6305 29.4154 5.68998L29.6181 -5.68077C24.653 -5.76926 19.7268 -4.7906 15.1725 -2.81097L19.7061 7.61885ZM23.8314 -0.0967211L23.7417 4.93848L35.1124 5.14114L35.2021 0.105931L23.8314 -0.0967211ZM29.5284 -0.645561C25.2841 -0.721203 21.0731 0.115365 17.1801 1.80758L21.7137 12.2374C24.1135 11.1942 26.7094 10.6786 29.3257 10.7252L29.5284 -0.645561ZM17.1801 1.80758C13.287 3.49979 9.80275 6.00819 6.96279 9.16317L15.4153 16.7717C17.166 14.8268 19.3139 13.2806 21.7137 12.2374L17.1801 1.80758ZM6.96279 9.16317C4.12283 12.3181 1.99342 16.0462 0.71854 20.0951L11.5661 23.5106C12.352 21.0147 13.6646 18.7166 15.4153 16.7717L6.96279 9.16317ZM0.71854 20.0951C-0.55634 24.144 -0.946964 28.4195 -0.426918 32.6325L10.86 31.2392C10.5394 28.6422 10.7802 26.0066 11.5661 23.5106L0.71854 20.0951ZM4.5199 26.2924L-0.478175 26.9094L0.91508 38.1962L5.91315 37.5793L4.5199 26.2924Z" fill="#5549EF" mask="url(#path-3-inside-2_780_7155)"/>
<path d="M22.5658 21.6167V33.196H20.8131V23.3695H20.7452L17.9748 25.1787V23.5051L20.864 21.6167H22.5658ZM30.1308 21.0739L26.3992 34.9375H24.8896L28.6212 21.0739H30.1308ZM31.3012 30.9345V29.521L36.3049 21.6167H37.4188V23.6974H36.712L33.1331 29.3627V29.4531H39.9913V30.9345H31.3012ZM36.7912 33.196V30.5048L36.8025 29.8602V21.6167H38.4591V33.196H36.7912Z" fill="#0B1215"/>
</svg>
