<svg width="58" height="58" viewBox="0 0 58 58" fill="none" xmlns="http://www.w3.org/2000/svg">
<mask id="path-1-inside-1_780_7355" fill="white">
<path d="M58 29C58 34.7357 56.2992 40.3425 53.1126 45.1115C49.9261 49.8806 45.3969 53.5976 40.0978 55.7925C34.7988 57.9874 28.9678 58.5617 23.3424 57.4428C17.7169 56.3238 12.5496 53.5618 8.49392 49.5061C4.43819 45.4504 1.67621 40.2831 0.55724 34.6576C-0.561732 29.0322 0.0125653 23.2012 2.20751 17.9022C4.40245 12.6031 8.11945 8.07394 12.8885 4.88738C17.6575 1.70082 23.2644 -6.8397e-08 29 0V5.03601C24.2604 5.03601 19.6272 6.44147 15.6863 9.07467C11.7455 11.7079 8.67395 15.4505 6.86017 19.8294C5.04639 24.2082 4.57182 29.0266 5.49648 33.6751C6.42114 38.3237 8.70348 42.5937 12.0549 45.9451C15.4063 49.2965 19.6763 51.5789 24.3249 52.5035C28.9734 53.4282 33.7918 52.9536 38.1706 51.1398C42.5495 49.3261 46.2921 46.2545 48.9253 42.3137C51.5585 38.3728 52.964 33.7396 52.964 29H58Z"/>
</mask>
<path d="M58 29H63.6863V23.3137H58V29ZM53.1126 45.1115L57.8406 48.2707L53.1126 45.1115ZM40.0978 55.7925L42.2739 61.0459L40.0978 55.7925ZM23.3424 57.4428L22.2331 63.0198L23.3424 57.4428ZM8.49392 49.5061L12.5147 45.4853L8.49392 49.5061ZM0.55724 34.6576L6.13425 33.5483L0.55724 34.6576ZM2.20751 17.9022L7.46094 20.0782L2.20751 17.9022ZM29 0L34.6863 6.78083e-08V-5.68627H29V0ZM29 5.03601V10.7223H34.6863V5.03601H29ZM15.6863 9.07467L18.8455 13.8026L15.6863 9.07467ZM6.86017 19.8294L12.1136 22.0054L6.86017 19.8294ZM5.49648 33.6751L11.0735 32.5658L5.49648 33.6751ZM12.0549 45.9451L8.03411 49.9659L12.0549 45.9451ZM24.3249 52.5035L23.2155 58.0805L24.3249 52.5035ZM38.1706 51.1398L35.9946 45.8864L38.1706 51.1398ZM48.9253 42.3137L44.1974 39.1546L48.9253 42.3137ZM52.964 29V23.3137H47.2777V29H52.964ZM52.3137 29C52.3137 33.611 50.9464 38.1185 48.3847 41.9524L57.8406 48.2707C61.652 42.5665 63.6863 35.8603 63.6863 29H52.3137ZM48.3847 41.9524C45.8229 45.7863 42.1818 48.7745 37.9218 50.5391L42.2739 61.0459C48.612 58.4206 54.0292 53.9748 57.8406 48.2707L48.3847 41.9524ZM37.9218 50.5391C33.6618 52.3036 28.9741 52.7653 24.4517 51.8658L22.2331 63.0198C28.9615 64.3582 35.9358 63.6713 42.2739 61.0459L37.9218 50.5391ZM24.4517 51.8658C19.9293 50.9662 15.7752 48.7458 12.5147 45.4853L4.47311 53.5269C9.32408 58.3779 15.5046 61.6814 22.2331 63.0198L24.4517 51.8658ZM12.5147 45.4853C9.25424 42.2248 7.03382 38.0707 6.13425 33.5483L-5.01977 35.767C-3.6814 42.4954 -0.377849 48.6759 4.47311 53.5269L12.5147 45.4853ZM6.13425 33.5483C5.23469 29.0259 5.69638 24.3382 7.46094 20.0782L-3.04593 15.7261C-5.67125 22.0642 -6.35815 29.0385 -5.01977 35.767L6.13425 33.5483ZM7.46094 20.0782C9.2255 15.8182 12.2137 12.1771 16.0476 9.61535L9.72935 0.159417C4.02522 3.97079 -0.420603 9.38805 -3.04593 15.7261L7.46094 20.0782ZM16.0476 9.61535C19.8815 7.0536 24.389 5.68627 29 5.68627V-5.68627C22.1397 -5.68627 15.4335 -3.65196 9.72935 0.159417L16.0476 9.61535ZM23.3137 -6.78083e-08V5.03601H34.6863V6.78083e-08L23.3137 -6.78083e-08ZM29 -0.650269C23.1357 -0.650269 17.4032 1.08869 12.5272 4.3467L18.8455 13.8026C21.8512 11.7942 25.385 10.7223 29 10.7223V-0.650269ZM12.5272 4.3467C7.65124 7.60472 3.8509 12.2355 1.60674 17.6533L12.1136 22.0054C13.497 18.6656 15.8397 15.811 18.8455 13.8026L12.5272 4.3467ZM1.60674 17.6533C-0.637422 23.0712 -1.2246 29.0329 -0.0805344 34.7845L11.0735 32.5658C10.3682 29.0203 10.7302 25.3452 12.1136 22.0054L1.60674 17.6533ZM-0.0805344 34.7845C1.06353 40.5361 3.88744 45.8192 8.03411 49.9659L16.0757 41.9243C13.5195 39.3681 11.7787 36.1113 11.0735 32.5658L-0.0805344 34.7845ZM8.03411 49.9659C12.1808 54.1126 17.4639 56.9365 23.2155 58.0805L25.4342 46.9265C21.8887 46.2213 18.6319 44.4805 16.0757 41.9243L8.03411 49.9659ZM23.2155 58.0805C28.9671 59.2246 34.9288 58.6374 40.3467 56.3933L35.9946 45.8864C32.6548 47.2698 28.9797 47.6318 25.4342 46.9265L23.2155 58.0805ZM40.3467 56.3933C45.7646 54.1491 50.3953 50.3488 53.6533 45.4728L44.1974 39.1546C42.189 42.1603 39.3344 44.503 35.9946 45.8864L40.3467 56.3933ZM53.6533 45.4728C56.9113 40.5968 58.6503 34.8643 58.6503 29H47.2777C47.2777 32.615 46.2058 36.1488 44.1974 39.1546L53.6533 45.4728ZM52.964 34.6863H58V23.3137H52.964V34.6863Z" fill="#5549EF" mask="url(#path-1-inside-1_780_7355)"/>
<path d="M22.2039 33.3544C21.4275 33.3544 20.7339 33.2205 20.1233 32.9529C19.5164 32.6853 19.0358 32.314 18.6815 31.8391C18.331 31.3604 18.1425 30.8063 18.1161 30.1768H19.8915C19.9141 30.5198 20.0291 30.8176 20.2364 31.0702C20.4474 31.3189 20.7226 31.5112 21.0618 31.6469C21.4011 31.7826 21.778 31.8504 22.1926 31.8504C22.6487 31.8504 23.052 31.7712 23.4026 31.6129C23.7569 31.4546 24.0339 31.2341 24.2337 30.9514C24.4335 30.665 24.5334 30.3351 24.5334 29.962C24.5334 29.5737 24.4335 29.2326 24.2337 28.9386C24.0377 28.6408 23.7494 28.4071 23.3687 28.2375C22.9917 28.0679 22.5356 27.9831 22.0004 27.9831H21.0223V26.5583H22.0004C22.4301 26.5583 22.807 26.481 23.1312 26.3265C23.4591 26.1719 23.7154 25.9571 23.9001 25.6819C24.0848 25.403 24.1772 25.0769 24.1772 24.7038C24.1772 24.3457 24.0961 24.0347 23.9341 23.7709C23.7757 23.5033 23.5496 23.2941 23.2556 23.1433C22.9653 22.9925 22.6223 22.9171 22.2266 22.9171C21.8496 22.9171 21.4972 22.9869 21.1693 23.1263C20.8451 23.262 20.5813 23.458 20.3777 23.7143C20.1742 23.9669 20.0649 24.2703 20.0498 24.6246H18.3593C18.3781 23.9989 18.5628 23.4486 18.9133 22.9737C19.2677 22.4987 19.735 22.1275 20.3155 21.8598C20.896 21.5922 21.5405 21.4584 22.2492 21.4584C22.9917 21.4584 23.6325 21.6035 24.1715 21.8938C24.7143 22.1802 25.1327 22.5628 25.4267 23.0415C25.7245 23.5202 25.8715 24.0442 25.8677 24.6133C25.8715 25.2616 25.6906 25.812 25.3249 26.2643C24.9631 26.7166 24.4806 27.02 23.8775 27.1746V27.265C24.6465 27.3819 25.242 27.6872 25.6642 28.181C26.0901 28.6748 26.3012 29.2873 26.2974 30.0185C26.3012 30.6555 26.124 31.2266 25.7659 31.7317C25.4116 32.2368 24.9273 32.6344 24.3129 32.9247C23.6985 33.2111 22.9955 33.3544 22.2039 33.3544ZM32.8673 21.0739L29.1357 34.9375H27.6261L31.3577 21.0739H32.8673ZM34.0377 30.9345V29.521L39.0415 21.6167H40.1553V23.6974H39.4485L35.8696 29.3627V29.4531H42.7278V30.9345H34.0377ZM39.5277 33.196V30.5048L39.539 29.8602V21.6167H41.1956V33.196H39.5277Z" fill="#0B1215"/>
</svg>
