<svg width="58" height="58" viewBox="0 0 58 58" fill="none" xmlns="http://www.w3.org/2000/svg">
<mask id="path-1-inside-1_780_7409" fill="white">
<path d="M29 58C23.2643 58 17.6575 56.2992 12.8885 53.1126C8.11944 49.9261 4.40243 45.3969 2.20749 40.0978C0.0125488 34.7988 -0.561746 28.9678 0.557227 23.3424C1.6762 17.7169 4.43818 12.5496 8.4939 8.49391C12.5496 4.43819 17.7169 1.67621 23.3424 0.557238C28.9678 -0.561733 34.7988 0.0125643 40.0978 2.20751C45.3969 4.40245 49.9261 8.11945 53.1126 12.8885C56.2992 17.6575 58 23.2644 58 29L52.964 29C52.964 24.2604 51.5585 19.6272 48.9253 15.6863C46.2921 11.7455 42.5495 8.67395 38.1706 6.86017C33.7918 5.04639 28.9734 4.57182 24.3249 5.49648C19.6763 6.42113 15.4063 8.70348 12.0549 12.0549C8.70347 15.4063 6.42112 19.6763 5.49647 24.3249C4.57181 28.9734 5.04638 33.7918 6.86016 38.1706C8.67393 42.5495 11.7455 46.2921 15.6863 48.9253C19.6272 51.5585 24.2604 52.964 29 52.964L29 58Z"/>
</mask>
<path d="M29 58L29 63.6863L34.6863 63.6863L34.6863 58L29 58ZM12.8885 53.1126L9.72934 57.8406L12.8885 53.1126ZM2.20749 40.0978L-3.04594 42.2739L2.20749 40.0978ZM0.557227 23.3424L-5.01979 22.2331L0.557227 23.3424ZM8.4939 8.49391L12.5147 12.5147L8.4939 8.49391ZM23.3424 0.557238L24.4517 6.13425L23.3424 0.557238ZM40.0978 2.20751L37.9218 7.46094L40.0978 2.20751ZM58 29L58 34.6863L63.6863 34.6863L63.6863 29L58 29ZM52.964 29L47.2777 29L47.2777 34.6863L52.964 34.6863L52.964 29ZM48.9253 15.6863L44.1974 18.8455L48.9253 15.6863ZM38.1706 6.86017L35.9946 12.1136L38.1706 6.86017ZM24.3249 5.49648L25.4342 11.0735L24.3249 5.49648ZM12.0549 12.0549L8.03409 8.0341L12.0549 12.0549ZM5.49647 24.3249L-0.0805483 23.2155L5.49647 24.3249ZM6.86016 38.1706L12.1136 35.9946L6.86016 38.1706ZM15.6863 48.9253L18.8454 44.1974L15.6863 48.9253ZM29 52.964L34.6863 52.964L34.6863 47.2777L29 47.2777L29 52.964ZM29 52.3137C24.389 52.3137 19.8815 50.9464 16.0476 48.3847L9.72934 57.8406C15.4335 61.652 22.1397 63.6863 29 63.6863L29 52.3137ZM16.0476 48.3847C12.2137 45.8229 9.22548 42.1818 7.46092 37.9218L-3.04594 42.2739C-0.420618 48.612 4.02521 54.0292 9.72934 57.8406L16.0476 48.3847ZM7.46092 37.9218C5.69636 33.6618 5.23468 28.9741 6.13424 24.4517L-5.01979 22.2331C-6.35816 28.9615 -5.67126 35.9358 -3.04594 42.2739L7.46092 37.9218ZM6.13424 24.4517C7.0338 19.9293 9.25422 15.7752 12.5147 12.5147L4.4731 4.47311C-0.377861 9.32407 -3.68141 15.5046 -5.01979 22.2331L6.13424 24.4517ZM12.5147 12.5147C15.7752 9.25423 19.9293 7.03382 24.4517 6.13425L22.233 -5.01978C15.5046 -3.6814 9.32406 -0.377851 4.4731 4.47311L12.5147 12.5147ZM24.4517 6.13425C28.9741 5.23469 33.6618 5.69638 37.9218 7.46094L42.2739 -3.04593C35.9358 -5.67125 28.9615 -6.35815 22.233 -5.01978L24.4517 6.13425ZM37.9218 7.46094C42.1818 9.2255 45.8229 12.2137 48.3847 16.0476L57.8406 9.72935C54.0292 4.02522 48.612 -0.420604 42.2739 -3.04593L37.9218 7.46094ZM48.3847 16.0476C50.9464 19.8815 52.3137 24.389 52.3137 29L63.6863 29C63.6863 22.1397 61.652 15.4335 57.8406 9.72935L48.3847 16.0476ZM58 23.3137L52.964 23.3137L52.964 34.6863L58 34.6863L58 23.3137ZM58.6503 29C58.6503 23.1357 56.9113 17.4032 53.6533 12.5272L44.1974 18.8455C46.2058 21.8512 47.2777 25.385 47.2777 29L58.6503 29ZM53.6533 12.5272C50.3953 7.65124 45.7645 3.85089 40.3467 1.60674L35.9946 12.1136C39.3344 13.497 42.189 15.8397 44.1974 18.8455L53.6533 12.5272ZM40.3467 1.60674C34.9288 -0.637423 28.9671 -1.2246 23.2155 -0.0805359L25.4342 11.0735C28.9797 10.3682 32.6548 10.7302 35.9946 12.1136L40.3467 1.60674ZM23.2155 -0.0805359C17.4639 1.06353 12.1808 3.88744 8.03409 8.0341L16.0757 16.0757C18.6319 13.5195 21.8887 11.7787 25.4342 11.0735L23.2155 -0.0805359ZM8.03409 8.0341C3.88743 12.1808 1.06351 17.4639 -0.0805483 23.2155L11.0735 25.4342C11.7787 21.8887 13.5195 18.6319 16.0757 16.0757L8.03409 8.0341ZM-0.0805483 23.2155C-1.22461 28.9671 -0.637437 34.9288 1.60672 40.3467L12.1136 35.9946C10.7302 32.6548 10.3682 28.9797 11.0735 25.4342L-0.0805483 23.2155ZM1.60672 40.3467C3.85088 45.7646 7.65123 50.3953 12.5272 53.6533L18.8454 44.1974C15.8397 42.189 13.497 39.3344 12.1136 35.9946L1.60672 40.3467ZM12.5272 53.6533C17.4032 56.9113 23.1357 58.6503 29 58.6503L29 47.2777C25.385 47.2777 21.8512 46.2058 18.8454 44.1974L12.5272 53.6533ZM23.3137 52.964L23.3137 58L34.6863 58L34.6863 52.964L23.3137 52.964Z" fill="#D9D9D9" mask="url(#path-1-inside-1_780_7409)"/>
<mask id="path-3-inside-2_780_7409" fill="white">
<path d="M58 29C58 45.0163 45.0163 58 29 58C12.9837 58 0 45.0163 0 29C0 12.9837 12.9837 0 29 0C45.0163 0 58 12.9837 58 29ZM5.03601 29C5.03601 42.2349 15.7651 52.964 29 52.964C42.2349 52.964 52.964 42.2349 52.964 29C52.964 15.7651 42.2349 5.03601 29 5.03601C15.7651 5.03601 5.03601 15.7651 5.03601 29Z"/>
</mask>
<path d="M52.3137 29C52.3137 41.8758 41.8758 52.3137 29 52.3137V63.6863C48.1567 63.6863 63.6863 48.1567 63.6863 29H52.3137ZM29 52.3137C16.1242 52.3137 5.68627 41.8758 5.68627 29H-5.68627C-5.68627 48.1567 9.8433 63.6863 29 63.6863V52.3137ZM5.68627 29C5.68627 16.1242 16.1242 5.68627 29 5.68627V-5.68627C9.8433 -5.68627 -5.68627 9.8433 -5.68627 29H5.68627ZM29 5.68627C41.8758 5.68627 52.3137 16.1242 52.3137 29H63.6863C63.6863 9.8433 48.1567 -5.68627 29 -5.68627V5.68627ZM-0.650269 29C-0.650269 45.3754 12.6246 58.6503 29 58.6503V47.2777C18.9055 47.2777 10.7223 39.0945 10.7223 29H-0.650269ZM29 58.6503C45.3754 58.6503 58.6503 45.3754 58.6503 29H47.2777C47.2777 39.0945 39.0945 47.2777 29 47.2777V58.6503ZM58.6503 29C58.6503 12.6246 45.3754 -0.650269 29 -0.650269V10.7223C39.0945 10.7223 47.2777 18.9055 47.2777 29H58.6503ZM29 -0.650269C12.6246 -0.650269 -0.650269 12.6246 -0.650269 29H10.7223C10.7223 18.9055 18.9055 10.7223 29 10.7223V-0.650269Z" fill="#5549EF" mask="url(#path-3-inside-2_780_7409)"/>
<path d="M17.9295 30.9345V29.521L22.9333 21.6167H24.0471V23.6974H23.3404L19.7614 29.3627V29.4531H26.6197V30.9345H17.9295ZM23.4195 33.196V30.5048L23.4309 29.8602V21.6167H25.0875V33.196H23.4195ZM33.0228 21.0739L29.2912 34.9375H27.7816L31.5132 21.0739H33.0228ZM34.1932 30.9345V29.521L39.1969 21.6167H40.3108V23.6974H39.604L36.0251 29.3627V29.4531H42.8833V30.9345H34.1932ZM39.6832 33.196V30.5048L39.6945 29.8602V21.6167H41.3511V33.196H39.6832Z" fill="#0B1215"/>
</svg>
