<svg width="19" height="17" viewBox="0 0 19 17" fill="none" xmlns="http://www.w3.org/2000/svg">
<path d="M17.5734 12.2169V14.4669C17.5744 14.6758 17.5268 14.8826 17.4339 15.0739C17.3409 15.2653 17.2045 15.4371 17.0335 15.5783C16.8625 15.7195 16.6606 15.827 16.4407 15.894C16.2209 15.9609 15.9879 15.9857 15.7568 15.9669C13.1925 15.7162 10.7293 14.9275 8.5651 13.6644C6.55162 12.5129 4.84454 10.9766 3.5651 9.16443C2.15675 7.20783 1.2803 4.98017 1.00676 2.66193C0.985939 2.45453 1.01333 2.2455 1.08718 2.04815C1.16104 1.85079 1.27974 1.66945 1.43574 1.51564C1.59173 1.36184 1.7816 1.23896 1.99326 1.15482C2.20491 1.07068 2.43371 1.02712 2.6651 1.02693H5.1651C5.56952 1.02335 5.96159 1.15224 6.26823 1.38958C6.57487 1.62692 6.77516 1.95651 6.83176 2.31693C6.93728 3.03698 7.13297 3.74397 7.4151 4.42443C7.52722 4.69287 7.55148 4.98461 7.48502 5.26509C7.41856 5.54556 7.26415 5.80301 7.0401 6.00693L5.98176 6.95943C7.16806 8.83709 8.89548 10.3918 10.9818 11.4594L12.0401 10.5069C12.2667 10.3053 12.5527 10.1663 12.8644 10.1065C13.176 10.0467 13.5002 10.0685 13.7984 10.1694C14.5545 10.4233 15.34 10.5995 16.1401 10.6944C16.5449 10.7458 16.9146 10.9293 17.1789 11.21C17.4432 11.4908 17.5836 11.8491 17.5734 12.2169Z" stroke="#5549EF" stroke-linecap="round" stroke-linejoin="round"/>
</svg>
