<svg width="20" height="20" viewBox="0 0 20 20" fill="none" xmlns="http://www.w3.org/2000/svg">
<path d="M15.25 12H15.26M5.25 5H17.25C17.7804 5 18.2891 5.21071 18.6642 5.58579C19.0393 5.96086 19.25 6.46957 19.25 7V17C19.25 17.5304 19.0393 18.0391 18.6642 18.4142C18.2891 18.7893 17.7804 19 17.25 19H3.25C2.71957 19 2.21086 18.7893 1.83579 18.4142C1.46071 18.0391 1.25 17.5304 1.25 17V3C1.25 2.46957 1.46071 1.96086 1.83579 1.58579C2.21086 1.21071 2.71957 1 3.25 1H17.25" stroke="#5549EF" stroke-linecap="round" stroke-linejoin="round"/>
</svg>
