<svg width="38" height="52" viewBox="0 0 38 52" fill="none" xmlns="http://www.w3.org/2000/svg">
<path d="M23.3175 14.8278C23.3175 14.2866 23.7563 13.8478 24.2975 13.8478H25.4687C26.0099 13.8478 26.4487 14.2866 26.4487 14.8278C26.4487 15.369 26.0099 15.8078 25.4687 15.8078H24.2975C23.7563 15.8078 23.3175 15.369 23.3175 14.8278ZM19.0001 15.8078H20.1714C20.7126 15.8078 21.1514 15.369 21.1514 14.8278C21.1514 14.2866 20.7126 13.8478 20.1714 13.8478H19.0001C18.4589 13.8478 18.0201 14.2866 18.0201 14.8278C18.0201 15.369 18.4587 15.8078 19.0001 15.8078ZM37.7402 9.39624V49.4297C37.7402 50.6036 36.7851 51.5586 35.6111 51.5586H2.38867C1.21476 51.5586 0.259766 50.6036 0.259766 49.4297V9.39624C0.259766 8.22234 1.21476 7.26722 2.38867 7.26722H2.88883C2.80577 7.00299 2.76106 6.72185 2.76106 6.43055C2.76106 5.7377 3.01439 5.10279 3.43309 4.61366C3.01439 4.12452 2.76106 3.48973 2.76106 2.79676C2.76094 1.25463 4.01557 0 5.55758 0H13.1626C14.7047 0 15.9592 1.25463 15.9592 2.79676C15.9592 3.08818 15.9144 3.3692 15.8314 3.63355H19.3318C20.8738 3.63355 22.1284 4.88818 22.1284 6.43031C22.1284 6.72173 22.0836 7.00287 22.0005 7.26722H35.6111C36.7851 7.2671 37.7402 8.22222 37.7402 9.39624ZM4.72091 2.79676C4.72091 3.25821 5.09625 3.63355 5.55758 3.63355H13.1626C13.624 3.63355 13.9992 3.25821 13.9992 2.79676C13.9992 2.33531 13.6239 1.95997 13.1625 1.95997H5.55758C5.09625 1.95997 4.72091 2.33531 4.72091 2.79676ZM4.72091 6.43019C4.72091 6.89164 5.09625 7.2671 5.55758 7.2671H19.3317C19.793 7.2671 20.1683 6.89176 20.1683 6.43043C20.1683 5.96886 19.793 5.5934 19.3317 5.5934H5.55758C5.09625 5.59352 4.72091 5.96886 4.72091 6.43019ZM35.7803 9.39624C35.7803 9.3062 35.7011 9.22719 35.6111 9.22719H2.38867C2.29704 9.22719 2.21974 9.30461 2.21974 9.39624V49.4297C2.21974 49.5196 2.29875 49.5986 2.38867 49.5986H35.6111C35.7012 49.5986 35.7803 49.5196 35.7803 49.4297V9.39624ZM30.7663 13.8478H29.5949C29.0538 13.8478 28.615 14.2866 28.615 14.8278C28.615 15.369 29.0538 15.8078 29.5949 15.8078H30.7663C31.3075 15.8078 31.7463 15.369 31.7463 14.8278C31.7463 14.2866 31.3075 13.8478 30.7663 13.8478ZM18.9999 23.7392C18.4587 23.7392 18.02 24.1781 18.02 24.7192C18.02 25.2604 18.4589 25.6992 18.9999 25.6992C20.9082 25.6991 22.7158 26.4517 24.0899 27.8184C25.4697 29.1909 26.2296 31.0058 26.2296 32.9288C26.2296 33.47 26.6683 33.9088 27.2095 33.9088C27.7507 33.9088 28.1895 33.47 28.1895 32.9288C28.1895 30.4802 27.2245 28.1718 25.472 26.4288C23.7283 24.6942 21.4297 23.7391 18.9999 23.7392ZM7.23348 15.8078H13.1168C13.658 15.8078 14.0968 15.369 14.0968 14.8278C14.0968 14.2866 13.658 13.8478 13.1168 13.8478H7.23348C6.69228 13.8478 6.25349 14.2866 6.25349 14.8278C6.25349 15.369 6.69216 15.8078 7.23348 15.8078ZM31.7463 32.9289C31.7463 39.9573 26.0284 45.6754 19.0001 45.6754C11.9716 45.6754 6.25349 39.9574 6.25349 32.9289C6.25349 25.9006 11.9716 20.1826 19.0001 20.1826C26.0283 20.1826 31.7463 25.9006 31.7463 32.9289ZM29.7863 32.9289C29.7863 26.9813 24.9476 22.1426 19.0001 22.1426C13.0523 22.1426 8.21346 26.9813 8.21346 32.9289C8.21346 38.8766 13.0523 43.7154 19.0001 43.7154C24.9476 43.7154 29.7863 38.8766 29.7863 32.9289ZM19.0001 40.1586C17.0488 40.1586 15.147 39.3603 13.7824 37.9685C12.4479 36.6074 11.7332 34.8245 11.7702 32.9483C11.7809 32.4072 11.3509 31.9598 10.8097 31.9492C10.2629 31.9396 9.82126 32.3686 9.8106 32.9097C9.76319 35.3167 10.6767 37.6006 12.3829 39.3409C14.1138 41.1063 16.5257 42.1187 19.0002 42.1187C19.5414 42.1187 19.9802 41.68 19.9802 41.1388C19.9802 40.5976 19.5413 40.1586 19.0001 40.1586Z" fill="white"/>
</svg>
