<svg width="22" height="22" viewBox="0 0 22 22" fill="none" xmlns="http://www.w3.org/2000/svg">
<path d="M17 19C17 17.4087 16.3679 15.8826 15.2426 14.7574C14.1174 13.6321 12.5913 13 11 13M11 13C9.4087 13 7.88258 13.6321 6.75736 14.7574C5.63214 15.8826 5 17.4087 5 19M11 13C13.2091 13 15 11.2091 15 9C15 6.79086 13.2091 5 11 5C8.79086 5 7 6.79086 7 9C7 11.2091 8.79086 13 11 13ZM21 11C21 16.5228 16.5228 21 11 21C5.47715 21 1 16.5228 1 11C1 5.47715 5.47715 1 11 1C16.5228 1 21 5.47715 21 11Z" stroke="#5549EF" stroke-linecap="round" stroke-linejoin="round"/>
</svg>
