<svg width="21" height="20" viewBox="0 0 21 20" fill="none" xmlns="http://www.w3.org/2000/svg">
<path d="M14.4756 19.4914L13.1893 19.4869C13.0901 19.4823 12.9944 19.4624 12.896 19.4531L11.3977 19.2389C10.5854 19.0634 10.4721 19.0351 9.61194 19.2298L9.09891 19.3261C8.36375 19.444 7.61323 19.4924 6.86907 19.4927C6.13618 19.4931 5.35202 19.3979 5.15684 18.5478C5.1036 18.316 5.14144 18.072 5.09889 17.8418C5.05839 17.8007 5.012 17.7895 4.96461 17.7597C4.2776 17.3271 4.33015 16.7917 4.22652 16.1165L4.01902 15.0837C3.91502 15.3734 3.85156 15.6788 3.76757 15.9746L3.51833 16.7239C3.3664 17.1571 3.12086 17.5597 2.98564 17.9953L2.60411 19.5097C2.42988 20.1188 2.26116 20.0035 1.72021 19.9161C1.28326 19.8456 0.122146 19.7374 0.0160012 19.232L0.0124775 19.2147C-0.00505662 19.1359 -0.00154033 19.0452 0.00738421 18.9651L0.0933712 17.9723C0.151357 17.5287 0.136142 17.5617 0.0802039 17.1573C0.0289975 16.787 0.0732954 16.384 0.118575 16.0142L0.372254 14.2711L0.637981 11.3847L1.26642 6.97224L1.84162 3.93418L2.03687 3.30262C2.13174 2.99658 2.20118 2.66782 2.36511 2.38866C2.82267 1.60937 3.69311 0.957555 4.60753 0.785066C4.81895 0.745192 5.03258 0.742665 5.24514 0.717013C6.0576 0.618905 6.59022 0.19952 7.29513 0.0136442L7.82969 0.00942823C8.80281 0.0117913 8.94214 0.56197 9.81102 0.717519C10.4469 0.831389 11.2181 0.811151 11.7927 0.511845C12.186 0.30699 12.2499 0.1814 12.7146 0.0416762C12.8746 -0.00642254 13.6113 -0.0202543 13.7651 0.0400039C14.2389 0.22563 14.6979 0.485543 15.1924 0.612624C15.4918 0.689605 15.7945 0.703297 16.0994 0.740957C17.0832 0.862359 17.9671 1.41193 18.5075 2.22069C18.9029 2.8124 19.1644 3.97747 19.3178 4.72212L19.7669 7.30913L20.3309 11.227L20.843 15.1252C20.9137 15.5883 21.0227 16.741 20.893 17.1994C20.7278 17.7831 21.157 19.0154 20.9345 19.3776L20.9226 19.3959C20.6634 19.7734 19.4064 19.906 18.9546 19.9905C18.4679 20.0814 18.3932 19.5007 18.3038 19.1732C18.1732 18.6947 18.0921 18.2175 17.9136 17.7502C17.8313 17.535 17.7118 17.3441 17.6126 17.1376C17.261 16.4056 17.1801 15.573 17.0523 14.7851L16.7729 16.3962C16.6725 17.1049 16.4526 17.4551 15.8898 17.867L15.8544 18.305C15.7788 19.0955 15.2674 19.4459 14.4756 19.4914ZM7.88883 0.763769L7.84112 0.771831C7.81657 1.17062 8.65998 1.73689 8.96268 1.92341C9.39792 2.19162 10.3625 2.40901 10.8869 2.29081L10.9228 2.28205C11.0638 2.248 11.2118 2.23917 11.3543 2.20052C11.8952 2.0539 12.44 1.72122 12.828 1.32229C12.9865 1.15182 13.0804 0.99021 13.0998 0.757946C13.0224 0.755539 12.9497 0.753422 12.8731 0.766176L12.8588 0.768341C12.7447 0.788531 12.5903 0.927427 12.4946 0.991485C11.7686 1.47712 10.8964 1.59067 10.0348 1.5245C9.49284 1.48289 8.97254 1.30335 8.51541 1.02274C8.31663 0.90074 8.14154 0.739802 7.88883 0.763769ZM7.04825 0.932216L6.5436 1.15459C6.16639 1.31259 5.70776 1.45142 5.29583 1.49524C5.12093 1.51384 4.93914 1.51252 4.7665 1.54584C4.17174 1.66065 3.34525 2.14915 3.08696 2.71862L3.07563 2.74709C3.24065 2.92388 3.43139 3.07772 3.59553 3.25803C4.77568 4.55462 5.18843 6.43537 4.9807 8.12771L4.88072 8.73316L4.59203 11.9053C4.51509 12.5251 4.46708 13.4251 4.61363 14.0449L4.9532 15.7198C5.06821 16.1419 4.9255 16.6845 5.27366 17.0183C5.76358 17.4878 6.39514 17.4263 7.01277 17.3881L7.67188 17.3383C8.42378 17.2892 8.74582 17.2409 9.42629 16.9885C10.0496 16.7572 10.8598 16.7253 11.4877 16.9607C12.0589 17.1748 12.2282 17.2321 12.8546 17.2979L14.0572 17.3889C14.5939 17.4208 14.7774 17.4674 15.3397 17.2621C15.9963 16.937 15.943 16.488 16.0605 15.8698L16.3944 13.8485C16.411 13.6735 16.4422 13.5018 16.4499 13.3267L16.4567 12.9092C16.4574 12.6246 16.4681 12.3344 16.4516 12.0505L16.0247 8.19035C15.974 7.84275 15.9572 7.51755 15.9573 7.16759C15.9577 5.68468 16.502 4.08857 17.6172 3.04122C17.7172 2.9473 17.8411 2.86923 17.9341 2.77096C17.628 2.21843 17.0583 1.78432 16.4421 1.60126C16.15 1.51446 15.8542 1.52257 15.5574 1.47187C15.1583 1.40367 14.7704 1.31156 14.3952 1.16073L13.8879 0.935176C13.6686 1.99995 12.3528 2.78258 11.3217 2.99619C10.7578 3.11302 10.1157 3.0982 9.55583 2.9736C8.63379 2.76841 7.39831 1.96804 7.09212 1.0534C7.07987 1.01685 7.07434 0.957988 7.04825 0.932216ZM2.77846 3.51843C2.69992 3.72535 2.64363 3.94111 2.58727 4.15458L2.31031 5.40207L1.69206 9.32469L1.31596 12.2463L1.14263 14.349L0.895352 16.0383C0.860959 16.2756 0.770994 16.8885 0.86319 17.1081C1.16564 17.359 1.86993 17.4054 2.25035 17.3185C2.32122 17.2952 2.38919 17.2745 2.45121 17.2326C2.98792 16.0995 3.44811 14.4105 3.64792 13.1446L3.89374 11.2057L4.11401 8.6357C4.15845 8.30942 4.22635 7.98477 4.25149 7.65604C4.37369 6.05938 3.88124 4.67864 2.77846 3.51843ZM18.2083 3.54314L18.1938 3.56015C18.13 3.63449 18.0534 3.69975 17.9872 3.77271C17.0306 4.82801 16.6133 6.31647 16.7365 7.7064L17.2523 12.0591C17.3098 12.3419 17.3465 12.6391 17.4564 12.9095C17.4936 13.0013 17.5193 13.1285 17.54 13.2254L17.6509 13.6827C17.6967 13.8397 17.7092 14.0123 17.7396 14.1731L17.9623 15.6166C17.9739 15.6918 17.9785 15.7659 18.0012 15.8389L18.0941 16.2127C18.1282 16.3129 18.157 16.4156 18.1988 16.5128L18.4343 17.0443C18.4662 17.1089 18.4937 17.1727 18.5359 17.232L18.5437 17.2433C18.5797 17.2895 18.7007 17.3 18.7581 17.3218C18.9716 17.3631 19.1355 17.3605 19.3535 17.3412C20.0882 17.2762 20.173 17.1477 20.1735 16.4941C20.1739 15.8807 20.0645 15.2901 19.9837 14.6846L19.5664 11.2936L18.7916 6.08715C18.6799 5.39897 18.5502 4.70374 18.3621 4.0308L18.2637 3.68411C18.2541 3.65321 18.2399 3.55729 18.2083 3.54314ZM10.4122 17.5714C9.83294 17.6194 9.61514 17.7825 9.09943 17.9131C8.35313 18.102 6.67981 18.2558 5.88739 18.1222C5.89798 18.2533 5.89267 18.4028 5.96471 18.5169L5.97113 18.5279C6.02345 18.6148 6.15845 18.6721 6.24931 18.707L6.26466 18.7133C6.37701 18.7569 6.57539 18.7344 6.6962 18.7344L7.34393 18.731L8.74208 18.597C9.37424 18.505 9.93369 18.3228 10.5784 18.3234C11.0558 18.3484 11.4688 18.4931 11.9339 18.5726L13.2124 18.7244L14.086 18.7368C14.2966 18.7376 14.545 18.7633 14.7431 18.6913L14.7632 18.6843C15.0653 18.5768 15.0618 18.4033 15.0764 18.1319C14.6789 18.2211 14.2968 18.1655 13.8957 18.1429C13.1411 18.1004 12.3091 18.0835 11.5926 17.8208C11.1834 17.6709 10.8715 17.5447 10.4122 17.5714ZM0.870828 17.9814L0.776573 18.9369C1.12773 19.0632 1.52483 19.1323 1.89751 19.1623L1.92352 19.0434L2.1437 18.1053C1.76894 18.1314 1.40476 18.1308 1.042 18.0284C0.998385 18.0161 0.911446 17.9732 0.870828 17.9814ZM20.0728 18.0175L19.4828 18.1057C19.2823 18.1393 19.0464 18.1408 18.8459 18.107L19.0749 19.0729L19.118 19.173C19.4878 19.1399 19.8821 19.0824 20.2229 18.9356C20.2096 18.7531 20.1606 18.1883 20.1124 18.0144L20.0728 18.0175Z" fill="#5549EF"/>
</svg>
