<svg width="21" height="27" viewBox="0 0 21 27" fill="none" xmlns="http://www.w3.org/2000/svg">
<path d="M15.0962 26.1568L13.1544 26.6493C12.4727 26.8398 11.6475 26.7466 11.3789 25.9891C11.2999 25.7662 11.3066 25.5101 11.2727 25.2774L10.8981 22.2243C10.8559 21.8151 10.2499 21.7097 10.1231 22.142C10.0824 22.2807 10.1133 22.45 10.093 22.5955L9.68958 25.6044C9.67269 25.7189 9.67173 25.8262 9.63185 25.9373L9.62492 25.9562C9.42435 26.5128 8.88814 26.7931 8.30104 26.7446C8.11282 26.7291 7.91427 26.6608 7.73212 26.6126L1.1512 24.9479C0.438425 24.7687 0.00136527 24.8815 2.39248e-05 24.0122C-0.000578312 23.6251 0.00996094 23.2513 0.0576198 22.8668L0.240782 21.5832L1.30562 16.5343C1.44129 15.7522 1.64969 14.3492 2.0749 13.6859C2.15379 13.5628 2.15831 13.4251 2.22685 13.3011C2.32247 13.2686 2.35942 13.1337 2.40331 13.0534L3.1751 11.5904C3.70025 10.4631 3.9991 9.29905 3.99964 8.05916L4.00011 6.90514C4.00151 6.62135 4.04177 6.39411 4.05053 6.13095C4.07673 5.34366 3.97309 4.49008 3.8135 3.71808L3.64876 2.98041C3.60786 2.80676 3.54194 2.62113 3.5466 2.44247C3.55574 2.09111 3.88503 1.98012 4.17876 1.9794L5.96844 1.9832L5.96874 1.42448C5.96882 1.08089 5.98481 0.856731 6.3966 0.752015C6.93541 0.726676 6.92241 1.35949 6.92249 1.69918C6.92263 2.16418 6.89164 2.9477 7.06098 3.38918L7.09495 3.50391C7.41017 4.78275 8.19349 5.42519 9.23016 6.09815C10.2741 6.77581 10.4718 6.9016 11.5153 6.24942L12.1042 5.86959C13.2501 5.07424 13.9302 4.16424 14.0625 2.71525C14.0929 2.3823 14.0725 2.03225 14.0722 1.6974L14.072 1.36308C14.0725 1.1215 14.1375 0.876663 14.4022 0.789991L14.4206 0.784257C15.1583 0.54943 14.9776 1.58465 15.0298 1.97938L16.4018 1.97947C16.7717 1.97971 17.3586 1.87463 17.4376 2.40011C17.4661 2.58921 17.3897 2.78303 17.3457 2.96403L17.1635 3.88158L16.99 5.13387C16.9418 5.63245 16.9787 5.97006 16.9831 6.46214L16.9921 8.6293C17.0347 9.36359 17.2764 10.1495 17.5081 10.8463L17.6306 11.1548L18.9316 13.7212L19.2607 14.5647L19.5589 15.6939L20.9725 23.3906C21.013 23.5869 20.9966 23.8047 20.9972 24.0046C20.9994 24.7419 20.8303 24.7073 20.1092 24.8868L15.0962 26.1568ZM4.645 2.88666L4.59474 2.89201C4.58141 2.91871 4.58967 2.95563 4.59862 2.98427L4.61609 3.02477C4.69331 3.23742 4.71661 3.47532 4.75997 3.69624L4.93979 4.82349C5.04291 5.61779 4.97379 6.09979 4.97111 6.87779L4.92167 8.59788C4.85392 9.89079 4.49879 11.0017 3.94145 12.1558L3.59374 12.828C3.46305 13.062 3.32038 13.2985 3.20795 13.5415C3.6363 13.7166 4.45299 13.8477 4.91283 13.9304L8.19447 14.3422L10.5799 14.3964L12.825 14.345L16.0906 13.9289L17.573 13.5911C17.6314 13.5742 17.6984 13.5631 17.7543 13.5406L16.9335 11.9157C16.3097 10.5314 16.079 9.45559 16.0414 7.96654L16.0346 6.79095C16.0244 6.12533 15.9629 5.67761 16.0399 4.96534L16.2802 3.42293C16.3143 3.24479 16.3655 3.0679 16.3919 2.88869L15.459 2.88602C14.8589 2.88656 15.021 2.78203 14.9182 3.34195C14.6249 4.93991 13.7343 5.91683 12.4321 6.77538C10.8194 7.83875 10.3234 7.9233 8.71648 6.88009C7.10902 5.83655 6.24544 4.80246 6.02417 2.8909L4.645 2.88666ZM2.78885 14.3918C2.57659 14.9614 2.48896 15.3479 2.35964 15.9188C2.5644 15.989 2.78225 16.0319 2.99333 16.0814L4.60027 16.4124L6.54382 16.7132L8.89175 16.9103C8.98028 16.9168 9.06714 16.9337 9.15605 16.9369L11.9201 16.9371C12.0112 16.9335 12.1002 16.9157 12.1908 16.9095L14.0961 16.7654L16.4342 16.4071L18.2272 16.0306L18.6397 15.9221C18.551 15.4125 18.3858 14.8867 18.1998 14.4031L15.3529 15.0118L12.5045 15.317L9.46653 15.3528L7.96324 15.2625L5.51624 14.9854L3.76666 14.653C3.442 14.5803 3.09996 14.5088 2.78885 14.3918ZM2.19876 16.8465L1.22314 21.3893C1.17203 21.5829 1.18454 21.5948 1.2979 21.7747C1.69376 22.403 2.43564 22.7331 3.14329 22.8841L6.81206 23.7704C7.52541 23.9287 8.22297 24.007 8.95118 24.0059C8.97984 23.8818 8.97237 23.7471 8.98644 23.62L9.12036 22.6871C9.15367 22.4399 9.15313 22.1676 9.21327 21.9269C9.48345 20.845 10.8318 20.5887 11.5299 21.4162L11.5798 21.4821C11.7141 21.6691 11.7981 21.9176 11.8198 22.1466L12.0309 23.8525C12.0348 23.9051 12.0291 23.9555 12.0505 24.0051C13.1616 24.0087 14.0173 23.7941 15.0928 23.5333L17.2757 23.0244L18.0502 22.8385C18.6999 22.6257 19.3938 22.3708 19.7275 21.7166C19.788 21.5981 19.812 21.5694 19.7771 21.447L18.8047 16.8698L14.9354 17.6226L13.3614 17.7833C12.2531 17.8856 11.8664 17.9541 11.1375 18.9399C10.6732 19.5677 10.4736 19.677 9.97852 19.0713C8.96484 17.8313 8.74656 17.8631 7.18373 17.7273L6.08489 17.6086L2.80645 17.0131C2.60503 16.9651 2.39367 16.9167 2.19876 16.8465ZM10.1498 17.8299L10.5069 18.2137L10.6474 18.0383C10.6985 17.98 10.7637 17.8768 10.828 17.838L10.4118 17.8381C10.3272 17.8364 10.2324 17.8151 10.1498 17.8299ZM1.00009 22.8789C0.937461 23.2107 0.91682 23.5894 0.920187 23.9256L8.04818 25.7251C8.22313 25.7718 8.46438 25.8736 8.63813 25.7746L8.67916 25.7464C8.77278 25.6108 8.75036 25.4939 8.7652 25.3358L8.81891 24.9336L8.10477 24.9127C6.9992 24.8567 5.90011 24.4922 4.82994 24.2421L3.50236 23.9264C2.79657 23.7623 1.49368 23.4765 1.02314 22.8949L1.00009 22.8789ZM19.9367 22.8924C19.3301 23.426 18.6302 23.6665 17.844 23.8452L15.346 24.4388C14.5929 24.6232 13.8201 24.8253 13.0474 24.9094C12.7596 24.9407 12.4594 24.9156 12.1694 24.9292L12.2233 25.3951C12.243 25.558 12.2401 25.6527 12.3597 25.776C12.4441 25.8101 12.5243 25.8352 12.6154 25.8194L20.0595 23.92C20.0376 23.6593 20.0558 23.1235 19.9642 22.8902L19.9367 22.8924Z" fill="#5549EF"/>
</svg>
