<svg width="51" height="47" viewBox="0 0 51 47" fill="none" xmlns="http://www.w3.org/2000/svg">
<g clip-path="url(#clip0_1616_6182)">
<path d="M44.8149 6.00063L41.4949 9.30063L40.2049 8.00063C40.0176 7.81438 39.7641 7.70983 39.4999 7.70983C39.2358 7.70983 38.9823 7.81438 38.7949 8.00063C38.7012 8.09359 38.6268 8.20419 38.5761 8.32605C38.5253 8.44791 38.4991 8.57861 38.4991 8.71063C38.4991 8.84264 38.5253 8.97334 38.5761 9.0952C38.6268 9.21706 38.7012 9.32766 38.7949 9.42062L40.7949 11.4206C40.9823 11.6069 41.2358 11.7114 41.4999 11.7114C41.7641 11.7114 42.0176 11.6069 42.2049 11.4206L46.2049 7.42063C46.2987 7.32766 46.3731 7.21706 46.4238 7.0952C46.4746 6.97334 46.5007 6.84264 46.5007 6.71063C46.5007 6.57861 46.4746 6.44791 46.4238 6.32605C46.3731 6.20419 46.2987 6.09359 46.2049 6.00063C46.0185 5.82039 45.7693 5.71964 45.5099 5.71964C45.2506 5.71964 45.0014 5.82039 44.8149 6.00063Z" fill="#5549EF"/>
<path d="M42.495 0.710632C41.0938 0.713823 39.718 1.08499 38.5053 1.78697C37.2926 2.48896 36.2856 3.49715 35.585 4.71063H6.495C5.69935 4.71063 4.93628 5.0267 4.37367 5.58931C3.81107 6.15192 3.495 6.91498 3.495 7.71063V32.7106C2.69935 32.7106 1.93628 33.0267 1.37367 33.5893C0.811066 34.1519 0.494995 34.915 0.494995 35.7106V43.7106C0.494995 44.5063 0.811066 45.2693 1.37367 45.832C1.93628 46.3946 2.69935 46.7106 3.495 46.7106H5.495C6.06045 46.709 6.61395 46.5477 7.09166 46.2451C7.56937 45.9426 7.95185 45.5112 8.19499 45.0006L10.195 45.6606C10.2919 45.6925 10.393 45.7094 10.495 45.7106H19.135C19.7341 45.7092 20.3191 45.5284 20.8146 45.1916C21.3101 44.8547 21.6933 44.3772 21.915 43.8206L23.145 40.7106H36.495C37.2906 40.7106 38.0537 40.3946 38.6163 39.832C39.1789 39.2693 39.495 38.5063 39.495 37.7106V16.1206C40.447 16.5108 41.4661 16.7112 42.495 16.7106C44.6167 16.7106 46.6516 15.8678 48.1518 14.3675C49.6521 12.8672 50.495 10.8324 50.495 8.71063C50.495 6.5889 49.6521 4.55407 48.1518 3.05378C46.6516 1.55349 44.6167 0.710632 42.495 0.710632ZM15.495 6.71063H27.495V16.0906L24.955 14.8206C24.7978 14.7418 24.6225 14.7058 24.4469 14.7164C24.2714 14.7269 24.1017 14.7836 23.955 14.8806L21.495 16.5106L19.045 14.8806C18.8823 14.7713 18.691 14.7122 18.495 14.7106C18.3385 14.7116 18.1843 14.7492 18.045 14.8206L15.495 16.0906V6.71063ZM6.495 43.7106C6.495 43.9758 6.38964 44.2302 6.2021 44.4177C6.01457 44.6053 5.76021 44.7106 5.495 44.7106H3.495C3.22978 44.7106 2.97543 44.6053 2.78789 44.4177C2.60035 44.2302 2.495 43.9758 2.495 43.7106V35.7106C2.495 35.4454 2.60035 35.1911 2.78789 35.0035C2.97543 34.816 3.22978 34.7106 3.495 34.7106H5.495C5.76021 34.7106 6.01457 34.816 6.2021 35.0035C6.38964 35.1911 6.495 35.4454 6.495 35.7106V43.7106ZM22.495 37.0806L21.605 39.3106L20.105 43.0606C20.0303 43.2483 19.9005 43.4089 19.7327 43.5214C19.5649 43.6338 19.367 43.6928 19.165 43.6906H10.625L8.495 42.9906V36.7106C9.84456 36.6341 11.1139 36.0449 12.0433 35.0634C12.9728 34.0819 13.4921 32.7824 13.495 31.4306V28.8806C14.0802 29.0875 14.5867 29.4708 14.9449 29.9776C15.3031 30.4845 15.4953 31.09 15.495 31.7106V34.7106C15.495 34.9758 15.6004 35.2302 15.7879 35.4177C15.9754 35.6053 16.2298 35.7106 16.495 35.7106H21.495C21.6605 35.7087 21.8239 35.7479 21.9705 35.8247C22.1171 35.9015 22.2423 36.0135 22.335 36.1506C22.4362 36.2805 22.5037 36.4333 22.5316 36.5956C22.5595 36.7578 22.5469 36.9244 22.495 37.0806ZM37.495 37.7106C37.495 37.9758 37.3896 38.2302 37.2021 38.4177C37.0146 38.6053 36.7602 38.7106 36.495 38.7106H23.945L24.305 37.8206C24.487 37.3637 24.5538 36.8691 24.4997 36.3802C24.4455 35.8914 24.272 35.4234 23.9944 35.0174C23.7169 34.6114 23.3437 34.2798 22.9079 34.052C22.472 33.8241 21.9868 33.7069 21.495 33.7106H17.495V31.7106C17.495 31.054 17.3657 30.4038 17.1144 29.7972C16.8631 29.1906 16.4948 28.6394 16.0305 28.1751C15.5662 27.7108 15.015 27.3425 14.4084 27.0912C13.8018 26.84 13.1516 26.7106 12.495 26.7106C12.2298 26.7106 11.9754 26.816 11.7879 27.0035C11.6004 27.1911 11.495 27.4454 11.495 27.7106V31.4106C11.5004 32.272 11.1668 33.101 10.5662 33.7184C9.96559 34.3359 9.14619 34.6923 8.285 34.7106C8.08043 34.1319 7.70324 33.6298 7.20433 33.2721C6.70542 32.9145 6.1088 32.7185 5.495 32.7106V7.71063C5.495 7.44542 5.60035 7.19106 5.78789 7.00353C5.97542 6.81599 6.22978 6.71063 6.495 6.71063H13.495V17.7106C13.4947 17.8806 13.5376 18.0478 13.6199 18.1965C13.7021 18.3453 13.8209 18.4706 13.965 18.5606C14.117 18.6484 14.2895 18.6946 14.465 18.6946C14.6405 18.6946 14.813 18.6484 14.965 18.5606L18.495 16.8606L21.025 18.5406C21.1872 18.6461 21.3765 18.7022 21.57 18.7022C21.7635 18.7022 21.9528 18.6461 22.115 18.5406L24.645 16.8606L28.115 18.6006C28.2642 18.662 28.426 18.6864 28.5866 18.6717C28.7473 18.6571 28.902 18.6037 29.0376 18.5163C29.1732 18.4288 29.2856 18.3099 29.3652 18.1696C29.4449 18.0293 29.4894 17.8719 29.495 17.7106V6.71063H34.765C34.5885 7.36275 34.4978 8.03507 34.495 8.71063C34.4957 9.90902 34.7657 11.0919 35.285 12.172C35.8042 13.252 36.5595 14.2016 37.495 14.9506V37.7106ZM42.495 14.7106C41.3083 14.7106 40.1483 14.3587 39.1616 13.6994C38.1749 13.0402 37.4058 12.1031 36.9517 11.0067C36.4976 9.91038 36.3788 8.70398 36.6103 7.54009C36.8418 6.3762 37.4132 5.30711 38.2524 4.46799C39.0915 3.62888 40.1606 3.05743 41.3245 2.82592C42.4883 2.59441 43.6947 2.71323 44.7911 3.16736C45.8875 3.62148 46.8245 4.39052 47.4838 5.37721C48.1431 6.36391 48.495 7.52394 48.495 8.71063C48.495 10.3019 47.8629 11.8281 46.7376 12.9533C45.6124 14.0785 44.0863 14.7106 42.495 14.7106Z" fill="#5549EF" stroke="#F7F7FF" stroke-width="0.3"/>
<path d="M34.495 30.7106H27.495C27.2298 30.7106 26.9754 30.816 26.7879 31.0035C26.6004 31.1911 26.495 31.4454 26.495 31.7106V35.7106C26.495 35.9758 26.6004 36.2302 26.7879 36.4177C26.9754 36.6053 27.2298 36.7106 27.495 36.7106H34.495C34.7602 36.7106 35.0146 36.6053 35.2021 36.4177C35.3896 36.2302 35.495 35.9758 35.495 35.7106V31.7106C35.495 31.4454 35.3896 31.1911 35.2021 31.0035C35.0146 30.816 34.7602 30.7106 34.495 30.7106ZM33.495 34.7106H28.495V32.7106H33.495V34.7106Z" fill="#5549EF" stroke="#F7F7FF" stroke-width="0.6"/>
<path d="M34.495 22.7106H27.495C27.2298 22.7106 26.9754 22.816 26.7879 23.0035C26.6004 23.1911 26.495 23.4454 26.495 23.7106V27.7106C26.495 27.9758 26.6004 28.2302 26.7879 28.4177C26.9754 28.6053 27.2298 28.7106 27.495 28.7106H34.495C34.7602 28.7106 35.0146 28.6053 35.2021 28.4177C35.3896 28.2302 35.495 27.9758 35.495 27.7106V23.7106C35.495 23.4454 35.3896 23.1911 35.2021 23.0035C35.0146 22.816 34.7602 22.7106 34.495 22.7106ZM33.495 26.7106H28.495V24.7106H33.495V26.7106Z" fill="#5549EF" stroke="#F7F7FF" stroke-width="0.6"/>
</g>
<defs>
<clipPath id="clip0_1616_6182">
<rect width="50.05" height="46" fill="white" transform="translate(0.474976 0.710632)"/>
</clipPath>
</defs>
</svg>
