<svg width="19" height="15" viewBox="0 0 19 15" fill="none" xmlns="http://www.w3.org/2000/svg">
<path d="M0.666926 0.677568C0.994896 0.341936 1.43817 0.1528 1.90044 0.15H17.0996C17.5618 0.1528 18.0051 0.341937 18.333 0.677563L18.333 0.677578C18.6612 1.01335 18.8473 1.46865 18.85 1.94492C18.85 1.94504 18.85 1.94515 18.85 1.94527V13.0547C18.85 13.0548 18.85 13.055 18.85 13.0551C18.8473 13.5313 18.6612 13.9866 18.333 14.3224L18.333 14.3224C18.0051 14.6581 17.5617 14.8473 17.0995 14.85H1.90053C1.43823 14.8473 0.994927 14.6581 0.666939 14.3224L0.666924 14.3224C0.338851 13.9867 0.152747 13.5314 0.15 13.0551V1.94487C0.152747 1.46861 0.338847 1.01333 0.666926 0.677568ZM0.666926 0.677568L0.559642 0.572733M0.666926 0.677568L0.559642 0.572733M0.559642 0.572733C0.203941 0.936767 0.00285543 1.42964 0 1.94444L1.9 0C1.39697 0.00292222 0.915355 0.208711 0.559642 0.572733ZM17.3992 1.64318L17.3992 1.64317C17.3205 1.5626 17.2129 1.51667 17.1 1.51667H1.9C1.7871 1.51667 1.67955 1.5626 1.60079 1.64318L1.60077 1.6432C1.52215 1.72368 1.47857 1.8321 1.47857 1.94444V4.44444V4.59444H1.62857H17.3714H17.5214V4.44444V1.94444C17.5214 1.83215 17.4779 1.7237 17.3992 1.64318ZM1.60076 13.3568L1.60077 13.3568C1.67957 13.4375 1.78716 13.4833 1.9 13.4833H17.1C17.2128 13.4833 17.3204 13.4375 17.3992 13.3568C17.4779 13.2763 17.5214 13.1678 17.5214 13.0556V6.11111V5.96111H17.3714H1.62857H1.47857V6.11111V13.0556C1.47857 13.1679 1.52215 13.2763 1.60076 13.3568Z" fill="#5549EF" stroke="white" stroke-width="0.3"/>
<path d="M6.75 8H4.25C3.91848 8 3.60054 8.1054 3.36611 8.2929C3.1317 8.4804 3 8.7348 3 9C3 9.2652 3.1317 9.5196 3.36611 9.7071C3.60054 9.8946 3.91848 10 4.25 10H6.75C7.08152 10 7.39946 9.8946 7.63389 9.7071C7.8683 9.5196 8 9.2652 8 9C8 8.7348 7.8683 8.4804 7.63389 8.2929C7.39946 8.1054 7.08152 8 6.75 8Z" fill="#5549EF"/>
</svg>
