<svg width="21" height="26" viewBox="0 0 21 26" fill="none" xmlns="http://www.w3.org/2000/svg">
<path d="M17.7489 24.1972C17.3058 24.421 16.884 24.6881 16.4105 24.8505C15.6916 25.0971 14.6521 25.212 13.8658 25.244L13.0687 25.2481C12.6745 25.2502 12.5225 25.2595 12.1381 25.203L11.206 25.0911C10.973 25.0724 10.1111 25.0511 9.88976 25.1047L9.85086 25.1139C9.0502 25.265 8.29144 25.2654 7.48048 25.2019L6.08371 25.1381C4.78184 25.0573 4.41381 24.7593 3.37582 24.1716C3.04758 23.9858 2.683 23.8428 2.32858 23.7114L0.49325 23.0941C-0.201126 22.8959 -0.0161605 22.5076 0.174243 22.0448L1.83614 18.2581L2.71773 16.3869L4.06465 13.9656C4.72418 12.9201 5.46287 11.9319 6.21757 10.95C6.37504 10.7452 6.29946 10.726 6.25621 10.4788C6.17335 10.0051 6.07179 9.53004 6.02153 9.05169L5.98048 8.47038C5.96534 8.13044 5.92109 8.04377 5.78751 7.72411L5.52616 7.04177C5.0984 5.7565 4.63661 3.36011 5.95314 2.49741C6.1594 2.36226 6.12134 2.34857 6.19585 2.12084L6.63147 0.701626C6.70872 0.455349 6.79149 0.29866 7.07893 0.252633C7.14741 0.245026 7.22543 0.254382 7.29146 0.274521C7.7509 0.414618 7.55322 0.933198 7.45781 1.21806L7.0947 2.3754C8.0584 2.71384 8.98881 3.12669 9.8275 3.70572C10.0535 3.86173 10.2589 4.04267 10.4783 4.20672C10.5961 4.14945 10.7038 4.04139 10.8063 3.96041L11.2363 3.64602C11.9837 3.14915 13.0332 2.61133 13.9191 2.35847L13.404 0.846638C13.2125 0.25169 14.1117 0.00155435 14.2973 0.570467L14.5279 1.29513C14.5687 1.39331 14.5957 1.49959 14.6289 1.60068L14.7858 2.07113C14.8957 2.42873 14.7908 2.29046 15.0798 2.5176C15.3699 2.74558 15.6117 3.05741 15.7158 3.40845L15.7279 3.44957C15.7484 3.50764 15.768 3.56273 15.7784 3.62399L15.811 3.77104C15.9909 5.15717 15.7586 6.30844 15.2354 7.62034L15.0152 8.16363C14.9801 8.23925 14.9926 8.30533 14.9913 8.38678L14.9764 8.81897C14.9411 9.23554 14.872 9.64789 14.8053 10.0604L14.677 10.702C14.653 10.8459 14.6724 10.8308 14.7626 10.9556L15.3098 11.669C16.3165 12.9323 17.1417 14.3114 17.9084 15.7204L19.3612 18.7729L20.6263 21.6084L20.7414 21.8833C20.806 22.0549 20.9121 22.2312 20.9582 22.4069L20.9642 22.4313C21.1221 22.9133 20.7281 23.0579 20.3641 23.1391C19.3356 23.3685 18.6786 23.6891 17.7489 24.1972ZM6.5188 3.17063L6.47032 3.18851C6.21217 3.50764 7.4003 5.02002 7.63671 5.26152C8.95713 6.6105 10.4599 7.34595 12.2416 6.16794C12.9497 5.69971 13.5843 5.10155 14.0352 4.39163C14.2172 4.08061 14.5401 3.56652 14.5254 3.19199C13.9969 3.15294 12.4572 3.96016 11.9959 4.2444C11.6782 4.44013 11.3762 4.67162 11.0692 4.88351C10.3229 5.39862 10.3405 5.20523 9.66598 4.72423L8.73269 4.10108C8.27176 3.8232 7.07471 3.21637 6.5188 3.17063ZM6.03278 4.68507C6.02001 5.80473 6.42958 6.97273 6.88629 7.98773L14.0921 8.00132C14.2566 7.48129 14.5169 6.99516 14.6632 6.46587C14.7902 6.00632 14.8971 5.48406 14.9301 5.00797L14.9486 4.70401C14.8461 4.80671 14.7756 4.97606 14.6942 5.09779C13.9003 6.28439 12.1964 7.6436 10.7157 7.66784C9.31081 7.69083 8.19572 7.06143 7.21237 6.13616L6.79684 5.70534C6.49066 5.37887 6.25705 5.0692 6.03278 4.68507ZM6.95433 8.90335C6.95232 9.01897 7.13101 10.4091 7.19269 10.5338L13.7758 10.5377L13.8025 10.3668L14.0342 8.91107L6.95433 8.90335ZM7.04363 11.4092L6.47726 12.1385C5.37581 13.5643 4.41165 15.0937 3.59952 16.6923L2.31969 19.4955C2.17112 19.8284 2.00094 20.1754 1.89555 20.523C2.10771 20.6288 2.35338 20.694 2.57621 20.778L4.7798 21.7303C5.64878 22.2123 6.27532 22.4613 7.31255 22.46C6.92003 19.4009 7.02712 16.8157 8.12175 13.8648L8.53003 12.8497C8.6795 12.5052 8.95771 12.002 9.40489 12.3831C9.45992 12.43 9.48812 12.485 9.51384 12.5499L9.52207 12.5699C9.60734 12.7842 9.46211 13.029 9.38406 13.2256L8.48808 15.7592C8.42186 15.9673 8.38615 16.1966 8.33808 16.4098C8.05886 17.6477 8.04413 18.364 8.04614 19.6066L8.05354 20.6431L8.23252 22.2429C8.24382 22.3092 8.24466 22.3799 8.2694 22.4426L9.49123 22.3106C10.371 22.228 11.2506 22.2674 12.1255 22.3756C12.316 22.3991 12.5087 22.4343 12.7004 22.446L12.8451 21.5106L12.9261 20.6184L12.9227 18.3245L12.7304 16.8038C12.6192 16.1737 12.4326 15.5269 12.2298 14.9185L11.672 13.4088C11.5767 13.1632 11.3489 12.8569 11.4492 12.5869L11.4556 12.5694C11.4987 12.4567 11.5864 12.3639 11.6994 12.3133L11.8203 12.2748C11.9032 12.2542 11.9878 12.2762 12.0632 12.3079L12.08 12.3146C12.29 12.4024 12.3974 12.7262 12.4764 12.9195L12.8796 13.9307L13.3169 15.29L13.6185 16.5214C13.7001 16.8348 13.7691 17.4003 13.8001 17.7173L13.834 18.1915C13.841 18.271 13.8576 18.3483 13.8612 18.4286L13.8667 19.6975C13.8666 20.0195 13.8843 20.3531 13.8605 20.674L13.742 21.8057C13.7115 22.0231 13.6653 22.2474 13.6484 22.4655C14.6409 22.4599 15.1814 22.2763 16.0193 21.8514L17.0339 21.3536L19.0857 20.5529C18.1662 18.28 17.1501 16.0548 15.814 13.9795L14.2297 11.7955C14.165 11.7121 13.9999 11.454 13.9147 11.4093L7.04363 11.4092ZM1.48192 21.3574L1.06386 22.3135C1.66205 22.5771 2.38954 22.7261 3.03113 22.9952C3.83072 23.3306 4.48243 23.9022 5.34482 24.103C6.11268 24.2817 6.57726 24.2169 7.30496 24.265C7.69051 24.2905 8.07342 24.3844 8.46268 24.3575C9.35129 24.2962 10.2271 24.102 11.124 24.1702L12.7502 24.3516C13.6309 24.4148 15.4522 24.226 16.21 23.9492C16.6234 23.7983 16.9871 23.5614 17.3702 23.3532L18.2097 22.9482C18.6343 22.7464 19.1019 22.5133 19.563 22.3975L19.9476 22.3014C19.8114 21.9955 19.6458 21.689 19.5501 21.3683C18.8409 21.6457 18.1213 21.879 17.4247 22.1894L16.0782 22.8639C15.2961 23.2297 14.4896 23.3674 13.6326 23.3721L12.8705 23.3718C12.4812 23.3635 12.0864 23.2943 11.6998 23.2495C11.1523 23.186 10.2389 23.14 9.68298 23.2174L9.23097 23.2621C7.87245 23.4236 6.41831 23.5131 5.13813 22.9514C4.74904 22.7807 4.38696 22.5458 4.00771 22.3546C3.74452 22.2219 3.47626 22.1152 3.20332 22.0038L1.78151 21.4686C1.70276 21.4397 1.56003 21.3588 1.48192 21.3574Z" fill="#5549EF"/>
</svg>
