<svg width="22" height="19" viewBox="0 0 22 19" fill="none" xmlns="http://www.w3.org/2000/svg">
<path d="M21 4.4872H8.17949M14.3333 14.7436H2.02564M14.3333 14.7436C14.3333 16.443 15.7109 17.8205 17.4103 17.8205C19.1096 17.8205 20.4872 16.443 20.4872 14.7436C20.4872 13.0443 19.1096 11.6667 17.4103 11.6667C15.7109 11.6667 14.3333 13.0443 14.3333 14.7436ZM7.15385 4.4872C7.15385 6.18654 5.77626 7.56413 4.07692 7.56413C2.37759 7.56413 1 6.18654 1 4.4872C1 2.78786 2.37759 1.41028 4.07692 1.41028C5.77626 1.41028 7.15385 2.78786 7.15385 4.4872Z" stroke="#5549EF" stroke-linecap="round" stroke-linejoin="round"/>
</svg>
