<svg width="21" height="18" viewBox="0 0 21 18" fill="none" xmlns="http://www.w3.org/2000/svg">
<path d="M12.4269 17.4999C11.9618 17.4609 11.7651 17.3252 11.6768 16.907L11.1743 14.9291L10.6325 13.0336C10.6084 12.9544 10.5775 12.8774 10.5603 12.7964L9.39562 16.7439C9.35845 16.877 9.3446 17.0387 9.28114 17.1608C8.94178 17.8133 7.56858 17.3153 7.03625 17.1986L1.57656 15.9839C0.916765 15.861 0.245935 15.6571 0.0272394 14.9317C-0.0415565 14.7035 0.0332454 14.5598 0.104736 14.349L2.16659 7.85406L3.23074 4.32273C3.44112 3.56568 3.46887 3.48146 3.46858 2.71491L3.46877 1.0581C3.46907 0.78165 3.50916 0.599407 3.80952 0.511029L16.5739 0.5068C17.2234 0.506776 17.541 0.380528 17.5422 1.21707L17.5427 3.25448C17.5434 3.60993 17.7134 4.13201 17.8153 4.47008L19.308 9.3046C19.3127 9.32727 19.3157 9.34639 19.3242 9.36811L19.4059 9.62842C19.4107 9.64719 19.4154 9.66459 19.4224 9.68277L20.9406 14.4236C21.0319 14.6256 21.0089 14.8568 20.9328 15.0582L20.8968 15.1415C20.5986 15.7358 19.9502 15.8159 19.3656 15.9319L13.7166 17.2748C13.2791 17.3791 12.8801 17.5045 12.4269 17.4999ZM4.2292 1.26267L4.23023 2.04834C4.31809 2.06351 4.41885 2.05373 4.50891 2.05375L5.0501 2.05344L5.03657 1.26281L4.2292 1.26267ZM5.79944 1.26187L5.79741 2.05242L8.60987 2.05435C8.58544 1.98905 8.30067 1.30955 8.26119 1.26146L5.79944 1.26187ZM9.11895 1.26148L9.07658 1.27243C9.08723 1.33464 9.13082 1.40255 9.15796 1.46043L9.35169 1.86527C9.46192 2.09979 9.3864 2.05353 9.66968 2.05346L11.6415 2.05281C11.6527 2.02045 11.6654 1.98811 11.6724 1.95462L11.8418 1.27135C11.745 1.25407 11.6372 1.26148 11.5387 1.26144L9.11895 1.26148ZM12.6261 1.26148C12.5913 1.34474 12.5741 1.43728 12.5493 1.52109L12.4066 2.04754L15.0202 2.05319L15.2119 2.05327L15.2145 1.50516C15.2144 1.43384 15.2268 1.33297 15.2073 1.26525L12.6261 1.26148ZM15.9521 1.26272C15.9283 1.51173 15.9314 1.80307 15.9553 2.05054L16.7829 2.05467L16.781 1.26351L15.9521 1.26272ZM4.29386 2.80807L4.23253 2.81597C4.221 3.17104 4.22024 3.33793 4.15076 3.68354L3.69726 5.37569L1.0595 13.7895C0.956706 14.107 0.865615 14.4386 0.733725 14.7457C1.09124 15.2967 1.75915 15.2674 2.37817 15.3987L6.91278 16.4187C7.51349 16.5508 8.02203 16.7147 8.64168 16.7503L9.9957 12.0135C10.1231 11.5514 10.1474 11.5722 10.1273 11.1116L10.1235 7.50066C10.1235 7.37379 10.1173 7.24336 10.1315 7.11725L10.1338 7.09606C10.1813 6.72618 10.7325 6.64349 10.8593 7.08328L10.8697 7.11389C10.8949 7.19725 10.8848 7.30832 10.8849 7.39513L10.8851 10.9562C10.8854 11.1833 10.8766 11.2843 10.9465 11.4997L11.2654 12.5449C11.3116 12.6772 11.3639 12.8331 11.3912 12.9707L12.402 16.7476C13.018 16.7281 13.4228 16.5797 14.0154 16.4443L19.2731 15.2001C19.5557 15.1469 20.3623 15.0871 20.2325 14.633L17.8026 7.01435L16.9345 4.06043C16.8732 3.81646 16.8039 3.54308 16.7859 3.291C16.775 3.1394 16.8059 2.95544 16.7742 2.80947L12.5035 2.81059L12.8017 4.368C12.8512 4.61383 12.8482 4.97964 12.8169 5.2223C12.7397 5.82104 12.216 6.34763 11.5768 6.28212C11.2889 6.25261 10.9262 6.1188 10.7415 5.89107L10.7283 5.87418C10.5327 5.62734 10.5183 5.3535 10.5179 5.05678L10.5173 2.80998L9.99891 2.80798C9.92252 2.80802 9.82424 2.79688 9.75079 2.81443L9.92827 3.37957C10.0522 3.77903 10.0789 4.12701 10.0967 4.53816L10.1016 5.79796C10.1015 5.87234 10.1113 5.96913 10.0782 6.03714C9.87169 6.46161 9.39504 6.25604 9.34717 5.98276C9.32365 5.84849 9.34156 5.68203 9.34156 5.54493L9.34134 4.5C9.34115 4.23428 9.35284 4.01122 9.27955 3.75486L8.99516 2.93833C8.97825 2.89099 8.97372 2.84287 8.93444 2.8081L4.29386 2.80807ZM11.2767 2.80897L11.277 5.001C11.2764 5.12397 11.2392 5.27305 11.3047 5.38543L11.3133 5.40092C11.4409 5.61902 11.7822 5.57516 11.9454 5.42915C12.1401 5.19673 12.1028 4.73584 12.0735 4.44103C12.0553 4.25799 11.8151 2.91902 11.7237 2.80887L11.2767 2.80897Z" fill="#5549EF"/>
</svg>
