<svg width="21" height="30" viewBox="0 0 21 30" fill="none" xmlns="http://www.w3.org/2000/svg">
<path d="M20.9106 5.94448C21.2433 7.55328 20.6348 9.1321 19.298 10.1091C17.365 11.5217 14.3799 10.8931 12.4602 9.79076L11.0922 8.90187C10.9178 8.78335 10.1462 8.80328 10.0667 8.84317C10.012 8.87072 9.94765 8.93833 9.89929 8.97763L9.41286 9.37454C7.89607 10.6007 5.85568 11.0027 3.94067 10.8773C2.73525 10.7984 1.61141 10.2717 0.854856 9.31188C0.252445 8.54765 0.0199425 7.75812 0.00851435 6.81218C0.00666435 6.65956 -0.0100451 6.49452 0.00911124 6.34369L0.0122141 6.3214C0.0309229 6.17208 0.107877 6.02591 0.17206 5.89142L0.516635 5.1986C0.876787 4.42017 0.95938 3.7414 0.961499 2.89506L0.960723 1.34155C0.960633 1.04883 1.02362 0.838529 1.34907 0.750765C1.5412 0.743911 1.73969 0.780329 1.83308 0.974542L1.84955 1.01013C1.93946 1.15151 1.90019 1.33759 1.90186 1.49856L1.90195 3.69137C1.89888 4.27942 1.79441 4.82824 1.5816 5.38142L1.70776 5.34523C3.38672 4.89293 5.20171 5.28125 6.56208 6.3766C6.99295 6.7235 7.32663 7.19328 7.81044 7.46747C8.45226 7.83126 9.06497 7.79617 9.77211 7.79453C9.89293 7.79426 10.5802 7.7504 10.6274 7.76558C10.7822 7.81541 12.093 7.81643 12.2646 7.77224C13.4842 7.45834 13.4566 7.30532 14.3931 6.43759C15.7763 5.15602 17.8359 4.75848 19.5915 5.43513C18.9179 4.17326 19.0974 3.42285 19.0993 2.04685L19.1004 1.44399C19.1011 1.14612 19.1065 0.835223 19.4824 0.762942L19.499 0.760107C19.6916 0.725838 19.8815 0.806587 19.9746 0.984917L19.9913 1.01759C20.1018 1.19358 20.0399 1.51664 20.04 1.71828L20.0414 3.02737C20.0426 3.32802 20.0589 3.61044 20.1072 3.90722C20.2116 4.54881 20.6195 5.05931 20.8263 5.65749L20.9106 5.94448ZM17.6282 6.17062C16.7058 6.22475 15.7754 6.56094 15.0956 7.20396C14.4843 7.78229 13.969 8.35534 13.1519 8.63839C13.0345 8.67906 12.8825 8.70314 12.7744 8.76001C13.7318 9.28786 14.2489 9.50195 15.2802 9.74024C16.0381 9.88875 16.8784 9.93995 17.6341 9.74991C18.9406 9.42136 20.0314 8.15477 20.0056 6.77682L19.4841 6.52257C18.8743 6.26029 18.2837 6.16098 17.6282 6.17062ZM3.01636 6.20118C2.47795 6.23501 1.96303 6.32748 1.47004 6.55727C1.30727 6.63312 1.1479 6.74991 0.982714 6.81176C1.27 9.43099 3.11865 10.0227 5.40643 9.81239L6.27676 9.69471C7.01792 9.52373 7.80265 9.26751 8.40548 8.78389L8.3922 8.78215C8.21284 8.75622 8.02635 8.68082 7.85683 8.6167C7.013 8.29743 6.6666 7.82085 5.9967 7.26107C5.17104 6.57112 4.09804 6.1671 3.01636 6.20118Z" fill="#5549EF"/>
<path d="M17.0668 24.1598C15.542 25.1418 14.2959 26.6081 13.7966 28.3683C13.7718 28.4556 13.7673 28.5463 13.7331 28.6312L13.7261 28.648C13.6125 28.9392 13.2685 28.9506 13.0088 29.0164C11.9674 29.2803 11.1557 29.3835 10.0934 29.3829C9.85494 29.3827 9.58922 29.4059 9.35526 29.3647L8.91371 29.3017C8.5316 29.2302 8.21014 29.1097 7.87157 28.9195C7.41029 28.6605 7.38138 28.6307 7.22165 28.1704C6.53939 26.204 4.25355 23.9073 2.20594 23.3293L1.71527 23.2141C1.55489 23.1831 1.32841 23.1898 1.19459 23.0921L1.17848 23.0799C0.839569 22.828 0.893666 22.0472 0.891488 21.6553L0.90784 20.0318L1.14888 17.8763L1.84044 14.462C1.87306 14.3097 1.88601 14.1281 1.94649 13.9847L1.95416 13.9674C2.03058 13.7898 2.17279 13.6753 2.36692 13.6448L2.38545 13.6421C2.45951 13.6462 2.51751 13.6532 2.58608 13.6859L2.65316 13.7196C2.75022 13.7745 2.83007 13.8928 2.85791 14.0001L2.86453 14.0271C2.89921 14.1383 2.8995 14.2349 2.91323 14.3496C3.07361 14.4687 3.21353 14.6126 3.36367 14.7441C4.08123 15.3724 4.88681 15.8448 5.75303 16.2421C9.18718 17.8172 12.4831 17.6591 15.8455 15.9261C16.6846 15.4936 17.4162 14.9982 18.108 14.3516C18.1017 13.4912 18.9743 13.4209 19.091 14.0937C19.1089 14.1969 19.132 14.3058 19.1562 14.4075L19.8313 17.7549C20.0996 19.0233 20.1483 20.5661 20.1013 21.8489L20.0905 22.2178C20.0429 22.8618 20.0767 23.0619 19.3972 23.1845C18.5882 23.3304 17.761 23.7165 17.0668 24.1598ZM2.64644 15.503L2.12594 18.3008L4.09039 18.9322C6.03038 19.6747 7.8938 20.7349 9.42502 22.1503L10.2664 22.9932C10.6014 23.352 10.4236 23.3382 10.8559 22.8723L11.4629 22.2712C13.0643 20.7984 14.8779 19.7415 16.8991 18.9435L18.8754 18.2984C18.8501 18.0603 18.7977 17.8269 18.7583 17.591L18.4509 16.0172C18.4201 15.8721 18.4108 15.6895 18.3554 15.5548C17.9823 15.8099 17.6384 16.0945 17.2514 16.3312C15.4901 17.4086 13.4215 18.2006 11.3484 18.3504C8.2743 18.5725 5.01029 17.48 2.64644 15.503ZM1.98609 19.3458C1.95264 19.5008 1.95732 19.6611 1.94571 19.8186L1.90728 22.1908C2.05012 22.2344 2.20164 22.2547 2.34707 22.2922C4.56083 22.8624 6.70723 24.9037 7.76832 26.9006L8.20576 27.8423C8.33001 28.1675 9.15737 28.3262 9.46166 28.3348L9.94236 28.3412C11.1268 28.3391 11.6619 28.2915 12.8392 27.9721C13.5809 25.6529 15.2253 23.9038 17.3866 22.7896C17.6725 22.6423 17.9991 22.49 18.3089 22.403L19.0638 22.1827C19.1415 21.3575 19.1328 20.1893 19.03 19.3445C18.4128 19.4636 17.8058 19.7063 17.2232 19.9378C14.9603 20.8368 13.0228 22.0317 11.3605 23.85L11.0478 24.2067C10.6402 24.6902 10.406 24.7604 10.0043 24.2788L8.49078 22.6957C6.99145 21.3424 4.80843 20.2425 2.92272 19.6159L2.26233 19.409C2.18589 19.3871 2.08014 19.3441 2.00098 19.3435L1.98609 19.3458Z" fill="#5549EF"/>
</svg>
