<svg width="40" height="40" viewBox="0 0 40 40" fill="none" xmlns="http://www.w3.org/2000/svg">
<rect width="40" height="40" rx="20" fill="white"/>
<path d="M12 16L15.528 12.472C15.6768 12.3223 15.8539 12.2035 16.0488 12.1225C16.2438 12.0415 16.4529 11.9998 16.664 12H23.336C23.5471 11.9998 23.7562 12.0415 23.9512 12.1225C24.1461 12.2035 24.3232 12.3223 24.472 12.472L28 16M12 16H28M12 16V18.4C12 18.8243 12.1686 19.2313 12.4686 19.5314C12.7687 19.8314 13.1757 20 13.6 20M28 16V18.4C28 18.8243 27.8314 19.2313 27.5314 19.5314C27.2313 19.8314 26.8243 20 26.4 20M13.6 20V26.4C13.6 26.8243 13.7686 27.2313 14.0686 27.5314C14.3687 27.8314 14.7757 28 15.2 28H24.8C25.2243 28 25.6313 27.8314 25.9314 27.5314C26.2314 27.2313 26.4 26.8243 26.4 26.4V20M13.6 20C14.0674 19.9743 14.5138 19.7974 14.872 19.496C14.9675 19.427 15.0822 19.3899 15.2 19.3899C15.3178 19.3899 15.4325 19.427 15.528 19.496C15.8862 19.7974 16.3326 19.9743 16.8 20C17.2674 19.9743 17.7138 19.7974 18.072 19.496C18.1675 19.427 18.2822 19.3899 18.4 19.3899C18.5178 19.3899 18.6325 19.427 18.728 19.496C19.0862 19.7974 19.5326 19.9743 20 20C20.4674 19.9743 20.9138 19.7974 21.272 19.496C21.3675 19.427 21.4822 19.3899 21.6 19.3899C21.7178 19.3899 21.8325 19.427 21.928 19.496C22.2862 19.7974 22.7326 19.9743 23.2 20C23.6674 19.9743 24.1138 19.7974 24.472 19.496C24.5675 19.427 24.6822 19.3899 24.8 19.3899C24.9178 19.3899 25.0325 19.427 25.128 19.496C25.4862 19.7974 25.9326 19.9743 26.4 20M22.4 28V24.8C22.4 24.3757 22.2314 23.9687 21.9314 23.6686C21.6313 23.3686 21.2243 23.2 20.8 23.2H19.2C18.7757 23.2 18.3687 23.3686 18.0686 23.6686C17.7686 23.9687 17.6 24.3757 17.6 24.8V28" stroke="#5549EF" stroke-linecap="round" stroke-linejoin="round"/>
</svg>
