<svg width="22" height="18" viewBox="0 0 22 18" fill="none" xmlns="http://www.w3.org/2000/svg">
<path d="M14.4579 17.185L5.17758 17.186C4.5665 17.186 4.50543 17.1624 4.50491 16.594L4.49278 7.89584C4.4301 7.93439 4.35945 7.94779 4.2915 7.97503L3.80282 8.17294C3.59691 8.25588 3.39222 8.37148 3.17992 8.43584C2.83305 8.541 2.72324 8.25174 2.54586 8.01701L0.123466 4.99543C0.0865266 4.94786 0.021701 4.86839 0.00964649 4.80959L0.00563696 4.78473C-0.015161 4.65951 0.0210286 4.56061 0.123596 4.48681L2.73136 2.73675C3.83006 1.97113 3.94028 1.97473 5.26704 1.69595L6.46395 1.38776C6.69234 1.31936 6.89626 1.2424 7.10486 1.12437C7.28157 1.02436 7.45049 0.862918 7.649 0.814855C7.69572 0.81232 7.73848 0.812759 7.78473 0.820649L7.80333 0.823961C7.95639 0.849932 8.11954 1.0375 8.24648 1.1307C9.50962 2.05821 11.8625 1.95023 13.0934 1.02922C13.3355 0.84807 13.4579 0.716789 13.7693 0.909661C14.3475 1.26794 14.4541 1.30632 15.1293 1.456L16.3487 1.72125C17.3386 1.94594 17.994 2.39483 18.8055 2.97073L21.0879 4.47385C21.1187 4.49506 21.1448 4.5156 21.1644 4.54799L21.1728 4.56266C21.2912 4.76236 21.1344 4.92466 21.0134 5.07164L18.9372 7.65405L18.4772 8.28216C18.2247 8.60241 17.959 8.39373 17.6607 8.26961L16.7044 7.89564C16.6787 8.10468 16.6961 8.33299 16.6962 8.54394V16.1947C16.6961 16.4288 16.7169 16.6802 16.6918 16.9117L16.6897 16.9286C16.6614 17.1659 16.4067 17.1844 16.2269 17.1847L14.4579 17.185ZM7.39301 1.6789C7.07527 1.84824 6.78557 1.95181 6.44026 2.04739L5.17125 2.35215C4.14175 2.58436 4.08005 2.60304 3.2503 3.16345L1.03633 4.65687C0.973933 4.69937 0.857604 4.75204 0.812542 4.8089L3.14947 7.75261L4.13652 7.34361C4.42247 7.22063 4.86235 6.8813 5.09289 7.24743L5.10215 7.26184C5.13723 7.32168 5.12435 7.4283 5.12406 7.49688L5.12163 15.9057C5.12173 16.1093 5.1007 16.3393 5.13521 16.539L16.0678 16.5427L16.0739 16.4143L16.0697 7.75008C16.0694 7.50053 16.0057 7.19324 16.301 7.08553L16.3177 7.07888C16.4548 7.02929 16.6961 7.19024 16.8189 7.24099L17.7937 7.63189C17.8168 7.64117 18.0423 7.74053 18.0468 7.73867C18.0678 7.73 18.4808 7.16732 18.5463 7.08904L20.4018 4.79048L18.7002 3.6647C17.5635 2.90417 17.2668 2.57115 15.9244 2.28704L15.1141 2.09641C14.6628 1.98888 14.2407 1.90289 13.8296 1.67743C13.5828 2.50154 13.1088 3.23823 12.3321 3.66007C10.5386 4.6341 8.16484 3.90253 7.46614 1.92302C7.43792 1.84304 7.42434 1.75785 7.39301 1.6789ZM13.1023 1.76339C12.9219 1.88556 12.7141 1.97509 12.5118 2.05515C11.2641 2.54898 9.60551 2.57715 8.39602 1.94749C8.29457 1.89469 8.20232 1.82529 8.10185 1.7705L8.12686 1.85817C8.17868 2.05774 8.34956 2.30605 8.47556 2.46092C8.79819 2.87605 9.20468 3.1604 9.71111 3.30847C11.0665 3.70479 12.6088 3.18632 13.1222 1.77045L13.1023 1.76339Z" fill="#5549EF"/>
<path d="M12.9635 9.73843C12.799 9.84858 12.6313 9.9694 12.4436 10.037L12.3604 10.0656C12.0739 10.1422 11.5134 9.70213 11.2833 9.5239C10.5258 8.93734 9.93604 8.03452 10.5235 7.1117C10.7366 6.77707 11.0703 6.61741 11.4458 6.53259C11.7536 6.50036 11.9914 6.56526 12.2436 6.74147L12.4047 6.63702C13.0942 6.27098 14.0116 6.82821 14.158 7.55792C14.3549 8.53957 13.7121 9.19693 12.9635 9.73843ZM11.5731 7.1684C11.3113 7.20193 11.1191 7.3374 11.005 7.57086L10.9956 7.58928C10.9052 7.77095 10.8991 7.99592 10.9675 8.18523L11.0245 8.3073C11.2535 8.79535 11.8059 9.16573 12.262 9.41019C12.4478 9.31168 12.6525 9.18976 12.8095 9.04891C13.1365 8.78653 13.5071 8.45816 13.5578 8.013C13.617 7.4946 13.0935 6.92524 12.5766 7.26455C12.2059 7.50792 12.2414 7.5072 11.8867 7.2525C11.8038 7.19292 11.6761 7.15878 11.5731 7.1684Z" fill="#5549EF"/>
</svg>
