<svg width="29" height="29" viewBox="0 0 29 29" fill="none" xmlns="http://www.w3.org/2000/svg">
<mask id="path-1-inside-1_993_153" fill="white">
<path d="M29 14.5C29 17.3678 28.1496 20.1712 26.5563 22.5558C24.963 24.9403 22.6984 26.7988 20.0489 27.8962C17.3994 28.9937 14.4839 29.2809 11.6712 28.7214C8.85847 28.1619 6.27482 26.7809 4.24696 24.753C2.2191 22.7252 0.838105 20.1415 0.27862 17.3288C-0.280866 14.5161 0.00628263 11.6006 1.10375 8.95109C2.20122 6.30156 4.05972 4.03697 6.44424 2.44369C8.82875 0.85041 11.6322 -3.41985e-08 14.5 0V2.518C12.1302 2.518 9.81359 3.22073 7.84316 4.53733C5.87273 5.85393 4.33697 7.72526 3.43008 9.91468C2.52319 12.1041 2.28591 14.5133 2.74824 16.8376C3.21057 19.1618 4.35174 21.2968 6.02745 22.9725C7.70316 24.6483 9.83815 25.7894 12.1624 26.2518C14.4867 26.7141 16.8959 26.4768 19.0853 25.5699C21.2747 24.663 23.1461 23.1273 24.4627 21.1568C25.7793 19.1864 26.482 16.8698 26.482 14.5H29Z"/>
</mask>
<path d="M29 14.5H31.1821V12.3179H29V14.5ZM26.5563 22.5558L24.7419 21.3434L26.5563 22.5558ZM20.0489 27.8962L19.2138 25.8802L20.0489 27.8962ZM11.6712 28.7214L12.0969 26.5812L11.6712 28.7214ZM4.24696 24.753L2.70396 26.296L4.24696 24.753ZM0.27862 17.3288L-1.86158 17.7545V17.7545L0.27862 17.3288ZM6.44424 2.44369L7.65656 4.25806L6.44424 2.44369ZM14.5 0L16.6821 2.60215e-08V-2.18213H14.5V0ZM14.5 2.518V4.70013H16.6821V2.518H14.5ZM7.84316 4.53733L9.05549 6.3517L7.84316 4.53733ZM3.43008 9.91468L1.41406 9.07962L3.43008 9.91468ZM6.02745 22.9725L4.48446 24.5155L6.02745 22.9725ZM12.1624 26.2518L11.7367 28.392L12.1624 26.2518ZM19.0853 25.5699L18.2502 23.5539L19.0853 25.5699ZM24.4627 21.1568L22.6483 19.9445L24.4627 21.1568ZM26.482 14.5V12.3179H24.2999V14.5H26.482ZM26.8179 14.5C26.8179 16.9362 26.0954 19.3178 24.7419 21.3434L28.3707 23.7681C30.2037 21.0247 31.1821 17.7994 31.1821 14.5H26.8179ZM24.7419 21.3434C23.3884 23.3691 21.4646 24.9479 19.2138 25.8802L20.884 29.9123C23.9322 28.6496 26.5376 26.5114 28.3707 23.7681L24.7419 21.3434ZM19.2138 25.8802C16.963 26.8125 14.4863 27.0565 12.0969 26.5812L11.2455 30.8616C14.4815 31.5053 17.8357 31.1749 20.884 29.9123L19.2138 25.8802ZM12.0969 26.5812C9.70747 26.1059 7.51264 24.9327 5.78995 23.21L2.70396 26.296C5.037 28.6291 8.00947 30.2179 11.2455 30.8616L12.0969 26.5812ZM5.78995 23.21C4.06727 21.4874 2.89411 19.2925 2.41882 16.9031L-1.86158 17.7545C-1.21789 20.9905 0.370923 23.963 2.70396 26.296L5.78995 23.21ZM2.41882 16.9031C1.94353 14.5137 2.18746 12.0369 3.11978 9.78615L-0.912269 8.11602C-2.1749 11.1643 -2.50526 14.5185 -1.86158 17.7545L2.41882 16.9031ZM3.11978 9.78615C4.05209 7.53535 5.6309 5.61157 7.65656 4.25806L5.23191 0.629318C2.48855 2.46237 0.350361 5.06776 -0.912269 8.11602L3.11978 9.78615ZM7.65656 4.25806C9.68222 2.90456 12.0638 2.18213 14.5 2.18213V-2.18213C11.2006 -2.18213 7.97527 -1.20374 5.23191 0.629318L7.65656 4.25806ZM12.3179 -2.60215e-08V2.518H16.6821V2.60215e-08L12.3179 -2.60215e-08ZM14.5 0.335875C11.6986 0.335875 8.96012 1.16659 6.63084 2.72296L9.05549 6.3517C10.6671 5.27488 12.5618 4.70013 14.5 4.70013V0.335875ZM6.63084 2.72296C4.30156 4.27933 2.48611 6.49147 1.41406 9.07962L5.44611 10.7497C6.18783 8.95906 7.44391 7.42853 9.05549 6.3517L6.63084 2.72296ZM1.41406 9.07962C0.342012 11.6678 0.0615152 14.5157 0.608041 17.2633L4.88844 16.4119C4.51031 14.5109 4.70438 12.5404 5.44611 10.7497L1.41406 9.07962ZM0.608041 17.2633C1.15457 20.0108 2.50357 22.5347 4.48446 24.5155L7.57045 21.4295C6.19991 20.059 5.26657 18.3128 4.88844 16.4119L0.608041 17.2633ZM4.48446 24.5155C6.46534 26.4964 8.98915 27.8454 11.7367 28.392L12.5881 24.1116C10.6872 23.7334 8.94099 22.8001 7.57045 21.4295L4.48446 24.5155ZM11.7367 28.392C14.4843 28.9385 17.3322 28.658 19.9204 27.5859L18.2502 23.5539C16.4596 24.2956 14.4891 24.4897 12.5881 24.1116L11.7367 28.392ZM19.9204 27.5859C22.5085 26.5139 24.7207 24.6984 26.277 22.3692L22.6483 19.9445C21.5715 21.5561 20.0409 22.8122 18.2502 23.5539L19.9204 27.5859ZM26.277 22.3692C27.8334 20.0399 28.6641 17.3014 28.6641 14.5H24.2999C24.2999 16.4382 23.7251 18.3329 22.6483 19.9445L26.277 22.3692ZM26.482 16.6821H29V12.3179H26.482V16.6821Z" fill="#FFBA1A" mask="url(#path-1-inside-1_993_153)"/>
<path d="M7.99296 12.3355V17.3572H7.23285V13.0956H7.20342L6.00196 13.8803V13.1545L7.25492 12.3355H7.99296ZM11.1885 17.3572V13.5909H11.8922V14.2039H11.9388C12.0173 13.9963 12.1456 13.8345 12.3238 13.7184C12.5019 13.6008 12.7153 13.5419 12.9637 13.5419C13.2155 13.5419 13.4263 13.6008 13.5963 13.7184C13.768 13.8361 13.8947 13.998 13.9764 14.2039H14.0156C14.1055 14.0029 14.2486 13.8427 14.4447 13.7234C14.6409 13.6024 14.8746 13.5419 15.146 13.5419C15.4876 13.5419 15.7663 13.649 15.9821 13.8631C16.1995 14.0773 16.3082 14.4001 16.3082 14.8316V17.3572H15.5751V14.9003C15.5751 14.6453 15.5056 14.4606 15.3667 14.3462C15.2277 14.2317 15.0618 14.1745 14.8689 14.1745C14.6303 14.1745 14.4447 14.2481 14.3123 14.3952C14.1799 14.5407 14.1137 14.7278 14.1137 14.9567V17.3572H13.383V14.8537C13.383 14.6494 13.3193 14.4851 13.1918 14.3609C13.0643 14.2366 12.8983 14.1745 12.694 14.1745C12.5551 14.1745 12.4267 14.2113 12.309 14.2849C12.193 14.3568 12.099 14.4573 12.0271 14.5864C11.9568 14.7156 11.9216 14.8652 11.9216 15.0352V17.3572H11.1885ZM17.2908 17.3572V13.5909H18.024V17.3572H17.2908ZM17.6611 13.0098C17.5336 13.0098 17.4241 12.9673 17.3325 12.8823C17.2426 12.7957 17.1977 12.6927 17.1977 12.5734C17.1977 12.4524 17.2426 12.3494 17.3325 12.2644C17.4241 12.1778 17.5336 12.1345 17.6611 12.1345C17.7886 12.1345 17.8973 12.1778 17.9872 12.2644C18.0787 12.3494 18.1245 12.4524 18.1245 12.5734C18.1245 12.6927 18.0787 12.7957 17.9872 12.8823C17.8973 12.9673 17.7886 13.0098 17.6611 13.0098ZM19.7434 15.121V17.3572H19.0103V13.5909H19.714V14.2039H19.7606C19.8472 14.0045 19.9829 13.8443 20.1676 13.7234C20.354 13.6024 20.5885 13.5419 20.8713 13.5419C21.128 13.5419 21.3527 13.5958 21.5456 13.7037C21.7385 13.81 21.8881 13.9685 21.9943 14.1794C22.1006 14.3903 22.1537 14.651 22.1537 14.9616V17.3572H21.4206V15.0499C21.4206 14.7769 21.3495 14.5636 21.2073 14.4099C21.065 14.2546 20.8697 14.177 20.6212 14.177C20.4512 14.177 20.3 14.2137 20.1676 14.2873C20.0369 14.3609 19.9331 14.4688 19.8562 14.611C19.781 14.7515 19.7434 14.9215 19.7434 15.121Z" fill="#0B1215"/>
</svg>
