<svg width="80" height="73" viewBox="0 0 80 73" fill="none" xmlns="http://www.w3.org/2000/svg">
<rect x="0.5" y="0.5" width="79" height="72" rx="13.5" fill="#F6F6F6"/>
<rect x="0.5" y="0.5" width="79" height="72" rx="13.5" stroke="#5549EF"/>
<path d="M50.2895 23.1053V31.5789C50.2895 32.2211 50.0344 32.8369 49.5804 33.2909C49.1263 33.7449 48.5105 34 47.8684 34H30.9211C30.2789 34 29.6631 33.7449 29.2091 33.2909C28.7551 32.8369 28.5 32.2211 28.5 31.5789V14.6316C28.5 13.9895 28.7551 13.3737 29.2091 12.9196C29.6631 12.4656 30.2789 12.2105 30.9211 12.2105H39.3947M44.2368 14.6316H51.5M47.8684 11V18.2632M50.2895 26.7368L46.5538 23.0012C46.0998 22.5473 45.4841 22.2923 44.8421 22.2923C44.2001 22.2923 43.5844 22.5473 43.1304 23.0012L32.1316 34M38.1842 19.4737C38.1842 20.8108 37.1003 21.8947 35.7632 21.8947C34.426 21.8947 33.3421 20.8108 33.3421 19.4737C33.3421 18.1366 34.426 17.0526 35.7632 17.0526C37.1003 17.0526 38.1842 18.1366 38.1842 19.4737Z" stroke="#5549EF" stroke-width="0.5" stroke-linecap="round" stroke-linejoin="round"/>
<path d="M14.0208 48H13.0975L15.7679 40.7273H16.677L19.3475 48H18.4242L16.2509 41.8778H16.1941L14.0208 48ZM14.3617 45.1591H18.0833V45.9403H14.3617V45.1591ZM20.3667 42.5455H21.2047V48.3977C21.2047 48.7339 21.1467 49.0251 21.0307 49.2713C20.9171 49.5175 20.7443 49.7081 20.5123 49.843C20.2826 49.978 19.9926 50.0455 19.6422 50.0455C19.6138 50.0455 19.5854 50.0455 19.557 50.0455C19.5286 50.0455 19.5002 50.0455 19.4718 50.0455V49.2642C19.5002 49.2642 19.5262 49.2642 19.5499 49.2642C19.5736 49.2642 19.5996 49.2642 19.628 49.2642C19.8837 49.2642 20.0707 49.1884 20.1891 49.0369C20.3075 48.8878 20.3667 48.6747 20.3667 48.3977V42.5455ZM20.7786 41.6364C20.6152 41.6364 20.4744 41.5807 20.356 41.4695C20.24 41.3582 20.182 41.2244 20.182 41.0682C20.182 40.9119 20.24 40.7782 20.356 40.6669C20.4744 40.5556 20.6152 40.5 20.7786 40.5C20.9419 40.5 21.0816 40.5556 21.1976 40.6669C21.316 40.7782 21.3752 40.9119 21.3752 41.0682C21.3752 41.2244 21.316 41.3582 21.1976 41.4695C21.0816 41.5807 20.9419 41.6364 20.7786 41.6364ZM24.9556 48.1136C24.4632 48.1136 24.0311 47.9964 23.6594 47.7621C23.2901 47.5277 23.0013 47.1998 22.793 46.7784C22.587 46.357 22.484 45.8646 22.484 45.3011C22.484 44.733 22.587 44.237 22.793 43.8132C23.0013 43.3894 23.2901 43.0604 23.6594 42.826C24.0311 42.5916 24.4632 42.4744 24.9556 42.4744C25.448 42.4744 25.8789 42.5916 26.2482 42.826C26.6199 43.0604 26.9087 43.3894 27.1147 43.8132C27.323 44.237 27.4272 44.733 27.4272 45.3011C27.4272 45.8646 27.323 46.357 27.1147 46.7784C26.9087 47.1998 26.6199 47.5277 26.2482 47.7621C25.8789 47.9964 25.448 48.1136 24.9556 48.1136ZM24.9556 47.3608C25.3297 47.3608 25.6374 47.2649 25.8789 47.0732C26.1204 46.8814 26.2991 46.6293 26.4151 46.3168C26.5311 46.0043 26.5891 45.6657 26.5891 45.3011C26.5891 44.9366 26.5311 44.5968 26.4151 44.282C26.2991 43.9671 26.1204 43.7126 25.8789 43.5185C25.6374 43.3243 25.3297 43.2273 24.9556 43.2273C24.5816 43.2273 24.2738 43.3243 24.0323 43.5185C23.7908 43.7126 23.6121 43.9671 23.4961 44.282C23.3801 44.5968 23.3221 44.9366 23.3221 45.3011C23.3221 45.6657 23.3801 46.0043 23.4961 46.3168C23.6121 46.6293 23.7908 46.8814 24.0323 47.0732C24.2738 47.2649 24.5816 47.3608 24.9556 47.3608ZM32.144 45.7699V42.5455H32.9821V48H32.144V47.0767H32.0872C31.9593 47.3537 31.7605 47.5893 31.4906 47.7834C31.2207 47.9751 30.8798 48.071 30.4679 48.071C30.127 48.071 29.8239 47.9964 29.5588 47.8473C29.2936 47.6958 29.0853 47.4685 28.9338 47.1655C28.7823 46.8601 28.7065 46.4754 28.7065 46.0114V42.5455H29.5446V45.9545C29.5446 46.3523 29.6558 46.6695 29.8784 46.9062C30.1033 47.143 30.3897 47.2614 30.7377 47.2614C30.9461 47.2614 31.158 47.2081 31.3734 47.1016C31.5912 46.995 31.7735 46.8317 31.9203 46.6115C32.0694 46.3913 32.144 46.1108 32.144 45.7699ZM36.8892 42.5455V43.2557H34.0625V42.5455H36.8892ZM34.8864 41.2386H35.7244V46.4375C35.7244 46.6742 35.7588 46.8518 35.8274 46.9702C35.8984 47.0862 35.9884 47.1643 36.0973 47.2045C36.2086 47.2424 36.3258 47.2614 36.4489 47.2614C36.5412 47.2614 36.617 47.2566 36.6761 47.2472C36.7353 47.2353 36.7827 47.2259 36.8182 47.2188L36.9886 47.9716C36.9318 47.9929 36.8525 48.0142 36.7507 48.0355C36.6489 48.0592 36.5199 48.071 36.3636 48.071C36.1269 48.071 35.8949 48.0201 35.6676 47.9183C35.4427 47.8165 35.2557 47.6615 35.1065 47.4531C34.9598 47.2448 34.8864 46.982 34.8864 46.6648V41.2386ZM40.3782 48.1136C39.8526 48.1136 39.3993 47.9976 39.0181 47.7656C38.6393 47.5312 38.3469 47.2045 38.141 46.7855C37.9374 46.3641 37.8356 45.8741 37.8356 45.3153C37.8356 44.7566 37.9374 44.2642 38.141 43.8381C38.3469 43.4096 38.6334 43.0758 39.0004 42.8366C39.3697 42.5952 39.8005 42.4744 40.293 42.4744C40.5771 42.4744 40.8576 42.5218 41.1346 42.6165C41.4116 42.7112 41.6637 42.8651 41.891 43.0781C42.1183 43.2888 42.2994 43.5682 42.4343 43.9162C42.5692 44.2642 42.6367 44.6927 42.6367 45.2017V45.5568H38.4322V44.8324H41.7844C41.7844 44.5246 41.7229 44.25 41.5998 44.0085C41.479 43.767 41.3062 43.5765 41.0813 43.4368C40.8588 43.2971 40.596 43.2273 40.293 43.2273C39.9592 43.2273 39.6703 43.3101 39.4265 43.4759C39.185 43.6392 38.9992 43.8523 38.869 44.1151C38.7388 44.3778 38.6737 44.6596 38.6737 44.9602V45.4432C38.6737 45.8551 38.7447 46.2043 38.8867 46.4908C39.0311 46.7749 39.2312 46.9915 39.4869 47.1406C39.7425 47.2874 40.0397 47.3608 40.3782 47.3608C40.5984 47.3608 40.7972 47.33 40.9748 47.2685C41.1547 47.2045 41.3098 47.1098 41.44 46.9844C41.5702 46.8565 41.6708 46.6979 41.7418 46.5085L42.5515 46.7358C42.4663 47.0104 42.323 47.2519 42.1218 47.4602C41.9206 47.6662 41.672 47.8272 41.3761 47.9432C41.0801 48.0568 40.7475 48.1136 40.3782 48.1136ZM43.9116 48V42.5455H44.7212V43.3693H44.7781C44.8775 43.0994 45.0574 42.8804 45.3178 42.7124C45.5782 42.5443 45.8718 42.4602 46.1985 42.4602C46.2601 42.4602 46.337 42.4614 46.4293 42.4638C46.5217 42.4661 46.5915 42.4697 46.6388 42.4744V43.3267C46.6104 43.3196 46.5453 43.3089 46.4435 43.2947C46.3441 43.2782 46.2388 43.2699 46.1275 43.2699C45.8623 43.2699 45.6256 43.3255 45.4173 43.4368C45.2113 43.5457 45.0479 43.6972 44.9272 43.8913C44.8088 44.0831 44.7496 44.3021 44.7496 44.5483V48H43.9116ZM53.8823 45.7699V42.5455H54.7203V48H53.8823V47.0767H53.8255C53.6976 47.3537 53.4988 47.5893 53.2289 47.7834C52.959 47.9751 52.6181 48.071 52.2061 48.071C51.8652 48.071 51.5622 47.9964 51.2971 47.8473C51.0319 47.6958 50.8236 47.4685 50.6721 47.1655C50.5205 46.8601 50.4448 46.4754 50.4448 46.0114V42.5455H51.2828V45.9545C51.2828 46.3523 51.3941 46.6695 51.6167 46.9062C51.8416 47.143 52.128 47.2614 52.476 47.2614C52.6844 47.2614 52.8962 47.2081 53.1117 47.1016C53.3295 46.995 53.5118 46.8317 53.6586 46.6115C53.8077 46.3913 53.8823 46.1108 53.8823 45.7699ZM57.0934 44.7188V48H56.2553V42.5455H57.065V43.3977H57.136C57.2638 43.1207 57.458 42.8982 57.7184 42.7301C57.9788 42.5597 58.315 42.4744 58.7269 42.4744C59.0962 42.4744 59.4194 42.5502 59.6964 42.7017C59.9734 42.8509 60.1888 43.0781 60.3427 43.3835C60.4966 43.6866 60.5735 44.0701 60.5735 44.5341V48H59.7354V44.5909C59.7354 44.1624 59.6242 43.8286 59.4016 43.5895C59.1791 43.348 58.8737 43.2273 58.4854 43.2273C58.2179 43.2273 57.9788 43.2853 57.7681 43.4013C57.5598 43.5173 57.3952 43.6866 57.2745 43.9091C57.1538 44.1316 57.0934 44.4015 57.0934 44.7188ZM64.3919 48.1136C63.8663 48.1136 63.4129 47.9976 63.0318 47.7656C62.653 47.5312 62.3606 47.2045 62.1547 46.7855C61.9511 46.3641 61.8493 45.8741 61.8493 45.3153C61.8493 44.7566 61.9511 44.2642 62.1547 43.8381C62.3606 43.4096 62.6471 43.0758 63.014 42.8366C63.3833 42.5952 63.8142 42.4744 64.3066 42.4744C64.5907 42.4744 64.8713 42.5218 65.1483 42.6165C65.4252 42.7112 65.6774 42.8651 65.9047 43.0781C66.1319 43.2888 66.313 43.5682 66.448 43.9162C66.5829 44.2642 66.6504 44.6927 66.6504 45.2017V45.5568H62.4458V44.8324H65.7981C65.7981 44.5246 65.7366 44.25 65.6135 44.0085C65.4927 43.767 65.3199 43.5765 65.095 43.4368C64.8725 43.2971 64.6097 43.2273 64.3066 43.2273C63.9728 43.2273 63.684 43.3101 63.4402 43.4759C63.1987 43.6392 63.0128 43.8523 62.8826 44.1151C62.7524 44.3778 62.6873 44.6596 62.6873 44.9602V45.4432C62.6873 45.8551 62.7583 46.2043 62.9004 46.4908C63.0448 46.7749 63.2449 46.9915 63.5005 47.1406C63.7562 47.2874 64.0533 47.3608 64.3919 47.3608C64.612 47.3608 64.8109 47.33 64.9885 47.2685C65.1684 47.2045 65.3234 47.1098 65.4537 46.9844C65.5839 46.8565 65.6845 46.6979 65.7555 46.5085L66.5652 46.7358C66.4799 47.0104 66.3367 47.2519 66.1355 47.4602C65.9342 47.6662 65.6857 47.8272 65.3897 47.9432C65.0938 48.0568 64.7612 48.1136 64.3919 48.1136ZM27.0122 62.0455V54.5455H27.8218V55.4119H27.9213C27.9828 55.3172 28.068 55.1965 28.1769 55.0497C28.2882 54.9006 28.4468 54.768 28.6528 54.652C28.8611 54.5336 29.1428 54.4744 29.498 54.4744C29.9572 54.4744 30.3621 54.5893 30.7124 54.8189C31.0628 55.0485 31.3363 55.3741 31.5328 55.7955C31.7293 56.2169 31.8275 56.714 31.8275 57.2869C31.8275 57.8646 31.7293 58.3653 31.5328 58.7891C31.3363 59.2105 31.064 59.5372 30.716 59.7692C30.368 59.9988 29.9667 60.1136 29.5122 60.1136C29.1618 60.1136 28.8812 60.0556 28.6705 59.9396C28.4598 59.8213 28.2977 59.6875 28.184 59.5384C28.0704 59.3868 27.9828 59.2614 27.9213 59.1619H27.8502V62.0455H27.0122ZM27.836 57.2727C27.836 57.6847 27.8964 58.0481 28.0171 58.3629C28.1379 58.6754 28.3142 58.9205 28.5463 59.098C28.7783 59.2732 29.0624 59.3608 29.3985 59.3608C29.7489 59.3608 30.0413 59.2685 30.2757 59.0838C30.5124 58.8968 30.69 58.6458 30.8083 58.331C30.9291 58.0137 30.9894 57.661 30.9894 57.2727C30.9894 56.8892 30.9302 56.5436 30.8119 56.2358C30.6959 55.9257 30.5195 55.6806 30.2828 55.5007C30.0484 55.3184 29.7536 55.2273 29.3985 55.2273C29.0576 55.2273 28.7712 55.3137 28.5392 55.4865C28.3071 55.657 28.132 55.8961 28.0136 56.2038C27.8952 56.5092 27.836 56.8655 27.836 57.2727ZM33.944 56.7188V60H33.1059V52.7273H33.944V55.3977H34.015C34.1428 55.116 34.3346 54.8923 34.5903 54.7266C34.8483 54.5585 35.1916 54.4744 35.6201 54.4744C35.9918 54.4744 36.3173 54.549 36.5967 54.6982C36.876 54.8449 37.0927 55.071 37.2465 55.3764C37.4028 55.6795 37.4809 56.0653 37.4809 56.5341V60H36.6428V56.5909C36.6428 56.1577 36.5304 55.8227 36.3055 55.5859C36.0829 55.3468 35.774 55.2273 35.3786 55.2273C35.104 55.2273 34.8578 55.2853 34.64 55.4013C34.4246 55.5173 34.2541 55.6866 34.1286 55.9091C34.0055 56.1316 33.944 56.4015 33.944 56.7188ZM41.23 60.1136C40.7376 60.1136 40.3055 59.9964 39.9339 59.7621C39.5645 59.5277 39.2757 59.1998 39.0674 58.7784C38.8614 58.357 38.7584 57.8646 38.7584 57.3011C38.7584 56.733 38.8614 56.237 39.0674 55.8132C39.2757 55.3894 39.5645 55.0604 39.9339 54.826C40.3055 54.5916 40.7376 54.4744 41.23 54.4744C41.7224 54.4744 42.1533 54.5916 42.5226 54.826C42.8943 55.0604 43.1832 55.3894 43.3891 55.8132C43.5974 56.237 43.7016 56.733 43.7016 57.3011C43.7016 57.8646 43.5974 58.357 43.3891 58.7784C43.1832 59.1998 42.8943 59.5277 42.5226 59.7621C42.1533 59.9964 41.7224 60.1136 41.23 60.1136ZM41.23 59.3608C41.6041 59.3608 41.9118 59.2649 42.1533 59.0732C42.3948 58.8814 42.5735 58.6293 42.6895 58.3168C42.8055 58.0043 42.8635 57.6657 42.8635 57.3011C42.8635 56.9366 42.8055 56.5968 42.6895 56.282C42.5735 55.9671 42.3948 55.7126 42.1533 55.5185C41.9118 55.3243 41.6041 55.2273 41.23 55.2273C40.856 55.2273 40.5482 55.3243 40.3067 55.5185C40.0653 55.7126 39.8865 55.9671 39.7705 56.282C39.6545 56.5968 39.5965 56.9366 39.5965 57.3011C39.5965 57.6657 39.6545 58.0043 39.7705 58.3168C39.8865 58.6293 40.0653 58.8814 40.3067 59.0732C40.5482 59.2649 40.856 59.3608 41.23 59.3608ZM47.3531 54.5455V55.2557H44.5264V54.5455H47.3531ZM45.3502 53.2386H46.1883V58.4375C46.1883 58.6742 46.2226 58.8518 46.2913 58.9702C46.3623 59.0862 46.4523 59.1643 46.5612 59.2045C46.6724 59.2424 46.7896 59.2614 46.9127 59.2614C47.0051 59.2614 47.0808 59.2566 47.14 59.2472C47.1992 59.2353 47.2465 59.2259 47.282 59.2188L47.4525 59.9716C47.3957 59.9929 47.3164 60.0142 47.2146 60.0355C47.1128 60.0592 46.9838 60.071 46.8275 60.071C46.5908 60.071 46.3588 60.0201 46.1315 59.9183C45.9066 59.8165 45.7195 59.6615 45.5704 59.4531C45.4236 59.2448 45.3502 58.982 45.3502 58.6648V53.2386ZM50.771 60.1136C50.2786 60.1136 49.8466 59.9964 49.4749 59.7621C49.1056 59.5277 48.8167 59.1998 48.6084 58.7784C48.4024 58.357 48.2994 57.8646 48.2994 57.3011C48.2994 56.733 48.4024 56.237 48.6084 55.8132C48.8167 55.3894 49.1056 55.0604 49.4749 54.826C49.8466 54.5916 50.2786 54.4744 50.771 54.4744C51.2635 54.4744 51.6943 54.5916 52.0637 54.826C52.4353 55.0604 52.7242 55.3894 52.9301 55.8132C53.1385 56.237 53.2426 56.733 53.2426 57.3011C53.2426 57.8646 53.1385 58.357 52.9301 58.7784C52.7242 59.1998 52.4353 59.5277 52.0637 59.7621C51.6943 59.9964 51.2635 60.1136 50.771 60.1136ZM50.771 59.3608C51.1451 59.3608 51.4529 59.2649 51.6943 59.0732C51.9358 58.8814 52.1146 58.6293 52.2306 58.3168C52.3466 58.0043 52.4046 57.6657 52.4046 57.3011C52.4046 56.9366 52.3466 56.5968 52.2306 56.282C52.1146 55.9671 51.9358 55.7126 51.6943 55.5185C51.4529 55.3243 51.1451 55.2273 50.771 55.2273C50.397 55.2273 50.0892 55.3243 49.8477 55.5185C49.6063 55.7126 49.4275 55.9671 49.3115 56.282C49.1955 56.5968 49.1375 56.9366 49.1375 57.3011C49.1375 57.6657 49.1955 58.0043 49.3115 58.3168C49.4275 58.6293 49.6063 58.8814 49.8477 59.0732C50.0892 59.2649 50.397 59.3608 50.771 59.3608Z" fill="#5549EF"/>
</svg>
