<svg width="22" height="22" viewBox="0 0 22 22" fill="none" xmlns="http://www.w3.org/2000/svg">
<path d="M17 19.4103C17 17.819 16.3679 16.2929 15.2426 15.1676C14.1174 14.0424 12.5913 13.4103 11 13.4103M11 13.4103C9.4087 13.4103 7.88258 14.0424 6.75736 15.1676C5.63214 16.2929 5 17.819 5 19.4103M11 13.4103C13.2091 13.4103 15 11.6194 15 9.41028C15 7.20114 13.2091 5.41028 11 5.41028C8.79086 5.41028 7 7.20114 7 9.41028C7 11.6194 8.79086 13.4103 11 13.4103ZM21 11.4103C21 16.9331 16.5228 21.4103 11 21.4103C5.47715 21.4103 1 16.9331 1 11.4103C1 5.88743 5.47715 1.41028 11 1.41028C16.5228 1.41028 21 5.88743 21 11.4103Z" stroke="#5549EF" stroke-linecap="round" stroke-linejoin="round"/>
</svg>
