<svg width="21" height="24" viewBox="0 0 21 24" fill="none" xmlns="http://www.w3.org/2000/svg">
<path d="M14.1367 22.6186L13.6251 22.5518C13.466 22.5333 13.4931 22.5231 13.3698 22.6241C12.8833 23.0229 12.357 23.2323 11.7281 23.2333L9.04897 23.2323C8.52848 23.2251 7.89647 22.8986 7.55011 22.5453L3.38194 23.2424C2.8923 23.3049 2.75326 22.9721 2.75769 22.5578L2.80045 15.8894L2.92172 13.0942C2.92606 13.0061 2.94456 12.9215 2.95108 12.8343L2.98316 12.2141C3.0067 11.8734 3.07669 11.5194 3.06418 11.1783C3.04496 10.6549 2.93531 10.1251 2.86858 9.60576L2.34815 5.67513C2.26732 5.05631 2.32287 4.90382 2.14301 5.54389L1.93635 6.22993C1.52905 7.62789 1.24765 9.05788 1.06845 10.5002L0.910278 12.4548C0.902867 12.5837 0.877245 12.7104 0.871227 12.8394L0.867902 17.4146C0.881172 17.8381 1.15643 18.8422 0.418067 18.7524C0.102141 18.7141 0.0625518 18.3981 0.0580227 18.1524L0.00329399 16.9668L0 12.878L0.132895 11.1564C0.396752 8.56237 0.914617 5.95997 1.98234 3.55737C2.07346 3.35232 1.99317 3.14663 2.15682 2.95585C2.42736 2.64046 2.99808 2.54588 3.37152 2.39941L5.4032 1.60945C5.46826 1.58601 5.98134 1.40404 5.99284 1.39258C6.01238 1.37303 6.03835 1.20535 6.05108 1.16613C6.21039 0.674635 6.70586 0.315556 7.22313 0.261701C7.29553 0.241227 7.43321 0.251109 7.50757 0.264851L7.52825 0.268803C7.89885 0.327661 8.12476 0.572266 8.40857 0.782656C9.38777 1.5086 11.2902 1.51286 12.3455 0.930203C12.68 0.745507 12.9206 0.44439 13.2886 0.312406C14.0038 0.0559123 14.9202 0.645114 15.0109 1.37473C15.1014 1.42145 15.1956 1.44955 15.2902 1.4863L18.4982 2.71489C18.6755 2.78971 18.8485 2.88152 18.9203 3.06909L18.9302 3.0966C18.9689 3.19258 18.9681 3.28117 18.9837 3.38203C19.0266 3.65906 19.1896 3.92828 19.2937 4.1861L19.999 6.28067C20.0406 6.49649 20.1254 6.70697 20.1707 6.92246L20.6758 9.54919L20.9256 11.7377L21 13.1168L20.9982 15.2429C20.9935 15.3464 20.965 15.446 20.9602 15.5492L20.9159 18.0737C20.9107 18.1731 20.9215 18.2936 20.8975 18.3896L20.8889 18.4157C20.7591 18.8248 20.1718 18.8711 20.0538 18.4224L20.0486 18.4012C20.0135 18.2629 20.0461 18.1162 20.0594 17.9774L20.0913 16.1658C20.0957 15.9671 20.1334 15.7726 20.135 15.5724L20.0772 11.9187C19.9414 9.94125 19.4644 7.01618 18.7235 5.12987L17.9449 11.1333C17.9345 11.2597 17.9539 11.3856 17.965 11.5116L18.0916 13.2949L18.1109 14.3449C18.1166 14.5182 18.1507 14.6889 18.1527 14.8622L18.1617 15.6688C18.1726 16.0496 18.2294 16.4172 18.2312 16.8012L18.2667 22.178C18.266 23.0083 18.245 23.359 17.3623 23.1951L14.1367 22.6186ZM13.6788 1.12506C13.3974 1.1652 13.265 1.3491 13.0471 1.50245C11.7755 2.39734 9.29769 2.47846 8.01803 1.55424C7.75898 1.36716 7.25293 0.864459 6.94638 1.28301L6.91287 1.33335C6.86223 1.41389 6.86894 1.5455 6.89254 1.63391L6.92218 1.72155C7.02692 1.9954 7.07019 2.28373 7.1742 2.55412L7.99801 5.34823C8.07472 5.55497 8.10607 5.78571 8.18763 5.9902L8.38415 6.66331C8.43118 6.79495 8.4532 6.93892 8.50422 7.06979L9.76811 11.3893C9.97949 11.9986 9.90148 12.7178 9.90148 13.3497L9.89838 17.2488C9.89768 17.8574 9.87095 18.3961 9.7861 18.996L9.55667 20.189C9.48665 20.5041 9.43917 20.8322 9.29611 21.1259C9.12603 21.4953 8.79611 21.9448 8.41563 22.1423C8.72966 22.3515 9.05262 22.3817 9.41672 22.3732L11.2656 22.37C11.6794 22.3715 12.2103 22.4309 12.5551 22.1503L12.5288 22.1332C11.8032 21.6474 11.5569 20.8361 11.4172 20.0346C11.2793 19.2433 11.1278 18.4858 11.1256 17.6817L11.1256 12.5978C11.1262 11.6166 11.2613 11.2561 11.5605 10.3028L14.0551 1.81506C14.1703 1.42188 14.1584 1.16107 13.6788 1.12506ZM14.8044 2.22916L12.0127 11.8617C11.9766 11.9649 11.9845 12.107 11.9822 12.2163L11.978 16.8507C11.9778 17.8882 12.0048 18.4179 12.1878 19.4323L12.312 20.0964C12.4547 20.7132 12.6357 21.2972 13.2859 21.5801C13.6372 21.7329 14.089 21.7185 14.47 21.7906L17.4079 22.3261L17.41 21.3586L17.4082 18.0166L17.3217 15.9738C17.3158 15.8636 17.326 15.7438 17.3066 15.6357L15.1417 15.6346C14.2712 15.6324 14.4888 14.8277 14.8682 14.7807L14.8888 14.7777C15.1169 14.7485 15.3726 14.7705 15.6047 14.7706L17.2734 14.7397C17.2593 14.5611 17.2682 14.3776 17.2628 14.1982L17.086 11.4353C17.0555 11.0649 17.1014 10.806 17.1496 10.4369L18.1166 3.48918C17.9987 3.45815 17.8864 3.40445 17.7732 3.36013L14.8044 2.22916ZM6.12621 2.2551L2.87399 3.49351L3.4978 7.70698C3.52254 7.81806 3.52358 7.93562 3.53609 8.04852L3.91511 10.8503C3.94729 11.103 3.95327 11.237 3.92017 11.4884L3.76926 13.5992C3.74943 13.9933 3.71675 14.3794 3.72831 14.7755L5.42832 14.7708C5.66332 14.7712 5.95426 14.7422 6.18217 14.79C6.5438 14.8658 6.592 15.4339 6.247 15.5757L6.18303 15.5987C6.05796 15.6425 5.91559 15.634 5.78457 15.6342L3.68596 15.6343C3.65473 15.9166 3.66883 16.2174 3.66233 16.5024L3.63041 21.3586L3.62129 22.3297L7.03231 21.7236C8.28581 21.5511 8.50938 21.0231 8.74987 19.8339C8.99688 18.6124 9.03384 17.7778 9.0338 16.5325L9.03346 12.9478C9.03342 12.5682 9.07095 12.143 8.97417 11.7734L6.27478 2.54075C6.25742 2.48393 6.20859 2.27159 6.16662 2.24207L6.12621 2.2551Z" fill="#5549EF"/>
</svg>
