<svg width="30" height="30" viewBox="0 0 30 30" fill="none" xmlns="http://www.w3.org/2000/svg">
<path d="M23.917 9.68731C23.0975 9.03252 20.7248 8.20412 20.6169 8.15987L17.1228 7.04699C16.9259 6.97778 16.7105 6.98558 16.5189 7.06887C16.0443 7.26534 15.0092 7.26534 15.0092 7.26534C15.0092 7.26534 13.9739 7.26534 13.4995 7.06887C13.3007 6.98529 13.0787 6.97752 12.8747 7.04699L9.38061 8.15987C9.27271 8.20339 6.92188 9.01088 6.08051 9.68731C6.0384 9.71976 6.01039 9.76747 6.00236 9.8204C5.99434 9.87333 6.00693 9.92734 6.03749 9.97106L7.95718 13.3535C7.98286 13.3975 8.02196 13.432 8.06863 13.4517C8.11529 13.4713 8.167 13.4752 8.21601 13.4626C8.36694 13.4189 8.84085 13.3318 9.07877 13.4626C9.1205 13.4856 9.15727 13.5168 9.18691 13.5544C9.21654 13.592 9.23844 13.6352 9.25132 13.6815L9.07877 22.7812C9.07994 22.8389 9.1031 22.8938 9.14341 22.9346C9.18372 22.9754 9.23806 22.9989 9.29506 23H20.7048C20.7332 23.0008 20.7613 22.9954 20.7874 22.9841C20.8135 22.9728 20.8368 22.9559 20.8558 22.9346C20.895 22.8934 20.918 22.8391 20.9204 22.7819L20.7478 13.6822C20.7785 13.5912 20.8395 13.5138 20.9204 13.4634C21.1977 13.3534 21.5058 13.3534 21.7832 13.4634C21.8321 13.4718 21.8824 13.466 21.9282 13.4467C21.974 13.4274 22.0135 13.3953 22.042 13.3542L23.9617 9.97179C23.9772 9.95015 23.9884 9.92562 23.9946 9.8996C24.0007 9.87359 24.0018 9.8466 23.9976 9.82017C23.9935 9.79375 23.9842 9.76842 23.9704 9.74562C23.9565 9.72282 23.9384 9.70301 23.917 9.68731ZM13.3483 7.48319C13.8876 7.70202 14.9659 7.70202 15.0092 7.70202C15.0525 7.70202 16.1308 7.70202 16.6701 7.46204C16.7459 7.43402 16.8277 7.42648 16.9073 7.44016C16.821 8.0947 16.4112 10.1461 14.9876 10.8007C13.5641 10.1461 13.1542 8.11659 13.0679 7.44016C13.1628 7.44221 13.2571 7.45667 13.3483 7.48319ZM9.31501 13.0916C8.98888 12.9477 8.62487 12.917 8.2797 13.0043L6.53256 9.92754C7.26578 9.42569 8.83965 8.83654 9.37965 8.66197C9.73284 9.40668 10.0006 10.1898 10.1778 10.9962C10.3071 11.7599 10.3287 12.7201 9.98358 13.2219C9.90204 13.3381 9.78999 13.4288 9.66011 13.4838C9.59347 13.3165 9.47148 13.1779 9.31501 13.0916ZM9.53129 22.5405L9.70385 13.8772C9.95254 13.8023 10.1713 13.6495 10.3287 13.4408C10.868 12.6989 10.6954 11.3896 10.6091 10.8658C10.4272 10.0465 10.1597 9.24916 9.81103 8.48714L12.6798 7.59237C12.7877 8.39985 13.2621 10.5602 14.9229 11.2585C14.9482 11.2759 14.9788 11.2837 15.0092 11.2804H15.0308C15.0612 11.2837 15.0918 11.2759 15.1171 11.2585C16.778 10.5602 17.2307 8.39985 17.3603 7.59237L20.2504 8.50878C19.8922 9.2669 19.6242 10.0654 19.4523 10.8875C19.366 11.4112 19.1934 12.7206 19.7327 13.4624C19.8814 13.6801 20.1036 13.8353 20.3576 13.8988L20.5085 22.5621H9.53009V22.5405H9.53129ZM21.7606 13.0043C21.4154 12.917 21.0514 12.9477 20.7253 13.0916C20.58 13.1759 20.4663 13.3063 20.4018 13.4626C20.2677 13.4151 20.1536 13.3227 20.0783 13.2008C19.7116 12.6989 19.7332 11.7176 19.8841 10.975C20.0649 10.1697 20.3325 9.38697 20.6822 8.64081C21.2215 8.83727 22.7745 9.42642 23.5293 9.90639L21.7606 13.0043Z" fill="white" stroke="white" stroke-width="0.7"/>
</svg>
