<svg width="30" height="30" viewBox="0 0 30 30" fill="none" xmlns="http://www.w3.org/2000/svg">
<path d="M11.85 9.18439C11.9421 9.18494 12.0334 9.1666 12.1187 9.13041C12.204 9.09423 12.2816 9.04091 12.347 8.97352L13.047 8.24638C13.1788 8.10946 13.2529 7.92375 13.2529 7.73011C13.2529 7.53647 13.1788 7.35077 13.047 7.21385C12.9152 7.07692 12.7364 7 12.55 7C12.3636 7 12.1848 7.07692 12.053 7.21385L11.353 7.94098C11.2874 8.00858 11.2353 8.089 11.1998 8.17761C11.1642 8.26622 11.1459 8.36126 11.1459 8.45725C11.1459 8.55324 11.1642 8.64828 11.1998 8.73689C11.2353 8.8255 11.2874 8.90592 11.353 8.97352C11.4184 9.04091 11.496 9.09423 11.5813 9.13041C11.6666 9.1666 11.7579 9.18494 11.85 9.18439ZM14.65 9.18439C14.7421 9.18494 14.8334 9.1666 14.9187 9.13041C15.004 9.09423 15.0816 9.04091 15.147 8.97352L15.847 8.24638C15.9788 8.10946 16.0529 7.92375 16.0529 7.73011C16.0529 7.53647 15.9788 7.35077 15.847 7.21385C15.7152 7.07692 15.5364 7 15.35 7C15.1636 7 14.9848 7.07692 14.853 7.21385L14.153 7.94098C14.0874 8.00858 14.0353 8.089 13.9998 8.17761C13.9642 8.26622 13.9459 8.36126 13.9459 8.45725C13.9459 8.55324 13.9642 8.64828 13.9998 8.73689C14.0353 8.8255 14.0874 8.90592 14.153 8.97352C14.2184 9.04091 14.296 9.09423 14.3813 9.13041C14.4666 9.1666 14.5579 9.18494 14.65 9.18439ZM17.45 9.18439C17.5421 9.18494 17.6334 9.1666 17.7187 9.13041C17.804 9.09423 17.8816 9.04091 17.947 8.97352L18.647 8.24638C18.7123 8.17858 18.764 8.0981 18.7994 8.00951C18.8347 7.92093 18.8529 7.82599 18.8529 7.73011C18.8529 7.63423 18.8347 7.53929 18.7994 7.45071C18.764 7.36213 18.7123 7.28164 18.647 7.21385C18.5817 7.14605 18.5042 7.09227 18.419 7.05558C18.3337 7.01888 18.2423 7 18.15 7C18.0577 7 17.9663 7.01888 17.881 7.05558C17.7958 7.09227 17.7183 7.14605 17.653 7.21385L16.953 7.94098C16.8874 8.00858 16.8353 8.089 16.7998 8.17761C16.7642 8.26622 16.7459 8.36126 16.7459 8.45725C16.7459 8.55324 16.7642 8.64828 16.7998 8.73689C16.8353 8.8255 16.8874 8.90592 16.953 8.97352C17.0184 9.04091 17.096 9.09423 17.1813 9.13041C17.2666 9.1666 17.3579 9.18494 17.45 9.18439ZM19.144 17.6337C19.1287 17.5874 19.1075 17.5434 19.081 17.5028L18.997 17.3938L18.892 17.3065C18.853 17.279 18.8106 17.257 18.766 17.2411C18.7243 17.2189 18.6794 17.2042 18.633 17.1974C18.5205 17.1741 18.4043 17.1797 18.2944 17.214C18.1846 17.2482 18.0845 17.3099 18.003 17.3938C17.9729 17.4283 17.9448 17.4647 17.919 17.5028C17.8925 17.5434 17.8713 17.5874 17.856 17.6337C17.8358 17.6749 17.8217 17.7191 17.814 17.7646C17.8106 17.813 17.8106 17.8616 17.814 17.91C17.8148 18.1008 17.8877 18.2836 18.017 18.419C18.0817 18.4894 18.1606 18.544 18.248 18.579C18.3278 18.6145 18.4133 18.6342 18.5 18.6372C18.6857 18.6372 18.8637 18.5606 18.995 18.4242C19.1263 18.2878 19.2 18.1029 19.2 17.91C19.2034 17.8616 19.2034 17.813 19.2 17.7646C19.1879 17.7182 19.1691 17.6741 19.144 17.6337ZM20.432 14.3543L19.48 11.4022C19.3348 10.9755 19.0654 10.6063 18.7092 10.3457C18.353 10.0852 17.9277 9.94614 17.492 9.94788H12.508C12.0723 9.94614 11.647 10.0852 11.2908 10.3457C10.9346 10.6063 10.6652 10.9755 10.52 11.4022L9.568 14.3543C9.12023 14.4761 8.72374 14.7482 8.44018 15.1282C8.15662 15.5083 8.00187 15.975 8 16.4558V19.3643C8.00122 19.8144 8.13641 20.253 8.38706 20.6201C8.6377 20.9872 8.99152 21.2648 9.4 21.4148V22.2729C9.4 22.4657 9.47375 22.6507 9.60503 22.787C9.7363 22.9234 9.91435 23 10.1 23C10.2857 23 10.4637 22.9234 10.595 22.787C10.7262 22.6507 10.8 22.4657 10.8 22.2729V21.5457H19.2V22.2729C19.2 22.4657 19.2737 22.6507 19.405 22.787C19.5363 22.9234 19.7143 23 19.9 23C20.0857 23 20.2637 22.9234 20.395 22.787C20.5263 22.6507 20.6 22.4657 20.6 22.2729V21.4148C21.0085 21.2648 21.3623 20.9872 21.6129 20.6201C21.8636 20.253 21.9988 19.8144 22 19.3643V16.4558C21.9981 15.975 21.8434 15.5083 21.5598 15.1282C21.2763 14.7482 20.8798 14.4761 20.432 14.3543ZM11.843 11.8603C11.89 11.7158 11.9794 11.5904 12.0988 11.5017C12.2181 11.4129 12.3612 11.3654 12.508 11.3658H17.492C17.6446 11.3575 17.7957 11.4014 17.9221 11.4907C18.0485 11.5799 18.1433 11.7098 18.192 11.8603L18.927 14.2744H11.073L11.843 11.8603ZM20.6 19.3643C20.6 19.5572 20.5263 19.7421 20.395 19.8785C20.2637 20.0148 20.0857 20.0914 19.9 20.0914H10.1C9.91435 20.0914 9.7363 20.0148 9.60503 19.8785C9.47375 19.7421 9.4 19.5572 9.4 19.3643V16.4558C9.4 16.2629 9.47375 16.078 9.60503 15.9416C9.7363 15.8052 9.91435 15.7286 10.1 15.7286H19.9C20.0857 15.7286 20.2637 15.8052 20.395 15.9416C20.5263 16.078 20.6 16.2629 20.6 16.4558V19.3643ZM15.7 17.1829H14.3C14.1143 17.1829 13.9363 17.2595 13.805 17.3959C13.6737 17.5322 13.6 17.7172 13.6 17.91C13.6 18.1029 13.6737 18.2878 13.805 18.4242C13.9363 18.5606 14.1143 18.6372 14.3 18.6372H15.7C15.8857 18.6372 16.0637 18.5606 16.195 18.4242C16.3263 18.2878 16.4 18.1029 16.4 17.91C16.4 17.7172 16.3263 17.5322 16.195 17.3959C16.0637 17.2595 15.8857 17.1829 15.7 17.1829ZM12.144 17.6337C12.1287 17.5874 12.1075 17.5434 12.081 17.5028L11.997 17.3938C11.8986 17.2929 11.7736 17.2245 11.6378 17.1973C11.502 17.1702 11.3615 17.1854 11.234 17.2411C11.1481 17.2757 11.0696 17.3276 11.003 17.3938C10.9729 17.4283 10.9448 17.4647 10.919 17.5028C10.8925 17.5434 10.8713 17.5874 10.856 17.6337C10.8309 17.6741 10.8121 17.7182 10.8 17.7646C10.7966 17.813 10.7966 17.8616 10.8 17.91C10.8006 18.0538 10.8422 18.1942 10.9196 18.3135C10.997 18.4327 11.1067 18.5254 11.2348 18.5799C11.3629 18.6344 11.5037 18.6482 11.6394 18.6196C11.7751 18.5909 11.8995 18.5211 11.997 18.419C12.1263 18.2836 12.1992 18.1008 12.2 17.91C12.2034 17.8616 12.2034 17.813 12.2 17.7646C12.1879 17.7182 12.1691 17.6741 12.144 17.6337Z" fill="white"/>
</svg>
